%TF.GenerationSoftware,KiCad,Pcbnew,7.0.9*%
%TF.CreationDate,2023-11-18T03:00:16-05:00*%
%TF.ProjectId,RLM,524c4d2e-6b69-4636-9164-5f7063625858,rev?*%
%TF.SameCoordinates,Original*%
%TF.FileFunction,Drillmap*%
%TF.FilePolarity,Positive*%
%FSLAX45Y45*%
G04 Gerber Fmt 4.5, Leading zero omitted, Abs format (unit mm)*
G04 Created by KiCad (PCBNEW 7.0.9) date 2023-11-18 03:00:16*
%MOMM*%
%LPD*%
G01*
G04 APERTURE LIST*
%ADD10C,0.100000*%
%ADD11C,0.200000*%
%ADD12C,0.127000*%
G04 APERTURE END LIST*
D10*
X16256000Y-3683000D02*
X16256000Y-8572500D01*
X7366000Y-8572500D02*
G75*
G03*
X7874000Y-9080500I508000J0D01*
G01*
X15748000Y-9080500D02*
G75*
G03*
X16256000Y-8572500I0J508000D01*
G01*
X7366000Y-8572500D02*
X7366000Y-3683000D01*
X16256000Y-3683000D02*
G75*
G03*
X15748000Y-3175000I-508000J0D01*
G01*
X15748000Y-9080500D02*
X7874000Y-9080500D01*
X7874000Y-3175000D02*
X15748000Y-3175000D01*
X7874000Y-3175000D02*
G75*
G03*
X7366000Y-3683000I0J-508000D01*
G01*
D11*
D12*
X7556500Y-5467500D02*
X7683500Y-5594500D01*
X7683500Y-5467500D02*
X7556500Y-5594500D01*
X7556500Y-6667500D02*
X7683500Y-6794500D01*
X7683500Y-6667500D02*
X7556500Y-6794500D01*
X13814500Y-8768500D02*
X13941500Y-8895500D01*
X13941500Y-8768500D02*
X13814500Y-8895500D01*
X15014500Y-8768500D02*
X15141500Y-8895500D01*
X15141500Y-8768500D02*
X15014500Y-8895500D01*
D11*
X7621777Y-9396984D02*
X7621777Y-9196984D01*
X7621777Y-9196984D02*
X7669396Y-9196984D01*
X7669396Y-9196984D02*
X7697967Y-9206508D01*
X7697967Y-9206508D02*
X7717015Y-9225555D01*
X7717015Y-9225555D02*
X7726539Y-9244603D01*
X7726539Y-9244603D02*
X7736062Y-9282698D01*
X7736062Y-9282698D02*
X7736062Y-9311270D01*
X7736062Y-9311270D02*
X7726539Y-9349365D01*
X7726539Y-9349365D02*
X7717015Y-9368412D01*
X7717015Y-9368412D02*
X7697967Y-9387460D01*
X7697967Y-9387460D02*
X7669396Y-9396984D01*
X7669396Y-9396984D02*
X7621777Y-9396984D01*
X7821777Y-9396984D02*
X7821777Y-9263650D01*
X7821777Y-9301746D02*
X7831301Y-9282698D01*
X7831301Y-9282698D02*
X7840824Y-9273174D01*
X7840824Y-9273174D02*
X7859872Y-9263650D01*
X7859872Y-9263650D02*
X7878920Y-9263650D01*
X7945586Y-9396984D02*
X7945586Y-9263650D01*
X7945586Y-9196984D02*
X7936062Y-9206508D01*
X7936062Y-9206508D02*
X7945586Y-9216031D01*
X7945586Y-9216031D02*
X7955110Y-9206508D01*
X7955110Y-9206508D02*
X7945586Y-9196984D01*
X7945586Y-9196984D02*
X7945586Y-9216031D01*
X8069396Y-9396984D02*
X8050348Y-9387460D01*
X8050348Y-9387460D02*
X8040824Y-9368412D01*
X8040824Y-9368412D02*
X8040824Y-9196984D01*
X8174158Y-9396984D02*
X8155110Y-9387460D01*
X8155110Y-9387460D02*
X8145586Y-9368412D01*
X8145586Y-9368412D02*
X8145586Y-9196984D01*
X8402729Y-9396984D02*
X8402729Y-9196984D01*
X8402729Y-9196984D02*
X8469396Y-9339841D01*
X8469396Y-9339841D02*
X8536063Y-9196984D01*
X8536063Y-9196984D02*
X8536063Y-9396984D01*
X8717015Y-9396984D02*
X8717015Y-9292222D01*
X8717015Y-9292222D02*
X8707491Y-9273174D01*
X8707491Y-9273174D02*
X8688444Y-9263650D01*
X8688444Y-9263650D02*
X8650348Y-9263650D01*
X8650348Y-9263650D02*
X8631301Y-9273174D01*
X8717015Y-9387460D02*
X8697967Y-9396984D01*
X8697967Y-9396984D02*
X8650348Y-9396984D01*
X8650348Y-9396984D02*
X8631301Y-9387460D01*
X8631301Y-9387460D02*
X8621777Y-9368412D01*
X8621777Y-9368412D02*
X8621777Y-9349365D01*
X8621777Y-9349365D02*
X8631301Y-9330317D01*
X8631301Y-9330317D02*
X8650348Y-9320793D01*
X8650348Y-9320793D02*
X8697967Y-9320793D01*
X8697967Y-9320793D02*
X8717015Y-9311270D01*
X8812253Y-9263650D02*
X8812253Y-9463650D01*
X8812253Y-9273174D02*
X8831301Y-9263650D01*
X8831301Y-9263650D02*
X8869396Y-9263650D01*
X8869396Y-9263650D02*
X8888444Y-9273174D01*
X8888444Y-9273174D02*
X8897967Y-9282698D01*
X8897967Y-9282698D02*
X8907491Y-9301746D01*
X8907491Y-9301746D02*
X8907491Y-9358889D01*
X8907491Y-9358889D02*
X8897967Y-9377936D01*
X8897967Y-9377936D02*
X8888444Y-9387460D01*
X8888444Y-9387460D02*
X8869396Y-9396984D01*
X8869396Y-9396984D02*
X8831301Y-9396984D01*
X8831301Y-9396984D02*
X8812253Y-9387460D01*
X8993205Y-9377936D02*
X9002729Y-9387460D01*
X9002729Y-9387460D02*
X8993205Y-9396984D01*
X8993205Y-9396984D02*
X8983682Y-9387460D01*
X8983682Y-9387460D02*
X8993205Y-9377936D01*
X8993205Y-9377936D02*
X8993205Y-9396984D01*
X8993205Y-9273174D02*
X9002729Y-9282698D01*
X9002729Y-9282698D02*
X8993205Y-9292222D01*
X8993205Y-9292222D02*
X8983682Y-9282698D01*
X8983682Y-9282698D02*
X8993205Y-9273174D01*
X8993205Y-9273174D02*
X8993205Y-9292222D01*
D12*
X7234000Y-9662000D02*
X7361000Y-9789000D01*
X7361000Y-9662000D02*
X7234000Y-9789000D01*
D11*
X7726539Y-9816984D02*
X7612253Y-9816984D01*
X7669396Y-9816984D02*
X7669396Y-9616984D01*
X7669396Y-9616984D02*
X7650348Y-9645555D01*
X7650348Y-9645555D02*
X7631301Y-9664603D01*
X7631301Y-9664603D02*
X7612253Y-9674127D01*
X7812253Y-9797936D02*
X7821777Y-9807460D01*
X7821777Y-9807460D02*
X7812253Y-9816984D01*
X7812253Y-9816984D02*
X7802729Y-9807460D01*
X7802729Y-9807460D02*
X7812253Y-9797936D01*
X7812253Y-9797936D02*
X7812253Y-9816984D01*
X7897967Y-9636031D02*
X7907491Y-9626508D01*
X7907491Y-9626508D02*
X7926539Y-9616984D01*
X7926539Y-9616984D02*
X7974158Y-9616984D01*
X7974158Y-9616984D02*
X7993205Y-9626508D01*
X7993205Y-9626508D02*
X8002729Y-9636031D01*
X8002729Y-9636031D02*
X8012253Y-9655079D01*
X8012253Y-9655079D02*
X8012253Y-9674127D01*
X8012253Y-9674127D02*
X8002729Y-9702698D01*
X8002729Y-9702698D02*
X7888443Y-9816984D01*
X7888443Y-9816984D02*
X8012253Y-9816984D01*
X8078920Y-9616984D02*
X8212253Y-9616984D01*
X8212253Y-9616984D02*
X8126539Y-9816984D01*
X8326539Y-9616984D02*
X8345586Y-9616984D01*
X8345586Y-9616984D02*
X8364634Y-9626508D01*
X8364634Y-9626508D02*
X8374158Y-9636031D01*
X8374158Y-9636031D02*
X8383682Y-9655079D01*
X8383682Y-9655079D02*
X8393205Y-9693174D01*
X8393205Y-9693174D02*
X8393205Y-9740793D01*
X8393205Y-9740793D02*
X8383682Y-9778889D01*
X8383682Y-9778889D02*
X8374158Y-9797936D01*
X8374158Y-9797936D02*
X8364634Y-9807460D01*
X8364634Y-9807460D02*
X8345586Y-9816984D01*
X8345586Y-9816984D02*
X8326539Y-9816984D01*
X8326539Y-9816984D02*
X8307491Y-9807460D01*
X8307491Y-9807460D02*
X8297967Y-9797936D01*
X8297967Y-9797936D02*
X8288443Y-9778889D01*
X8288443Y-9778889D02*
X8278920Y-9740793D01*
X8278920Y-9740793D02*
X8278920Y-9693174D01*
X8278920Y-9693174D02*
X8288443Y-9655079D01*
X8288443Y-9655079D02*
X8297967Y-9636031D01*
X8297967Y-9636031D02*
X8307491Y-9626508D01*
X8307491Y-9626508D02*
X8326539Y-9616984D01*
X8478920Y-9816984D02*
X8478920Y-9683650D01*
X8478920Y-9702698D02*
X8488444Y-9693174D01*
X8488444Y-9693174D02*
X8507491Y-9683650D01*
X8507491Y-9683650D02*
X8536063Y-9683650D01*
X8536063Y-9683650D02*
X8555110Y-9693174D01*
X8555110Y-9693174D02*
X8564634Y-9712222D01*
X8564634Y-9712222D02*
X8564634Y-9816984D01*
X8564634Y-9712222D02*
X8574158Y-9693174D01*
X8574158Y-9693174D02*
X8593205Y-9683650D01*
X8593205Y-9683650D02*
X8621777Y-9683650D01*
X8621777Y-9683650D02*
X8640825Y-9693174D01*
X8640825Y-9693174D02*
X8650348Y-9712222D01*
X8650348Y-9712222D02*
X8650348Y-9816984D01*
X8745586Y-9816984D02*
X8745586Y-9683650D01*
X8745586Y-9702698D02*
X8755110Y-9693174D01*
X8755110Y-9693174D02*
X8774158Y-9683650D01*
X8774158Y-9683650D02*
X8802729Y-9683650D01*
X8802729Y-9683650D02*
X8821777Y-9693174D01*
X8821777Y-9693174D02*
X8831301Y-9712222D01*
X8831301Y-9712222D02*
X8831301Y-9816984D01*
X8831301Y-9712222D02*
X8840825Y-9693174D01*
X8840825Y-9693174D02*
X8859872Y-9683650D01*
X8859872Y-9683650D02*
X8888444Y-9683650D01*
X8888444Y-9683650D02*
X8907491Y-9693174D01*
X8907491Y-9693174D02*
X8917015Y-9712222D01*
X8917015Y-9712222D02*
X8917015Y-9816984D01*
X9307491Y-9607460D02*
X9136063Y-9864603D01*
X9564634Y-9616984D02*
X9583682Y-9616984D01*
X9583682Y-9616984D02*
X9602729Y-9626508D01*
X9602729Y-9626508D02*
X9612253Y-9636031D01*
X9612253Y-9636031D02*
X9621777Y-9655079D01*
X9621777Y-9655079D02*
X9631301Y-9693174D01*
X9631301Y-9693174D02*
X9631301Y-9740793D01*
X9631301Y-9740793D02*
X9621777Y-9778889D01*
X9621777Y-9778889D02*
X9612253Y-9797936D01*
X9612253Y-9797936D02*
X9602729Y-9807460D01*
X9602729Y-9807460D02*
X9583682Y-9816984D01*
X9583682Y-9816984D02*
X9564634Y-9816984D01*
X9564634Y-9816984D02*
X9545587Y-9807460D01*
X9545587Y-9807460D02*
X9536063Y-9797936D01*
X9536063Y-9797936D02*
X9526539Y-9778889D01*
X9526539Y-9778889D02*
X9517015Y-9740793D01*
X9517015Y-9740793D02*
X9517015Y-9693174D01*
X9517015Y-9693174D02*
X9526539Y-9655079D01*
X9526539Y-9655079D02*
X9536063Y-9636031D01*
X9536063Y-9636031D02*
X9545587Y-9626508D01*
X9545587Y-9626508D02*
X9564634Y-9616984D01*
X9717015Y-9797936D02*
X9726539Y-9807460D01*
X9726539Y-9807460D02*
X9717015Y-9816984D01*
X9717015Y-9816984D02*
X9707491Y-9807460D01*
X9707491Y-9807460D02*
X9717015Y-9797936D01*
X9717015Y-9797936D02*
X9717015Y-9816984D01*
X9850348Y-9616984D02*
X9869396Y-9616984D01*
X9869396Y-9616984D02*
X9888444Y-9626508D01*
X9888444Y-9626508D02*
X9897968Y-9636031D01*
X9897968Y-9636031D02*
X9907491Y-9655079D01*
X9907491Y-9655079D02*
X9917015Y-9693174D01*
X9917015Y-9693174D02*
X9917015Y-9740793D01*
X9917015Y-9740793D02*
X9907491Y-9778889D01*
X9907491Y-9778889D02*
X9897968Y-9797936D01*
X9897968Y-9797936D02*
X9888444Y-9807460D01*
X9888444Y-9807460D02*
X9869396Y-9816984D01*
X9869396Y-9816984D02*
X9850348Y-9816984D01*
X9850348Y-9816984D02*
X9831301Y-9807460D01*
X9831301Y-9807460D02*
X9821777Y-9797936D01*
X9821777Y-9797936D02*
X9812253Y-9778889D01*
X9812253Y-9778889D02*
X9802729Y-9740793D01*
X9802729Y-9740793D02*
X9802729Y-9693174D01*
X9802729Y-9693174D02*
X9812253Y-9655079D01*
X9812253Y-9655079D02*
X9821777Y-9636031D01*
X9821777Y-9636031D02*
X9831301Y-9626508D01*
X9831301Y-9626508D02*
X9850348Y-9616984D01*
X10097968Y-9616984D02*
X10002729Y-9616984D01*
X10002729Y-9616984D02*
X9993206Y-9712222D01*
X9993206Y-9712222D02*
X10002729Y-9702698D01*
X10002729Y-9702698D02*
X10021777Y-9693174D01*
X10021777Y-9693174D02*
X10069396Y-9693174D01*
X10069396Y-9693174D02*
X10088444Y-9702698D01*
X10088444Y-9702698D02*
X10097968Y-9712222D01*
X10097968Y-9712222D02*
X10107491Y-9731270D01*
X10107491Y-9731270D02*
X10107491Y-9778889D01*
X10107491Y-9778889D02*
X10097968Y-9797936D01*
X10097968Y-9797936D02*
X10088444Y-9807460D01*
X10088444Y-9807460D02*
X10069396Y-9816984D01*
X10069396Y-9816984D02*
X10021777Y-9816984D01*
X10021777Y-9816984D02*
X10002729Y-9807460D01*
X10002729Y-9807460D02*
X9993206Y-9797936D01*
X10231301Y-9616984D02*
X10250349Y-9616984D01*
X10250349Y-9616984D02*
X10269396Y-9626508D01*
X10269396Y-9626508D02*
X10278920Y-9636031D01*
X10278920Y-9636031D02*
X10288444Y-9655079D01*
X10288444Y-9655079D02*
X10297968Y-9693174D01*
X10297968Y-9693174D02*
X10297968Y-9740793D01*
X10297968Y-9740793D02*
X10288444Y-9778889D01*
X10288444Y-9778889D02*
X10278920Y-9797936D01*
X10278920Y-9797936D02*
X10269396Y-9807460D01*
X10269396Y-9807460D02*
X10250349Y-9816984D01*
X10250349Y-9816984D02*
X10231301Y-9816984D01*
X10231301Y-9816984D02*
X10212253Y-9807460D01*
X10212253Y-9807460D02*
X10202729Y-9797936D01*
X10202729Y-9797936D02*
X10193206Y-9778889D01*
X10193206Y-9778889D02*
X10183682Y-9740793D01*
X10183682Y-9740793D02*
X10183682Y-9693174D01*
X10183682Y-9693174D02*
X10193206Y-9655079D01*
X10193206Y-9655079D02*
X10202729Y-9636031D01*
X10202729Y-9636031D02*
X10212253Y-9626508D01*
X10212253Y-9626508D02*
X10231301Y-9616984D01*
X10421777Y-9616984D02*
X10440825Y-9616984D01*
X10440825Y-9616984D02*
X10459872Y-9626508D01*
X10459872Y-9626508D02*
X10469396Y-9636031D01*
X10469396Y-9636031D02*
X10478920Y-9655079D01*
X10478920Y-9655079D02*
X10488444Y-9693174D01*
X10488444Y-9693174D02*
X10488444Y-9740793D01*
X10488444Y-9740793D02*
X10478920Y-9778889D01*
X10478920Y-9778889D02*
X10469396Y-9797936D01*
X10469396Y-9797936D02*
X10459872Y-9807460D01*
X10459872Y-9807460D02*
X10440825Y-9816984D01*
X10440825Y-9816984D02*
X10421777Y-9816984D01*
X10421777Y-9816984D02*
X10402729Y-9807460D01*
X10402729Y-9807460D02*
X10393206Y-9797936D01*
X10393206Y-9797936D02*
X10383682Y-9778889D01*
X10383682Y-9778889D02*
X10374158Y-9740793D01*
X10374158Y-9740793D02*
X10374158Y-9693174D01*
X10374158Y-9693174D02*
X10383682Y-9655079D01*
X10383682Y-9655079D02*
X10393206Y-9636031D01*
X10393206Y-9636031D02*
X10402729Y-9626508D01*
X10402729Y-9626508D02*
X10421777Y-9616984D01*
X10564634Y-9616984D02*
X10564634Y-9655079D01*
X10640825Y-9616984D02*
X10640825Y-9655079D01*
X10936063Y-9893174D02*
X10926539Y-9883650D01*
X10926539Y-9883650D02*
X10907491Y-9855079D01*
X10907491Y-9855079D02*
X10897968Y-9836031D01*
X10897968Y-9836031D02*
X10888444Y-9807460D01*
X10888444Y-9807460D02*
X10878920Y-9759841D01*
X10878920Y-9759841D02*
X10878920Y-9721746D01*
X10878920Y-9721746D02*
X10888444Y-9674127D01*
X10888444Y-9674127D02*
X10897968Y-9645555D01*
X10897968Y-9645555D02*
X10907491Y-9626508D01*
X10907491Y-9626508D02*
X10926539Y-9597936D01*
X10926539Y-9597936D02*
X10936063Y-9588412D01*
X11097968Y-9683650D02*
X11097968Y-9816984D01*
X11050349Y-9607460D02*
X11002730Y-9750317D01*
X11002730Y-9750317D02*
X11126539Y-9750317D01*
X11355110Y-9816984D02*
X11355110Y-9616984D01*
X11440825Y-9816984D02*
X11440825Y-9712222D01*
X11440825Y-9712222D02*
X11431301Y-9693174D01*
X11431301Y-9693174D02*
X11412253Y-9683650D01*
X11412253Y-9683650D02*
X11383682Y-9683650D01*
X11383682Y-9683650D02*
X11364634Y-9693174D01*
X11364634Y-9693174D02*
X11355110Y-9702698D01*
X11564634Y-9816984D02*
X11545587Y-9807460D01*
X11545587Y-9807460D02*
X11536063Y-9797936D01*
X11536063Y-9797936D02*
X11526539Y-9778889D01*
X11526539Y-9778889D02*
X11526539Y-9721746D01*
X11526539Y-9721746D02*
X11536063Y-9702698D01*
X11536063Y-9702698D02*
X11545587Y-9693174D01*
X11545587Y-9693174D02*
X11564634Y-9683650D01*
X11564634Y-9683650D02*
X11593206Y-9683650D01*
X11593206Y-9683650D02*
X11612253Y-9693174D01*
X11612253Y-9693174D02*
X11621777Y-9702698D01*
X11621777Y-9702698D02*
X11631301Y-9721746D01*
X11631301Y-9721746D02*
X11631301Y-9778889D01*
X11631301Y-9778889D02*
X11621777Y-9797936D01*
X11621777Y-9797936D02*
X11612253Y-9807460D01*
X11612253Y-9807460D02*
X11593206Y-9816984D01*
X11593206Y-9816984D02*
X11564634Y-9816984D01*
X11745587Y-9816984D02*
X11726539Y-9807460D01*
X11726539Y-9807460D02*
X11717015Y-9788412D01*
X11717015Y-9788412D02*
X11717015Y-9616984D01*
X11897968Y-9807460D02*
X11878920Y-9816984D01*
X11878920Y-9816984D02*
X11840825Y-9816984D01*
X11840825Y-9816984D02*
X11821777Y-9807460D01*
X11821777Y-9807460D02*
X11812253Y-9788412D01*
X11812253Y-9788412D02*
X11812253Y-9712222D01*
X11812253Y-9712222D02*
X11821777Y-9693174D01*
X11821777Y-9693174D02*
X11840825Y-9683650D01*
X11840825Y-9683650D02*
X11878920Y-9683650D01*
X11878920Y-9683650D02*
X11897968Y-9693174D01*
X11897968Y-9693174D02*
X11907491Y-9712222D01*
X11907491Y-9712222D02*
X11907491Y-9731270D01*
X11907491Y-9731270D02*
X11812253Y-9750317D01*
X11983682Y-9807460D02*
X12002730Y-9816984D01*
X12002730Y-9816984D02*
X12040825Y-9816984D01*
X12040825Y-9816984D02*
X12059872Y-9807460D01*
X12059872Y-9807460D02*
X12069396Y-9788412D01*
X12069396Y-9788412D02*
X12069396Y-9778889D01*
X12069396Y-9778889D02*
X12059872Y-9759841D01*
X12059872Y-9759841D02*
X12040825Y-9750317D01*
X12040825Y-9750317D02*
X12012253Y-9750317D01*
X12012253Y-9750317D02*
X11993206Y-9740793D01*
X11993206Y-9740793D02*
X11983682Y-9721746D01*
X11983682Y-9721746D02*
X11983682Y-9712222D01*
X11983682Y-9712222D02*
X11993206Y-9693174D01*
X11993206Y-9693174D02*
X12012253Y-9683650D01*
X12012253Y-9683650D02*
X12040825Y-9683650D01*
X12040825Y-9683650D02*
X12059872Y-9693174D01*
X12136063Y-9893174D02*
X12145587Y-9883650D01*
X12145587Y-9883650D02*
X12164634Y-9855079D01*
X12164634Y-9855079D02*
X12174158Y-9836031D01*
X12174158Y-9836031D02*
X12183682Y-9807460D01*
X12183682Y-9807460D02*
X12193206Y-9759841D01*
X12193206Y-9759841D02*
X12193206Y-9721746D01*
X12193206Y-9721746D02*
X12183682Y-9674127D01*
X12183682Y-9674127D02*
X12174158Y-9645555D01*
X12174158Y-9645555D02*
X12164634Y-9626508D01*
X12164634Y-9626508D02*
X12145587Y-9597936D01*
X12145587Y-9597936D02*
X12136063Y-9588412D01*
X12497968Y-9893174D02*
X12488444Y-9883650D01*
X12488444Y-9883650D02*
X12469396Y-9855079D01*
X12469396Y-9855079D02*
X12459872Y-9836031D01*
X12459872Y-9836031D02*
X12450349Y-9807460D01*
X12450349Y-9807460D02*
X12440825Y-9759841D01*
X12440825Y-9759841D02*
X12440825Y-9721746D01*
X12440825Y-9721746D02*
X12450349Y-9674127D01*
X12450349Y-9674127D02*
X12459872Y-9645555D01*
X12459872Y-9645555D02*
X12469396Y-9626508D01*
X12469396Y-9626508D02*
X12488444Y-9597936D01*
X12488444Y-9597936D02*
X12497968Y-9588412D01*
X12574158Y-9683650D02*
X12574158Y-9816984D01*
X12574158Y-9702698D02*
X12583682Y-9693174D01*
X12583682Y-9693174D02*
X12602730Y-9683650D01*
X12602730Y-9683650D02*
X12631301Y-9683650D01*
X12631301Y-9683650D02*
X12650349Y-9693174D01*
X12650349Y-9693174D02*
X12659872Y-9712222D01*
X12659872Y-9712222D02*
X12659872Y-9816984D01*
X12783682Y-9816984D02*
X12764634Y-9807460D01*
X12764634Y-9807460D02*
X12755111Y-9797936D01*
X12755111Y-9797936D02*
X12745587Y-9778889D01*
X12745587Y-9778889D02*
X12745587Y-9721746D01*
X12745587Y-9721746D02*
X12755111Y-9702698D01*
X12755111Y-9702698D02*
X12764634Y-9693174D01*
X12764634Y-9693174D02*
X12783682Y-9683650D01*
X12783682Y-9683650D02*
X12812253Y-9683650D01*
X12812253Y-9683650D02*
X12831301Y-9693174D01*
X12831301Y-9693174D02*
X12840825Y-9702698D01*
X12840825Y-9702698D02*
X12850349Y-9721746D01*
X12850349Y-9721746D02*
X12850349Y-9778889D01*
X12850349Y-9778889D02*
X12840825Y-9797936D01*
X12840825Y-9797936D02*
X12831301Y-9807460D01*
X12831301Y-9807460D02*
X12812253Y-9816984D01*
X12812253Y-9816984D02*
X12783682Y-9816984D01*
X12907492Y-9683650D02*
X12983682Y-9683650D01*
X12936063Y-9616984D02*
X12936063Y-9788412D01*
X12936063Y-9788412D02*
X12945587Y-9807460D01*
X12945587Y-9807460D02*
X12964634Y-9816984D01*
X12964634Y-9816984D02*
X12983682Y-9816984D01*
X13202730Y-9683650D02*
X13202730Y-9883650D01*
X13202730Y-9693174D02*
X13221777Y-9683650D01*
X13221777Y-9683650D02*
X13259873Y-9683650D01*
X13259873Y-9683650D02*
X13278920Y-9693174D01*
X13278920Y-9693174D02*
X13288444Y-9702698D01*
X13288444Y-9702698D02*
X13297968Y-9721746D01*
X13297968Y-9721746D02*
X13297968Y-9778889D01*
X13297968Y-9778889D02*
X13288444Y-9797936D01*
X13288444Y-9797936D02*
X13278920Y-9807460D01*
X13278920Y-9807460D02*
X13259873Y-9816984D01*
X13259873Y-9816984D02*
X13221777Y-9816984D01*
X13221777Y-9816984D02*
X13202730Y-9807460D01*
X13412253Y-9816984D02*
X13393206Y-9807460D01*
X13393206Y-9807460D02*
X13383682Y-9788412D01*
X13383682Y-9788412D02*
X13383682Y-9616984D01*
X13574158Y-9816984D02*
X13574158Y-9712222D01*
X13574158Y-9712222D02*
X13564634Y-9693174D01*
X13564634Y-9693174D02*
X13545587Y-9683650D01*
X13545587Y-9683650D02*
X13507492Y-9683650D01*
X13507492Y-9683650D02*
X13488444Y-9693174D01*
X13574158Y-9807460D02*
X13555111Y-9816984D01*
X13555111Y-9816984D02*
X13507492Y-9816984D01*
X13507492Y-9816984D02*
X13488444Y-9807460D01*
X13488444Y-9807460D02*
X13478920Y-9788412D01*
X13478920Y-9788412D02*
X13478920Y-9769365D01*
X13478920Y-9769365D02*
X13488444Y-9750317D01*
X13488444Y-9750317D02*
X13507492Y-9740793D01*
X13507492Y-9740793D02*
X13555111Y-9740793D01*
X13555111Y-9740793D02*
X13574158Y-9731270D01*
X13640825Y-9683650D02*
X13717015Y-9683650D01*
X13669396Y-9616984D02*
X13669396Y-9788412D01*
X13669396Y-9788412D02*
X13678920Y-9807460D01*
X13678920Y-9807460D02*
X13697968Y-9816984D01*
X13697968Y-9816984D02*
X13717015Y-9816984D01*
X13859873Y-9807460D02*
X13840825Y-9816984D01*
X13840825Y-9816984D02*
X13802730Y-9816984D01*
X13802730Y-9816984D02*
X13783682Y-9807460D01*
X13783682Y-9807460D02*
X13774158Y-9788412D01*
X13774158Y-9788412D02*
X13774158Y-9712222D01*
X13774158Y-9712222D02*
X13783682Y-9693174D01*
X13783682Y-9693174D02*
X13802730Y-9683650D01*
X13802730Y-9683650D02*
X13840825Y-9683650D01*
X13840825Y-9683650D02*
X13859873Y-9693174D01*
X13859873Y-9693174D02*
X13869396Y-9712222D01*
X13869396Y-9712222D02*
X13869396Y-9731270D01*
X13869396Y-9731270D02*
X13774158Y-9750317D01*
X14040825Y-9816984D02*
X14040825Y-9616984D01*
X14040825Y-9807460D02*
X14021777Y-9816984D01*
X14021777Y-9816984D02*
X13983682Y-9816984D01*
X13983682Y-9816984D02*
X13964634Y-9807460D01*
X13964634Y-9807460D02*
X13955111Y-9797936D01*
X13955111Y-9797936D02*
X13945587Y-9778889D01*
X13945587Y-9778889D02*
X13945587Y-9721746D01*
X13945587Y-9721746D02*
X13955111Y-9702698D01*
X13955111Y-9702698D02*
X13964634Y-9693174D01*
X13964634Y-9693174D02*
X13983682Y-9683650D01*
X13983682Y-9683650D02*
X14021777Y-9683650D01*
X14021777Y-9683650D02*
X14040825Y-9693174D01*
X14117015Y-9893174D02*
X14126539Y-9883650D01*
X14126539Y-9883650D02*
X14145587Y-9855079D01*
X14145587Y-9855079D02*
X14155111Y-9836031D01*
X14155111Y-9836031D02*
X14164634Y-9807460D01*
X14164634Y-9807460D02*
X14174158Y-9759841D01*
X14174158Y-9759841D02*
X14174158Y-9721746D01*
X14174158Y-9721746D02*
X14164634Y-9674127D01*
X14164634Y-9674127D02*
X14155111Y-9645555D01*
X14155111Y-9645555D02*
X14145587Y-9626508D01*
X14145587Y-9626508D02*
X14126539Y-9597936D01*
X14126539Y-9597936D02*
X14117015Y-9588412D01*
M02*
