%TF.GenerationSoftware,KiCad,Pcbnew,7.0.9*%
%TF.CreationDate,2023-11-18T03:00:16-05:00*%
%TF.ProjectId,RLM,524c4d2e-6b69-4636-9164-5f7063625858,rev?*%
%TF.SameCoordinates,Original*%
%TF.FileFunction,Drillmap*%
%TF.FilePolarity,Positive*%
%FSLAX45Y45*%
G04 Gerber Fmt 4.5, Leading zero omitted, Abs format (unit mm)*
G04 Created by KiCad (PCBNEW 7.0.9) date 2023-11-18 03:00:16*
%MOMM*%
%LPD*%
G01*
G04 APERTURE LIST*
%ADD10C,0.100000*%
%ADD11C,0.200000*%
%ADD12C,0.102000*%
%ADD13C,0.110000*%
%ADD14C,0.430000*%
G04 APERTURE END LIST*
D10*
X16256000Y-3683000D02*
X16256000Y-8572500D01*
X7366000Y-8572500D02*
G75*
G03*
X7874000Y-9080500I508000J0D01*
G01*
X15748000Y-9080500D02*
G75*
G03*
X16256000Y-8572500I0J508000D01*
G01*
X7366000Y-8572500D02*
X7366000Y-3683000D01*
X16256000Y-3683000D02*
G75*
G03*
X15748000Y-3175000I-508000J0D01*
G01*
X15748000Y-9080500D02*
X7874000Y-9080500D01*
X7874000Y-3175000D02*
X15748000Y-3175000D01*
X7874000Y-3175000D02*
G75*
G03*
X7366000Y-3683000I0J-508000D01*
G01*
D11*
D10*
X8171500Y-6965000D02*
X8211500Y-7005000D01*
X8211500Y-6965000D02*
X8171500Y-7005000D01*
X13962700Y-7041200D02*
X14002700Y-7081200D01*
X14002700Y-7041200D02*
X13962700Y-7081200D01*
X14013500Y-7650800D02*
X14053500Y-7690800D01*
X14053500Y-7650800D02*
X14013500Y-7690800D01*
X14191300Y-7650800D02*
X14231300Y-7690800D01*
X14231300Y-7650800D02*
X14191300Y-7690800D01*
X14292900Y-8031800D02*
X14332900Y-8071800D01*
X14332900Y-8031800D02*
X14292900Y-8071800D01*
X14419900Y-7371400D02*
X14459900Y-7411400D01*
X14459900Y-7371400D02*
X14419900Y-7411400D01*
X14470700Y-8209600D02*
X14510700Y-8249600D01*
X14510700Y-8209600D02*
X14470700Y-8249600D01*
X14546900Y-7371400D02*
X14586900Y-7411400D01*
X14586900Y-7371400D02*
X14546900Y-7411400D01*
X14724700Y-6304600D02*
X14764700Y-6344600D01*
X14764700Y-6304600D02*
X14724700Y-6344600D01*
X14750100Y-8209600D02*
X14790100Y-8249600D01*
X14790100Y-8209600D02*
X14750100Y-8249600D01*
X14927900Y-7549200D02*
X14967900Y-7589200D01*
X14967900Y-7549200D02*
X14927900Y-7589200D01*
X15004100Y-7168200D02*
X15044100Y-7208200D01*
X15044100Y-7168200D02*
X15004100Y-7208200D01*
X15334300Y-5517200D02*
X15374300Y-5557200D01*
X15374300Y-5517200D02*
X15334300Y-5557200D01*
X15715300Y-5237800D02*
X15755300Y-5277800D01*
X15755300Y-5237800D02*
X15715300Y-5277800D01*
X15735550Y-6177600D02*
X15775550Y-6217600D01*
X15775550Y-6177600D02*
X15735550Y-6217600D01*
X16007375Y-5234415D02*
X16047375Y-5274415D01*
X16047375Y-5234415D02*
X16007375Y-5274415D01*
X8559800Y-7582200D02*
G75*
G03*
X8559800Y-7582200I-38100J0D01*
G01*
X8813800Y-7582200D02*
G75*
G03*
X8813800Y-7582200I-38100J0D01*
G01*
X8991600Y-7159600D02*
G75*
G03*
X8991600Y-7159600I-38100J0D01*
G01*
X9067800Y-7582200D02*
G75*
G03*
X9067800Y-7582200I-38100J0D01*
G01*
X9245600Y-7159600D02*
G75*
G03*
X9245600Y-7159600I-38100J0D01*
G01*
X9321800Y-7582200D02*
G75*
G03*
X9321800Y-7582200I-38100J0D01*
G01*
X9499600Y-7159600D02*
G75*
G03*
X9499600Y-7159600I-38100J0D01*
G01*
X9575800Y-7582200D02*
G75*
G03*
X9575800Y-7582200I-38100J0D01*
G01*
X9753600Y-7159600D02*
G75*
G03*
X9753600Y-7159600I-38100J0D01*
G01*
X9829800Y-7582200D02*
G75*
G03*
X9829800Y-7582200I-38100J0D01*
G01*
X10007600Y-7159600D02*
G75*
G03*
X10007600Y-7159600I-38100J0D01*
G01*
X10083800Y-7582200D02*
G75*
G03*
X10083800Y-7582200I-38100J0D01*
G01*
X10261600Y-7159600D02*
G75*
G03*
X10261600Y-7159600I-38100J0D01*
G01*
X10337800Y-7582200D02*
G75*
G03*
X10337800Y-7582200I-38100J0D01*
G01*
X11023600Y-4190600D02*
G75*
G03*
X11023600Y-4190600I-38100J0D01*
G01*
X11023600Y-4444600D02*
G75*
G03*
X11023600Y-4444600I-38100J0D01*
G01*
X11023600Y-4698600D02*
G75*
G03*
X11023600Y-4698600I-38100J0D01*
G01*
X11023600Y-4952600D02*
G75*
G03*
X11023600Y-4952600I-38100J0D01*
G01*
X11023600Y-5206600D02*
G75*
G03*
X11023600Y-5206600I-38100J0D01*
G01*
X11023600Y-5460600D02*
G75*
G03*
X11023600Y-5460600I-38100J0D01*
G01*
X11023600Y-5714600D02*
G75*
G03*
X11023600Y-5714600I-38100J0D01*
G01*
X11023600Y-5968600D02*
G75*
G03*
X11023600Y-5968600I-38100J0D01*
G01*
X11023600Y-6222600D02*
G75*
G03*
X11023600Y-6222600I-38100J0D01*
G01*
X11023600Y-6476600D02*
G75*
G03*
X11023600Y-6476600I-38100J0D01*
G01*
X11023600Y-6730600D02*
G75*
G03*
X11023600Y-6730600I-38100J0D01*
G01*
X11023600Y-6984600D02*
G75*
G03*
X11023600Y-6984600I-38100J0D01*
G01*
X11023600Y-7238600D02*
G75*
G03*
X11023600Y-7238600I-38100J0D01*
G01*
X11023600Y-7492600D02*
G75*
G03*
X11023600Y-7492600I-38100J0D01*
G01*
X11023600Y-7746600D02*
G75*
G03*
X11023600Y-7746600I-38100J0D01*
G01*
X13563600Y-4190600D02*
G75*
G03*
X13563600Y-4190600I-38100J0D01*
G01*
X13563600Y-4444600D02*
G75*
G03*
X13563600Y-4444600I-38100J0D01*
G01*
X13563600Y-4698600D02*
G75*
G03*
X13563600Y-4698600I-38100J0D01*
G01*
X13563600Y-4952600D02*
G75*
G03*
X13563600Y-4952600I-38100J0D01*
G01*
X13563600Y-5206600D02*
G75*
G03*
X13563600Y-5206600I-38100J0D01*
G01*
X13563600Y-5460600D02*
G75*
G03*
X13563600Y-5460600I-38100J0D01*
G01*
X13563600Y-5714600D02*
G75*
G03*
X13563600Y-5714600I-38100J0D01*
G01*
X13563600Y-5968600D02*
G75*
G03*
X13563600Y-5968600I-38100J0D01*
G01*
X13563600Y-6222600D02*
G75*
G03*
X13563600Y-6222600I-38100J0D01*
G01*
X13563600Y-6476600D02*
G75*
G03*
X13563600Y-6476600I-38100J0D01*
G01*
X13563600Y-6730600D02*
G75*
G03*
X13563600Y-6730600I-38100J0D01*
G01*
X13563600Y-6984600D02*
G75*
G03*
X13563600Y-6984600I-38100J0D01*
G01*
X13563600Y-7238600D02*
G75*
G03*
X13563600Y-7238600I-38100J0D01*
G01*
X13563600Y-7492600D02*
G75*
G03*
X13563600Y-7492600I-38100J0D01*
G01*
X13563600Y-7746600D02*
G75*
G03*
X13563600Y-7746600I-38100J0D01*
G01*
X14147800Y-6932200D02*
G75*
G03*
X14147800Y-6932200I-38100J0D01*
G01*
X14147800Y-7186200D02*
G75*
G03*
X14147800Y-7186200I-38100J0D01*
G01*
X14401800Y-6932200D02*
G75*
G03*
X14401800Y-6932200I-38100J0D01*
G01*
X14401800Y-7186200D02*
G75*
G03*
X14401800Y-7186200I-38100J0D01*
G01*
X14655800Y-6932200D02*
G75*
G03*
X14655800Y-6932200I-38100J0D01*
G01*
X14655800Y-7186200D02*
G75*
G03*
X14655800Y-7186200I-38100J0D01*
G01*
X14909800Y-6932200D02*
G75*
G03*
X14909800Y-6932200I-38100J0D01*
G01*
X14909800Y-7186200D02*
G75*
G03*
X14909800Y-7186200I-38100J0D01*
G01*
X10629900Y-8027200D02*
X10629900Y-8127200D01*
X10579900Y-8077200D02*
X10679900Y-8077200D01*
X10629900Y-8281200D02*
X10629900Y-8381200D01*
X10579900Y-8331200D02*
X10679900Y-8331200D01*
X10629900Y-8535200D02*
X10629900Y-8635200D01*
X10579900Y-8585200D02*
X10679900Y-8585200D01*
X10629900Y-8789200D02*
X10629900Y-8889200D01*
X10579900Y-8839200D02*
X10679900Y-8839200D01*
X15748000Y-6680500D02*
X15748000Y-6780500D01*
X15698000Y-6730500D02*
X15798000Y-6730500D01*
X15748000Y-6934500D02*
X15748000Y-7034500D01*
X15698000Y-6984500D02*
X15798000Y-6984500D01*
X15748000Y-7442500D02*
X15748000Y-7542500D01*
X15698000Y-7492500D02*
X15798000Y-7492500D01*
X15748000Y-7696500D02*
X15748000Y-7796500D01*
X15698000Y-7746500D02*
X15798000Y-7746500D01*
D12*
X7852063Y-5867063D02*
X7852063Y-5794937D01*
X7779937Y-5794937D01*
X7779937Y-5867063D01*
X7852063Y-5867063D01*
X7852063Y-6167063D02*
X7852063Y-6094937D01*
X7779937Y-6094937D01*
X7779937Y-6167063D01*
X7852063Y-6167063D01*
X7852063Y-6467063D02*
X7852063Y-6394937D01*
X7779937Y-6394937D01*
X7779937Y-6467063D01*
X7852063Y-6467063D01*
X14214063Y-8672063D02*
X14214063Y-8599937D01*
X14141937Y-8599937D01*
X14141937Y-8672063D01*
X14214063Y-8672063D01*
X14514063Y-8672063D02*
X14514063Y-8599937D01*
X14441937Y-8599937D01*
X14441937Y-8672063D01*
X14514063Y-8672063D01*
X14814063Y-8672063D02*
X14814063Y-8599937D01*
X14741937Y-8599937D01*
X14741937Y-8672063D01*
X14814063Y-8672063D01*
D13*
X7741500Y-4373000D02*
X7796500Y-4318000D01*
X7741500Y-4263000D01*
X7686500Y-4318000D01*
X7741500Y-4373000D01*
X7741500Y-5023000D02*
X7796500Y-4968000D01*
X7741500Y-4913000D01*
X7686500Y-4968000D01*
X7741500Y-5023000D01*
X7747000Y-7342500D02*
X7802000Y-7287500D01*
X7747000Y-7232500D01*
X7692000Y-7287500D01*
X7747000Y-7342500D01*
X7747000Y-7992500D02*
X7802000Y-7937500D01*
X7747000Y-7882500D01*
X7692000Y-7937500D01*
X7747000Y-7992500D01*
X8191500Y-4373000D02*
X8246500Y-4318000D01*
X8191500Y-4263000D01*
X8136500Y-4318000D01*
X8191500Y-4373000D01*
X8191500Y-5023000D02*
X8246500Y-4968000D01*
X8191500Y-4913000D01*
X8136500Y-4968000D01*
X8191500Y-5023000D01*
X8197000Y-7342500D02*
X8252000Y-7287500D01*
X8197000Y-7232500D01*
X8142000Y-7287500D01*
X8197000Y-7342500D01*
X8197000Y-7992500D02*
X8252000Y-7937500D01*
X8197000Y-7882500D01*
X8142000Y-7937500D01*
X8197000Y-7992500D01*
D14*
X7659000Y-3468000D02*
X8089000Y-3898000D01*
X8089000Y-3468000D02*
X7659000Y-3898000D01*
X8089000Y-3683000D02*
G75*
G03*
X8089000Y-3683000I-215000J0D01*
G01*
X7659000Y-8357500D02*
X8089000Y-8787500D01*
X8089000Y-8357500D02*
X7659000Y-8787500D01*
X8089000Y-8572500D02*
G75*
G03*
X8089000Y-8572500I-215000J0D01*
G01*
X15533000Y-3468000D02*
X15963000Y-3898000D01*
X15963000Y-3468000D02*
X15533000Y-3898000D01*
X15963000Y-3683000D02*
G75*
G03*
X15963000Y-3683000I-215000J0D01*
G01*
X15533000Y-8357500D02*
X15963000Y-8787500D01*
X15963000Y-8357500D02*
X15533000Y-8787500D01*
X15963000Y-8572500D02*
G75*
G03*
X15963000Y-8572500I-215000J0D01*
G01*
D11*
X7621777Y-9396984D02*
X7621777Y-9196984D01*
X7621777Y-9196984D02*
X7669396Y-9196984D01*
X7669396Y-9196984D02*
X7697967Y-9206508D01*
X7697967Y-9206508D02*
X7717015Y-9225555D01*
X7717015Y-9225555D02*
X7726539Y-9244603D01*
X7726539Y-9244603D02*
X7736062Y-9282698D01*
X7736062Y-9282698D02*
X7736062Y-9311270D01*
X7736062Y-9311270D02*
X7726539Y-9349365D01*
X7726539Y-9349365D02*
X7717015Y-9368412D01*
X7717015Y-9368412D02*
X7697967Y-9387460D01*
X7697967Y-9387460D02*
X7669396Y-9396984D01*
X7669396Y-9396984D02*
X7621777Y-9396984D01*
X7821777Y-9396984D02*
X7821777Y-9263650D01*
X7821777Y-9301746D02*
X7831301Y-9282698D01*
X7831301Y-9282698D02*
X7840824Y-9273174D01*
X7840824Y-9273174D02*
X7859872Y-9263650D01*
X7859872Y-9263650D02*
X7878920Y-9263650D01*
X7945586Y-9396984D02*
X7945586Y-9263650D01*
X7945586Y-9196984D02*
X7936062Y-9206508D01*
X7936062Y-9206508D02*
X7945586Y-9216031D01*
X7945586Y-9216031D02*
X7955110Y-9206508D01*
X7955110Y-9206508D02*
X7945586Y-9196984D01*
X7945586Y-9196984D02*
X7945586Y-9216031D01*
X8069396Y-9396984D02*
X8050348Y-9387460D01*
X8050348Y-9387460D02*
X8040824Y-9368412D01*
X8040824Y-9368412D02*
X8040824Y-9196984D01*
X8174158Y-9396984D02*
X8155110Y-9387460D01*
X8155110Y-9387460D02*
X8145586Y-9368412D01*
X8145586Y-9368412D02*
X8145586Y-9196984D01*
X8402729Y-9396984D02*
X8402729Y-9196984D01*
X8402729Y-9196984D02*
X8469396Y-9339841D01*
X8469396Y-9339841D02*
X8536063Y-9196984D01*
X8536063Y-9196984D02*
X8536063Y-9396984D01*
X8717015Y-9396984D02*
X8717015Y-9292222D01*
X8717015Y-9292222D02*
X8707491Y-9273174D01*
X8707491Y-9273174D02*
X8688444Y-9263650D01*
X8688444Y-9263650D02*
X8650348Y-9263650D01*
X8650348Y-9263650D02*
X8631301Y-9273174D01*
X8717015Y-9387460D02*
X8697967Y-9396984D01*
X8697967Y-9396984D02*
X8650348Y-9396984D01*
X8650348Y-9396984D02*
X8631301Y-9387460D01*
X8631301Y-9387460D02*
X8621777Y-9368412D01*
X8621777Y-9368412D02*
X8621777Y-9349365D01*
X8621777Y-9349365D02*
X8631301Y-9330317D01*
X8631301Y-9330317D02*
X8650348Y-9320793D01*
X8650348Y-9320793D02*
X8697967Y-9320793D01*
X8697967Y-9320793D02*
X8717015Y-9311270D01*
X8812253Y-9263650D02*
X8812253Y-9463650D01*
X8812253Y-9273174D02*
X8831301Y-9263650D01*
X8831301Y-9263650D02*
X8869396Y-9263650D01*
X8869396Y-9263650D02*
X8888444Y-9273174D01*
X8888444Y-9273174D02*
X8897967Y-9282698D01*
X8897967Y-9282698D02*
X8907491Y-9301746D01*
X8907491Y-9301746D02*
X8907491Y-9358889D01*
X8907491Y-9358889D02*
X8897967Y-9377936D01*
X8897967Y-9377936D02*
X8888444Y-9387460D01*
X8888444Y-9387460D02*
X8869396Y-9396984D01*
X8869396Y-9396984D02*
X8831301Y-9396984D01*
X8831301Y-9396984D02*
X8812253Y-9387460D01*
X8993205Y-9377936D02*
X9002729Y-9387460D01*
X9002729Y-9387460D02*
X8993205Y-9396984D01*
X8993205Y-9396984D02*
X8983682Y-9387460D01*
X8983682Y-9387460D02*
X8993205Y-9377936D01*
X8993205Y-9377936D02*
X8993205Y-9396984D01*
X8993205Y-9273174D02*
X9002729Y-9282698D01*
X9002729Y-9282698D02*
X8993205Y-9292222D01*
X8993205Y-9292222D02*
X8983682Y-9282698D01*
X8983682Y-9282698D02*
X8993205Y-9273174D01*
X8993205Y-9273174D02*
X8993205Y-9292222D01*
D10*
X7321000Y-9705500D02*
X7361000Y-9745500D01*
X7361000Y-9705500D02*
X7321000Y-9745500D01*
D11*
X7659872Y-9616984D02*
X7678920Y-9616984D01*
X7678920Y-9616984D02*
X7697967Y-9626508D01*
X7697967Y-9626508D02*
X7707491Y-9636031D01*
X7707491Y-9636031D02*
X7717015Y-9655079D01*
X7717015Y-9655079D02*
X7726539Y-9693174D01*
X7726539Y-9693174D02*
X7726539Y-9740793D01*
X7726539Y-9740793D02*
X7717015Y-9778889D01*
X7717015Y-9778889D02*
X7707491Y-9797936D01*
X7707491Y-9797936D02*
X7697967Y-9807460D01*
X7697967Y-9807460D02*
X7678920Y-9816984D01*
X7678920Y-9816984D02*
X7659872Y-9816984D01*
X7659872Y-9816984D02*
X7640824Y-9807460D01*
X7640824Y-9807460D02*
X7631301Y-9797936D01*
X7631301Y-9797936D02*
X7621777Y-9778889D01*
X7621777Y-9778889D02*
X7612253Y-9740793D01*
X7612253Y-9740793D02*
X7612253Y-9693174D01*
X7612253Y-9693174D02*
X7621777Y-9655079D01*
X7621777Y-9655079D02*
X7631301Y-9636031D01*
X7631301Y-9636031D02*
X7640824Y-9626508D01*
X7640824Y-9626508D02*
X7659872Y-9616984D01*
X7812253Y-9797936D02*
X7821777Y-9807460D01*
X7821777Y-9807460D02*
X7812253Y-9816984D01*
X7812253Y-9816984D02*
X7802729Y-9807460D01*
X7802729Y-9807460D02*
X7812253Y-9797936D01*
X7812253Y-9797936D02*
X7812253Y-9816984D01*
X7993205Y-9683650D02*
X7993205Y-9816984D01*
X7945586Y-9607460D02*
X7897967Y-9750317D01*
X7897967Y-9750317D02*
X8021777Y-9750317D01*
X8136062Y-9616984D02*
X8155110Y-9616984D01*
X8155110Y-9616984D02*
X8174158Y-9626508D01*
X8174158Y-9626508D02*
X8183682Y-9636031D01*
X8183682Y-9636031D02*
X8193205Y-9655079D01*
X8193205Y-9655079D02*
X8202729Y-9693174D01*
X8202729Y-9693174D02*
X8202729Y-9740793D01*
X8202729Y-9740793D02*
X8193205Y-9778889D01*
X8193205Y-9778889D02*
X8183682Y-9797936D01*
X8183682Y-9797936D02*
X8174158Y-9807460D01*
X8174158Y-9807460D02*
X8155110Y-9816984D01*
X8155110Y-9816984D02*
X8136062Y-9816984D01*
X8136062Y-9816984D02*
X8117015Y-9807460D01*
X8117015Y-9807460D02*
X8107491Y-9797936D01*
X8107491Y-9797936D02*
X8097967Y-9778889D01*
X8097967Y-9778889D02*
X8088443Y-9740793D01*
X8088443Y-9740793D02*
X8088443Y-9693174D01*
X8088443Y-9693174D02*
X8097967Y-9655079D01*
X8097967Y-9655079D02*
X8107491Y-9636031D01*
X8107491Y-9636031D02*
X8117015Y-9626508D01*
X8117015Y-9626508D02*
X8136062Y-9616984D01*
X8326539Y-9616984D02*
X8345586Y-9616984D01*
X8345586Y-9616984D02*
X8364634Y-9626508D01*
X8364634Y-9626508D02*
X8374158Y-9636031D01*
X8374158Y-9636031D02*
X8383682Y-9655079D01*
X8383682Y-9655079D02*
X8393205Y-9693174D01*
X8393205Y-9693174D02*
X8393205Y-9740793D01*
X8393205Y-9740793D02*
X8383682Y-9778889D01*
X8383682Y-9778889D02*
X8374158Y-9797936D01*
X8374158Y-9797936D02*
X8364634Y-9807460D01*
X8364634Y-9807460D02*
X8345586Y-9816984D01*
X8345586Y-9816984D02*
X8326539Y-9816984D01*
X8326539Y-9816984D02*
X8307491Y-9807460D01*
X8307491Y-9807460D02*
X8297967Y-9797936D01*
X8297967Y-9797936D02*
X8288443Y-9778889D01*
X8288443Y-9778889D02*
X8278920Y-9740793D01*
X8278920Y-9740793D02*
X8278920Y-9693174D01*
X8278920Y-9693174D02*
X8288443Y-9655079D01*
X8288443Y-9655079D02*
X8297967Y-9636031D01*
X8297967Y-9636031D02*
X8307491Y-9626508D01*
X8307491Y-9626508D02*
X8326539Y-9616984D01*
X8478920Y-9816984D02*
X8478920Y-9683650D01*
X8478920Y-9702698D02*
X8488444Y-9693174D01*
X8488444Y-9693174D02*
X8507491Y-9683650D01*
X8507491Y-9683650D02*
X8536063Y-9683650D01*
X8536063Y-9683650D02*
X8555110Y-9693174D01*
X8555110Y-9693174D02*
X8564634Y-9712222D01*
X8564634Y-9712222D02*
X8564634Y-9816984D01*
X8564634Y-9712222D02*
X8574158Y-9693174D01*
X8574158Y-9693174D02*
X8593205Y-9683650D01*
X8593205Y-9683650D02*
X8621777Y-9683650D01*
X8621777Y-9683650D02*
X8640825Y-9693174D01*
X8640825Y-9693174D02*
X8650348Y-9712222D01*
X8650348Y-9712222D02*
X8650348Y-9816984D01*
X8745586Y-9816984D02*
X8745586Y-9683650D01*
X8745586Y-9702698D02*
X8755110Y-9693174D01*
X8755110Y-9693174D02*
X8774158Y-9683650D01*
X8774158Y-9683650D02*
X8802729Y-9683650D01*
X8802729Y-9683650D02*
X8821777Y-9693174D01*
X8821777Y-9693174D02*
X8831301Y-9712222D01*
X8831301Y-9712222D02*
X8831301Y-9816984D01*
X8831301Y-9712222D02*
X8840825Y-9693174D01*
X8840825Y-9693174D02*
X8859872Y-9683650D01*
X8859872Y-9683650D02*
X8888444Y-9683650D01*
X8888444Y-9683650D02*
X8907491Y-9693174D01*
X8907491Y-9693174D02*
X8917015Y-9712222D01*
X8917015Y-9712222D02*
X8917015Y-9816984D01*
X9307491Y-9607460D02*
X9136063Y-9864603D01*
X9564634Y-9616984D02*
X9583682Y-9616984D01*
X9583682Y-9616984D02*
X9602729Y-9626508D01*
X9602729Y-9626508D02*
X9612253Y-9636031D01*
X9612253Y-9636031D02*
X9621777Y-9655079D01*
X9621777Y-9655079D02*
X9631301Y-9693174D01*
X9631301Y-9693174D02*
X9631301Y-9740793D01*
X9631301Y-9740793D02*
X9621777Y-9778889D01*
X9621777Y-9778889D02*
X9612253Y-9797936D01*
X9612253Y-9797936D02*
X9602729Y-9807460D01*
X9602729Y-9807460D02*
X9583682Y-9816984D01*
X9583682Y-9816984D02*
X9564634Y-9816984D01*
X9564634Y-9816984D02*
X9545587Y-9807460D01*
X9545587Y-9807460D02*
X9536063Y-9797936D01*
X9536063Y-9797936D02*
X9526539Y-9778889D01*
X9526539Y-9778889D02*
X9517015Y-9740793D01*
X9517015Y-9740793D02*
X9517015Y-9693174D01*
X9517015Y-9693174D02*
X9526539Y-9655079D01*
X9526539Y-9655079D02*
X9536063Y-9636031D01*
X9536063Y-9636031D02*
X9545587Y-9626508D01*
X9545587Y-9626508D02*
X9564634Y-9616984D01*
X9717015Y-9797936D02*
X9726539Y-9807460D01*
X9726539Y-9807460D02*
X9717015Y-9816984D01*
X9717015Y-9816984D02*
X9707491Y-9807460D01*
X9707491Y-9807460D02*
X9717015Y-9797936D01*
X9717015Y-9797936D02*
X9717015Y-9816984D01*
X9850348Y-9616984D02*
X9869396Y-9616984D01*
X9869396Y-9616984D02*
X9888444Y-9626508D01*
X9888444Y-9626508D02*
X9897968Y-9636031D01*
X9897968Y-9636031D02*
X9907491Y-9655079D01*
X9907491Y-9655079D02*
X9917015Y-9693174D01*
X9917015Y-9693174D02*
X9917015Y-9740793D01*
X9917015Y-9740793D02*
X9907491Y-9778889D01*
X9907491Y-9778889D02*
X9897968Y-9797936D01*
X9897968Y-9797936D02*
X9888444Y-9807460D01*
X9888444Y-9807460D02*
X9869396Y-9816984D01*
X9869396Y-9816984D02*
X9850348Y-9816984D01*
X9850348Y-9816984D02*
X9831301Y-9807460D01*
X9831301Y-9807460D02*
X9821777Y-9797936D01*
X9821777Y-9797936D02*
X9812253Y-9778889D01*
X9812253Y-9778889D02*
X9802729Y-9740793D01*
X9802729Y-9740793D02*
X9802729Y-9693174D01*
X9802729Y-9693174D02*
X9812253Y-9655079D01*
X9812253Y-9655079D02*
X9821777Y-9636031D01*
X9821777Y-9636031D02*
X9831301Y-9626508D01*
X9831301Y-9626508D02*
X9850348Y-9616984D01*
X10107491Y-9816984D02*
X9993206Y-9816984D01*
X10050348Y-9816984D02*
X10050348Y-9616984D01*
X10050348Y-9616984D02*
X10031301Y-9645555D01*
X10031301Y-9645555D02*
X10012253Y-9664603D01*
X10012253Y-9664603D02*
X9993206Y-9674127D01*
X10288444Y-9616984D02*
X10193206Y-9616984D01*
X10193206Y-9616984D02*
X10183682Y-9712222D01*
X10183682Y-9712222D02*
X10193206Y-9702698D01*
X10193206Y-9702698D02*
X10212253Y-9693174D01*
X10212253Y-9693174D02*
X10259872Y-9693174D01*
X10259872Y-9693174D02*
X10278920Y-9702698D01*
X10278920Y-9702698D02*
X10288444Y-9712222D01*
X10288444Y-9712222D02*
X10297968Y-9731270D01*
X10297968Y-9731270D02*
X10297968Y-9778889D01*
X10297968Y-9778889D02*
X10288444Y-9797936D01*
X10288444Y-9797936D02*
X10278920Y-9807460D01*
X10278920Y-9807460D02*
X10259872Y-9816984D01*
X10259872Y-9816984D02*
X10212253Y-9816984D01*
X10212253Y-9816984D02*
X10193206Y-9807460D01*
X10193206Y-9807460D02*
X10183682Y-9797936D01*
X10364634Y-9616984D02*
X10497968Y-9616984D01*
X10497968Y-9616984D02*
X10412253Y-9816984D01*
X10564634Y-9616984D02*
X10564634Y-9655079D01*
X10640825Y-9616984D02*
X10640825Y-9655079D01*
X10936063Y-9893174D02*
X10926539Y-9883650D01*
X10926539Y-9883650D02*
X10907491Y-9855079D01*
X10907491Y-9855079D02*
X10897968Y-9836031D01*
X10897968Y-9836031D02*
X10888444Y-9807460D01*
X10888444Y-9807460D02*
X10878920Y-9759841D01*
X10878920Y-9759841D02*
X10878920Y-9721746D01*
X10878920Y-9721746D02*
X10888444Y-9674127D01*
X10888444Y-9674127D02*
X10897968Y-9645555D01*
X10897968Y-9645555D02*
X10907491Y-9626508D01*
X10907491Y-9626508D02*
X10926539Y-9597936D01*
X10926539Y-9597936D02*
X10936063Y-9588412D01*
X11117015Y-9816984D02*
X11002730Y-9816984D01*
X11059872Y-9816984D02*
X11059872Y-9616984D01*
X11059872Y-9616984D02*
X11040825Y-9645555D01*
X11040825Y-9645555D02*
X11021777Y-9664603D01*
X11021777Y-9664603D02*
X11002730Y-9674127D01*
X11288444Y-9616984D02*
X11250348Y-9616984D01*
X11250348Y-9616984D02*
X11231301Y-9626508D01*
X11231301Y-9626508D02*
X11221777Y-9636031D01*
X11221777Y-9636031D02*
X11202729Y-9664603D01*
X11202729Y-9664603D02*
X11193206Y-9702698D01*
X11193206Y-9702698D02*
X11193206Y-9778889D01*
X11193206Y-9778889D02*
X11202729Y-9797936D01*
X11202729Y-9797936D02*
X11212253Y-9807460D01*
X11212253Y-9807460D02*
X11231301Y-9816984D01*
X11231301Y-9816984D02*
X11269396Y-9816984D01*
X11269396Y-9816984D02*
X11288444Y-9807460D01*
X11288444Y-9807460D02*
X11297968Y-9797936D01*
X11297968Y-9797936D02*
X11307491Y-9778889D01*
X11307491Y-9778889D02*
X11307491Y-9731270D01*
X11307491Y-9731270D02*
X11297968Y-9712222D01*
X11297968Y-9712222D02*
X11288444Y-9702698D01*
X11288444Y-9702698D02*
X11269396Y-9693174D01*
X11269396Y-9693174D02*
X11231301Y-9693174D01*
X11231301Y-9693174D02*
X11212253Y-9702698D01*
X11212253Y-9702698D02*
X11202729Y-9712222D01*
X11202729Y-9712222D02*
X11193206Y-9731270D01*
X11545587Y-9816984D02*
X11545587Y-9616984D01*
X11631301Y-9816984D02*
X11631301Y-9712222D01*
X11631301Y-9712222D02*
X11621777Y-9693174D01*
X11621777Y-9693174D02*
X11602730Y-9683650D01*
X11602730Y-9683650D02*
X11574158Y-9683650D01*
X11574158Y-9683650D02*
X11555110Y-9693174D01*
X11555110Y-9693174D02*
X11545587Y-9702698D01*
X11755110Y-9816984D02*
X11736063Y-9807460D01*
X11736063Y-9807460D02*
X11726539Y-9797936D01*
X11726539Y-9797936D02*
X11717015Y-9778889D01*
X11717015Y-9778889D02*
X11717015Y-9721746D01*
X11717015Y-9721746D02*
X11726539Y-9702698D01*
X11726539Y-9702698D02*
X11736063Y-9693174D01*
X11736063Y-9693174D02*
X11755110Y-9683650D01*
X11755110Y-9683650D02*
X11783682Y-9683650D01*
X11783682Y-9683650D02*
X11802730Y-9693174D01*
X11802730Y-9693174D02*
X11812253Y-9702698D01*
X11812253Y-9702698D02*
X11821777Y-9721746D01*
X11821777Y-9721746D02*
X11821777Y-9778889D01*
X11821777Y-9778889D02*
X11812253Y-9797936D01*
X11812253Y-9797936D02*
X11802730Y-9807460D01*
X11802730Y-9807460D02*
X11783682Y-9816984D01*
X11783682Y-9816984D02*
X11755110Y-9816984D01*
X11936063Y-9816984D02*
X11917015Y-9807460D01*
X11917015Y-9807460D02*
X11907491Y-9788412D01*
X11907491Y-9788412D02*
X11907491Y-9616984D01*
X12088444Y-9807460D02*
X12069396Y-9816984D01*
X12069396Y-9816984D02*
X12031301Y-9816984D01*
X12031301Y-9816984D02*
X12012253Y-9807460D01*
X12012253Y-9807460D02*
X12002730Y-9788412D01*
X12002730Y-9788412D02*
X12002730Y-9712222D01*
X12002730Y-9712222D02*
X12012253Y-9693174D01*
X12012253Y-9693174D02*
X12031301Y-9683650D01*
X12031301Y-9683650D02*
X12069396Y-9683650D01*
X12069396Y-9683650D02*
X12088444Y-9693174D01*
X12088444Y-9693174D02*
X12097968Y-9712222D01*
X12097968Y-9712222D02*
X12097968Y-9731270D01*
X12097968Y-9731270D02*
X12002730Y-9750317D01*
X12174158Y-9807460D02*
X12193206Y-9816984D01*
X12193206Y-9816984D02*
X12231301Y-9816984D01*
X12231301Y-9816984D02*
X12250349Y-9807460D01*
X12250349Y-9807460D02*
X12259872Y-9788412D01*
X12259872Y-9788412D02*
X12259872Y-9778889D01*
X12259872Y-9778889D02*
X12250349Y-9759841D01*
X12250349Y-9759841D02*
X12231301Y-9750317D01*
X12231301Y-9750317D02*
X12202730Y-9750317D01*
X12202730Y-9750317D02*
X12183682Y-9740793D01*
X12183682Y-9740793D02*
X12174158Y-9721746D01*
X12174158Y-9721746D02*
X12174158Y-9712222D01*
X12174158Y-9712222D02*
X12183682Y-9693174D01*
X12183682Y-9693174D02*
X12202730Y-9683650D01*
X12202730Y-9683650D02*
X12231301Y-9683650D01*
X12231301Y-9683650D02*
X12250349Y-9693174D01*
X12326539Y-9893174D02*
X12336063Y-9883650D01*
X12336063Y-9883650D02*
X12355111Y-9855079D01*
X12355111Y-9855079D02*
X12364634Y-9836031D01*
X12364634Y-9836031D02*
X12374158Y-9807460D01*
X12374158Y-9807460D02*
X12383682Y-9759841D01*
X12383682Y-9759841D02*
X12383682Y-9721746D01*
X12383682Y-9721746D02*
X12374158Y-9674127D01*
X12374158Y-9674127D02*
X12364634Y-9645555D01*
X12364634Y-9645555D02*
X12355111Y-9626508D01*
X12355111Y-9626508D02*
X12336063Y-9597936D01*
X12336063Y-9597936D02*
X12326539Y-9588412D01*
D10*
X7361000Y-9989500D02*
G75*
G03*
X7361000Y-9989500I-38100J0D01*
G01*
D11*
X7659872Y-9880984D02*
X7678920Y-9880984D01*
X7678920Y-9880984D02*
X7697967Y-9890508D01*
X7697967Y-9890508D02*
X7707491Y-9900031D01*
X7707491Y-9900031D02*
X7717015Y-9919079D01*
X7717015Y-9919079D02*
X7726539Y-9957174D01*
X7726539Y-9957174D02*
X7726539Y-10004793D01*
X7726539Y-10004793D02*
X7717015Y-10042889D01*
X7717015Y-10042889D02*
X7707491Y-10061936D01*
X7707491Y-10061936D02*
X7697967Y-10071460D01*
X7697967Y-10071460D02*
X7678920Y-10080984D01*
X7678920Y-10080984D02*
X7659872Y-10080984D01*
X7659872Y-10080984D02*
X7640824Y-10071460D01*
X7640824Y-10071460D02*
X7631301Y-10061936D01*
X7631301Y-10061936D02*
X7621777Y-10042889D01*
X7621777Y-10042889D02*
X7612253Y-10004793D01*
X7612253Y-10004793D02*
X7612253Y-9957174D01*
X7612253Y-9957174D02*
X7621777Y-9919079D01*
X7621777Y-9919079D02*
X7631301Y-9900031D01*
X7631301Y-9900031D02*
X7640824Y-9890508D01*
X7640824Y-9890508D02*
X7659872Y-9880984D01*
X7812253Y-10061936D02*
X7821777Y-10071460D01*
X7821777Y-10071460D02*
X7812253Y-10080984D01*
X7812253Y-10080984D02*
X7802729Y-10071460D01*
X7802729Y-10071460D02*
X7812253Y-10061936D01*
X7812253Y-10061936D02*
X7812253Y-10080984D01*
X7888443Y-9880984D02*
X8021777Y-9880984D01*
X8021777Y-9880984D02*
X7936062Y-10080984D01*
X8183682Y-9880984D02*
X8145586Y-9880984D01*
X8145586Y-9880984D02*
X8126539Y-9890508D01*
X8126539Y-9890508D02*
X8117015Y-9900031D01*
X8117015Y-9900031D02*
X8097967Y-9928603D01*
X8097967Y-9928603D02*
X8088443Y-9966698D01*
X8088443Y-9966698D02*
X8088443Y-10042889D01*
X8088443Y-10042889D02*
X8097967Y-10061936D01*
X8097967Y-10061936D02*
X8107491Y-10071460D01*
X8107491Y-10071460D02*
X8126539Y-10080984D01*
X8126539Y-10080984D02*
X8164634Y-10080984D01*
X8164634Y-10080984D02*
X8183682Y-10071460D01*
X8183682Y-10071460D02*
X8193205Y-10061936D01*
X8193205Y-10061936D02*
X8202729Y-10042889D01*
X8202729Y-10042889D02*
X8202729Y-9995270D01*
X8202729Y-9995270D02*
X8193205Y-9976222D01*
X8193205Y-9976222D02*
X8183682Y-9966698D01*
X8183682Y-9966698D02*
X8164634Y-9957174D01*
X8164634Y-9957174D02*
X8126539Y-9957174D01*
X8126539Y-9957174D02*
X8107491Y-9966698D01*
X8107491Y-9966698D02*
X8097967Y-9976222D01*
X8097967Y-9976222D02*
X8088443Y-9995270D01*
X8278920Y-9900031D02*
X8288443Y-9890508D01*
X8288443Y-9890508D02*
X8307491Y-9880984D01*
X8307491Y-9880984D02*
X8355110Y-9880984D01*
X8355110Y-9880984D02*
X8374158Y-9890508D01*
X8374158Y-9890508D02*
X8383682Y-9900031D01*
X8383682Y-9900031D02*
X8393205Y-9919079D01*
X8393205Y-9919079D02*
X8393205Y-9938127D01*
X8393205Y-9938127D02*
X8383682Y-9966698D01*
X8383682Y-9966698D02*
X8269396Y-10080984D01*
X8269396Y-10080984D02*
X8393205Y-10080984D01*
X8478920Y-10080984D02*
X8478920Y-9947650D01*
X8478920Y-9966698D02*
X8488444Y-9957174D01*
X8488444Y-9957174D02*
X8507491Y-9947650D01*
X8507491Y-9947650D02*
X8536063Y-9947650D01*
X8536063Y-9947650D02*
X8555110Y-9957174D01*
X8555110Y-9957174D02*
X8564634Y-9976222D01*
X8564634Y-9976222D02*
X8564634Y-10080984D01*
X8564634Y-9976222D02*
X8574158Y-9957174D01*
X8574158Y-9957174D02*
X8593205Y-9947650D01*
X8593205Y-9947650D02*
X8621777Y-9947650D01*
X8621777Y-9947650D02*
X8640825Y-9957174D01*
X8640825Y-9957174D02*
X8650348Y-9976222D01*
X8650348Y-9976222D02*
X8650348Y-10080984D01*
X8745586Y-10080984D02*
X8745586Y-9947650D01*
X8745586Y-9966698D02*
X8755110Y-9957174D01*
X8755110Y-9957174D02*
X8774158Y-9947650D01*
X8774158Y-9947650D02*
X8802729Y-9947650D01*
X8802729Y-9947650D02*
X8821777Y-9957174D01*
X8821777Y-9957174D02*
X8831301Y-9976222D01*
X8831301Y-9976222D02*
X8831301Y-10080984D01*
X8831301Y-9976222D02*
X8840825Y-9957174D01*
X8840825Y-9957174D02*
X8859872Y-9947650D01*
X8859872Y-9947650D02*
X8888444Y-9947650D01*
X8888444Y-9947650D02*
X8907491Y-9957174D01*
X8907491Y-9957174D02*
X8917015Y-9976222D01*
X8917015Y-9976222D02*
X8917015Y-10080984D01*
X9307491Y-9871460D02*
X9136063Y-10128603D01*
X9564634Y-9880984D02*
X9583682Y-9880984D01*
X9583682Y-9880984D02*
X9602729Y-9890508D01*
X9602729Y-9890508D02*
X9612253Y-9900031D01*
X9612253Y-9900031D02*
X9621777Y-9919079D01*
X9621777Y-9919079D02*
X9631301Y-9957174D01*
X9631301Y-9957174D02*
X9631301Y-10004793D01*
X9631301Y-10004793D02*
X9621777Y-10042889D01*
X9621777Y-10042889D02*
X9612253Y-10061936D01*
X9612253Y-10061936D02*
X9602729Y-10071460D01*
X9602729Y-10071460D02*
X9583682Y-10080984D01*
X9583682Y-10080984D02*
X9564634Y-10080984D01*
X9564634Y-10080984D02*
X9545587Y-10071460D01*
X9545587Y-10071460D02*
X9536063Y-10061936D01*
X9536063Y-10061936D02*
X9526539Y-10042889D01*
X9526539Y-10042889D02*
X9517015Y-10004793D01*
X9517015Y-10004793D02*
X9517015Y-9957174D01*
X9517015Y-9957174D02*
X9526539Y-9919079D01*
X9526539Y-9919079D02*
X9536063Y-9900031D01*
X9536063Y-9900031D02*
X9545587Y-9890508D01*
X9545587Y-9890508D02*
X9564634Y-9880984D01*
X9717015Y-10061936D02*
X9726539Y-10071460D01*
X9726539Y-10071460D02*
X9717015Y-10080984D01*
X9717015Y-10080984D02*
X9707491Y-10071460D01*
X9707491Y-10071460D02*
X9717015Y-10061936D01*
X9717015Y-10061936D02*
X9717015Y-10080984D01*
X9850348Y-9880984D02*
X9869396Y-9880984D01*
X9869396Y-9880984D02*
X9888444Y-9890508D01*
X9888444Y-9890508D02*
X9897968Y-9900031D01*
X9897968Y-9900031D02*
X9907491Y-9919079D01*
X9907491Y-9919079D02*
X9917015Y-9957174D01*
X9917015Y-9957174D02*
X9917015Y-10004793D01*
X9917015Y-10004793D02*
X9907491Y-10042889D01*
X9907491Y-10042889D02*
X9897968Y-10061936D01*
X9897968Y-10061936D02*
X9888444Y-10071460D01*
X9888444Y-10071460D02*
X9869396Y-10080984D01*
X9869396Y-10080984D02*
X9850348Y-10080984D01*
X9850348Y-10080984D02*
X9831301Y-10071460D01*
X9831301Y-10071460D02*
X9821777Y-10061936D01*
X9821777Y-10061936D02*
X9812253Y-10042889D01*
X9812253Y-10042889D02*
X9802729Y-10004793D01*
X9802729Y-10004793D02*
X9802729Y-9957174D01*
X9802729Y-9957174D02*
X9812253Y-9919079D01*
X9812253Y-9919079D02*
X9821777Y-9900031D01*
X9821777Y-9900031D02*
X9831301Y-9890508D01*
X9831301Y-9890508D02*
X9850348Y-9880984D01*
X9983682Y-9880984D02*
X10107491Y-9880984D01*
X10107491Y-9880984D02*
X10040825Y-9957174D01*
X10040825Y-9957174D02*
X10069396Y-9957174D01*
X10069396Y-9957174D02*
X10088444Y-9966698D01*
X10088444Y-9966698D02*
X10097968Y-9976222D01*
X10097968Y-9976222D02*
X10107491Y-9995270D01*
X10107491Y-9995270D02*
X10107491Y-10042889D01*
X10107491Y-10042889D02*
X10097968Y-10061936D01*
X10097968Y-10061936D02*
X10088444Y-10071460D01*
X10088444Y-10071460D02*
X10069396Y-10080984D01*
X10069396Y-10080984D02*
X10012253Y-10080984D01*
X10012253Y-10080984D02*
X9993206Y-10071460D01*
X9993206Y-10071460D02*
X9983682Y-10061936D01*
X10231301Y-9880984D02*
X10250349Y-9880984D01*
X10250349Y-9880984D02*
X10269396Y-9890508D01*
X10269396Y-9890508D02*
X10278920Y-9900031D01*
X10278920Y-9900031D02*
X10288444Y-9919079D01*
X10288444Y-9919079D02*
X10297968Y-9957174D01*
X10297968Y-9957174D02*
X10297968Y-10004793D01*
X10297968Y-10004793D02*
X10288444Y-10042889D01*
X10288444Y-10042889D02*
X10278920Y-10061936D01*
X10278920Y-10061936D02*
X10269396Y-10071460D01*
X10269396Y-10071460D02*
X10250349Y-10080984D01*
X10250349Y-10080984D02*
X10231301Y-10080984D01*
X10231301Y-10080984D02*
X10212253Y-10071460D01*
X10212253Y-10071460D02*
X10202729Y-10061936D01*
X10202729Y-10061936D02*
X10193206Y-10042889D01*
X10193206Y-10042889D02*
X10183682Y-10004793D01*
X10183682Y-10004793D02*
X10183682Y-9957174D01*
X10183682Y-9957174D02*
X10193206Y-9919079D01*
X10193206Y-9919079D02*
X10202729Y-9900031D01*
X10202729Y-9900031D02*
X10212253Y-9890508D01*
X10212253Y-9890508D02*
X10231301Y-9880984D01*
X10421777Y-9880984D02*
X10440825Y-9880984D01*
X10440825Y-9880984D02*
X10459872Y-9890508D01*
X10459872Y-9890508D02*
X10469396Y-9900031D01*
X10469396Y-9900031D02*
X10478920Y-9919079D01*
X10478920Y-9919079D02*
X10488444Y-9957174D01*
X10488444Y-9957174D02*
X10488444Y-10004793D01*
X10488444Y-10004793D02*
X10478920Y-10042889D01*
X10478920Y-10042889D02*
X10469396Y-10061936D01*
X10469396Y-10061936D02*
X10459872Y-10071460D01*
X10459872Y-10071460D02*
X10440825Y-10080984D01*
X10440825Y-10080984D02*
X10421777Y-10080984D01*
X10421777Y-10080984D02*
X10402729Y-10071460D01*
X10402729Y-10071460D02*
X10393206Y-10061936D01*
X10393206Y-10061936D02*
X10383682Y-10042889D01*
X10383682Y-10042889D02*
X10374158Y-10004793D01*
X10374158Y-10004793D02*
X10374158Y-9957174D01*
X10374158Y-9957174D02*
X10383682Y-9919079D01*
X10383682Y-9919079D02*
X10393206Y-9900031D01*
X10393206Y-9900031D02*
X10402729Y-9890508D01*
X10402729Y-9890508D02*
X10421777Y-9880984D01*
X10564634Y-9880984D02*
X10564634Y-9919079D01*
X10640825Y-9880984D02*
X10640825Y-9919079D01*
X10936063Y-10157174D02*
X10926539Y-10147650D01*
X10926539Y-10147650D02*
X10907491Y-10119079D01*
X10907491Y-10119079D02*
X10897968Y-10100031D01*
X10897968Y-10100031D02*
X10888444Y-10071460D01*
X10888444Y-10071460D02*
X10878920Y-10023841D01*
X10878920Y-10023841D02*
X10878920Y-9985746D01*
X10878920Y-9985746D02*
X10888444Y-9938127D01*
X10888444Y-9938127D02*
X10897968Y-9909555D01*
X10897968Y-9909555D02*
X10907491Y-9890508D01*
X10907491Y-9890508D02*
X10926539Y-9861936D01*
X10926539Y-9861936D02*
X10936063Y-9852412D01*
X11107491Y-9880984D02*
X11012253Y-9880984D01*
X11012253Y-9880984D02*
X11002730Y-9976222D01*
X11002730Y-9976222D02*
X11012253Y-9966698D01*
X11012253Y-9966698D02*
X11031301Y-9957174D01*
X11031301Y-9957174D02*
X11078920Y-9957174D01*
X11078920Y-9957174D02*
X11097968Y-9966698D01*
X11097968Y-9966698D02*
X11107491Y-9976222D01*
X11107491Y-9976222D02*
X11117015Y-9995270D01*
X11117015Y-9995270D02*
X11117015Y-10042889D01*
X11117015Y-10042889D02*
X11107491Y-10061936D01*
X11107491Y-10061936D02*
X11097968Y-10071460D01*
X11097968Y-10071460D02*
X11078920Y-10080984D01*
X11078920Y-10080984D02*
X11031301Y-10080984D01*
X11031301Y-10080984D02*
X11012253Y-10071460D01*
X11012253Y-10071460D02*
X11002730Y-10061936D01*
X11193206Y-9900031D02*
X11202729Y-9890508D01*
X11202729Y-9890508D02*
X11221777Y-9880984D01*
X11221777Y-9880984D02*
X11269396Y-9880984D01*
X11269396Y-9880984D02*
X11288444Y-9890508D01*
X11288444Y-9890508D02*
X11297968Y-9900031D01*
X11297968Y-9900031D02*
X11307491Y-9919079D01*
X11307491Y-9919079D02*
X11307491Y-9938127D01*
X11307491Y-9938127D02*
X11297968Y-9966698D01*
X11297968Y-9966698D02*
X11183682Y-10080984D01*
X11183682Y-10080984D02*
X11307491Y-10080984D01*
X11545587Y-10080984D02*
X11545587Y-9880984D01*
X11631301Y-10080984D02*
X11631301Y-9976222D01*
X11631301Y-9976222D02*
X11621777Y-9957174D01*
X11621777Y-9957174D02*
X11602730Y-9947650D01*
X11602730Y-9947650D02*
X11574158Y-9947650D01*
X11574158Y-9947650D02*
X11555110Y-9957174D01*
X11555110Y-9957174D02*
X11545587Y-9966698D01*
X11755110Y-10080984D02*
X11736063Y-10071460D01*
X11736063Y-10071460D02*
X11726539Y-10061936D01*
X11726539Y-10061936D02*
X11717015Y-10042889D01*
X11717015Y-10042889D02*
X11717015Y-9985746D01*
X11717015Y-9985746D02*
X11726539Y-9966698D01*
X11726539Y-9966698D02*
X11736063Y-9957174D01*
X11736063Y-9957174D02*
X11755110Y-9947650D01*
X11755110Y-9947650D02*
X11783682Y-9947650D01*
X11783682Y-9947650D02*
X11802730Y-9957174D01*
X11802730Y-9957174D02*
X11812253Y-9966698D01*
X11812253Y-9966698D02*
X11821777Y-9985746D01*
X11821777Y-9985746D02*
X11821777Y-10042889D01*
X11821777Y-10042889D02*
X11812253Y-10061936D01*
X11812253Y-10061936D02*
X11802730Y-10071460D01*
X11802730Y-10071460D02*
X11783682Y-10080984D01*
X11783682Y-10080984D02*
X11755110Y-10080984D01*
X11936063Y-10080984D02*
X11917015Y-10071460D01*
X11917015Y-10071460D02*
X11907491Y-10052412D01*
X11907491Y-10052412D02*
X11907491Y-9880984D01*
X12088444Y-10071460D02*
X12069396Y-10080984D01*
X12069396Y-10080984D02*
X12031301Y-10080984D01*
X12031301Y-10080984D02*
X12012253Y-10071460D01*
X12012253Y-10071460D02*
X12002730Y-10052412D01*
X12002730Y-10052412D02*
X12002730Y-9976222D01*
X12002730Y-9976222D02*
X12012253Y-9957174D01*
X12012253Y-9957174D02*
X12031301Y-9947650D01*
X12031301Y-9947650D02*
X12069396Y-9947650D01*
X12069396Y-9947650D02*
X12088444Y-9957174D01*
X12088444Y-9957174D02*
X12097968Y-9976222D01*
X12097968Y-9976222D02*
X12097968Y-9995270D01*
X12097968Y-9995270D02*
X12002730Y-10014317D01*
X12174158Y-10071460D02*
X12193206Y-10080984D01*
X12193206Y-10080984D02*
X12231301Y-10080984D01*
X12231301Y-10080984D02*
X12250349Y-10071460D01*
X12250349Y-10071460D02*
X12259872Y-10052412D01*
X12259872Y-10052412D02*
X12259872Y-10042889D01*
X12259872Y-10042889D02*
X12250349Y-10023841D01*
X12250349Y-10023841D02*
X12231301Y-10014317D01*
X12231301Y-10014317D02*
X12202730Y-10014317D01*
X12202730Y-10014317D02*
X12183682Y-10004793D01*
X12183682Y-10004793D02*
X12174158Y-9985746D01*
X12174158Y-9985746D02*
X12174158Y-9976222D01*
X12174158Y-9976222D02*
X12183682Y-9957174D01*
X12183682Y-9957174D02*
X12202730Y-9947650D01*
X12202730Y-9947650D02*
X12231301Y-9947650D01*
X12231301Y-9947650D02*
X12250349Y-9957174D01*
X12326539Y-10157174D02*
X12336063Y-10147650D01*
X12336063Y-10147650D02*
X12355111Y-10119079D01*
X12355111Y-10119079D02*
X12364634Y-10100031D01*
X12364634Y-10100031D02*
X12374158Y-10071460D01*
X12374158Y-10071460D02*
X12383682Y-10023841D01*
X12383682Y-10023841D02*
X12383682Y-9985746D01*
X12383682Y-9985746D02*
X12374158Y-9938127D01*
X12374158Y-9938127D02*
X12364634Y-9909555D01*
X12364634Y-9909555D02*
X12355111Y-9890508D01*
X12355111Y-9890508D02*
X12336063Y-9861936D01*
X12336063Y-9861936D02*
X12326539Y-9852412D01*
D10*
X7311000Y-10203500D02*
X7311000Y-10303500D01*
X7261000Y-10253500D02*
X7361000Y-10253500D01*
D11*
X7726539Y-10344984D02*
X7612253Y-10344984D01*
X7669396Y-10344984D02*
X7669396Y-10144984D01*
X7669396Y-10144984D02*
X7650348Y-10173555D01*
X7650348Y-10173555D02*
X7631301Y-10192603D01*
X7631301Y-10192603D02*
X7612253Y-10202127D01*
X7812253Y-10325936D02*
X7821777Y-10335460D01*
X7821777Y-10335460D02*
X7812253Y-10344984D01*
X7812253Y-10344984D02*
X7802729Y-10335460D01*
X7802729Y-10335460D02*
X7812253Y-10325936D01*
X7812253Y-10325936D02*
X7812253Y-10344984D01*
X7945586Y-10144984D02*
X7964634Y-10144984D01*
X7964634Y-10144984D02*
X7983682Y-10154508D01*
X7983682Y-10154508D02*
X7993205Y-10164031D01*
X7993205Y-10164031D02*
X8002729Y-10183079D01*
X8002729Y-10183079D02*
X8012253Y-10221174D01*
X8012253Y-10221174D02*
X8012253Y-10268793D01*
X8012253Y-10268793D02*
X8002729Y-10306889D01*
X8002729Y-10306889D02*
X7993205Y-10325936D01*
X7993205Y-10325936D02*
X7983682Y-10335460D01*
X7983682Y-10335460D02*
X7964634Y-10344984D01*
X7964634Y-10344984D02*
X7945586Y-10344984D01*
X7945586Y-10344984D02*
X7926539Y-10335460D01*
X7926539Y-10335460D02*
X7917015Y-10325936D01*
X7917015Y-10325936D02*
X7907491Y-10306889D01*
X7907491Y-10306889D02*
X7897967Y-10268793D01*
X7897967Y-10268793D02*
X7897967Y-10221174D01*
X7897967Y-10221174D02*
X7907491Y-10183079D01*
X7907491Y-10183079D02*
X7917015Y-10164031D01*
X7917015Y-10164031D02*
X7926539Y-10154508D01*
X7926539Y-10154508D02*
X7945586Y-10144984D01*
X8136062Y-10144984D02*
X8155110Y-10144984D01*
X8155110Y-10144984D02*
X8174158Y-10154508D01*
X8174158Y-10154508D02*
X8183682Y-10164031D01*
X8183682Y-10164031D02*
X8193205Y-10183079D01*
X8193205Y-10183079D02*
X8202729Y-10221174D01*
X8202729Y-10221174D02*
X8202729Y-10268793D01*
X8202729Y-10268793D02*
X8193205Y-10306889D01*
X8193205Y-10306889D02*
X8183682Y-10325936D01*
X8183682Y-10325936D02*
X8174158Y-10335460D01*
X8174158Y-10335460D02*
X8155110Y-10344984D01*
X8155110Y-10344984D02*
X8136062Y-10344984D01*
X8136062Y-10344984D02*
X8117015Y-10335460D01*
X8117015Y-10335460D02*
X8107491Y-10325936D01*
X8107491Y-10325936D02*
X8097967Y-10306889D01*
X8097967Y-10306889D02*
X8088443Y-10268793D01*
X8088443Y-10268793D02*
X8088443Y-10221174D01*
X8088443Y-10221174D02*
X8097967Y-10183079D01*
X8097967Y-10183079D02*
X8107491Y-10164031D01*
X8107491Y-10164031D02*
X8117015Y-10154508D01*
X8117015Y-10154508D02*
X8136062Y-10144984D01*
X8326539Y-10144984D02*
X8345586Y-10144984D01*
X8345586Y-10144984D02*
X8364634Y-10154508D01*
X8364634Y-10154508D02*
X8374158Y-10164031D01*
X8374158Y-10164031D02*
X8383682Y-10183079D01*
X8383682Y-10183079D02*
X8393205Y-10221174D01*
X8393205Y-10221174D02*
X8393205Y-10268793D01*
X8393205Y-10268793D02*
X8383682Y-10306889D01*
X8383682Y-10306889D02*
X8374158Y-10325936D01*
X8374158Y-10325936D02*
X8364634Y-10335460D01*
X8364634Y-10335460D02*
X8345586Y-10344984D01*
X8345586Y-10344984D02*
X8326539Y-10344984D01*
X8326539Y-10344984D02*
X8307491Y-10335460D01*
X8307491Y-10335460D02*
X8297967Y-10325936D01*
X8297967Y-10325936D02*
X8288443Y-10306889D01*
X8288443Y-10306889D02*
X8278920Y-10268793D01*
X8278920Y-10268793D02*
X8278920Y-10221174D01*
X8278920Y-10221174D02*
X8288443Y-10183079D01*
X8288443Y-10183079D02*
X8297967Y-10164031D01*
X8297967Y-10164031D02*
X8307491Y-10154508D01*
X8307491Y-10154508D02*
X8326539Y-10144984D01*
X8478920Y-10344984D02*
X8478920Y-10211650D01*
X8478920Y-10230698D02*
X8488444Y-10221174D01*
X8488444Y-10221174D02*
X8507491Y-10211650D01*
X8507491Y-10211650D02*
X8536063Y-10211650D01*
X8536063Y-10211650D02*
X8555110Y-10221174D01*
X8555110Y-10221174D02*
X8564634Y-10240222D01*
X8564634Y-10240222D02*
X8564634Y-10344984D01*
X8564634Y-10240222D02*
X8574158Y-10221174D01*
X8574158Y-10221174D02*
X8593205Y-10211650D01*
X8593205Y-10211650D02*
X8621777Y-10211650D01*
X8621777Y-10211650D02*
X8640825Y-10221174D01*
X8640825Y-10221174D02*
X8650348Y-10240222D01*
X8650348Y-10240222D02*
X8650348Y-10344984D01*
X8745586Y-10344984D02*
X8745586Y-10211650D01*
X8745586Y-10230698D02*
X8755110Y-10221174D01*
X8755110Y-10221174D02*
X8774158Y-10211650D01*
X8774158Y-10211650D02*
X8802729Y-10211650D01*
X8802729Y-10211650D02*
X8821777Y-10221174D01*
X8821777Y-10221174D02*
X8831301Y-10240222D01*
X8831301Y-10240222D02*
X8831301Y-10344984D01*
X8831301Y-10240222D02*
X8840825Y-10221174D01*
X8840825Y-10221174D02*
X8859872Y-10211650D01*
X8859872Y-10211650D02*
X8888444Y-10211650D01*
X8888444Y-10211650D02*
X8907491Y-10221174D01*
X8907491Y-10221174D02*
X8917015Y-10240222D01*
X8917015Y-10240222D02*
X8917015Y-10344984D01*
X9307491Y-10135460D02*
X9136063Y-10392603D01*
X9564634Y-10144984D02*
X9583682Y-10144984D01*
X9583682Y-10144984D02*
X9602729Y-10154508D01*
X9602729Y-10154508D02*
X9612253Y-10164031D01*
X9612253Y-10164031D02*
X9621777Y-10183079D01*
X9621777Y-10183079D02*
X9631301Y-10221174D01*
X9631301Y-10221174D02*
X9631301Y-10268793D01*
X9631301Y-10268793D02*
X9621777Y-10306889D01*
X9621777Y-10306889D02*
X9612253Y-10325936D01*
X9612253Y-10325936D02*
X9602729Y-10335460D01*
X9602729Y-10335460D02*
X9583682Y-10344984D01*
X9583682Y-10344984D02*
X9564634Y-10344984D01*
X9564634Y-10344984D02*
X9545587Y-10335460D01*
X9545587Y-10335460D02*
X9536063Y-10325936D01*
X9536063Y-10325936D02*
X9526539Y-10306889D01*
X9526539Y-10306889D02*
X9517015Y-10268793D01*
X9517015Y-10268793D02*
X9517015Y-10221174D01*
X9517015Y-10221174D02*
X9526539Y-10183079D01*
X9526539Y-10183079D02*
X9536063Y-10164031D01*
X9536063Y-10164031D02*
X9545587Y-10154508D01*
X9545587Y-10154508D02*
X9564634Y-10144984D01*
X9717015Y-10325936D02*
X9726539Y-10335460D01*
X9726539Y-10335460D02*
X9717015Y-10344984D01*
X9717015Y-10344984D02*
X9707491Y-10335460D01*
X9707491Y-10335460D02*
X9717015Y-10325936D01*
X9717015Y-10325936D02*
X9717015Y-10344984D01*
X9850348Y-10144984D02*
X9869396Y-10144984D01*
X9869396Y-10144984D02*
X9888444Y-10154508D01*
X9888444Y-10154508D02*
X9897968Y-10164031D01*
X9897968Y-10164031D02*
X9907491Y-10183079D01*
X9907491Y-10183079D02*
X9917015Y-10221174D01*
X9917015Y-10221174D02*
X9917015Y-10268793D01*
X9917015Y-10268793D02*
X9907491Y-10306889D01*
X9907491Y-10306889D02*
X9897968Y-10325936D01*
X9897968Y-10325936D02*
X9888444Y-10335460D01*
X9888444Y-10335460D02*
X9869396Y-10344984D01*
X9869396Y-10344984D02*
X9850348Y-10344984D01*
X9850348Y-10344984D02*
X9831301Y-10335460D01*
X9831301Y-10335460D02*
X9821777Y-10325936D01*
X9821777Y-10325936D02*
X9812253Y-10306889D01*
X9812253Y-10306889D02*
X9802729Y-10268793D01*
X9802729Y-10268793D02*
X9802729Y-10221174D01*
X9802729Y-10221174D02*
X9812253Y-10183079D01*
X9812253Y-10183079D02*
X9821777Y-10164031D01*
X9821777Y-10164031D02*
X9831301Y-10154508D01*
X9831301Y-10154508D02*
X9850348Y-10144984D01*
X9983682Y-10144984D02*
X10107491Y-10144984D01*
X10107491Y-10144984D02*
X10040825Y-10221174D01*
X10040825Y-10221174D02*
X10069396Y-10221174D01*
X10069396Y-10221174D02*
X10088444Y-10230698D01*
X10088444Y-10230698D02*
X10097968Y-10240222D01*
X10097968Y-10240222D02*
X10107491Y-10259270D01*
X10107491Y-10259270D02*
X10107491Y-10306889D01*
X10107491Y-10306889D02*
X10097968Y-10325936D01*
X10097968Y-10325936D02*
X10088444Y-10335460D01*
X10088444Y-10335460D02*
X10069396Y-10344984D01*
X10069396Y-10344984D02*
X10012253Y-10344984D01*
X10012253Y-10344984D02*
X9993206Y-10335460D01*
X9993206Y-10335460D02*
X9983682Y-10325936D01*
X10202729Y-10344984D02*
X10240825Y-10344984D01*
X10240825Y-10344984D02*
X10259872Y-10335460D01*
X10259872Y-10335460D02*
X10269396Y-10325936D01*
X10269396Y-10325936D02*
X10288444Y-10297365D01*
X10288444Y-10297365D02*
X10297968Y-10259270D01*
X10297968Y-10259270D02*
X10297968Y-10183079D01*
X10297968Y-10183079D02*
X10288444Y-10164031D01*
X10288444Y-10164031D02*
X10278920Y-10154508D01*
X10278920Y-10154508D02*
X10259872Y-10144984D01*
X10259872Y-10144984D02*
X10221777Y-10144984D01*
X10221777Y-10144984D02*
X10202729Y-10154508D01*
X10202729Y-10154508D02*
X10193206Y-10164031D01*
X10193206Y-10164031D02*
X10183682Y-10183079D01*
X10183682Y-10183079D02*
X10183682Y-10230698D01*
X10183682Y-10230698D02*
X10193206Y-10249746D01*
X10193206Y-10249746D02*
X10202729Y-10259270D01*
X10202729Y-10259270D02*
X10221777Y-10268793D01*
X10221777Y-10268793D02*
X10259872Y-10268793D01*
X10259872Y-10268793D02*
X10278920Y-10259270D01*
X10278920Y-10259270D02*
X10288444Y-10249746D01*
X10288444Y-10249746D02*
X10297968Y-10230698D01*
X10469396Y-10211650D02*
X10469396Y-10344984D01*
X10421777Y-10135460D02*
X10374158Y-10278317D01*
X10374158Y-10278317D02*
X10497968Y-10278317D01*
X10564634Y-10144984D02*
X10564634Y-10183079D01*
X10640825Y-10144984D02*
X10640825Y-10183079D01*
X10936063Y-10421174D02*
X10926539Y-10411650D01*
X10926539Y-10411650D02*
X10907491Y-10383079D01*
X10907491Y-10383079D02*
X10897968Y-10364031D01*
X10897968Y-10364031D02*
X10888444Y-10335460D01*
X10888444Y-10335460D02*
X10878920Y-10287841D01*
X10878920Y-10287841D02*
X10878920Y-10249746D01*
X10878920Y-10249746D02*
X10888444Y-10202127D01*
X10888444Y-10202127D02*
X10897968Y-10173555D01*
X10897968Y-10173555D02*
X10907491Y-10154508D01*
X10907491Y-10154508D02*
X10926539Y-10125936D01*
X10926539Y-10125936D02*
X10936063Y-10116412D01*
X11040825Y-10230698D02*
X11021777Y-10221174D01*
X11021777Y-10221174D02*
X11012253Y-10211650D01*
X11012253Y-10211650D02*
X11002730Y-10192603D01*
X11002730Y-10192603D02*
X11002730Y-10183079D01*
X11002730Y-10183079D02*
X11012253Y-10164031D01*
X11012253Y-10164031D02*
X11021777Y-10154508D01*
X11021777Y-10154508D02*
X11040825Y-10144984D01*
X11040825Y-10144984D02*
X11078920Y-10144984D01*
X11078920Y-10144984D02*
X11097968Y-10154508D01*
X11097968Y-10154508D02*
X11107491Y-10164031D01*
X11107491Y-10164031D02*
X11117015Y-10183079D01*
X11117015Y-10183079D02*
X11117015Y-10192603D01*
X11117015Y-10192603D02*
X11107491Y-10211650D01*
X11107491Y-10211650D02*
X11097968Y-10221174D01*
X11097968Y-10221174D02*
X11078920Y-10230698D01*
X11078920Y-10230698D02*
X11040825Y-10230698D01*
X11040825Y-10230698D02*
X11021777Y-10240222D01*
X11021777Y-10240222D02*
X11012253Y-10249746D01*
X11012253Y-10249746D02*
X11002730Y-10268793D01*
X11002730Y-10268793D02*
X11002730Y-10306889D01*
X11002730Y-10306889D02*
X11012253Y-10325936D01*
X11012253Y-10325936D02*
X11021777Y-10335460D01*
X11021777Y-10335460D02*
X11040825Y-10344984D01*
X11040825Y-10344984D02*
X11078920Y-10344984D01*
X11078920Y-10344984D02*
X11097968Y-10335460D01*
X11097968Y-10335460D02*
X11107491Y-10325936D01*
X11107491Y-10325936D02*
X11117015Y-10306889D01*
X11117015Y-10306889D02*
X11117015Y-10268793D01*
X11117015Y-10268793D02*
X11107491Y-10249746D01*
X11107491Y-10249746D02*
X11097968Y-10240222D01*
X11097968Y-10240222D02*
X11078920Y-10230698D01*
X11355110Y-10344984D02*
X11355110Y-10144984D01*
X11440825Y-10344984D02*
X11440825Y-10240222D01*
X11440825Y-10240222D02*
X11431301Y-10221174D01*
X11431301Y-10221174D02*
X11412253Y-10211650D01*
X11412253Y-10211650D02*
X11383682Y-10211650D01*
X11383682Y-10211650D02*
X11364634Y-10221174D01*
X11364634Y-10221174D02*
X11355110Y-10230698D01*
X11564634Y-10344984D02*
X11545587Y-10335460D01*
X11545587Y-10335460D02*
X11536063Y-10325936D01*
X11536063Y-10325936D02*
X11526539Y-10306889D01*
X11526539Y-10306889D02*
X11526539Y-10249746D01*
X11526539Y-10249746D02*
X11536063Y-10230698D01*
X11536063Y-10230698D02*
X11545587Y-10221174D01*
X11545587Y-10221174D02*
X11564634Y-10211650D01*
X11564634Y-10211650D02*
X11593206Y-10211650D01*
X11593206Y-10211650D02*
X11612253Y-10221174D01*
X11612253Y-10221174D02*
X11621777Y-10230698D01*
X11621777Y-10230698D02*
X11631301Y-10249746D01*
X11631301Y-10249746D02*
X11631301Y-10306889D01*
X11631301Y-10306889D02*
X11621777Y-10325936D01*
X11621777Y-10325936D02*
X11612253Y-10335460D01*
X11612253Y-10335460D02*
X11593206Y-10344984D01*
X11593206Y-10344984D02*
X11564634Y-10344984D01*
X11745587Y-10344984D02*
X11726539Y-10335460D01*
X11726539Y-10335460D02*
X11717015Y-10316412D01*
X11717015Y-10316412D02*
X11717015Y-10144984D01*
X11897968Y-10335460D02*
X11878920Y-10344984D01*
X11878920Y-10344984D02*
X11840825Y-10344984D01*
X11840825Y-10344984D02*
X11821777Y-10335460D01*
X11821777Y-10335460D02*
X11812253Y-10316412D01*
X11812253Y-10316412D02*
X11812253Y-10240222D01*
X11812253Y-10240222D02*
X11821777Y-10221174D01*
X11821777Y-10221174D02*
X11840825Y-10211650D01*
X11840825Y-10211650D02*
X11878920Y-10211650D01*
X11878920Y-10211650D02*
X11897968Y-10221174D01*
X11897968Y-10221174D02*
X11907491Y-10240222D01*
X11907491Y-10240222D02*
X11907491Y-10259270D01*
X11907491Y-10259270D02*
X11812253Y-10278317D01*
X11983682Y-10335460D02*
X12002730Y-10344984D01*
X12002730Y-10344984D02*
X12040825Y-10344984D01*
X12040825Y-10344984D02*
X12059872Y-10335460D01*
X12059872Y-10335460D02*
X12069396Y-10316412D01*
X12069396Y-10316412D02*
X12069396Y-10306889D01*
X12069396Y-10306889D02*
X12059872Y-10287841D01*
X12059872Y-10287841D02*
X12040825Y-10278317D01*
X12040825Y-10278317D02*
X12012253Y-10278317D01*
X12012253Y-10278317D02*
X11993206Y-10268793D01*
X11993206Y-10268793D02*
X11983682Y-10249746D01*
X11983682Y-10249746D02*
X11983682Y-10240222D01*
X11983682Y-10240222D02*
X11993206Y-10221174D01*
X11993206Y-10221174D02*
X12012253Y-10211650D01*
X12012253Y-10211650D02*
X12040825Y-10211650D01*
X12040825Y-10211650D02*
X12059872Y-10221174D01*
X12136063Y-10421174D02*
X12145587Y-10411650D01*
X12145587Y-10411650D02*
X12164634Y-10383079D01*
X12164634Y-10383079D02*
X12174158Y-10364031D01*
X12174158Y-10364031D02*
X12183682Y-10335460D01*
X12183682Y-10335460D02*
X12193206Y-10287841D01*
X12193206Y-10287841D02*
X12193206Y-10249746D01*
X12193206Y-10249746D02*
X12183682Y-10202127D01*
X12183682Y-10202127D02*
X12174158Y-10173555D01*
X12174158Y-10173555D02*
X12164634Y-10154508D01*
X12164634Y-10154508D02*
X12145587Y-10125936D01*
X12145587Y-10125936D02*
X12136063Y-10116412D01*
D12*
X7346063Y-10553563D02*
X7346063Y-10481437D01*
X7273937Y-10481437D01*
X7273937Y-10553563D01*
X7346063Y-10553563D01*
D11*
X7726539Y-10608984D02*
X7612253Y-10608984D01*
X7669396Y-10608984D02*
X7669396Y-10408984D01*
X7669396Y-10408984D02*
X7650348Y-10437555D01*
X7650348Y-10437555D02*
X7631301Y-10456603D01*
X7631301Y-10456603D02*
X7612253Y-10466127D01*
X7812253Y-10589936D02*
X7821777Y-10599460D01*
X7821777Y-10599460D02*
X7812253Y-10608984D01*
X7812253Y-10608984D02*
X7802729Y-10599460D01*
X7802729Y-10599460D02*
X7812253Y-10589936D01*
X7812253Y-10589936D02*
X7812253Y-10608984D01*
X7945586Y-10408984D02*
X7964634Y-10408984D01*
X7964634Y-10408984D02*
X7983682Y-10418508D01*
X7983682Y-10418508D02*
X7993205Y-10428031D01*
X7993205Y-10428031D02*
X8002729Y-10447079D01*
X8002729Y-10447079D02*
X8012253Y-10485174D01*
X8012253Y-10485174D02*
X8012253Y-10532793D01*
X8012253Y-10532793D02*
X8002729Y-10570889D01*
X8002729Y-10570889D02*
X7993205Y-10589936D01*
X7993205Y-10589936D02*
X7983682Y-10599460D01*
X7983682Y-10599460D02*
X7964634Y-10608984D01*
X7964634Y-10608984D02*
X7945586Y-10608984D01*
X7945586Y-10608984D02*
X7926539Y-10599460D01*
X7926539Y-10599460D02*
X7917015Y-10589936D01*
X7917015Y-10589936D02*
X7907491Y-10570889D01*
X7907491Y-10570889D02*
X7897967Y-10532793D01*
X7897967Y-10532793D02*
X7897967Y-10485174D01*
X7897967Y-10485174D02*
X7907491Y-10447079D01*
X7907491Y-10447079D02*
X7917015Y-10428031D01*
X7917015Y-10428031D02*
X7926539Y-10418508D01*
X7926539Y-10418508D02*
X7945586Y-10408984D01*
X8088443Y-10428031D02*
X8097967Y-10418508D01*
X8097967Y-10418508D02*
X8117015Y-10408984D01*
X8117015Y-10408984D02*
X8164634Y-10408984D01*
X8164634Y-10408984D02*
X8183682Y-10418508D01*
X8183682Y-10418508D02*
X8193205Y-10428031D01*
X8193205Y-10428031D02*
X8202729Y-10447079D01*
X8202729Y-10447079D02*
X8202729Y-10466127D01*
X8202729Y-10466127D02*
X8193205Y-10494698D01*
X8193205Y-10494698D02*
X8078920Y-10608984D01*
X8078920Y-10608984D02*
X8202729Y-10608984D01*
X8326539Y-10408984D02*
X8345586Y-10408984D01*
X8345586Y-10408984D02*
X8364634Y-10418508D01*
X8364634Y-10418508D02*
X8374158Y-10428031D01*
X8374158Y-10428031D02*
X8383682Y-10447079D01*
X8383682Y-10447079D02*
X8393205Y-10485174D01*
X8393205Y-10485174D02*
X8393205Y-10532793D01*
X8393205Y-10532793D02*
X8383682Y-10570889D01*
X8383682Y-10570889D02*
X8374158Y-10589936D01*
X8374158Y-10589936D02*
X8364634Y-10599460D01*
X8364634Y-10599460D02*
X8345586Y-10608984D01*
X8345586Y-10608984D02*
X8326539Y-10608984D01*
X8326539Y-10608984D02*
X8307491Y-10599460D01*
X8307491Y-10599460D02*
X8297967Y-10589936D01*
X8297967Y-10589936D02*
X8288443Y-10570889D01*
X8288443Y-10570889D02*
X8278920Y-10532793D01*
X8278920Y-10532793D02*
X8278920Y-10485174D01*
X8278920Y-10485174D02*
X8288443Y-10447079D01*
X8288443Y-10447079D02*
X8297967Y-10428031D01*
X8297967Y-10428031D02*
X8307491Y-10418508D01*
X8307491Y-10418508D02*
X8326539Y-10408984D01*
X8478920Y-10608984D02*
X8478920Y-10475650D01*
X8478920Y-10494698D02*
X8488444Y-10485174D01*
X8488444Y-10485174D02*
X8507491Y-10475650D01*
X8507491Y-10475650D02*
X8536063Y-10475650D01*
X8536063Y-10475650D02*
X8555110Y-10485174D01*
X8555110Y-10485174D02*
X8564634Y-10504222D01*
X8564634Y-10504222D02*
X8564634Y-10608984D01*
X8564634Y-10504222D02*
X8574158Y-10485174D01*
X8574158Y-10485174D02*
X8593205Y-10475650D01*
X8593205Y-10475650D02*
X8621777Y-10475650D01*
X8621777Y-10475650D02*
X8640825Y-10485174D01*
X8640825Y-10485174D02*
X8650348Y-10504222D01*
X8650348Y-10504222D02*
X8650348Y-10608984D01*
X8745586Y-10608984D02*
X8745586Y-10475650D01*
X8745586Y-10494698D02*
X8755110Y-10485174D01*
X8755110Y-10485174D02*
X8774158Y-10475650D01*
X8774158Y-10475650D02*
X8802729Y-10475650D01*
X8802729Y-10475650D02*
X8821777Y-10485174D01*
X8821777Y-10485174D02*
X8831301Y-10504222D01*
X8831301Y-10504222D02*
X8831301Y-10608984D01*
X8831301Y-10504222D02*
X8840825Y-10485174D01*
X8840825Y-10485174D02*
X8859872Y-10475650D01*
X8859872Y-10475650D02*
X8888444Y-10475650D01*
X8888444Y-10475650D02*
X8907491Y-10485174D01*
X8907491Y-10485174D02*
X8917015Y-10504222D01*
X8917015Y-10504222D02*
X8917015Y-10608984D01*
X9307491Y-10399460D02*
X9136063Y-10656603D01*
X9564634Y-10408984D02*
X9583682Y-10408984D01*
X9583682Y-10408984D02*
X9602729Y-10418508D01*
X9602729Y-10418508D02*
X9612253Y-10428031D01*
X9612253Y-10428031D02*
X9621777Y-10447079D01*
X9621777Y-10447079D02*
X9631301Y-10485174D01*
X9631301Y-10485174D02*
X9631301Y-10532793D01*
X9631301Y-10532793D02*
X9621777Y-10570889D01*
X9621777Y-10570889D02*
X9612253Y-10589936D01*
X9612253Y-10589936D02*
X9602729Y-10599460D01*
X9602729Y-10599460D02*
X9583682Y-10608984D01*
X9583682Y-10608984D02*
X9564634Y-10608984D01*
X9564634Y-10608984D02*
X9545587Y-10599460D01*
X9545587Y-10599460D02*
X9536063Y-10589936D01*
X9536063Y-10589936D02*
X9526539Y-10570889D01*
X9526539Y-10570889D02*
X9517015Y-10532793D01*
X9517015Y-10532793D02*
X9517015Y-10485174D01*
X9517015Y-10485174D02*
X9526539Y-10447079D01*
X9526539Y-10447079D02*
X9536063Y-10428031D01*
X9536063Y-10428031D02*
X9545587Y-10418508D01*
X9545587Y-10418508D02*
X9564634Y-10408984D01*
X9717015Y-10589936D02*
X9726539Y-10599460D01*
X9726539Y-10599460D02*
X9717015Y-10608984D01*
X9717015Y-10608984D02*
X9707491Y-10599460D01*
X9707491Y-10599460D02*
X9717015Y-10589936D01*
X9717015Y-10589936D02*
X9717015Y-10608984D01*
X9850348Y-10408984D02*
X9869396Y-10408984D01*
X9869396Y-10408984D02*
X9888444Y-10418508D01*
X9888444Y-10418508D02*
X9897968Y-10428031D01*
X9897968Y-10428031D02*
X9907491Y-10447079D01*
X9907491Y-10447079D02*
X9917015Y-10485174D01*
X9917015Y-10485174D02*
X9917015Y-10532793D01*
X9917015Y-10532793D02*
X9907491Y-10570889D01*
X9907491Y-10570889D02*
X9897968Y-10589936D01*
X9897968Y-10589936D02*
X9888444Y-10599460D01*
X9888444Y-10599460D02*
X9869396Y-10608984D01*
X9869396Y-10608984D02*
X9850348Y-10608984D01*
X9850348Y-10608984D02*
X9831301Y-10599460D01*
X9831301Y-10599460D02*
X9821777Y-10589936D01*
X9821777Y-10589936D02*
X9812253Y-10570889D01*
X9812253Y-10570889D02*
X9802729Y-10532793D01*
X9802729Y-10532793D02*
X9802729Y-10485174D01*
X9802729Y-10485174D02*
X9812253Y-10447079D01*
X9812253Y-10447079D02*
X9821777Y-10428031D01*
X9821777Y-10428031D02*
X9831301Y-10418508D01*
X9831301Y-10418508D02*
X9850348Y-10408984D01*
X10088444Y-10475650D02*
X10088444Y-10608984D01*
X10040825Y-10399460D02*
X9993206Y-10542317D01*
X9993206Y-10542317D02*
X10117015Y-10542317D01*
X10231301Y-10408984D02*
X10250349Y-10408984D01*
X10250349Y-10408984D02*
X10269396Y-10418508D01*
X10269396Y-10418508D02*
X10278920Y-10428031D01*
X10278920Y-10428031D02*
X10288444Y-10447079D01*
X10288444Y-10447079D02*
X10297968Y-10485174D01*
X10297968Y-10485174D02*
X10297968Y-10532793D01*
X10297968Y-10532793D02*
X10288444Y-10570889D01*
X10288444Y-10570889D02*
X10278920Y-10589936D01*
X10278920Y-10589936D02*
X10269396Y-10599460D01*
X10269396Y-10599460D02*
X10250349Y-10608984D01*
X10250349Y-10608984D02*
X10231301Y-10608984D01*
X10231301Y-10608984D02*
X10212253Y-10599460D01*
X10212253Y-10599460D02*
X10202729Y-10589936D01*
X10202729Y-10589936D02*
X10193206Y-10570889D01*
X10193206Y-10570889D02*
X10183682Y-10532793D01*
X10183682Y-10532793D02*
X10183682Y-10485174D01*
X10183682Y-10485174D02*
X10193206Y-10447079D01*
X10193206Y-10447079D02*
X10202729Y-10428031D01*
X10202729Y-10428031D02*
X10212253Y-10418508D01*
X10212253Y-10418508D02*
X10231301Y-10408984D01*
X10374158Y-10428031D02*
X10383682Y-10418508D01*
X10383682Y-10418508D02*
X10402729Y-10408984D01*
X10402729Y-10408984D02*
X10450349Y-10408984D01*
X10450349Y-10408984D02*
X10469396Y-10418508D01*
X10469396Y-10418508D02*
X10478920Y-10428031D01*
X10478920Y-10428031D02*
X10488444Y-10447079D01*
X10488444Y-10447079D02*
X10488444Y-10466127D01*
X10488444Y-10466127D02*
X10478920Y-10494698D01*
X10478920Y-10494698D02*
X10364634Y-10608984D01*
X10364634Y-10608984D02*
X10488444Y-10608984D01*
X10564634Y-10408984D02*
X10564634Y-10447079D01*
X10640825Y-10408984D02*
X10640825Y-10447079D01*
X10936063Y-10685174D02*
X10926539Y-10675650D01*
X10926539Y-10675650D02*
X10907491Y-10647079D01*
X10907491Y-10647079D02*
X10897968Y-10628031D01*
X10897968Y-10628031D02*
X10888444Y-10599460D01*
X10888444Y-10599460D02*
X10878920Y-10551841D01*
X10878920Y-10551841D02*
X10878920Y-10513746D01*
X10878920Y-10513746D02*
X10888444Y-10466127D01*
X10888444Y-10466127D02*
X10897968Y-10437555D01*
X10897968Y-10437555D02*
X10907491Y-10418508D01*
X10907491Y-10418508D02*
X10926539Y-10389936D01*
X10926539Y-10389936D02*
X10936063Y-10380412D01*
X11097968Y-10408984D02*
X11059872Y-10408984D01*
X11059872Y-10408984D02*
X11040825Y-10418508D01*
X11040825Y-10418508D02*
X11031301Y-10428031D01*
X11031301Y-10428031D02*
X11012253Y-10456603D01*
X11012253Y-10456603D02*
X11002730Y-10494698D01*
X11002730Y-10494698D02*
X11002730Y-10570889D01*
X11002730Y-10570889D02*
X11012253Y-10589936D01*
X11012253Y-10589936D02*
X11021777Y-10599460D01*
X11021777Y-10599460D02*
X11040825Y-10608984D01*
X11040825Y-10608984D02*
X11078920Y-10608984D01*
X11078920Y-10608984D02*
X11097968Y-10599460D01*
X11097968Y-10599460D02*
X11107491Y-10589936D01*
X11107491Y-10589936D02*
X11117015Y-10570889D01*
X11117015Y-10570889D02*
X11117015Y-10523270D01*
X11117015Y-10523270D02*
X11107491Y-10504222D01*
X11107491Y-10504222D02*
X11097968Y-10494698D01*
X11097968Y-10494698D02*
X11078920Y-10485174D01*
X11078920Y-10485174D02*
X11040825Y-10485174D01*
X11040825Y-10485174D02*
X11021777Y-10494698D01*
X11021777Y-10494698D02*
X11012253Y-10504222D01*
X11012253Y-10504222D02*
X11002730Y-10523270D01*
X11355110Y-10608984D02*
X11355110Y-10408984D01*
X11440825Y-10608984D02*
X11440825Y-10504222D01*
X11440825Y-10504222D02*
X11431301Y-10485174D01*
X11431301Y-10485174D02*
X11412253Y-10475650D01*
X11412253Y-10475650D02*
X11383682Y-10475650D01*
X11383682Y-10475650D02*
X11364634Y-10485174D01*
X11364634Y-10485174D02*
X11355110Y-10494698D01*
X11564634Y-10608984D02*
X11545587Y-10599460D01*
X11545587Y-10599460D02*
X11536063Y-10589936D01*
X11536063Y-10589936D02*
X11526539Y-10570889D01*
X11526539Y-10570889D02*
X11526539Y-10513746D01*
X11526539Y-10513746D02*
X11536063Y-10494698D01*
X11536063Y-10494698D02*
X11545587Y-10485174D01*
X11545587Y-10485174D02*
X11564634Y-10475650D01*
X11564634Y-10475650D02*
X11593206Y-10475650D01*
X11593206Y-10475650D02*
X11612253Y-10485174D01*
X11612253Y-10485174D02*
X11621777Y-10494698D01*
X11621777Y-10494698D02*
X11631301Y-10513746D01*
X11631301Y-10513746D02*
X11631301Y-10570889D01*
X11631301Y-10570889D02*
X11621777Y-10589936D01*
X11621777Y-10589936D02*
X11612253Y-10599460D01*
X11612253Y-10599460D02*
X11593206Y-10608984D01*
X11593206Y-10608984D02*
X11564634Y-10608984D01*
X11745587Y-10608984D02*
X11726539Y-10599460D01*
X11726539Y-10599460D02*
X11717015Y-10580412D01*
X11717015Y-10580412D02*
X11717015Y-10408984D01*
X11897968Y-10599460D02*
X11878920Y-10608984D01*
X11878920Y-10608984D02*
X11840825Y-10608984D01*
X11840825Y-10608984D02*
X11821777Y-10599460D01*
X11821777Y-10599460D02*
X11812253Y-10580412D01*
X11812253Y-10580412D02*
X11812253Y-10504222D01*
X11812253Y-10504222D02*
X11821777Y-10485174D01*
X11821777Y-10485174D02*
X11840825Y-10475650D01*
X11840825Y-10475650D02*
X11878920Y-10475650D01*
X11878920Y-10475650D02*
X11897968Y-10485174D01*
X11897968Y-10485174D02*
X11907491Y-10504222D01*
X11907491Y-10504222D02*
X11907491Y-10523270D01*
X11907491Y-10523270D02*
X11812253Y-10542317D01*
X11983682Y-10599460D02*
X12002730Y-10608984D01*
X12002730Y-10608984D02*
X12040825Y-10608984D01*
X12040825Y-10608984D02*
X12059872Y-10599460D01*
X12059872Y-10599460D02*
X12069396Y-10580412D01*
X12069396Y-10580412D02*
X12069396Y-10570889D01*
X12069396Y-10570889D02*
X12059872Y-10551841D01*
X12059872Y-10551841D02*
X12040825Y-10542317D01*
X12040825Y-10542317D02*
X12012253Y-10542317D01*
X12012253Y-10542317D02*
X11993206Y-10532793D01*
X11993206Y-10532793D02*
X11983682Y-10513746D01*
X11983682Y-10513746D02*
X11983682Y-10504222D01*
X11983682Y-10504222D02*
X11993206Y-10485174D01*
X11993206Y-10485174D02*
X12012253Y-10475650D01*
X12012253Y-10475650D02*
X12040825Y-10475650D01*
X12040825Y-10475650D02*
X12059872Y-10485174D01*
X12136063Y-10685174D02*
X12145587Y-10675650D01*
X12145587Y-10675650D02*
X12164634Y-10647079D01*
X12164634Y-10647079D02*
X12174158Y-10628031D01*
X12174158Y-10628031D02*
X12183682Y-10599460D01*
X12183682Y-10599460D02*
X12193206Y-10551841D01*
X12193206Y-10551841D02*
X12193206Y-10513746D01*
X12193206Y-10513746D02*
X12183682Y-10466127D01*
X12183682Y-10466127D02*
X12174158Y-10437555D01*
X12174158Y-10437555D02*
X12164634Y-10418508D01*
X12164634Y-10418508D02*
X12145587Y-10389936D01*
X12145587Y-10389936D02*
X12136063Y-10380412D01*
D13*
X7306000Y-10836500D02*
X7361000Y-10781500D01*
X7306000Y-10726500D01*
X7251000Y-10781500D01*
X7306000Y-10836500D01*
D11*
X7726539Y-10872984D02*
X7612253Y-10872984D01*
X7669396Y-10872984D02*
X7669396Y-10672984D01*
X7669396Y-10672984D02*
X7650348Y-10701555D01*
X7650348Y-10701555D02*
X7631301Y-10720603D01*
X7631301Y-10720603D02*
X7612253Y-10730127D01*
X7812253Y-10853936D02*
X7821777Y-10863460D01*
X7821777Y-10863460D02*
X7812253Y-10872984D01*
X7812253Y-10872984D02*
X7802729Y-10863460D01*
X7802729Y-10863460D02*
X7812253Y-10853936D01*
X7812253Y-10853936D02*
X7812253Y-10872984D01*
X8012253Y-10872984D02*
X7897967Y-10872984D01*
X7955110Y-10872984D02*
X7955110Y-10672984D01*
X7955110Y-10672984D02*
X7936062Y-10701555D01*
X7936062Y-10701555D02*
X7917015Y-10720603D01*
X7917015Y-10720603D02*
X7897967Y-10730127D01*
X8136062Y-10672984D02*
X8155110Y-10672984D01*
X8155110Y-10672984D02*
X8174158Y-10682508D01*
X8174158Y-10682508D02*
X8183682Y-10692031D01*
X8183682Y-10692031D02*
X8193205Y-10711079D01*
X8193205Y-10711079D02*
X8202729Y-10749174D01*
X8202729Y-10749174D02*
X8202729Y-10796793D01*
X8202729Y-10796793D02*
X8193205Y-10834889D01*
X8193205Y-10834889D02*
X8183682Y-10853936D01*
X8183682Y-10853936D02*
X8174158Y-10863460D01*
X8174158Y-10863460D02*
X8155110Y-10872984D01*
X8155110Y-10872984D02*
X8136062Y-10872984D01*
X8136062Y-10872984D02*
X8117015Y-10863460D01*
X8117015Y-10863460D02*
X8107491Y-10853936D01*
X8107491Y-10853936D02*
X8097967Y-10834889D01*
X8097967Y-10834889D02*
X8088443Y-10796793D01*
X8088443Y-10796793D02*
X8088443Y-10749174D01*
X8088443Y-10749174D02*
X8097967Y-10711079D01*
X8097967Y-10711079D02*
X8107491Y-10692031D01*
X8107491Y-10692031D02*
X8117015Y-10682508D01*
X8117015Y-10682508D02*
X8136062Y-10672984D01*
X8326539Y-10672984D02*
X8345586Y-10672984D01*
X8345586Y-10672984D02*
X8364634Y-10682508D01*
X8364634Y-10682508D02*
X8374158Y-10692031D01*
X8374158Y-10692031D02*
X8383682Y-10711079D01*
X8383682Y-10711079D02*
X8393205Y-10749174D01*
X8393205Y-10749174D02*
X8393205Y-10796793D01*
X8393205Y-10796793D02*
X8383682Y-10834889D01*
X8383682Y-10834889D02*
X8374158Y-10853936D01*
X8374158Y-10853936D02*
X8364634Y-10863460D01*
X8364634Y-10863460D02*
X8345586Y-10872984D01*
X8345586Y-10872984D02*
X8326539Y-10872984D01*
X8326539Y-10872984D02*
X8307491Y-10863460D01*
X8307491Y-10863460D02*
X8297967Y-10853936D01*
X8297967Y-10853936D02*
X8288443Y-10834889D01*
X8288443Y-10834889D02*
X8278920Y-10796793D01*
X8278920Y-10796793D02*
X8278920Y-10749174D01*
X8278920Y-10749174D02*
X8288443Y-10711079D01*
X8288443Y-10711079D02*
X8297967Y-10692031D01*
X8297967Y-10692031D02*
X8307491Y-10682508D01*
X8307491Y-10682508D02*
X8326539Y-10672984D01*
X8478920Y-10872984D02*
X8478920Y-10739650D01*
X8478920Y-10758698D02*
X8488444Y-10749174D01*
X8488444Y-10749174D02*
X8507491Y-10739650D01*
X8507491Y-10739650D02*
X8536063Y-10739650D01*
X8536063Y-10739650D02*
X8555110Y-10749174D01*
X8555110Y-10749174D02*
X8564634Y-10768222D01*
X8564634Y-10768222D02*
X8564634Y-10872984D01*
X8564634Y-10768222D02*
X8574158Y-10749174D01*
X8574158Y-10749174D02*
X8593205Y-10739650D01*
X8593205Y-10739650D02*
X8621777Y-10739650D01*
X8621777Y-10739650D02*
X8640825Y-10749174D01*
X8640825Y-10749174D02*
X8650348Y-10768222D01*
X8650348Y-10768222D02*
X8650348Y-10872984D01*
X8745586Y-10872984D02*
X8745586Y-10739650D01*
X8745586Y-10758698D02*
X8755110Y-10749174D01*
X8755110Y-10749174D02*
X8774158Y-10739650D01*
X8774158Y-10739650D02*
X8802729Y-10739650D01*
X8802729Y-10739650D02*
X8821777Y-10749174D01*
X8821777Y-10749174D02*
X8831301Y-10768222D01*
X8831301Y-10768222D02*
X8831301Y-10872984D01*
X8831301Y-10768222D02*
X8840825Y-10749174D01*
X8840825Y-10749174D02*
X8859872Y-10739650D01*
X8859872Y-10739650D02*
X8888444Y-10739650D01*
X8888444Y-10739650D02*
X8907491Y-10749174D01*
X8907491Y-10749174D02*
X8917015Y-10768222D01*
X8917015Y-10768222D02*
X8917015Y-10872984D01*
X9307491Y-10663460D02*
X9136063Y-10920603D01*
X9564634Y-10672984D02*
X9583682Y-10672984D01*
X9583682Y-10672984D02*
X9602729Y-10682508D01*
X9602729Y-10682508D02*
X9612253Y-10692031D01*
X9612253Y-10692031D02*
X9621777Y-10711079D01*
X9621777Y-10711079D02*
X9631301Y-10749174D01*
X9631301Y-10749174D02*
X9631301Y-10796793D01*
X9631301Y-10796793D02*
X9621777Y-10834889D01*
X9621777Y-10834889D02*
X9612253Y-10853936D01*
X9612253Y-10853936D02*
X9602729Y-10863460D01*
X9602729Y-10863460D02*
X9583682Y-10872984D01*
X9583682Y-10872984D02*
X9564634Y-10872984D01*
X9564634Y-10872984D02*
X9545587Y-10863460D01*
X9545587Y-10863460D02*
X9536063Y-10853936D01*
X9536063Y-10853936D02*
X9526539Y-10834889D01*
X9526539Y-10834889D02*
X9517015Y-10796793D01*
X9517015Y-10796793D02*
X9517015Y-10749174D01*
X9517015Y-10749174D02*
X9526539Y-10711079D01*
X9526539Y-10711079D02*
X9536063Y-10692031D01*
X9536063Y-10692031D02*
X9545587Y-10682508D01*
X9545587Y-10682508D02*
X9564634Y-10672984D01*
X9717015Y-10853936D02*
X9726539Y-10863460D01*
X9726539Y-10863460D02*
X9717015Y-10872984D01*
X9717015Y-10872984D02*
X9707491Y-10863460D01*
X9707491Y-10863460D02*
X9717015Y-10853936D01*
X9717015Y-10853936D02*
X9717015Y-10872984D01*
X9850348Y-10672984D02*
X9869396Y-10672984D01*
X9869396Y-10672984D02*
X9888444Y-10682508D01*
X9888444Y-10682508D02*
X9897968Y-10692031D01*
X9897968Y-10692031D02*
X9907491Y-10711079D01*
X9907491Y-10711079D02*
X9917015Y-10749174D01*
X9917015Y-10749174D02*
X9917015Y-10796793D01*
X9917015Y-10796793D02*
X9907491Y-10834889D01*
X9907491Y-10834889D02*
X9897968Y-10853936D01*
X9897968Y-10853936D02*
X9888444Y-10863460D01*
X9888444Y-10863460D02*
X9869396Y-10872984D01*
X9869396Y-10872984D02*
X9850348Y-10872984D01*
X9850348Y-10872984D02*
X9831301Y-10863460D01*
X9831301Y-10863460D02*
X9821777Y-10853936D01*
X9821777Y-10853936D02*
X9812253Y-10834889D01*
X9812253Y-10834889D02*
X9802729Y-10796793D01*
X9802729Y-10796793D02*
X9802729Y-10749174D01*
X9802729Y-10749174D02*
X9812253Y-10711079D01*
X9812253Y-10711079D02*
X9821777Y-10692031D01*
X9821777Y-10692031D02*
X9831301Y-10682508D01*
X9831301Y-10682508D02*
X9850348Y-10672984D01*
X10088444Y-10739650D02*
X10088444Y-10872984D01*
X10040825Y-10663460D02*
X9993206Y-10806317D01*
X9993206Y-10806317D02*
X10117015Y-10806317D01*
X10174158Y-10672984D02*
X10297968Y-10672984D01*
X10297968Y-10672984D02*
X10231301Y-10749174D01*
X10231301Y-10749174D02*
X10259872Y-10749174D01*
X10259872Y-10749174D02*
X10278920Y-10758698D01*
X10278920Y-10758698D02*
X10288444Y-10768222D01*
X10288444Y-10768222D02*
X10297968Y-10787270D01*
X10297968Y-10787270D02*
X10297968Y-10834889D01*
X10297968Y-10834889D02*
X10288444Y-10853936D01*
X10288444Y-10853936D02*
X10278920Y-10863460D01*
X10278920Y-10863460D02*
X10259872Y-10872984D01*
X10259872Y-10872984D02*
X10202729Y-10872984D01*
X10202729Y-10872984D02*
X10183682Y-10863460D01*
X10183682Y-10863460D02*
X10174158Y-10853936D01*
X10364634Y-10672984D02*
X10488444Y-10672984D01*
X10488444Y-10672984D02*
X10421777Y-10749174D01*
X10421777Y-10749174D02*
X10450349Y-10749174D01*
X10450349Y-10749174D02*
X10469396Y-10758698D01*
X10469396Y-10758698D02*
X10478920Y-10768222D01*
X10478920Y-10768222D02*
X10488444Y-10787270D01*
X10488444Y-10787270D02*
X10488444Y-10834889D01*
X10488444Y-10834889D02*
X10478920Y-10853936D01*
X10478920Y-10853936D02*
X10469396Y-10863460D01*
X10469396Y-10863460D02*
X10450349Y-10872984D01*
X10450349Y-10872984D02*
X10393206Y-10872984D01*
X10393206Y-10872984D02*
X10374158Y-10863460D01*
X10374158Y-10863460D02*
X10364634Y-10853936D01*
X10564634Y-10672984D02*
X10564634Y-10711079D01*
X10640825Y-10672984D02*
X10640825Y-10711079D01*
X10936063Y-10949174D02*
X10926539Y-10939650D01*
X10926539Y-10939650D02*
X10907491Y-10911079D01*
X10907491Y-10911079D02*
X10897968Y-10892031D01*
X10897968Y-10892031D02*
X10888444Y-10863460D01*
X10888444Y-10863460D02*
X10878920Y-10815841D01*
X10878920Y-10815841D02*
X10878920Y-10777746D01*
X10878920Y-10777746D02*
X10888444Y-10730127D01*
X10888444Y-10730127D02*
X10897968Y-10701555D01*
X10897968Y-10701555D02*
X10907491Y-10682508D01*
X10907491Y-10682508D02*
X10926539Y-10653936D01*
X10926539Y-10653936D02*
X10936063Y-10644412D01*
X11040825Y-10758698D02*
X11021777Y-10749174D01*
X11021777Y-10749174D02*
X11012253Y-10739650D01*
X11012253Y-10739650D02*
X11002730Y-10720603D01*
X11002730Y-10720603D02*
X11002730Y-10711079D01*
X11002730Y-10711079D02*
X11012253Y-10692031D01*
X11012253Y-10692031D02*
X11021777Y-10682508D01*
X11021777Y-10682508D02*
X11040825Y-10672984D01*
X11040825Y-10672984D02*
X11078920Y-10672984D01*
X11078920Y-10672984D02*
X11097968Y-10682508D01*
X11097968Y-10682508D02*
X11107491Y-10692031D01*
X11107491Y-10692031D02*
X11117015Y-10711079D01*
X11117015Y-10711079D02*
X11117015Y-10720603D01*
X11117015Y-10720603D02*
X11107491Y-10739650D01*
X11107491Y-10739650D02*
X11097968Y-10749174D01*
X11097968Y-10749174D02*
X11078920Y-10758698D01*
X11078920Y-10758698D02*
X11040825Y-10758698D01*
X11040825Y-10758698D02*
X11021777Y-10768222D01*
X11021777Y-10768222D02*
X11012253Y-10777746D01*
X11012253Y-10777746D02*
X11002730Y-10796793D01*
X11002730Y-10796793D02*
X11002730Y-10834889D01*
X11002730Y-10834889D02*
X11012253Y-10853936D01*
X11012253Y-10853936D02*
X11021777Y-10863460D01*
X11021777Y-10863460D02*
X11040825Y-10872984D01*
X11040825Y-10872984D02*
X11078920Y-10872984D01*
X11078920Y-10872984D02*
X11097968Y-10863460D01*
X11097968Y-10863460D02*
X11107491Y-10853936D01*
X11107491Y-10853936D02*
X11117015Y-10834889D01*
X11117015Y-10834889D02*
X11117015Y-10796793D01*
X11117015Y-10796793D02*
X11107491Y-10777746D01*
X11107491Y-10777746D02*
X11097968Y-10768222D01*
X11097968Y-10768222D02*
X11078920Y-10758698D01*
X11355110Y-10872984D02*
X11355110Y-10672984D01*
X11440825Y-10872984D02*
X11440825Y-10768222D01*
X11440825Y-10768222D02*
X11431301Y-10749174D01*
X11431301Y-10749174D02*
X11412253Y-10739650D01*
X11412253Y-10739650D02*
X11383682Y-10739650D01*
X11383682Y-10739650D02*
X11364634Y-10749174D01*
X11364634Y-10749174D02*
X11355110Y-10758698D01*
X11564634Y-10872984D02*
X11545587Y-10863460D01*
X11545587Y-10863460D02*
X11536063Y-10853936D01*
X11536063Y-10853936D02*
X11526539Y-10834889D01*
X11526539Y-10834889D02*
X11526539Y-10777746D01*
X11526539Y-10777746D02*
X11536063Y-10758698D01*
X11536063Y-10758698D02*
X11545587Y-10749174D01*
X11545587Y-10749174D02*
X11564634Y-10739650D01*
X11564634Y-10739650D02*
X11593206Y-10739650D01*
X11593206Y-10739650D02*
X11612253Y-10749174D01*
X11612253Y-10749174D02*
X11621777Y-10758698D01*
X11621777Y-10758698D02*
X11631301Y-10777746D01*
X11631301Y-10777746D02*
X11631301Y-10834889D01*
X11631301Y-10834889D02*
X11621777Y-10853936D01*
X11621777Y-10853936D02*
X11612253Y-10863460D01*
X11612253Y-10863460D02*
X11593206Y-10872984D01*
X11593206Y-10872984D02*
X11564634Y-10872984D01*
X11745587Y-10872984D02*
X11726539Y-10863460D01*
X11726539Y-10863460D02*
X11717015Y-10844412D01*
X11717015Y-10844412D02*
X11717015Y-10672984D01*
X11897968Y-10863460D02*
X11878920Y-10872984D01*
X11878920Y-10872984D02*
X11840825Y-10872984D01*
X11840825Y-10872984D02*
X11821777Y-10863460D01*
X11821777Y-10863460D02*
X11812253Y-10844412D01*
X11812253Y-10844412D02*
X11812253Y-10768222D01*
X11812253Y-10768222D02*
X11821777Y-10749174D01*
X11821777Y-10749174D02*
X11840825Y-10739650D01*
X11840825Y-10739650D02*
X11878920Y-10739650D01*
X11878920Y-10739650D02*
X11897968Y-10749174D01*
X11897968Y-10749174D02*
X11907491Y-10768222D01*
X11907491Y-10768222D02*
X11907491Y-10787270D01*
X11907491Y-10787270D02*
X11812253Y-10806317D01*
X11983682Y-10863460D02*
X12002730Y-10872984D01*
X12002730Y-10872984D02*
X12040825Y-10872984D01*
X12040825Y-10872984D02*
X12059872Y-10863460D01*
X12059872Y-10863460D02*
X12069396Y-10844412D01*
X12069396Y-10844412D02*
X12069396Y-10834889D01*
X12069396Y-10834889D02*
X12059872Y-10815841D01*
X12059872Y-10815841D02*
X12040825Y-10806317D01*
X12040825Y-10806317D02*
X12012253Y-10806317D01*
X12012253Y-10806317D02*
X11993206Y-10796793D01*
X11993206Y-10796793D02*
X11983682Y-10777746D01*
X11983682Y-10777746D02*
X11983682Y-10768222D01*
X11983682Y-10768222D02*
X11993206Y-10749174D01*
X11993206Y-10749174D02*
X12012253Y-10739650D01*
X12012253Y-10739650D02*
X12040825Y-10739650D01*
X12040825Y-10739650D02*
X12059872Y-10749174D01*
X12136063Y-10949174D02*
X12145587Y-10939650D01*
X12145587Y-10939650D02*
X12164634Y-10911079D01*
X12164634Y-10911079D02*
X12174158Y-10892031D01*
X12174158Y-10892031D02*
X12183682Y-10863460D01*
X12183682Y-10863460D02*
X12193206Y-10815841D01*
X12193206Y-10815841D02*
X12193206Y-10777746D01*
X12193206Y-10777746D02*
X12183682Y-10730127D01*
X12183682Y-10730127D02*
X12174158Y-10701555D01*
X12174158Y-10701555D02*
X12164634Y-10682508D01*
X12164634Y-10682508D02*
X12145587Y-10653936D01*
X12145587Y-10653936D02*
X12136063Y-10644412D01*
X7161000Y-10945500D02*
X7361000Y-11145500D01*
X7361000Y-10945500D02*
X7161000Y-11145500D01*
X7361000Y-11045500D02*
G75*
G03*
X7361000Y-11045500I-100000J0D01*
G01*
X7707491Y-11003650D02*
X7707491Y-11136984D01*
X7659872Y-10927460D02*
X7612253Y-11070317D01*
X7612253Y-11070317D02*
X7736062Y-11070317D01*
X7812253Y-11117936D02*
X7821777Y-11127460D01*
X7821777Y-11127460D02*
X7812253Y-11136984D01*
X7812253Y-11136984D02*
X7802729Y-11127460D01*
X7802729Y-11127460D02*
X7812253Y-11117936D01*
X7812253Y-11117936D02*
X7812253Y-11136984D01*
X7888443Y-10936984D02*
X8012253Y-10936984D01*
X8012253Y-10936984D02*
X7945586Y-11013174D01*
X7945586Y-11013174D02*
X7974158Y-11013174D01*
X7974158Y-11013174D02*
X7993205Y-11022698D01*
X7993205Y-11022698D02*
X8002729Y-11032222D01*
X8002729Y-11032222D02*
X8012253Y-11051270D01*
X8012253Y-11051270D02*
X8012253Y-11098889D01*
X8012253Y-11098889D02*
X8002729Y-11117936D01*
X8002729Y-11117936D02*
X7993205Y-11127460D01*
X7993205Y-11127460D02*
X7974158Y-11136984D01*
X7974158Y-11136984D02*
X7917015Y-11136984D01*
X7917015Y-11136984D02*
X7897967Y-11127460D01*
X7897967Y-11127460D02*
X7888443Y-11117936D01*
X8136062Y-10936984D02*
X8155110Y-10936984D01*
X8155110Y-10936984D02*
X8174158Y-10946508D01*
X8174158Y-10946508D02*
X8183682Y-10956031D01*
X8183682Y-10956031D02*
X8193205Y-10975079D01*
X8193205Y-10975079D02*
X8202729Y-11013174D01*
X8202729Y-11013174D02*
X8202729Y-11060793D01*
X8202729Y-11060793D02*
X8193205Y-11098889D01*
X8193205Y-11098889D02*
X8183682Y-11117936D01*
X8183682Y-11117936D02*
X8174158Y-11127460D01*
X8174158Y-11127460D02*
X8155110Y-11136984D01*
X8155110Y-11136984D02*
X8136062Y-11136984D01*
X8136062Y-11136984D02*
X8117015Y-11127460D01*
X8117015Y-11127460D02*
X8107491Y-11117936D01*
X8107491Y-11117936D02*
X8097967Y-11098889D01*
X8097967Y-11098889D02*
X8088443Y-11060793D01*
X8088443Y-11060793D02*
X8088443Y-11013174D01*
X8088443Y-11013174D02*
X8097967Y-10975079D01*
X8097967Y-10975079D02*
X8107491Y-10956031D01*
X8107491Y-10956031D02*
X8117015Y-10946508D01*
X8117015Y-10946508D02*
X8136062Y-10936984D01*
X8326539Y-10936984D02*
X8345586Y-10936984D01*
X8345586Y-10936984D02*
X8364634Y-10946508D01*
X8364634Y-10946508D02*
X8374158Y-10956031D01*
X8374158Y-10956031D02*
X8383682Y-10975079D01*
X8383682Y-10975079D02*
X8393205Y-11013174D01*
X8393205Y-11013174D02*
X8393205Y-11060793D01*
X8393205Y-11060793D02*
X8383682Y-11098889D01*
X8383682Y-11098889D02*
X8374158Y-11117936D01*
X8374158Y-11117936D02*
X8364634Y-11127460D01*
X8364634Y-11127460D02*
X8345586Y-11136984D01*
X8345586Y-11136984D02*
X8326539Y-11136984D01*
X8326539Y-11136984D02*
X8307491Y-11127460D01*
X8307491Y-11127460D02*
X8297967Y-11117936D01*
X8297967Y-11117936D02*
X8288443Y-11098889D01*
X8288443Y-11098889D02*
X8278920Y-11060793D01*
X8278920Y-11060793D02*
X8278920Y-11013174D01*
X8278920Y-11013174D02*
X8288443Y-10975079D01*
X8288443Y-10975079D02*
X8297967Y-10956031D01*
X8297967Y-10956031D02*
X8307491Y-10946508D01*
X8307491Y-10946508D02*
X8326539Y-10936984D01*
X8478920Y-11136984D02*
X8478920Y-11003650D01*
X8478920Y-11022698D02*
X8488444Y-11013174D01*
X8488444Y-11013174D02*
X8507491Y-11003650D01*
X8507491Y-11003650D02*
X8536063Y-11003650D01*
X8536063Y-11003650D02*
X8555110Y-11013174D01*
X8555110Y-11013174D02*
X8564634Y-11032222D01*
X8564634Y-11032222D02*
X8564634Y-11136984D01*
X8564634Y-11032222D02*
X8574158Y-11013174D01*
X8574158Y-11013174D02*
X8593205Y-11003650D01*
X8593205Y-11003650D02*
X8621777Y-11003650D01*
X8621777Y-11003650D02*
X8640825Y-11013174D01*
X8640825Y-11013174D02*
X8650348Y-11032222D01*
X8650348Y-11032222D02*
X8650348Y-11136984D01*
X8745586Y-11136984D02*
X8745586Y-11003650D01*
X8745586Y-11022698D02*
X8755110Y-11013174D01*
X8755110Y-11013174D02*
X8774158Y-11003650D01*
X8774158Y-11003650D02*
X8802729Y-11003650D01*
X8802729Y-11003650D02*
X8821777Y-11013174D01*
X8821777Y-11013174D02*
X8831301Y-11032222D01*
X8831301Y-11032222D02*
X8831301Y-11136984D01*
X8831301Y-11032222D02*
X8840825Y-11013174D01*
X8840825Y-11013174D02*
X8859872Y-11003650D01*
X8859872Y-11003650D02*
X8888444Y-11003650D01*
X8888444Y-11003650D02*
X8907491Y-11013174D01*
X8907491Y-11013174D02*
X8917015Y-11032222D01*
X8917015Y-11032222D02*
X8917015Y-11136984D01*
X9307491Y-10927460D02*
X9136063Y-11184603D01*
X9564634Y-10936984D02*
X9583682Y-10936984D01*
X9583682Y-10936984D02*
X9602729Y-10946508D01*
X9602729Y-10946508D02*
X9612253Y-10956031D01*
X9612253Y-10956031D02*
X9621777Y-10975079D01*
X9621777Y-10975079D02*
X9631301Y-11013174D01*
X9631301Y-11013174D02*
X9631301Y-11060793D01*
X9631301Y-11060793D02*
X9621777Y-11098889D01*
X9621777Y-11098889D02*
X9612253Y-11117936D01*
X9612253Y-11117936D02*
X9602729Y-11127460D01*
X9602729Y-11127460D02*
X9583682Y-11136984D01*
X9583682Y-11136984D02*
X9564634Y-11136984D01*
X9564634Y-11136984D02*
X9545587Y-11127460D01*
X9545587Y-11127460D02*
X9536063Y-11117936D01*
X9536063Y-11117936D02*
X9526539Y-11098889D01*
X9526539Y-11098889D02*
X9517015Y-11060793D01*
X9517015Y-11060793D02*
X9517015Y-11013174D01*
X9517015Y-11013174D02*
X9526539Y-10975079D01*
X9526539Y-10975079D02*
X9536063Y-10956031D01*
X9536063Y-10956031D02*
X9545587Y-10946508D01*
X9545587Y-10946508D02*
X9564634Y-10936984D01*
X9717015Y-11117936D02*
X9726539Y-11127460D01*
X9726539Y-11127460D02*
X9717015Y-11136984D01*
X9717015Y-11136984D02*
X9707491Y-11127460D01*
X9707491Y-11127460D02*
X9717015Y-11117936D01*
X9717015Y-11117936D02*
X9717015Y-11136984D01*
X9917015Y-11136984D02*
X9802729Y-11136984D01*
X9859872Y-11136984D02*
X9859872Y-10936984D01*
X9859872Y-10936984D02*
X9840825Y-10965555D01*
X9840825Y-10965555D02*
X9821777Y-10984603D01*
X9821777Y-10984603D02*
X9802729Y-10994127D01*
X10088444Y-10936984D02*
X10050348Y-10936984D01*
X10050348Y-10936984D02*
X10031301Y-10946508D01*
X10031301Y-10946508D02*
X10021777Y-10956031D01*
X10021777Y-10956031D02*
X10002729Y-10984603D01*
X10002729Y-10984603D02*
X9993206Y-11022698D01*
X9993206Y-11022698D02*
X9993206Y-11098889D01*
X9993206Y-11098889D02*
X10002729Y-11117936D01*
X10002729Y-11117936D02*
X10012253Y-11127460D01*
X10012253Y-11127460D02*
X10031301Y-11136984D01*
X10031301Y-11136984D02*
X10069396Y-11136984D01*
X10069396Y-11136984D02*
X10088444Y-11127460D01*
X10088444Y-11127460D02*
X10097968Y-11117936D01*
X10097968Y-11117936D02*
X10107491Y-11098889D01*
X10107491Y-11098889D02*
X10107491Y-11051270D01*
X10107491Y-11051270D02*
X10097968Y-11032222D01*
X10097968Y-11032222D02*
X10088444Y-11022698D01*
X10088444Y-11022698D02*
X10069396Y-11013174D01*
X10069396Y-11013174D02*
X10031301Y-11013174D01*
X10031301Y-11013174D02*
X10012253Y-11022698D01*
X10012253Y-11022698D02*
X10002729Y-11032222D01*
X10002729Y-11032222D02*
X9993206Y-11051270D01*
X10202729Y-11136984D02*
X10240825Y-11136984D01*
X10240825Y-11136984D02*
X10259872Y-11127460D01*
X10259872Y-11127460D02*
X10269396Y-11117936D01*
X10269396Y-11117936D02*
X10288444Y-11089365D01*
X10288444Y-11089365D02*
X10297968Y-11051270D01*
X10297968Y-11051270D02*
X10297968Y-10975079D01*
X10297968Y-10975079D02*
X10288444Y-10956031D01*
X10288444Y-10956031D02*
X10278920Y-10946508D01*
X10278920Y-10946508D02*
X10259872Y-10936984D01*
X10259872Y-10936984D02*
X10221777Y-10936984D01*
X10221777Y-10936984D02*
X10202729Y-10946508D01*
X10202729Y-10946508D02*
X10193206Y-10956031D01*
X10193206Y-10956031D02*
X10183682Y-10975079D01*
X10183682Y-10975079D02*
X10183682Y-11022698D01*
X10183682Y-11022698D02*
X10193206Y-11041746D01*
X10193206Y-11041746D02*
X10202729Y-11051270D01*
X10202729Y-11051270D02*
X10221777Y-11060793D01*
X10221777Y-11060793D02*
X10259872Y-11060793D01*
X10259872Y-11060793D02*
X10278920Y-11051270D01*
X10278920Y-11051270D02*
X10288444Y-11041746D01*
X10288444Y-11041746D02*
X10297968Y-11022698D01*
X10364634Y-10936984D02*
X10488444Y-10936984D01*
X10488444Y-10936984D02*
X10421777Y-11013174D01*
X10421777Y-11013174D02*
X10450349Y-11013174D01*
X10450349Y-11013174D02*
X10469396Y-11022698D01*
X10469396Y-11022698D02*
X10478920Y-11032222D01*
X10478920Y-11032222D02*
X10488444Y-11051270D01*
X10488444Y-11051270D02*
X10488444Y-11098889D01*
X10488444Y-11098889D02*
X10478920Y-11117936D01*
X10478920Y-11117936D02*
X10469396Y-11127460D01*
X10469396Y-11127460D02*
X10450349Y-11136984D01*
X10450349Y-11136984D02*
X10393206Y-11136984D01*
X10393206Y-11136984D02*
X10374158Y-11127460D01*
X10374158Y-11127460D02*
X10364634Y-11117936D01*
X10564634Y-10936984D02*
X10564634Y-10975079D01*
X10640825Y-10936984D02*
X10640825Y-10975079D01*
X10936063Y-11213174D02*
X10926539Y-11203650D01*
X10926539Y-11203650D02*
X10907491Y-11175079D01*
X10907491Y-11175079D02*
X10897968Y-11156031D01*
X10897968Y-11156031D02*
X10888444Y-11127460D01*
X10888444Y-11127460D02*
X10878920Y-11079841D01*
X10878920Y-11079841D02*
X10878920Y-11041746D01*
X10878920Y-11041746D02*
X10888444Y-10994127D01*
X10888444Y-10994127D02*
X10897968Y-10965555D01*
X10897968Y-10965555D02*
X10907491Y-10946508D01*
X10907491Y-10946508D02*
X10926539Y-10917936D01*
X10926539Y-10917936D02*
X10936063Y-10908412D01*
X11097968Y-11003650D02*
X11097968Y-11136984D01*
X11050349Y-10927460D02*
X11002730Y-11070317D01*
X11002730Y-11070317D02*
X11126539Y-11070317D01*
X11355110Y-11136984D02*
X11355110Y-10936984D01*
X11440825Y-11136984D02*
X11440825Y-11032222D01*
X11440825Y-11032222D02*
X11431301Y-11013174D01*
X11431301Y-11013174D02*
X11412253Y-11003650D01*
X11412253Y-11003650D02*
X11383682Y-11003650D01*
X11383682Y-11003650D02*
X11364634Y-11013174D01*
X11364634Y-11013174D02*
X11355110Y-11022698D01*
X11564634Y-11136984D02*
X11545587Y-11127460D01*
X11545587Y-11127460D02*
X11536063Y-11117936D01*
X11536063Y-11117936D02*
X11526539Y-11098889D01*
X11526539Y-11098889D02*
X11526539Y-11041746D01*
X11526539Y-11041746D02*
X11536063Y-11022698D01*
X11536063Y-11022698D02*
X11545587Y-11013174D01*
X11545587Y-11013174D02*
X11564634Y-11003650D01*
X11564634Y-11003650D02*
X11593206Y-11003650D01*
X11593206Y-11003650D02*
X11612253Y-11013174D01*
X11612253Y-11013174D02*
X11621777Y-11022698D01*
X11621777Y-11022698D02*
X11631301Y-11041746D01*
X11631301Y-11041746D02*
X11631301Y-11098889D01*
X11631301Y-11098889D02*
X11621777Y-11117936D01*
X11621777Y-11117936D02*
X11612253Y-11127460D01*
X11612253Y-11127460D02*
X11593206Y-11136984D01*
X11593206Y-11136984D02*
X11564634Y-11136984D01*
X11745587Y-11136984D02*
X11726539Y-11127460D01*
X11726539Y-11127460D02*
X11717015Y-11108412D01*
X11717015Y-11108412D02*
X11717015Y-10936984D01*
X11897968Y-11127460D02*
X11878920Y-11136984D01*
X11878920Y-11136984D02*
X11840825Y-11136984D01*
X11840825Y-11136984D02*
X11821777Y-11127460D01*
X11821777Y-11127460D02*
X11812253Y-11108412D01*
X11812253Y-11108412D02*
X11812253Y-11032222D01*
X11812253Y-11032222D02*
X11821777Y-11013174D01*
X11821777Y-11013174D02*
X11840825Y-11003650D01*
X11840825Y-11003650D02*
X11878920Y-11003650D01*
X11878920Y-11003650D02*
X11897968Y-11013174D01*
X11897968Y-11013174D02*
X11907491Y-11032222D01*
X11907491Y-11032222D02*
X11907491Y-11051270D01*
X11907491Y-11051270D02*
X11812253Y-11070317D01*
X11983682Y-11127460D02*
X12002730Y-11136984D01*
X12002730Y-11136984D02*
X12040825Y-11136984D01*
X12040825Y-11136984D02*
X12059872Y-11127460D01*
X12059872Y-11127460D02*
X12069396Y-11108412D01*
X12069396Y-11108412D02*
X12069396Y-11098889D01*
X12069396Y-11098889D02*
X12059872Y-11079841D01*
X12059872Y-11079841D02*
X12040825Y-11070317D01*
X12040825Y-11070317D02*
X12012253Y-11070317D01*
X12012253Y-11070317D02*
X11993206Y-11060793D01*
X11993206Y-11060793D02*
X11983682Y-11041746D01*
X11983682Y-11041746D02*
X11983682Y-11032222D01*
X11983682Y-11032222D02*
X11993206Y-11013174D01*
X11993206Y-11013174D02*
X12012253Y-11003650D01*
X12012253Y-11003650D02*
X12040825Y-11003650D01*
X12040825Y-11003650D02*
X12059872Y-11013174D01*
X12136063Y-11213174D02*
X12145587Y-11203650D01*
X12145587Y-11203650D02*
X12164634Y-11175079D01*
X12164634Y-11175079D02*
X12174158Y-11156031D01*
X12174158Y-11156031D02*
X12183682Y-11127460D01*
X12183682Y-11127460D02*
X12193206Y-11079841D01*
X12193206Y-11079841D02*
X12193206Y-11041746D01*
X12193206Y-11041746D02*
X12183682Y-10994127D01*
X12183682Y-10994127D02*
X12174158Y-10965555D01*
X12174158Y-10965555D02*
X12164634Y-10946508D01*
X12164634Y-10946508D02*
X12145587Y-10917936D01*
X12145587Y-10917936D02*
X12136063Y-10908412D01*
M02*
