G04 #@! TF.GenerationSoftware,KiCad,Pcbnew,7.0.9*
G04 #@! TF.CreationDate,2023-11-18T03:00:04-05:00*
G04 #@! TF.ProjectId,RLM,524c4d2e-6b69-4636-9164-5f7063625858,rev?*
G04 #@! TF.SameCoordinates,Original*
G04 #@! TF.FileFunction,Legend,Top*
G04 #@! TF.FilePolarity,Positive*
%FSLAX46Y46*%
G04 Gerber Fmt 4.6, Leading zero omitted, Abs format (unit mm)*
G04 Created by KiCad (PCBNEW 7.0.9) date 2023-11-18 03:00:04*
%MOMM*%
%LPD*%
G01*
G04 APERTURE LIST*
G04 Aperture macros list*
%AMRoundRect*
0 Rectangle with rounded corners*
0 $1 Rounding radius*
0 $2 $3 $4 $5 $6 $7 $8 $9 X,Y pos of 4 corners*
0 Add a 4 corners polygon primitive as box body*
4,1,4,$2,$3,$4,$5,$6,$7,$8,$9,$2,$3,0*
0 Add four circle primitives for the rounded corners*
1,1,$1+$1,$2,$3*
1,1,$1+$1,$4,$5*
1,1,$1+$1,$6,$7*
1,1,$1+$1,$8,$9*
0 Add four rect primitives between the rounded corners*
20,1,$1+$1,$2,$3,$4,$5,0*
20,1,$1+$1,$4,$5,$6,$7,0*
20,1,$1+$1,$6,$7,$8,$9,0*
20,1,$1+$1,$8,$9,$2,$3,0*%
G04 Aperture macros list end*
%ADD10C,0.150000*%
%ADD11C,0.100000*%
%ADD12C,0.120000*%
%ADD13C,1.270000*%
%ADD14RoundRect,0.250001X0.499999X0.759999X-0.499999X0.759999X-0.499999X-0.759999X0.499999X-0.759999X0*%
%ADD15O,1.500000X2.020000*%
%ADD16RoundRect,0.150000X-0.150000X0.825000X-0.150000X-0.825000X0.150000X-0.825000X0.150000X0.825000X0*%
%ADD17RoundRect,0.225000X0.225000X0.250000X-0.225000X0.250000X-0.225000X-0.250000X0.225000X-0.250000X0*%
%ADD18R,1.700000X1.700000*%
%ADD19O,1.700000X1.700000*%
%ADD20C,2.000000*%
%ADD21R,1.500000X2.000000*%
%ADD22R,3.800000X2.000000*%
%ADD23RoundRect,0.200000X0.275000X-0.200000X0.275000X0.200000X-0.275000X0.200000X-0.275000X-0.200000X0*%
%ADD24C,1.524000*%
%ADD25RoundRect,0.250001X0.759999X-0.499999X0.759999X0.499999X-0.759999X0.499999X-0.759999X-0.499999X0*%
%ADD26O,2.020000X1.500000*%
%ADD27RoundRect,0.225000X0.250000X-0.225000X0.250000X0.225000X-0.250000X0.225000X-0.250000X-0.225000X0*%
%ADD28RoundRect,0.200000X0.200000X0.275000X-0.200000X0.275000X-0.200000X-0.275000X0.200000X-0.275000X0*%
%ADD29C,7.000000*%
%ADD30R,1.524000X1.524000*%
%ADD31RoundRect,0.218750X0.256250X-0.218750X0.256250X0.218750X-0.256250X0.218750X-0.256250X-0.218750X0*%
G04 APERTURE END LIST*
D10*
X113031189Y-87159819D02*
X112697856Y-86683628D01*
X112459761Y-87159819D02*
X112459761Y-86159819D01*
X112459761Y-86159819D02*
X112840713Y-86159819D01*
X112840713Y-86159819D02*
X112935951Y-86207438D01*
X112935951Y-86207438D02*
X112983570Y-86255057D01*
X112983570Y-86255057D02*
X113031189Y-86350295D01*
X113031189Y-86350295D02*
X113031189Y-86493152D01*
X113031189Y-86493152D02*
X112983570Y-86588390D01*
X112983570Y-86588390D02*
X112935951Y-86636009D01*
X112935951Y-86636009D02*
X112840713Y-86683628D01*
X112840713Y-86683628D02*
X112459761Y-86683628D01*
X113840713Y-87112200D02*
X113745475Y-87159819D01*
X113745475Y-87159819D02*
X113554999Y-87159819D01*
X113554999Y-87159819D02*
X113459761Y-87112200D01*
X113459761Y-87112200D02*
X113412142Y-87016961D01*
X113412142Y-87016961D02*
X113412142Y-86636009D01*
X113412142Y-86636009D02*
X113459761Y-86540771D01*
X113459761Y-86540771D02*
X113554999Y-86493152D01*
X113554999Y-86493152D02*
X113745475Y-86493152D01*
X113745475Y-86493152D02*
X113840713Y-86540771D01*
X113840713Y-86540771D02*
X113888332Y-86636009D01*
X113888332Y-86636009D02*
X113888332Y-86731247D01*
X113888332Y-86731247D02*
X113412142Y-86826485D01*
X114316904Y-87159819D02*
X114316904Y-86493152D01*
X114316904Y-86588390D02*
X114364523Y-86540771D01*
X114364523Y-86540771D02*
X114459761Y-86493152D01*
X114459761Y-86493152D02*
X114602618Y-86493152D01*
X114602618Y-86493152D02*
X114697856Y-86540771D01*
X114697856Y-86540771D02*
X114745475Y-86636009D01*
X114745475Y-86636009D02*
X114745475Y-87159819D01*
X114745475Y-86636009D02*
X114793094Y-86540771D01*
X114793094Y-86540771D02*
X114888332Y-86493152D01*
X114888332Y-86493152D02*
X115031189Y-86493152D01*
X115031189Y-86493152D02*
X115126428Y-86540771D01*
X115126428Y-86540771D02*
X115174047Y-86636009D01*
X115174047Y-86636009D02*
X115174047Y-87159819D01*
X115793094Y-87159819D02*
X115697856Y-87112200D01*
X115697856Y-87112200D02*
X115650237Y-87064580D01*
X115650237Y-87064580D02*
X115602618Y-86969342D01*
X115602618Y-86969342D02*
X115602618Y-86683628D01*
X115602618Y-86683628D02*
X115650237Y-86588390D01*
X115650237Y-86588390D02*
X115697856Y-86540771D01*
X115697856Y-86540771D02*
X115793094Y-86493152D01*
X115793094Y-86493152D02*
X115935951Y-86493152D01*
X115935951Y-86493152D02*
X116031189Y-86540771D01*
X116031189Y-86540771D02*
X116078808Y-86588390D01*
X116078808Y-86588390D02*
X116126427Y-86683628D01*
X116126427Y-86683628D02*
X116126427Y-86969342D01*
X116126427Y-86969342D02*
X116078808Y-87064580D01*
X116078808Y-87064580D02*
X116031189Y-87112200D01*
X116031189Y-87112200D02*
X115935951Y-87159819D01*
X115935951Y-87159819D02*
X115793094Y-87159819D01*
X116412142Y-86493152D02*
X116793094Y-86493152D01*
X116554999Y-86159819D02*
X116554999Y-87016961D01*
X116554999Y-87016961D02*
X116602618Y-87112200D01*
X116602618Y-87112200D02*
X116697856Y-87159819D01*
X116697856Y-87159819D02*
X116793094Y-87159819D01*
X117507380Y-87112200D02*
X117412142Y-87159819D01*
X117412142Y-87159819D02*
X117221666Y-87159819D01*
X117221666Y-87159819D02*
X117126428Y-87112200D01*
X117126428Y-87112200D02*
X117078809Y-87016961D01*
X117078809Y-87016961D02*
X117078809Y-86636009D01*
X117078809Y-86636009D02*
X117126428Y-86540771D01*
X117126428Y-86540771D02*
X117221666Y-86493152D01*
X117221666Y-86493152D02*
X117412142Y-86493152D01*
X117412142Y-86493152D02*
X117507380Y-86540771D01*
X117507380Y-86540771D02*
X117554999Y-86636009D01*
X117554999Y-86636009D02*
X117554999Y-86731247D01*
X117554999Y-86731247D02*
X117078809Y-86826485D01*
X119221666Y-87159819D02*
X118745476Y-87159819D01*
X118745476Y-87159819D02*
X118745476Y-86159819D01*
X119697857Y-87159819D02*
X119602619Y-87112200D01*
X119602619Y-87112200D02*
X119555000Y-87064580D01*
X119555000Y-87064580D02*
X119507381Y-86969342D01*
X119507381Y-86969342D02*
X119507381Y-86683628D01*
X119507381Y-86683628D02*
X119555000Y-86588390D01*
X119555000Y-86588390D02*
X119602619Y-86540771D01*
X119602619Y-86540771D02*
X119697857Y-86493152D01*
X119697857Y-86493152D02*
X119840714Y-86493152D01*
X119840714Y-86493152D02*
X119935952Y-86540771D01*
X119935952Y-86540771D02*
X119983571Y-86588390D01*
X119983571Y-86588390D02*
X120031190Y-86683628D01*
X120031190Y-86683628D02*
X120031190Y-86969342D01*
X120031190Y-86969342D02*
X119983571Y-87064580D01*
X119983571Y-87064580D02*
X119935952Y-87112200D01*
X119935952Y-87112200D02*
X119840714Y-87159819D01*
X119840714Y-87159819D02*
X119697857Y-87159819D01*
X120888333Y-86493152D02*
X120888333Y-87302676D01*
X120888333Y-87302676D02*
X120840714Y-87397914D01*
X120840714Y-87397914D02*
X120793095Y-87445533D01*
X120793095Y-87445533D02*
X120697857Y-87493152D01*
X120697857Y-87493152D02*
X120555000Y-87493152D01*
X120555000Y-87493152D02*
X120459762Y-87445533D01*
X120888333Y-87112200D02*
X120793095Y-87159819D01*
X120793095Y-87159819D02*
X120602619Y-87159819D01*
X120602619Y-87159819D02*
X120507381Y-87112200D01*
X120507381Y-87112200D02*
X120459762Y-87064580D01*
X120459762Y-87064580D02*
X120412143Y-86969342D01*
X120412143Y-86969342D02*
X120412143Y-86683628D01*
X120412143Y-86683628D02*
X120459762Y-86588390D01*
X120459762Y-86588390D02*
X120507381Y-86540771D01*
X120507381Y-86540771D02*
X120602619Y-86493152D01*
X120602619Y-86493152D02*
X120793095Y-86493152D01*
X120793095Y-86493152D02*
X120888333Y-86540771D01*
X121793095Y-86493152D02*
X121793095Y-87302676D01*
X121793095Y-87302676D02*
X121745476Y-87397914D01*
X121745476Y-87397914D02*
X121697857Y-87445533D01*
X121697857Y-87445533D02*
X121602619Y-87493152D01*
X121602619Y-87493152D02*
X121459762Y-87493152D01*
X121459762Y-87493152D02*
X121364524Y-87445533D01*
X121793095Y-87112200D02*
X121697857Y-87159819D01*
X121697857Y-87159819D02*
X121507381Y-87159819D01*
X121507381Y-87159819D02*
X121412143Y-87112200D01*
X121412143Y-87112200D02*
X121364524Y-87064580D01*
X121364524Y-87064580D02*
X121316905Y-86969342D01*
X121316905Y-86969342D02*
X121316905Y-86683628D01*
X121316905Y-86683628D02*
X121364524Y-86588390D01*
X121364524Y-86588390D02*
X121412143Y-86540771D01*
X121412143Y-86540771D02*
X121507381Y-86493152D01*
X121507381Y-86493152D02*
X121697857Y-86493152D01*
X121697857Y-86493152D02*
X121793095Y-86540771D01*
X122269286Y-87159819D02*
X122269286Y-86493152D01*
X122269286Y-86159819D02*
X122221667Y-86207438D01*
X122221667Y-86207438D02*
X122269286Y-86255057D01*
X122269286Y-86255057D02*
X122316905Y-86207438D01*
X122316905Y-86207438D02*
X122269286Y-86159819D01*
X122269286Y-86159819D02*
X122269286Y-86255057D01*
X122745476Y-86493152D02*
X122745476Y-87159819D01*
X122745476Y-86588390D02*
X122793095Y-86540771D01*
X122793095Y-86540771D02*
X122888333Y-86493152D01*
X122888333Y-86493152D02*
X123031190Y-86493152D01*
X123031190Y-86493152D02*
X123126428Y-86540771D01*
X123126428Y-86540771D02*
X123174047Y-86636009D01*
X123174047Y-86636009D02*
X123174047Y-87159819D01*
X124078809Y-86493152D02*
X124078809Y-87302676D01*
X124078809Y-87302676D02*
X124031190Y-87397914D01*
X124031190Y-87397914D02*
X123983571Y-87445533D01*
X123983571Y-87445533D02*
X123888333Y-87493152D01*
X123888333Y-87493152D02*
X123745476Y-87493152D01*
X123745476Y-87493152D02*
X123650238Y-87445533D01*
X124078809Y-87112200D02*
X123983571Y-87159819D01*
X123983571Y-87159819D02*
X123793095Y-87159819D01*
X123793095Y-87159819D02*
X123697857Y-87112200D01*
X123697857Y-87112200D02*
X123650238Y-87064580D01*
X123650238Y-87064580D02*
X123602619Y-86969342D01*
X123602619Y-86969342D02*
X123602619Y-86683628D01*
X123602619Y-86683628D02*
X123650238Y-86588390D01*
X123650238Y-86588390D02*
X123697857Y-86540771D01*
X123697857Y-86540771D02*
X123793095Y-86493152D01*
X123793095Y-86493152D02*
X123983571Y-86493152D01*
X123983571Y-86493152D02*
X124078809Y-86540771D01*
X125316905Y-87159819D02*
X125316905Y-86159819D01*
X125316905Y-86159819D02*
X125650238Y-86874104D01*
X125650238Y-86874104D02*
X125983571Y-86159819D01*
X125983571Y-86159819D02*
X125983571Y-87159819D01*
X126602619Y-87159819D02*
X126507381Y-87112200D01*
X126507381Y-87112200D02*
X126459762Y-87064580D01*
X126459762Y-87064580D02*
X126412143Y-86969342D01*
X126412143Y-86969342D02*
X126412143Y-86683628D01*
X126412143Y-86683628D02*
X126459762Y-86588390D01*
X126459762Y-86588390D02*
X126507381Y-86540771D01*
X126507381Y-86540771D02*
X126602619Y-86493152D01*
X126602619Y-86493152D02*
X126745476Y-86493152D01*
X126745476Y-86493152D02*
X126840714Y-86540771D01*
X126840714Y-86540771D02*
X126888333Y-86588390D01*
X126888333Y-86588390D02*
X126935952Y-86683628D01*
X126935952Y-86683628D02*
X126935952Y-86969342D01*
X126935952Y-86969342D02*
X126888333Y-87064580D01*
X126888333Y-87064580D02*
X126840714Y-87112200D01*
X126840714Y-87112200D02*
X126745476Y-87159819D01*
X126745476Y-87159819D02*
X126602619Y-87159819D01*
X127793095Y-87159819D02*
X127793095Y-86159819D01*
X127793095Y-87112200D02*
X127697857Y-87159819D01*
X127697857Y-87159819D02*
X127507381Y-87159819D01*
X127507381Y-87159819D02*
X127412143Y-87112200D01*
X127412143Y-87112200D02*
X127364524Y-87064580D01*
X127364524Y-87064580D02*
X127316905Y-86969342D01*
X127316905Y-86969342D02*
X127316905Y-86683628D01*
X127316905Y-86683628D02*
X127364524Y-86588390D01*
X127364524Y-86588390D02*
X127412143Y-86540771D01*
X127412143Y-86540771D02*
X127507381Y-86493152D01*
X127507381Y-86493152D02*
X127697857Y-86493152D01*
X127697857Y-86493152D02*
X127793095Y-86540771D01*
X128697857Y-86493152D02*
X128697857Y-87159819D01*
X128269286Y-86493152D02*
X128269286Y-87016961D01*
X128269286Y-87016961D02*
X128316905Y-87112200D01*
X128316905Y-87112200D02*
X128412143Y-87159819D01*
X128412143Y-87159819D02*
X128555000Y-87159819D01*
X128555000Y-87159819D02*
X128650238Y-87112200D01*
X128650238Y-87112200D02*
X128697857Y-87064580D01*
X129316905Y-87159819D02*
X129221667Y-87112200D01*
X129221667Y-87112200D02*
X129174048Y-87016961D01*
X129174048Y-87016961D02*
X129174048Y-86159819D01*
X130078810Y-87112200D02*
X129983572Y-87159819D01*
X129983572Y-87159819D02*
X129793096Y-87159819D01*
X129793096Y-87159819D02*
X129697858Y-87112200D01*
X129697858Y-87112200D02*
X129650239Y-87016961D01*
X129650239Y-87016961D02*
X129650239Y-86636009D01*
X129650239Y-86636009D02*
X129697858Y-86540771D01*
X129697858Y-86540771D02*
X129793096Y-86493152D01*
X129793096Y-86493152D02*
X129983572Y-86493152D01*
X129983572Y-86493152D02*
X130078810Y-86540771D01*
X130078810Y-86540771D02*
X130126429Y-86636009D01*
X130126429Y-86636009D02*
X130126429Y-86731247D01*
X130126429Y-86731247D02*
X129650239Y-86826485D01*
X131174049Y-86159819D02*
X131507382Y-87159819D01*
X131507382Y-87159819D02*
X131840715Y-86159819D01*
X132697858Y-87159819D02*
X132126430Y-87159819D01*
X132412144Y-87159819D02*
X132412144Y-86159819D01*
X132412144Y-86159819D02*
X132316906Y-86302676D01*
X132316906Y-86302676D02*
X132221668Y-86397914D01*
X132221668Y-86397914D02*
X132126430Y-86445533D01*
X117102618Y-88246009D02*
X117245475Y-88293628D01*
X117245475Y-88293628D02*
X117293094Y-88341247D01*
X117293094Y-88341247D02*
X117340713Y-88436485D01*
X117340713Y-88436485D02*
X117340713Y-88579342D01*
X117340713Y-88579342D02*
X117293094Y-88674580D01*
X117293094Y-88674580D02*
X117245475Y-88722200D01*
X117245475Y-88722200D02*
X117150237Y-88769819D01*
X117150237Y-88769819D02*
X116769285Y-88769819D01*
X116769285Y-88769819D02*
X116769285Y-87769819D01*
X116769285Y-87769819D02*
X117102618Y-87769819D01*
X117102618Y-87769819D02*
X117197856Y-87817438D01*
X117197856Y-87817438D02*
X117245475Y-87865057D01*
X117245475Y-87865057D02*
X117293094Y-87960295D01*
X117293094Y-87960295D02*
X117293094Y-88055533D01*
X117293094Y-88055533D02*
X117245475Y-88150771D01*
X117245475Y-88150771D02*
X117197856Y-88198390D01*
X117197856Y-88198390D02*
X117102618Y-88246009D01*
X117102618Y-88246009D02*
X116769285Y-88246009D01*
X117674047Y-88103152D02*
X117912142Y-88769819D01*
X118150237Y-88103152D02*
X117912142Y-88769819D01*
X117912142Y-88769819D02*
X117816904Y-89007914D01*
X117816904Y-89007914D02*
X117769285Y-89055533D01*
X117769285Y-89055533D02*
X117674047Y-89103152D01*
X118531190Y-88674580D02*
X118578809Y-88722200D01*
X118578809Y-88722200D02*
X118531190Y-88769819D01*
X118531190Y-88769819D02*
X118483571Y-88722200D01*
X118483571Y-88722200D02*
X118531190Y-88674580D01*
X118531190Y-88674580D02*
X118531190Y-88769819D01*
X118531190Y-88150771D02*
X118578809Y-88198390D01*
X118578809Y-88198390D02*
X118531190Y-88246009D01*
X118531190Y-88246009D02*
X118483571Y-88198390D01*
X118483571Y-88198390D02*
X118531190Y-88150771D01*
X118531190Y-88150771D02*
X118531190Y-88246009D01*
X119769285Y-88246009D02*
X120102618Y-88246009D01*
X120245475Y-88769819D02*
X119769285Y-88769819D01*
X119769285Y-88769819D02*
X119769285Y-87769819D01*
X119769285Y-87769819D02*
X120245475Y-87769819D01*
X120578809Y-88103152D02*
X120816904Y-88769819D01*
X120816904Y-88769819D02*
X121054999Y-88103152D01*
X121864523Y-88769819D02*
X121864523Y-88246009D01*
X121864523Y-88246009D02*
X121816904Y-88150771D01*
X121816904Y-88150771D02*
X121721666Y-88103152D01*
X121721666Y-88103152D02*
X121531190Y-88103152D01*
X121531190Y-88103152D02*
X121435952Y-88150771D01*
X121864523Y-88722200D02*
X121769285Y-88769819D01*
X121769285Y-88769819D02*
X121531190Y-88769819D01*
X121531190Y-88769819D02*
X121435952Y-88722200D01*
X121435952Y-88722200D02*
X121388333Y-88626961D01*
X121388333Y-88626961D02*
X121388333Y-88531723D01*
X121388333Y-88531723D02*
X121435952Y-88436485D01*
X121435952Y-88436485D02*
X121531190Y-88388866D01*
X121531190Y-88388866D02*
X121769285Y-88388866D01*
X121769285Y-88388866D02*
X121864523Y-88341247D01*
X122340714Y-88103152D02*
X122340714Y-88769819D01*
X122340714Y-88198390D02*
X122388333Y-88150771D01*
X122388333Y-88150771D02*
X122483571Y-88103152D01*
X122483571Y-88103152D02*
X122626428Y-88103152D01*
X122626428Y-88103152D02*
X122721666Y-88150771D01*
X122721666Y-88150771D02*
X122769285Y-88246009D01*
X122769285Y-88246009D02*
X122769285Y-88769819D01*
X124578809Y-88769819D02*
X124245476Y-88293628D01*
X124007381Y-88769819D02*
X124007381Y-87769819D01*
X124007381Y-87769819D02*
X124388333Y-87769819D01*
X124388333Y-87769819D02*
X124483571Y-87817438D01*
X124483571Y-87817438D02*
X124531190Y-87865057D01*
X124531190Y-87865057D02*
X124578809Y-87960295D01*
X124578809Y-87960295D02*
X124578809Y-88103152D01*
X124578809Y-88103152D02*
X124531190Y-88198390D01*
X124531190Y-88198390D02*
X124483571Y-88246009D01*
X124483571Y-88246009D02*
X124388333Y-88293628D01*
X124388333Y-88293628D02*
X124007381Y-88293628D01*
X125435952Y-88103152D02*
X125435952Y-88769819D01*
X125007381Y-88103152D02*
X125007381Y-88626961D01*
X125007381Y-88626961D02*
X125055000Y-88722200D01*
X125055000Y-88722200D02*
X125150238Y-88769819D01*
X125150238Y-88769819D02*
X125293095Y-88769819D01*
X125293095Y-88769819D02*
X125388333Y-88722200D01*
X125388333Y-88722200D02*
X125435952Y-88674580D01*
X125769286Y-88103152D02*
X126150238Y-88103152D01*
X125912143Y-87769819D02*
X125912143Y-88626961D01*
X125912143Y-88626961D02*
X125959762Y-88722200D01*
X125959762Y-88722200D02*
X126055000Y-88769819D01*
X126055000Y-88769819D02*
X126150238Y-88769819D01*
X126340715Y-88103152D02*
X126721667Y-88103152D01*
X126483572Y-87769819D02*
X126483572Y-88626961D01*
X126483572Y-88626961D02*
X126531191Y-88722200D01*
X126531191Y-88722200D02*
X126626429Y-88769819D01*
X126626429Y-88769819D02*
X126721667Y-88769819D01*
X127435953Y-88722200D02*
X127340715Y-88769819D01*
X127340715Y-88769819D02*
X127150239Y-88769819D01*
X127150239Y-88769819D02*
X127055001Y-88722200D01*
X127055001Y-88722200D02*
X127007382Y-88626961D01*
X127007382Y-88626961D02*
X127007382Y-88246009D01*
X127007382Y-88246009D02*
X127055001Y-88150771D01*
X127055001Y-88150771D02*
X127150239Y-88103152D01*
X127150239Y-88103152D02*
X127340715Y-88103152D01*
X127340715Y-88103152D02*
X127435953Y-88150771D01*
X127435953Y-88150771D02*
X127483572Y-88246009D01*
X127483572Y-88246009D02*
X127483572Y-88341247D01*
X127483572Y-88341247D02*
X127007382Y-88436485D01*
X127912144Y-88103152D02*
X127912144Y-88769819D01*
X127912144Y-88198390D02*
X127959763Y-88150771D01*
X127959763Y-88150771D02*
X128055001Y-88103152D01*
X128055001Y-88103152D02*
X128197858Y-88103152D01*
X128197858Y-88103152D02*
X128293096Y-88150771D01*
X128293096Y-88150771D02*
X128340715Y-88246009D01*
X128340715Y-88246009D02*
X128340715Y-88769819D01*
X144137142Y-89894580D02*
X144089523Y-89942200D01*
X144089523Y-89942200D02*
X143946666Y-89989819D01*
X143946666Y-89989819D02*
X143851428Y-89989819D01*
X143851428Y-89989819D02*
X143708571Y-89942200D01*
X143708571Y-89942200D02*
X143613333Y-89846961D01*
X143613333Y-89846961D02*
X143565714Y-89751723D01*
X143565714Y-89751723D02*
X143518095Y-89561247D01*
X143518095Y-89561247D02*
X143518095Y-89418390D01*
X143518095Y-89418390D02*
X143565714Y-89227914D01*
X143565714Y-89227914D02*
X143613333Y-89132676D01*
X143613333Y-89132676D02*
X143708571Y-89037438D01*
X143708571Y-89037438D02*
X143851428Y-88989819D01*
X143851428Y-88989819D02*
X143946666Y-88989819D01*
X143946666Y-88989819D02*
X144089523Y-89037438D01*
X144089523Y-89037438D02*
X144137142Y-89085057D01*
X144518095Y-89704104D02*
X144994285Y-89704104D01*
X144422857Y-89989819D02*
X144756190Y-88989819D01*
X144756190Y-88989819D02*
X145089523Y-89989819D01*
X145422857Y-89989819D02*
X145422857Y-88989819D01*
X145422857Y-88989819D02*
X145994285Y-89989819D01*
X145994285Y-89989819D02*
X145994285Y-88989819D01*
X149479095Y-77559819D02*
X149479095Y-78369342D01*
X149479095Y-78369342D02*
X149526714Y-78464580D01*
X149526714Y-78464580D02*
X149574333Y-78512200D01*
X149574333Y-78512200D02*
X149669571Y-78559819D01*
X149669571Y-78559819D02*
X149860047Y-78559819D01*
X149860047Y-78559819D02*
X149955285Y-78512200D01*
X149955285Y-78512200D02*
X150002904Y-78464580D01*
X150002904Y-78464580D02*
X150050523Y-78369342D01*
X150050523Y-78369342D02*
X150050523Y-77559819D01*
X150431476Y-77559819D02*
X151098142Y-77559819D01*
X151098142Y-77559819D02*
X150669571Y-78559819D01*
X138289333Y-81004580D02*
X138241714Y-81052200D01*
X138241714Y-81052200D02*
X138098857Y-81099819D01*
X138098857Y-81099819D02*
X138003619Y-81099819D01*
X138003619Y-81099819D02*
X137860762Y-81052200D01*
X137860762Y-81052200D02*
X137765524Y-80956961D01*
X137765524Y-80956961D02*
X137717905Y-80861723D01*
X137717905Y-80861723D02*
X137670286Y-80671247D01*
X137670286Y-80671247D02*
X137670286Y-80528390D01*
X137670286Y-80528390D02*
X137717905Y-80337914D01*
X137717905Y-80337914D02*
X137765524Y-80242676D01*
X137765524Y-80242676D02*
X137860762Y-80147438D01*
X137860762Y-80147438D02*
X138003619Y-80099819D01*
X138003619Y-80099819D02*
X138098857Y-80099819D01*
X138098857Y-80099819D02*
X138241714Y-80147438D01*
X138241714Y-80147438D02*
X138289333Y-80195057D01*
X139194095Y-80099819D02*
X138717905Y-80099819D01*
X138717905Y-80099819D02*
X138670286Y-80576009D01*
X138670286Y-80576009D02*
X138717905Y-80528390D01*
X138717905Y-80528390D02*
X138813143Y-80480771D01*
X138813143Y-80480771D02*
X139051238Y-80480771D01*
X139051238Y-80480771D02*
X139146476Y-80528390D01*
X139146476Y-80528390D02*
X139194095Y-80576009D01*
X139194095Y-80576009D02*
X139241714Y-80671247D01*
X139241714Y-80671247D02*
X139241714Y-80909342D01*
X139241714Y-80909342D02*
X139194095Y-81004580D01*
X139194095Y-81004580D02*
X139146476Y-81052200D01*
X139146476Y-81052200D02*
X139051238Y-81099819D01*
X139051238Y-81099819D02*
X138813143Y-81099819D01*
X138813143Y-81099819D02*
X138717905Y-81052200D01*
X138717905Y-81052200D02*
X138670286Y-81004580D01*
X160109819Y-77890475D02*
X160109819Y-77319047D01*
X161109819Y-77604761D02*
X160109819Y-77604761D01*
X161062200Y-76604761D02*
X161109819Y-76699999D01*
X161109819Y-76699999D02*
X161109819Y-76890475D01*
X161109819Y-76890475D02*
X161062200Y-76985713D01*
X161062200Y-76985713D02*
X160966961Y-77033332D01*
X160966961Y-77033332D02*
X160586009Y-77033332D01*
X160586009Y-77033332D02*
X160490771Y-76985713D01*
X160490771Y-76985713D02*
X160443152Y-76890475D01*
X160443152Y-76890475D02*
X160443152Y-76699999D01*
X160443152Y-76699999D02*
X160490771Y-76604761D01*
X160490771Y-76604761D02*
X160586009Y-76557142D01*
X160586009Y-76557142D02*
X160681247Y-76557142D01*
X160681247Y-76557142D02*
X160776485Y-77033332D01*
X161109819Y-76128570D02*
X160443152Y-76128570D01*
X160633628Y-76128570D02*
X160538390Y-76080951D01*
X160538390Y-76080951D02*
X160490771Y-76033332D01*
X160490771Y-76033332D02*
X160443152Y-75938094D01*
X160443152Y-75938094D02*
X160443152Y-75842856D01*
X161109819Y-75509522D02*
X160443152Y-75509522D01*
X160538390Y-75509522D02*
X160490771Y-75461903D01*
X160490771Y-75461903D02*
X160443152Y-75366665D01*
X160443152Y-75366665D02*
X160443152Y-75223808D01*
X160443152Y-75223808D02*
X160490771Y-75128570D01*
X160490771Y-75128570D02*
X160586009Y-75080951D01*
X160586009Y-75080951D02*
X161109819Y-75080951D01*
X160586009Y-75080951D02*
X160490771Y-75033332D01*
X160490771Y-75033332D02*
X160443152Y-74938094D01*
X160443152Y-74938094D02*
X160443152Y-74795237D01*
X160443152Y-74795237D02*
X160490771Y-74699998D01*
X160490771Y-74699998D02*
X160586009Y-74652379D01*
X160586009Y-74652379D02*
X161109819Y-74652379D01*
X74522800Y-43882381D02*
X74475180Y-44025238D01*
X74475180Y-44025238D02*
X74475180Y-44263333D01*
X74475180Y-44263333D02*
X74522800Y-44358571D01*
X74522800Y-44358571D02*
X74570419Y-44406190D01*
X74570419Y-44406190D02*
X74665657Y-44453809D01*
X74665657Y-44453809D02*
X74760895Y-44453809D01*
X74760895Y-44453809D02*
X74856133Y-44406190D01*
X74856133Y-44406190D02*
X74903752Y-44358571D01*
X74903752Y-44358571D02*
X74951371Y-44263333D01*
X74951371Y-44263333D02*
X74998990Y-44072857D01*
X74998990Y-44072857D02*
X75046609Y-43977619D01*
X75046609Y-43977619D02*
X75094228Y-43930000D01*
X75094228Y-43930000D02*
X75189466Y-43882381D01*
X75189466Y-43882381D02*
X75284704Y-43882381D01*
X75284704Y-43882381D02*
X75379942Y-43930000D01*
X75379942Y-43930000D02*
X75427561Y-43977619D01*
X75427561Y-43977619D02*
X75475180Y-44072857D01*
X75475180Y-44072857D02*
X75475180Y-44310952D01*
X75475180Y-44310952D02*
X75427561Y-44453809D01*
X74475180Y-44882381D02*
X75475180Y-44882381D01*
X75475180Y-44882381D02*
X75475180Y-45120476D01*
X75475180Y-45120476D02*
X75427561Y-45263333D01*
X75427561Y-45263333D02*
X75332323Y-45358571D01*
X75332323Y-45358571D02*
X75237085Y-45406190D01*
X75237085Y-45406190D02*
X75046609Y-45453809D01*
X75046609Y-45453809D02*
X74903752Y-45453809D01*
X74903752Y-45453809D02*
X74713276Y-45406190D01*
X74713276Y-45406190D02*
X74618038Y-45358571D01*
X74618038Y-45358571D02*
X74522800Y-45263333D01*
X74522800Y-45263333D02*
X74475180Y-45120476D01*
X74475180Y-45120476D02*
X74475180Y-44882381D01*
X74379942Y-45644286D02*
X74379942Y-46406190D01*
X75475180Y-46834762D02*
X75475180Y-47025238D01*
X75475180Y-47025238D02*
X75427561Y-47120476D01*
X75427561Y-47120476D02*
X75332323Y-47215714D01*
X75332323Y-47215714D02*
X75141847Y-47263333D01*
X75141847Y-47263333D02*
X74808514Y-47263333D01*
X74808514Y-47263333D02*
X74618038Y-47215714D01*
X74618038Y-47215714D02*
X74522800Y-47120476D01*
X74522800Y-47120476D02*
X74475180Y-47025238D01*
X74475180Y-47025238D02*
X74475180Y-46834762D01*
X74475180Y-46834762D02*
X74522800Y-46739524D01*
X74522800Y-46739524D02*
X74618038Y-46644286D01*
X74618038Y-46644286D02*
X74808514Y-46596667D01*
X74808514Y-46596667D02*
X75141847Y-46596667D01*
X75141847Y-46596667D02*
X75332323Y-46644286D01*
X75332323Y-46644286D02*
X75427561Y-46739524D01*
X75427561Y-46739524D02*
X75475180Y-46834762D01*
X74998990Y-48025238D02*
X74998990Y-47691905D01*
X74475180Y-47691905D02*
X75475180Y-47691905D01*
X75475180Y-47691905D02*
X75475180Y-48168095D01*
X74998990Y-48882381D02*
X74998990Y-48549048D01*
X74475180Y-48549048D02*
X75475180Y-48549048D01*
X75475180Y-48549048D02*
X75475180Y-49025238D01*
X156718095Y-41872819D02*
X156718095Y-42682342D01*
X156718095Y-42682342D02*
X156765714Y-42777580D01*
X156765714Y-42777580D02*
X156813333Y-42825200D01*
X156813333Y-42825200D02*
X156908571Y-42872819D01*
X156908571Y-42872819D02*
X157099047Y-42872819D01*
X157099047Y-42872819D02*
X157194285Y-42825200D01*
X157194285Y-42825200D02*
X157241904Y-42777580D01*
X157241904Y-42777580D02*
X157289523Y-42682342D01*
X157289523Y-42682342D02*
X157289523Y-41872819D01*
X157670476Y-41872819D02*
X158289523Y-41872819D01*
X158289523Y-41872819D02*
X157956190Y-42253771D01*
X157956190Y-42253771D02*
X158099047Y-42253771D01*
X158099047Y-42253771D02*
X158194285Y-42301390D01*
X158194285Y-42301390D02*
X158241904Y-42349009D01*
X158241904Y-42349009D02*
X158289523Y-42444247D01*
X158289523Y-42444247D02*
X158289523Y-42682342D01*
X158289523Y-42682342D02*
X158241904Y-42777580D01*
X158241904Y-42777580D02*
X158194285Y-42825200D01*
X158194285Y-42825200D02*
X158099047Y-42872819D01*
X158099047Y-42872819D02*
X157813333Y-42872819D01*
X157813333Y-42872819D02*
X157718095Y-42825200D01*
X157718095Y-42825200D02*
X157670476Y-42777580D01*
X157934819Y-57316666D02*
X157458628Y-57649999D01*
X157934819Y-57888094D02*
X156934819Y-57888094D01*
X156934819Y-57888094D02*
X156934819Y-57507142D01*
X156934819Y-57507142D02*
X156982438Y-57411904D01*
X156982438Y-57411904D02*
X157030057Y-57364285D01*
X157030057Y-57364285D02*
X157125295Y-57316666D01*
X157125295Y-57316666D02*
X157268152Y-57316666D01*
X157268152Y-57316666D02*
X157363390Y-57364285D01*
X157363390Y-57364285D02*
X157411009Y-57411904D01*
X157411009Y-57411904D02*
X157458628Y-57507142D01*
X157458628Y-57507142D02*
X157458628Y-57888094D01*
X157934819Y-56364285D02*
X157934819Y-56935713D01*
X157934819Y-56649999D02*
X156934819Y-56649999D01*
X156934819Y-56649999D02*
X157077676Y-56745237D01*
X157077676Y-56745237D02*
X157172914Y-56840475D01*
X157172914Y-56840475D02*
X157220533Y-56935713D01*
X138289333Y-78519580D02*
X138241714Y-78567200D01*
X138241714Y-78567200D02*
X138098857Y-78614819D01*
X138098857Y-78614819D02*
X138003619Y-78614819D01*
X138003619Y-78614819D02*
X137860762Y-78567200D01*
X137860762Y-78567200D02*
X137765524Y-78471961D01*
X137765524Y-78471961D02*
X137717905Y-78376723D01*
X137717905Y-78376723D02*
X137670286Y-78186247D01*
X137670286Y-78186247D02*
X137670286Y-78043390D01*
X137670286Y-78043390D02*
X137717905Y-77852914D01*
X137717905Y-77852914D02*
X137765524Y-77757676D01*
X137765524Y-77757676D02*
X137860762Y-77662438D01*
X137860762Y-77662438D02*
X138003619Y-77614819D01*
X138003619Y-77614819D02*
X138098857Y-77614819D01*
X138098857Y-77614819D02*
X138241714Y-77662438D01*
X138241714Y-77662438D02*
X138289333Y-77710057D01*
X139146476Y-77614819D02*
X138956000Y-77614819D01*
X138956000Y-77614819D02*
X138860762Y-77662438D01*
X138860762Y-77662438D02*
X138813143Y-77710057D01*
X138813143Y-77710057D02*
X138717905Y-77852914D01*
X138717905Y-77852914D02*
X138670286Y-78043390D01*
X138670286Y-78043390D02*
X138670286Y-78424342D01*
X138670286Y-78424342D02*
X138717905Y-78519580D01*
X138717905Y-78519580D02*
X138765524Y-78567200D01*
X138765524Y-78567200D02*
X138860762Y-78614819D01*
X138860762Y-78614819D02*
X139051238Y-78614819D01*
X139051238Y-78614819D02*
X139146476Y-78567200D01*
X139146476Y-78567200D02*
X139194095Y-78519580D01*
X139194095Y-78519580D02*
X139241714Y-78424342D01*
X139241714Y-78424342D02*
X139241714Y-78186247D01*
X139241714Y-78186247D02*
X139194095Y-78091009D01*
X139194095Y-78091009D02*
X139146476Y-78043390D01*
X139146476Y-78043390D02*
X139051238Y-77995771D01*
X139051238Y-77995771D02*
X138860762Y-77995771D01*
X138860762Y-77995771D02*
X138765524Y-78043390D01*
X138765524Y-78043390D02*
X138717905Y-78091009D01*
X138717905Y-78091009D02*
X138670286Y-78186247D01*
D11*
X120412143Y-34858609D02*
X120745476Y-34858609D01*
X120888333Y-35382419D02*
X120412143Y-35382419D01*
X120412143Y-35382419D02*
X120412143Y-34382419D01*
X120412143Y-34382419D02*
X120888333Y-34382419D01*
X121269286Y-35334800D02*
X121412143Y-35382419D01*
X121412143Y-35382419D02*
X121650238Y-35382419D01*
X121650238Y-35382419D02*
X121745476Y-35334800D01*
X121745476Y-35334800D02*
X121793095Y-35287180D01*
X121793095Y-35287180D02*
X121840714Y-35191942D01*
X121840714Y-35191942D02*
X121840714Y-35096704D01*
X121840714Y-35096704D02*
X121793095Y-35001466D01*
X121793095Y-35001466D02*
X121745476Y-34953847D01*
X121745476Y-34953847D02*
X121650238Y-34906228D01*
X121650238Y-34906228D02*
X121459762Y-34858609D01*
X121459762Y-34858609D02*
X121364524Y-34810990D01*
X121364524Y-34810990D02*
X121316905Y-34763371D01*
X121316905Y-34763371D02*
X121269286Y-34668133D01*
X121269286Y-34668133D02*
X121269286Y-34572895D01*
X121269286Y-34572895D02*
X121316905Y-34477657D01*
X121316905Y-34477657D02*
X121364524Y-34430038D01*
X121364524Y-34430038D02*
X121459762Y-34382419D01*
X121459762Y-34382419D02*
X121697857Y-34382419D01*
X121697857Y-34382419D02*
X121840714Y-34430038D01*
X122269286Y-35382419D02*
X122269286Y-34382419D01*
X122269286Y-34382419D02*
X122650238Y-34382419D01*
X122650238Y-34382419D02*
X122745476Y-34430038D01*
X122745476Y-34430038D02*
X122793095Y-34477657D01*
X122793095Y-34477657D02*
X122840714Y-34572895D01*
X122840714Y-34572895D02*
X122840714Y-34715752D01*
X122840714Y-34715752D02*
X122793095Y-34810990D01*
X122793095Y-34810990D02*
X122745476Y-34858609D01*
X122745476Y-34858609D02*
X122650238Y-34906228D01*
X122650238Y-34906228D02*
X122269286Y-34906228D01*
X123174048Y-34382419D02*
X123793095Y-34382419D01*
X123793095Y-34382419D02*
X123459762Y-34763371D01*
X123459762Y-34763371D02*
X123602619Y-34763371D01*
X123602619Y-34763371D02*
X123697857Y-34810990D01*
X123697857Y-34810990D02*
X123745476Y-34858609D01*
X123745476Y-34858609D02*
X123793095Y-34953847D01*
X123793095Y-34953847D02*
X123793095Y-35191942D01*
X123793095Y-35191942D02*
X123745476Y-35287180D01*
X123745476Y-35287180D02*
X123697857Y-35334800D01*
X123697857Y-35334800D02*
X123602619Y-35382419D01*
X123602619Y-35382419D02*
X123316905Y-35382419D01*
X123316905Y-35382419D02*
X123221667Y-35334800D01*
X123221667Y-35334800D02*
X123174048Y-35287180D01*
X124174048Y-34477657D02*
X124221667Y-34430038D01*
X124221667Y-34430038D02*
X124316905Y-34382419D01*
X124316905Y-34382419D02*
X124555000Y-34382419D01*
X124555000Y-34382419D02*
X124650238Y-34430038D01*
X124650238Y-34430038D02*
X124697857Y-34477657D01*
X124697857Y-34477657D02*
X124745476Y-34572895D01*
X124745476Y-34572895D02*
X124745476Y-34668133D01*
X124745476Y-34668133D02*
X124697857Y-34810990D01*
X124697857Y-34810990D02*
X124126429Y-35382419D01*
X124126429Y-35382419D02*
X124745476Y-35382419D01*
D10*
X74475180Y-59738571D02*
X75475180Y-59738571D01*
X75475180Y-59738571D02*
X75475180Y-59976666D01*
X75475180Y-59976666D02*
X75427561Y-60119523D01*
X75427561Y-60119523D02*
X75332323Y-60214761D01*
X75332323Y-60214761D02*
X75237085Y-60262380D01*
X75237085Y-60262380D02*
X75046609Y-60309999D01*
X75046609Y-60309999D02*
X74903752Y-60309999D01*
X74903752Y-60309999D02*
X74713276Y-60262380D01*
X74713276Y-60262380D02*
X74618038Y-60214761D01*
X74618038Y-60214761D02*
X74522800Y-60119523D01*
X74522800Y-60119523D02*
X74475180Y-59976666D01*
X74475180Y-59976666D02*
X74475180Y-59738571D01*
X74475180Y-61167142D02*
X74998990Y-61167142D01*
X74998990Y-61167142D02*
X75094228Y-61119523D01*
X75094228Y-61119523D02*
X75141847Y-61024285D01*
X75141847Y-61024285D02*
X75141847Y-60833809D01*
X75141847Y-60833809D02*
X75094228Y-60738571D01*
X74522800Y-61167142D02*
X74475180Y-61071904D01*
X74475180Y-61071904D02*
X74475180Y-60833809D01*
X74475180Y-60833809D02*
X74522800Y-60738571D01*
X74522800Y-60738571D02*
X74618038Y-60690952D01*
X74618038Y-60690952D02*
X74713276Y-60690952D01*
X74713276Y-60690952D02*
X74808514Y-60738571D01*
X74808514Y-60738571D02*
X74856133Y-60833809D01*
X74856133Y-60833809D02*
X74856133Y-61071904D01*
X74856133Y-61071904D02*
X74903752Y-61167142D01*
X74522800Y-61595714D02*
X74475180Y-61690952D01*
X74475180Y-61690952D02*
X74475180Y-61881428D01*
X74475180Y-61881428D02*
X74522800Y-61976666D01*
X74522800Y-61976666D02*
X74618038Y-62024285D01*
X74618038Y-62024285D02*
X74665657Y-62024285D01*
X74665657Y-62024285D02*
X74760895Y-61976666D01*
X74760895Y-61976666D02*
X74808514Y-61881428D01*
X74808514Y-61881428D02*
X74808514Y-61738571D01*
X74808514Y-61738571D02*
X74856133Y-61643333D01*
X74856133Y-61643333D02*
X74951371Y-61595714D01*
X74951371Y-61595714D02*
X74998990Y-61595714D01*
X74998990Y-61595714D02*
X75094228Y-61643333D01*
X75094228Y-61643333D02*
X75141847Y-61738571D01*
X75141847Y-61738571D02*
X75141847Y-61881428D01*
X75141847Y-61881428D02*
X75094228Y-61976666D01*
X74475180Y-62452857D02*
X75475180Y-62452857D01*
X74475180Y-62881428D02*
X74998990Y-62881428D01*
X74998990Y-62881428D02*
X75094228Y-62833809D01*
X75094228Y-62833809D02*
X75141847Y-62738571D01*
X75141847Y-62738571D02*
X75141847Y-62595714D01*
X75141847Y-62595714D02*
X75094228Y-62500476D01*
X75094228Y-62500476D02*
X75046609Y-62452857D01*
X157839580Y-62676666D02*
X157887200Y-62724285D01*
X157887200Y-62724285D02*
X157934819Y-62867142D01*
X157934819Y-62867142D02*
X157934819Y-62962380D01*
X157934819Y-62962380D02*
X157887200Y-63105237D01*
X157887200Y-63105237D02*
X157791961Y-63200475D01*
X157791961Y-63200475D02*
X157696723Y-63248094D01*
X157696723Y-63248094D02*
X157506247Y-63295713D01*
X157506247Y-63295713D02*
X157363390Y-63295713D01*
X157363390Y-63295713D02*
X157172914Y-63248094D01*
X157172914Y-63248094D02*
X157077676Y-63200475D01*
X157077676Y-63200475D02*
X156982438Y-63105237D01*
X156982438Y-63105237D02*
X156934819Y-62962380D01*
X156934819Y-62962380D02*
X156934819Y-62867142D01*
X156934819Y-62867142D02*
X156982438Y-62724285D01*
X156982438Y-62724285D02*
X157030057Y-62676666D01*
X157030057Y-62295713D02*
X156982438Y-62248094D01*
X156982438Y-62248094D02*
X156934819Y-62152856D01*
X156934819Y-62152856D02*
X156934819Y-61914761D01*
X156934819Y-61914761D02*
X156982438Y-61819523D01*
X156982438Y-61819523D02*
X157030057Y-61771904D01*
X157030057Y-61771904D02*
X157125295Y-61724285D01*
X157125295Y-61724285D02*
X157220533Y-61724285D01*
X157220533Y-61724285D02*
X157363390Y-61771904D01*
X157363390Y-61771904D02*
X157934819Y-62343332D01*
X157934819Y-62343332D02*
X157934819Y-61724285D01*
X76888180Y-52538333D02*
X77364371Y-52205000D01*
X76888180Y-51966905D02*
X77888180Y-51966905D01*
X77888180Y-51966905D02*
X77888180Y-52347857D01*
X77888180Y-52347857D02*
X77840561Y-52443095D01*
X77840561Y-52443095D02*
X77792942Y-52490714D01*
X77792942Y-52490714D02*
X77697704Y-52538333D01*
X77697704Y-52538333D02*
X77554847Y-52538333D01*
X77554847Y-52538333D02*
X77459609Y-52490714D01*
X77459609Y-52490714D02*
X77411990Y-52443095D01*
X77411990Y-52443095D02*
X77364371Y-52347857D01*
X77364371Y-52347857D02*
X77364371Y-51966905D01*
X77888180Y-52871667D02*
X77888180Y-53490714D01*
X77888180Y-53490714D02*
X77507228Y-53157381D01*
X77507228Y-53157381D02*
X77507228Y-53300238D01*
X77507228Y-53300238D02*
X77459609Y-53395476D01*
X77459609Y-53395476D02*
X77411990Y-53443095D01*
X77411990Y-53443095D02*
X77316752Y-53490714D01*
X77316752Y-53490714D02*
X77078657Y-53490714D01*
X77078657Y-53490714D02*
X76983419Y-53443095D01*
X76983419Y-53443095D02*
X76935800Y-53395476D01*
X76935800Y-53395476D02*
X76888180Y-53300238D01*
X76888180Y-53300238D02*
X76888180Y-53014524D01*
X76888180Y-53014524D02*
X76935800Y-52919286D01*
X76935800Y-52919286D02*
X76983419Y-52871667D01*
X161062200Y-70699047D02*
X161109819Y-70556190D01*
X161109819Y-70556190D02*
X161109819Y-70318095D01*
X161109819Y-70318095D02*
X161062200Y-70222857D01*
X161062200Y-70222857D02*
X161014580Y-70175238D01*
X161014580Y-70175238D02*
X160919342Y-70127619D01*
X160919342Y-70127619D02*
X160824104Y-70127619D01*
X160824104Y-70127619D02*
X160728866Y-70175238D01*
X160728866Y-70175238D02*
X160681247Y-70222857D01*
X160681247Y-70222857D02*
X160633628Y-70318095D01*
X160633628Y-70318095D02*
X160586009Y-70508571D01*
X160586009Y-70508571D02*
X160538390Y-70603809D01*
X160538390Y-70603809D02*
X160490771Y-70651428D01*
X160490771Y-70651428D02*
X160395533Y-70699047D01*
X160395533Y-70699047D02*
X160300295Y-70699047D01*
X160300295Y-70699047D02*
X160205057Y-70651428D01*
X160205057Y-70651428D02*
X160157438Y-70603809D01*
X160157438Y-70603809D02*
X160109819Y-70508571D01*
X160109819Y-70508571D02*
X160109819Y-70270476D01*
X160109819Y-70270476D02*
X160157438Y-70127619D01*
X161109819Y-69699047D02*
X160109819Y-69699047D01*
X161109819Y-69270476D02*
X160586009Y-69270476D01*
X160586009Y-69270476D02*
X160490771Y-69318095D01*
X160490771Y-69318095D02*
X160443152Y-69413333D01*
X160443152Y-69413333D02*
X160443152Y-69556190D01*
X160443152Y-69556190D02*
X160490771Y-69651428D01*
X160490771Y-69651428D02*
X160538390Y-69699047D01*
X161109819Y-68794285D02*
X160443152Y-68794285D01*
X160109819Y-68794285D02*
X160157438Y-68841904D01*
X160157438Y-68841904D02*
X160205057Y-68794285D01*
X160205057Y-68794285D02*
X160157438Y-68746666D01*
X160157438Y-68746666D02*
X160109819Y-68794285D01*
X160109819Y-68794285D02*
X160205057Y-68794285D01*
X161062200Y-67937143D02*
X161109819Y-68032381D01*
X161109819Y-68032381D02*
X161109819Y-68222857D01*
X161109819Y-68222857D02*
X161062200Y-68318095D01*
X161062200Y-68318095D02*
X160966961Y-68365714D01*
X160966961Y-68365714D02*
X160586009Y-68365714D01*
X160586009Y-68365714D02*
X160490771Y-68318095D01*
X160490771Y-68318095D02*
X160443152Y-68222857D01*
X160443152Y-68222857D02*
X160443152Y-68032381D01*
X160443152Y-68032381D02*
X160490771Y-67937143D01*
X160490771Y-67937143D02*
X160586009Y-67889524D01*
X160586009Y-67889524D02*
X160681247Y-67889524D01*
X160681247Y-67889524D02*
X160776485Y-68365714D01*
X161109819Y-67318095D02*
X161062200Y-67413333D01*
X161062200Y-67413333D02*
X160966961Y-67460952D01*
X160966961Y-67460952D02*
X160109819Y-67460952D01*
X161109819Y-66508571D02*
X160109819Y-66508571D01*
X161062200Y-66508571D02*
X161109819Y-66603809D01*
X161109819Y-66603809D02*
X161109819Y-66794285D01*
X161109819Y-66794285D02*
X161062200Y-66889523D01*
X161062200Y-66889523D02*
X161014580Y-66937142D01*
X161014580Y-66937142D02*
X160919342Y-66984761D01*
X160919342Y-66984761D02*
X160633628Y-66984761D01*
X160633628Y-66984761D02*
X160538390Y-66937142D01*
X160538390Y-66937142D02*
X160490771Y-66889523D01*
X160490771Y-66889523D02*
X160443152Y-66794285D01*
X160443152Y-66794285D02*
X160443152Y-66603809D01*
X160443152Y-66603809D02*
X160490771Y-66508571D01*
D11*
X90146904Y-35382419D02*
X90146904Y-34382419D01*
X90146904Y-34382419D02*
X90480237Y-35096704D01*
X90480237Y-35096704D02*
X90813570Y-34382419D01*
X90813570Y-34382419D02*
X90813570Y-35382419D01*
X91289761Y-35382419D02*
X91289761Y-34715752D01*
X91289761Y-34382419D02*
X91242142Y-34430038D01*
X91242142Y-34430038D02*
X91289761Y-34477657D01*
X91289761Y-34477657D02*
X91337380Y-34430038D01*
X91337380Y-34430038D02*
X91289761Y-34382419D01*
X91289761Y-34382419D02*
X91289761Y-34477657D01*
X92194522Y-35334800D02*
X92099284Y-35382419D01*
X92099284Y-35382419D02*
X91908808Y-35382419D01*
X91908808Y-35382419D02*
X91813570Y-35334800D01*
X91813570Y-35334800D02*
X91765951Y-35287180D01*
X91765951Y-35287180D02*
X91718332Y-35191942D01*
X91718332Y-35191942D02*
X91718332Y-34906228D01*
X91718332Y-34906228D02*
X91765951Y-34810990D01*
X91765951Y-34810990D02*
X91813570Y-34763371D01*
X91813570Y-34763371D02*
X91908808Y-34715752D01*
X91908808Y-34715752D02*
X92099284Y-34715752D01*
X92099284Y-34715752D02*
X92194522Y-34763371D01*
X92623094Y-35382419D02*
X92623094Y-34715752D01*
X92623094Y-34906228D02*
X92670713Y-34810990D01*
X92670713Y-34810990D02*
X92718332Y-34763371D01*
X92718332Y-34763371D02*
X92813570Y-34715752D01*
X92813570Y-34715752D02*
X92908808Y-34715752D01*
X93384999Y-35382419D02*
X93289761Y-35334800D01*
X93289761Y-35334800D02*
X93242142Y-35287180D01*
X93242142Y-35287180D02*
X93194523Y-35191942D01*
X93194523Y-35191942D02*
X93194523Y-34906228D01*
X93194523Y-34906228D02*
X93242142Y-34810990D01*
X93242142Y-34810990D02*
X93289761Y-34763371D01*
X93289761Y-34763371D02*
X93384999Y-34715752D01*
X93384999Y-34715752D02*
X93527856Y-34715752D01*
X93527856Y-34715752D02*
X93623094Y-34763371D01*
X93623094Y-34763371D02*
X93670713Y-34810990D01*
X93670713Y-34810990D02*
X93718332Y-34906228D01*
X93718332Y-34906228D02*
X93718332Y-35191942D01*
X93718332Y-35191942D02*
X93670713Y-35287180D01*
X93670713Y-35287180D02*
X93623094Y-35334800D01*
X93623094Y-35334800D02*
X93527856Y-35382419D01*
X93527856Y-35382419D02*
X93384999Y-35382419D01*
X94099285Y-35334800D02*
X94242142Y-35382419D01*
X94242142Y-35382419D02*
X94480237Y-35382419D01*
X94480237Y-35382419D02*
X94575475Y-35334800D01*
X94575475Y-35334800D02*
X94623094Y-35287180D01*
X94623094Y-35287180D02*
X94670713Y-35191942D01*
X94670713Y-35191942D02*
X94670713Y-35096704D01*
X94670713Y-35096704D02*
X94623094Y-35001466D01*
X94623094Y-35001466D02*
X94575475Y-34953847D01*
X94575475Y-34953847D02*
X94480237Y-34906228D01*
X94480237Y-34906228D02*
X94289761Y-34858609D01*
X94289761Y-34858609D02*
X94194523Y-34810990D01*
X94194523Y-34810990D02*
X94146904Y-34763371D01*
X94146904Y-34763371D02*
X94099285Y-34668133D01*
X94099285Y-34668133D02*
X94099285Y-34572895D01*
X94099285Y-34572895D02*
X94146904Y-34477657D01*
X94146904Y-34477657D02*
X94194523Y-34430038D01*
X94194523Y-34430038D02*
X94289761Y-34382419D01*
X94289761Y-34382419D02*
X94527856Y-34382419D01*
X94527856Y-34382419D02*
X94670713Y-34430038D01*
X95099285Y-35382419D02*
X95099285Y-34382419D01*
X95099285Y-34382419D02*
X95337380Y-34382419D01*
X95337380Y-34382419D02*
X95480237Y-34430038D01*
X95480237Y-34430038D02*
X95575475Y-34525276D01*
X95575475Y-34525276D02*
X95623094Y-34620514D01*
X95623094Y-34620514D02*
X95670713Y-34810990D01*
X95670713Y-34810990D02*
X95670713Y-34953847D01*
X95670713Y-34953847D02*
X95623094Y-35144323D01*
X95623094Y-35144323D02*
X95575475Y-35239561D01*
X95575475Y-35239561D02*
X95480237Y-35334800D01*
X95480237Y-35334800D02*
X95337380Y-35382419D01*
X95337380Y-35382419D02*
X95099285Y-35382419D01*
X96861190Y-35382419D02*
X96861190Y-34382419D01*
X96861190Y-34382419D02*
X97194523Y-35096704D01*
X97194523Y-35096704D02*
X97527856Y-34382419D01*
X97527856Y-34382419D02*
X97527856Y-35382419D01*
X98146904Y-35382419D02*
X98051666Y-35334800D01*
X98051666Y-35334800D02*
X98004047Y-35287180D01*
X98004047Y-35287180D02*
X97956428Y-35191942D01*
X97956428Y-35191942D02*
X97956428Y-34906228D01*
X97956428Y-34906228D02*
X98004047Y-34810990D01*
X98004047Y-34810990D02*
X98051666Y-34763371D01*
X98051666Y-34763371D02*
X98146904Y-34715752D01*
X98146904Y-34715752D02*
X98289761Y-34715752D01*
X98289761Y-34715752D02*
X98384999Y-34763371D01*
X98384999Y-34763371D02*
X98432618Y-34810990D01*
X98432618Y-34810990D02*
X98480237Y-34906228D01*
X98480237Y-34906228D02*
X98480237Y-35191942D01*
X98480237Y-35191942D02*
X98432618Y-35287180D01*
X98432618Y-35287180D02*
X98384999Y-35334800D01*
X98384999Y-35334800D02*
X98289761Y-35382419D01*
X98289761Y-35382419D02*
X98146904Y-35382419D01*
X99337380Y-35382419D02*
X99337380Y-34382419D01*
X99337380Y-35334800D02*
X99242142Y-35382419D01*
X99242142Y-35382419D02*
X99051666Y-35382419D01*
X99051666Y-35382419D02*
X98956428Y-35334800D01*
X98956428Y-35334800D02*
X98908809Y-35287180D01*
X98908809Y-35287180D02*
X98861190Y-35191942D01*
X98861190Y-35191942D02*
X98861190Y-34906228D01*
X98861190Y-34906228D02*
X98908809Y-34810990D01*
X98908809Y-34810990D02*
X98956428Y-34763371D01*
X98956428Y-34763371D02*
X99051666Y-34715752D01*
X99051666Y-34715752D02*
X99242142Y-34715752D01*
X99242142Y-34715752D02*
X99337380Y-34763371D01*
X100242142Y-34715752D02*
X100242142Y-35382419D01*
X99813571Y-34715752D02*
X99813571Y-35239561D01*
X99813571Y-35239561D02*
X99861190Y-35334800D01*
X99861190Y-35334800D02*
X99956428Y-35382419D01*
X99956428Y-35382419D02*
X100099285Y-35382419D01*
X100099285Y-35382419D02*
X100194523Y-35334800D01*
X100194523Y-35334800D02*
X100242142Y-35287180D01*
X100861190Y-35382419D02*
X100765952Y-35334800D01*
X100765952Y-35334800D02*
X100718333Y-35239561D01*
X100718333Y-35239561D02*
X100718333Y-34382419D01*
X101623095Y-35334800D02*
X101527857Y-35382419D01*
X101527857Y-35382419D02*
X101337381Y-35382419D01*
X101337381Y-35382419D02*
X101242143Y-35334800D01*
X101242143Y-35334800D02*
X101194524Y-35239561D01*
X101194524Y-35239561D02*
X101194524Y-34858609D01*
X101194524Y-34858609D02*
X101242143Y-34763371D01*
X101242143Y-34763371D02*
X101337381Y-34715752D01*
X101337381Y-34715752D02*
X101527857Y-34715752D01*
X101527857Y-34715752D02*
X101623095Y-34763371D01*
X101623095Y-34763371D02*
X101670714Y-34858609D01*
X101670714Y-34858609D02*
X101670714Y-34953847D01*
X101670714Y-34953847D02*
X101194524Y-35049085D01*
X91892714Y-87135038D02*
X91797476Y-87087419D01*
X91797476Y-87087419D02*
X91654619Y-87087419D01*
X91654619Y-87087419D02*
X91511762Y-87135038D01*
X91511762Y-87135038D02*
X91416524Y-87230276D01*
X91416524Y-87230276D02*
X91368905Y-87325514D01*
X91368905Y-87325514D02*
X91321286Y-87515990D01*
X91321286Y-87515990D02*
X91321286Y-87658847D01*
X91321286Y-87658847D02*
X91368905Y-87849323D01*
X91368905Y-87849323D02*
X91416524Y-87944561D01*
X91416524Y-87944561D02*
X91511762Y-88039800D01*
X91511762Y-88039800D02*
X91654619Y-88087419D01*
X91654619Y-88087419D02*
X91749857Y-88087419D01*
X91749857Y-88087419D02*
X91892714Y-88039800D01*
X91892714Y-88039800D02*
X91940333Y-87992180D01*
X91940333Y-87992180D02*
X91940333Y-87658847D01*
X91940333Y-87658847D02*
X91749857Y-87658847D01*
X92559381Y-87611228D02*
X92559381Y-88087419D01*
X92226048Y-87087419D02*
X92559381Y-87611228D01*
X92559381Y-87611228D02*
X92892714Y-87087419D01*
X93226048Y-87706466D02*
X93987953Y-87706466D01*
X94940333Y-87087419D02*
X94464143Y-87087419D01*
X94464143Y-87087419D02*
X94416524Y-87563609D01*
X94416524Y-87563609D02*
X94464143Y-87515990D01*
X94464143Y-87515990D02*
X94559381Y-87468371D01*
X94559381Y-87468371D02*
X94797476Y-87468371D01*
X94797476Y-87468371D02*
X94892714Y-87515990D01*
X94892714Y-87515990D02*
X94940333Y-87563609D01*
X94940333Y-87563609D02*
X94987952Y-87658847D01*
X94987952Y-87658847D02*
X94987952Y-87896942D01*
X94987952Y-87896942D02*
X94940333Y-87992180D01*
X94940333Y-87992180D02*
X94892714Y-88039800D01*
X94892714Y-88039800D02*
X94797476Y-88087419D01*
X94797476Y-88087419D02*
X94559381Y-88087419D01*
X94559381Y-88087419D02*
X94464143Y-88039800D01*
X94464143Y-88039800D02*
X94416524Y-87992180D01*
X95368905Y-87182657D02*
X95416524Y-87135038D01*
X95416524Y-87135038D02*
X95511762Y-87087419D01*
X95511762Y-87087419D02*
X95749857Y-87087419D01*
X95749857Y-87087419D02*
X95845095Y-87135038D01*
X95845095Y-87135038D02*
X95892714Y-87182657D01*
X95892714Y-87182657D02*
X95940333Y-87277895D01*
X95940333Y-87277895D02*
X95940333Y-87373133D01*
X95940333Y-87373133D02*
X95892714Y-87515990D01*
X95892714Y-87515990D02*
X95321286Y-88087419D01*
X95321286Y-88087419D02*
X95940333Y-88087419D01*
X96892714Y-88087419D02*
X96321286Y-88087419D01*
X96607000Y-88087419D02*
X96607000Y-87087419D01*
X96607000Y-87087419D02*
X96511762Y-87230276D01*
X96511762Y-87230276D02*
X96416524Y-87325514D01*
X96416524Y-87325514D02*
X96321286Y-87373133D01*
D10*
X105584714Y-77607438D02*
X105489476Y-77559819D01*
X105489476Y-77559819D02*
X105346619Y-77559819D01*
X105346619Y-77559819D02*
X105203762Y-77607438D01*
X105203762Y-77607438D02*
X105108524Y-77702676D01*
X105108524Y-77702676D02*
X105060905Y-77797914D01*
X105060905Y-77797914D02*
X105013286Y-77988390D01*
X105013286Y-77988390D02*
X105013286Y-78131247D01*
X105013286Y-78131247D02*
X105060905Y-78321723D01*
X105060905Y-78321723D02*
X105108524Y-78416961D01*
X105108524Y-78416961D02*
X105203762Y-78512200D01*
X105203762Y-78512200D02*
X105346619Y-78559819D01*
X105346619Y-78559819D02*
X105441857Y-78559819D01*
X105441857Y-78559819D02*
X105584714Y-78512200D01*
X105584714Y-78512200D02*
X105632333Y-78464580D01*
X105632333Y-78464580D02*
X105632333Y-78131247D01*
X105632333Y-78131247D02*
X105441857Y-78131247D01*
X106060905Y-78559819D02*
X106060905Y-77559819D01*
X106060905Y-77559819D02*
X106441857Y-77559819D01*
X106441857Y-77559819D02*
X106537095Y-77607438D01*
X106537095Y-77607438D02*
X106584714Y-77655057D01*
X106584714Y-77655057D02*
X106632333Y-77750295D01*
X106632333Y-77750295D02*
X106632333Y-77893152D01*
X106632333Y-77893152D02*
X106584714Y-77988390D01*
X106584714Y-77988390D02*
X106537095Y-78036009D01*
X106537095Y-78036009D02*
X106441857Y-78083628D01*
X106441857Y-78083628D02*
X106060905Y-78083628D01*
X107013286Y-78512200D02*
X107156143Y-78559819D01*
X107156143Y-78559819D02*
X107394238Y-78559819D01*
X107394238Y-78559819D02*
X107489476Y-78512200D01*
X107489476Y-78512200D02*
X107537095Y-78464580D01*
X107537095Y-78464580D02*
X107584714Y-78369342D01*
X107584714Y-78369342D02*
X107584714Y-78274104D01*
X107584714Y-78274104D02*
X107537095Y-78178866D01*
X107537095Y-78178866D02*
X107489476Y-78131247D01*
X107489476Y-78131247D02*
X107394238Y-78083628D01*
X107394238Y-78083628D02*
X107203762Y-78036009D01*
X107203762Y-78036009D02*
X107108524Y-77988390D01*
X107108524Y-77988390D02*
X107060905Y-77940771D01*
X107060905Y-77940771D02*
X107013286Y-77845533D01*
X107013286Y-77845533D02*
X107013286Y-77750295D01*
X107013286Y-77750295D02*
X107060905Y-77655057D01*
X107060905Y-77655057D02*
X107108524Y-77607438D01*
X107108524Y-77607438D02*
X107203762Y-77559819D01*
X107203762Y-77559819D02*
X107441857Y-77559819D01*
X107441857Y-77559819D02*
X107584714Y-77607438D01*
D11*
X141383190Y-35382419D02*
X141383190Y-34382419D01*
X141383190Y-34382419D02*
X141954618Y-35382419D01*
X141954618Y-35382419D02*
X141954618Y-34382419D01*
X143002237Y-35382419D02*
X142668904Y-34906228D01*
X142430809Y-35382419D02*
X142430809Y-34382419D01*
X142430809Y-34382419D02*
X142811761Y-34382419D01*
X142811761Y-34382419D02*
X142906999Y-34430038D01*
X142906999Y-34430038D02*
X142954618Y-34477657D01*
X142954618Y-34477657D02*
X143002237Y-34572895D01*
X143002237Y-34572895D02*
X143002237Y-34715752D01*
X143002237Y-34715752D02*
X142954618Y-34810990D01*
X142954618Y-34810990D02*
X142906999Y-34858609D01*
X142906999Y-34858609D02*
X142811761Y-34906228D01*
X142811761Y-34906228D02*
X142430809Y-34906228D01*
X143764142Y-34858609D02*
X143430809Y-34858609D01*
X143430809Y-35382419D02*
X143430809Y-34382419D01*
X143430809Y-34382419D02*
X143906999Y-34382419D01*
X144240333Y-34477657D02*
X144287952Y-34430038D01*
X144287952Y-34430038D02*
X144383190Y-34382419D01*
X144383190Y-34382419D02*
X144621285Y-34382419D01*
X144621285Y-34382419D02*
X144716523Y-34430038D01*
X144716523Y-34430038D02*
X144764142Y-34477657D01*
X144764142Y-34477657D02*
X144811761Y-34572895D01*
X144811761Y-34572895D02*
X144811761Y-34668133D01*
X144811761Y-34668133D02*
X144764142Y-34810990D01*
X144764142Y-34810990D02*
X144192714Y-35382419D01*
X144192714Y-35382419D02*
X144811761Y-35382419D01*
X145668904Y-34715752D02*
X145668904Y-35382419D01*
X145430809Y-34334800D02*
X145192714Y-35049085D01*
X145192714Y-35049085D02*
X145811761Y-35049085D01*
X146668904Y-35382419D02*
X146192714Y-35382419D01*
X146192714Y-35382419D02*
X146192714Y-34382419D01*
X147192714Y-34382419D02*
X147287952Y-34382419D01*
X147287952Y-34382419D02*
X147383190Y-34430038D01*
X147383190Y-34430038D02*
X147430809Y-34477657D01*
X147430809Y-34477657D02*
X147478428Y-34572895D01*
X147478428Y-34572895D02*
X147526047Y-34763371D01*
X147526047Y-34763371D02*
X147526047Y-35001466D01*
X147526047Y-35001466D02*
X147478428Y-35191942D01*
X147478428Y-35191942D02*
X147430809Y-35287180D01*
X147430809Y-35287180D02*
X147383190Y-35334800D01*
X147383190Y-35334800D02*
X147287952Y-35382419D01*
X147287952Y-35382419D02*
X147192714Y-35382419D01*
X147192714Y-35382419D02*
X147097476Y-35334800D01*
X147097476Y-35334800D02*
X147049857Y-35287180D01*
X147049857Y-35287180D02*
X147002238Y-35191942D01*
X147002238Y-35191942D02*
X146954619Y-35001466D01*
X146954619Y-35001466D02*
X146954619Y-34763371D01*
X146954619Y-34763371D02*
X147002238Y-34572895D01*
X147002238Y-34572895D02*
X147049857Y-34477657D01*
X147049857Y-34477657D02*
X147097476Y-34430038D01*
X147097476Y-34430038D02*
X147192714Y-34382419D01*
X148478428Y-35382419D02*
X147907000Y-35382419D01*
X148192714Y-35382419D02*
X148192714Y-34382419D01*
X148192714Y-34382419D02*
X148097476Y-34525276D01*
X148097476Y-34525276D02*
X148002238Y-34620514D01*
X148002238Y-34620514D02*
X147907000Y-34668133D01*
D10*
X74475180Y-73053571D02*
X75475180Y-73053571D01*
X75475180Y-73053571D02*
X74760895Y-73386904D01*
X74760895Y-73386904D02*
X75475180Y-73720237D01*
X75475180Y-73720237D02*
X74475180Y-73720237D01*
X74475180Y-74196428D02*
X75475180Y-74196428D01*
X75475180Y-74196428D02*
X75475180Y-74577380D01*
X75475180Y-74577380D02*
X75427561Y-74672618D01*
X75427561Y-74672618D02*
X75379942Y-74720237D01*
X75379942Y-74720237D02*
X75284704Y-74767856D01*
X75284704Y-74767856D02*
X75141847Y-74767856D01*
X75141847Y-74767856D02*
X75046609Y-74720237D01*
X75046609Y-74720237D02*
X74998990Y-74672618D01*
X74998990Y-74672618D02*
X74951371Y-74577380D01*
X74951371Y-74577380D02*
X74951371Y-74196428D01*
X75475180Y-75196428D02*
X74665657Y-75196428D01*
X74665657Y-75196428D02*
X74570419Y-75244047D01*
X74570419Y-75244047D02*
X74522800Y-75291666D01*
X74522800Y-75291666D02*
X74475180Y-75386904D01*
X74475180Y-75386904D02*
X74475180Y-75577380D01*
X74475180Y-75577380D02*
X74522800Y-75672618D01*
X74522800Y-75672618D02*
X74570419Y-75720237D01*
X74570419Y-75720237D02*
X74665657Y-75767856D01*
X74665657Y-75767856D02*
X75475180Y-75767856D01*
X74379942Y-76005952D02*
X74379942Y-76767856D01*
X74570419Y-77577380D02*
X74522800Y-77529761D01*
X74522800Y-77529761D02*
X74475180Y-77386904D01*
X74475180Y-77386904D02*
X74475180Y-77291666D01*
X74475180Y-77291666D02*
X74522800Y-77148809D01*
X74522800Y-77148809D02*
X74618038Y-77053571D01*
X74618038Y-77053571D02*
X74713276Y-77005952D01*
X74713276Y-77005952D02*
X74903752Y-76958333D01*
X74903752Y-76958333D02*
X75046609Y-76958333D01*
X75046609Y-76958333D02*
X75237085Y-77005952D01*
X75237085Y-77005952D02*
X75332323Y-77053571D01*
X75332323Y-77053571D02*
X75427561Y-77148809D01*
X75427561Y-77148809D02*
X75475180Y-77291666D01*
X75475180Y-77291666D02*
X75475180Y-77386904D01*
X75475180Y-77386904D02*
X75427561Y-77529761D01*
X75427561Y-77529761D02*
X75379942Y-77577380D01*
X74760895Y-77958333D02*
X74760895Y-78434523D01*
X74475180Y-77863095D02*
X75475180Y-78196428D01*
X75475180Y-78196428D02*
X74475180Y-78529761D01*
X74475180Y-79339285D02*
X74475180Y-78863095D01*
X74475180Y-78863095D02*
X75475180Y-78863095D01*
X160474819Y-57888094D02*
X159474819Y-57888094D01*
X159474819Y-57888094D02*
X159474819Y-57649999D01*
X159474819Y-57649999D02*
X159522438Y-57507142D01*
X159522438Y-57507142D02*
X159617676Y-57411904D01*
X159617676Y-57411904D02*
X159712914Y-57364285D01*
X159712914Y-57364285D02*
X159903390Y-57316666D01*
X159903390Y-57316666D02*
X160046247Y-57316666D01*
X160046247Y-57316666D02*
X160236723Y-57364285D01*
X160236723Y-57364285D02*
X160331961Y-57411904D01*
X160331961Y-57411904D02*
X160427200Y-57507142D01*
X160427200Y-57507142D02*
X160474819Y-57649999D01*
X160474819Y-57649999D02*
X160474819Y-57888094D01*
X160474819Y-56364285D02*
X160474819Y-56935713D01*
X160474819Y-56649999D02*
X159474819Y-56649999D01*
X159474819Y-56649999D02*
X159617676Y-56745237D01*
X159617676Y-56745237D02*
X159712914Y-56840475D01*
X159712914Y-56840475D02*
X159760533Y-56935713D01*
X155299580Y-57316666D02*
X155347200Y-57364285D01*
X155347200Y-57364285D02*
X155394819Y-57507142D01*
X155394819Y-57507142D02*
X155394819Y-57602380D01*
X155394819Y-57602380D02*
X155347200Y-57745237D01*
X155347200Y-57745237D02*
X155251961Y-57840475D01*
X155251961Y-57840475D02*
X155156723Y-57888094D01*
X155156723Y-57888094D02*
X154966247Y-57935713D01*
X154966247Y-57935713D02*
X154823390Y-57935713D01*
X154823390Y-57935713D02*
X154632914Y-57888094D01*
X154632914Y-57888094D02*
X154537676Y-57840475D01*
X154537676Y-57840475D02*
X154442438Y-57745237D01*
X154442438Y-57745237D02*
X154394819Y-57602380D01*
X154394819Y-57602380D02*
X154394819Y-57507142D01*
X154394819Y-57507142D02*
X154442438Y-57364285D01*
X154442438Y-57364285D02*
X154490057Y-57316666D01*
X154728152Y-56459523D02*
X155394819Y-56459523D01*
X154347200Y-56697618D02*
X155061485Y-56935713D01*
X155061485Y-56935713D02*
X155061485Y-56316666D01*
X155299580Y-62676666D02*
X155347200Y-62724285D01*
X155347200Y-62724285D02*
X155394819Y-62867142D01*
X155394819Y-62867142D02*
X155394819Y-62962380D01*
X155394819Y-62962380D02*
X155347200Y-63105237D01*
X155347200Y-63105237D02*
X155251961Y-63200475D01*
X155251961Y-63200475D02*
X155156723Y-63248094D01*
X155156723Y-63248094D02*
X154966247Y-63295713D01*
X154966247Y-63295713D02*
X154823390Y-63295713D01*
X154823390Y-63295713D02*
X154632914Y-63248094D01*
X154632914Y-63248094D02*
X154537676Y-63200475D01*
X154537676Y-63200475D02*
X154442438Y-63105237D01*
X154442438Y-63105237D02*
X154394819Y-62962380D01*
X154394819Y-62962380D02*
X154394819Y-62867142D01*
X154394819Y-62867142D02*
X154442438Y-62724285D01*
X154442438Y-62724285D02*
X154490057Y-62676666D01*
X155394819Y-61724285D02*
X155394819Y-62295713D01*
X155394819Y-62009999D02*
X154394819Y-62009999D01*
X154394819Y-62009999D02*
X154537676Y-62105237D01*
X154537676Y-62105237D02*
X154632914Y-62200475D01*
X154632914Y-62200475D02*
X154680533Y-62295713D01*
X138289333Y-76044819D02*
X137956000Y-75568628D01*
X137717905Y-76044819D02*
X137717905Y-75044819D01*
X137717905Y-75044819D02*
X138098857Y-75044819D01*
X138098857Y-75044819D02*
X138194095Y-75092438D01*
X138194095Y-75092438D02*
X138241714Y-75140057D01*
X138241714Y-75140057D02*
X138289333Y-75235295D01*
X138289333Y-75235295D02*
X138289333Y-75378152D01*
X138289333Y-75378152D02*
X138241714Y-75473390D01*
X138241714Y-75473390D02*
X138194095Y-75521009D01*
X138194095Y-75521009D02*
X138098857Y-75568628D01*
X138098857Y-75568628D02*
X137717905Y-75568628D01*
X138670286Y-75140057D02*
X138717905Y-75092438D01*
X138717905Y-75092438D02*
X138813143Y-75044819D01*
X138813143Y-75044819D02*
X139051238Y-75044819D01*
X139051238Y-75044819D02*
X139146476Y-75092438D01*
X139146476Y-75092438D02*
X139194095Y-75140057D01*
X139194095Y-75140057D02*
X139241714Y-75235295D01*
X139241714Y-75235295D02*
X139241714Y-75330533D01*
X139241714Y-75330533D02*
X139194095Y-75473390D01*
X139194095Y-75473390D02*
X138622667Y-76044819D01*
X138622667Y-76044819D02*
X139241714Y-76044819D01*
X76825180Y-69683333D02*
X77301371Y-69350000D01*
X76825180Y-69111905D02*
X77825180Y-69111905D01*
X77825180Y-69111905D02*
X77825180Y-69492857D01*
X77825180Y-69492857D02*
X77777561Y-69588095D01*
X77777561Y-69588095D02*
X77729942Y-69635714D01*
X77729942Y-69635714D02*
X77634704Y-69683333D01*
X77634704Y-69683333D02*
X77491847Y-69683333D01*
X77491847Y-69683333D02*
X77396609Y-69635714D01*
X77396609Y-69635714D02*
X77348990Y-69588095D01*
X77348990Y-69588095D02*
X77301371Y-69492857D01*
X77301371Y-69492857D02*
X77301371Y-69111905D01*
X77491847Y-70540476D02*
X76825180Y-70540476D01*
X77872800Y-70302381D02*
X77158514Y-70064286D01*
X77158514Y-70064286D02*
X77158514Y-70683333D01*
X160379580Y-62676666D02*
X160427200Y-62724285D01*
X160427200Y-62724285D02*
X160474819Y-62867142D01*
X160474819Y-62867142D02*
X160474819Y-62962380D01*
X160474819Y-62962380D02*
X160427200Y-63105237D01*
X160427200Y-63105237D02*
X160331961Y-63200475D01*
X160331961Y-63200475D02*
X160236723Y-63248094D01*
X160236723Y-63248094D02*
X160046247Y-63295713D01*
X160046247Y-63295713D02*
X159903390Y-63295713D01*
X159903390Y-63295713D02*
X159712914Y-63248094D01*
X159712914Y-63248094D02*
X159617676Y-63200475D01*
X159617676Y-63200475D02*
X159522438Y-63105237D01*
X159522438Y-63105237D02*
X159474819Y-62962380D01*
X159474819Y-62962380D02*
X159474819Y-62867142D01*
X159474819Y-62867142D02*
X159522438Y-62724285D01*
X159522438Y-62724285D02*
X159570057Y-62676666D01*
X159474819Y-62343332D02*
X159474819Y-61724285D01*
X159474819Y-61724285D02*
X159855771Y-62057618D01*
X159855771Y-62057618D02*
X159855771Y-61914761D01*
X159855771Y-61914761D02*
X159903390Y-61819523D01*
X159903390Y-61819523D02*
X159951009Y-61771904D01*
X159951009Y-61771904D02*
X160046247Y-61724285D01*
X160046247Y-61724285D02*
X160284342Y-61724285D01*
X160284342Y-61724285D02*
X160379580Y-61771904D01*
X160379580Y-61771904D02*
X160427200Y-61819523D01*
X160427200Y-61819523D02*
X160474819Y-61914761D01*
X160474819Y-61914761D02*
X160474819Y-62200475D01*
X160474819Y-62200475D02*
X160427200Y-62295713D01*
X160427200Y-62295713D02*
X160379580Y-62343332D01*
D12*
X151215000Y-87425000D02*
X151215000Y-84350000D01*
X151215000Y-84350000D02*
X138345000Y-84350000D01*
X149795000Y-88940000D02*
X149795000Y-88440000D01*
X149795000Y-88440000D02*
X139765000Y-88440000D01*
X149775000Y-88940000D02*
X149795000Y-88940000D01*
X139765000Y-88940000D02*
X139785000Y-88940000D01*
X139765000Y-88440000D02*
X139765000Y-88940000D01*
X138345000Y-84350000D02*
X138345000Y-87425000D01*
X148838600Y-78105000D02*
X148838600Y-74655000D01*
X148838600Y-78105000D02*
X148838600Y-80055000D01*
X143718600Y-78105000D02*
X143718600Y-76155000D01*
X143718600Y-78105000D02*
X143718600Y-80055000D01*
X141250580Y-81155000D02*
X140969420Y-81155000D01*
X141250580Y-80135000D02*
X140969420Y-80135000D01*
X156150000Y-73595000D02*
X157480000Y-73595000D01*
X156150000Y-74925000D02*
X156150000Y-73595000D01*
X156150000Y-76195000D02*
X156150000Y-78795000D01*
X156150000Y-76195000D02*
X158810000Y-76195000D01*
X156150000Y-78795000D02*
X158810000Y-78795000D01*
X158810000Y-76195000D02*
X158810000Y-78795000D01*
X78915000Y-49930000D02*
X80415000Y-49930000D01*
X82915000Y-48680000D02*
X82915000Y-44180000D01*
X76415000Y-44180000D02*
X76415000Y-48680000D01*
X80415000Y-42930000D02*
X78915000Y-42930000D01*
X154070000Y-51725000D02*
X154070000Y-45715000D01*
X160890000Y-49475000D02*
X160890000Y-45715000D01*
X154070000Y-45715000D02*
X155330000Y-45715000D01*
X160890000Y-45715000D02*
X159630000Y-45715000D01*
X156957500Y-54847258D02*
X156957500Y-54372742D01*
X158002500Y-54847258D02*
X158002500Y-54372742D01*
X141250580Y-78615000D02*
X140969420Y-78615000D01*
X141250580Y-77595000D02*
X140969420Y-77595000D01*
D11*
X136755000Y-83816000D02*
X108355000Y-83816000D01*
X108355000Y-83816000D02*
X108355000Y-32316000D01*
X108355000Y-32316000D02*
X136755000Y-32316000D01*
X136755000Y-32316000D02*
X136755000Y-83816000D01*
D12*
X77095000Y-67745000D02*
X80170000Y-67745000D01*
X80170000Y-67745000D02*
X80170000Y-54875000D01*
X75580000Y-66325000D02*
X76080000Y-66325000D01*
X76080000Y-66325000D02*
X76080000Y-56295000D01*
X75580000Y-66305000D02*
X75580000Y-66325000D01*
X75580000Y-56295000D02*
X75580000Y-56315000D01*
X76080000Y-56295000D02*
X75580000Y-56295000D01*
X80170000Y-54875000D02*
X77095000Y-54875000D01*
X156970000Y-59970580D02*
X156970000Y-59689420D01*
X157990000Y-59970580D02*
X157990000Y-59689420D01*
X80057258Y-53227500D02*
X79582742Y-53227500D01*
X80057258Y-52182500D02*
X79582742Y-52182500D01*
X156150000Y-65975000D02*
X157480000Y-65975000D01*
X156150000Y-67305000D02*
X156150000Y-65975000D01*
X156150000Y-68575000D02*
X156150000Y-71175000D01*
X156150000Y-68575000D02*
X158810000Y-68575000D01*
X156150000Y-71175000D02*
X158810000Y-71175000D01*
X158810000Y-68575000D02*
X158810000Y-71175000D01*
D11*
X83835000Y-32236000D02*
X107935000Y-32236000D01*
X107935000Y-32236000D02*
X107935000Y-74136000D01*
X107935000Y-74136000D02*
X83835000Y-74136000D01*
X83835000Y-74136000D02*
X83835000Y-32236000D01*
X104307000Y-90300000D02*
X83907000Y-90300000D01*
X83907000Y-90300000D02*
X83907000Y-74600000D01*
X83907000Y-74600000D02*
X104307000Y-74600000D01*
X104307000Y-74600000D02*
X104307000Y-90300000D01*
D12*
X104969000Y-79442000D02*
X106299000Y-79442000D01*
X104969000Y-80772000D02*
X104969000Y-79442000D01*
X104969000Y-82042000D02*
X104969000Y-89722000D01*
X104969000Y-82042000D02*
X107629000Y-82042000D01*
X104969000Y-89722000D02*
X107629000Y-89722000D01*
X107629000Y-82042000D02*
X107629000Y-89722000D01*
D11*
X137157000Y-32332000D02*
X152657000Y-32332000D01*
X152657000Y-32332000D02*
X152657000Y-73132000D01*
X152657000Y-73132000D02*
X137157000Y-73132000D01*
X137157000Y-73132000D02*
X137157000Y-32332000D01*
D12*
X78970000Y-79625000D02*
X80470000Y-79625000D01*
X82970000Y-78375000D02*
X82970000Y-73875000D01*
X76470000Y-73875000D02*
X76470000Y-78375000D01*
X80470000Y-72625000D02*
X78970000Y-72625000D01*
X159285000Y-56095000D02*
X160755000Y-56095000D01*
X160755000Y-56095000D02*
X160755000Y-53810000D01*
X159285000Y-53810000D02*
X159285000Y-56095000D01*
X154430000Y-54750580D02*
X154430000Y-54469420D01*
X155450000Y-54750580D02*
X155450000Y-54469420D01*
X154430000Y-59970580D02*
X154430000Y-59689420D01*
X155450000Y-59970580D02*
X155450000Y-59689420D01*
X141347258Y-76087500D02*
X140872742Y-76087500D01*
X141347258Y-75042500D02*
X140872742Y-75042500D01*
X80057258Y-70372500D02*
X79582742Y-70372500D01*
X80057258Y-69327500D02*
X79582742Y-69327500D01*
X159510000Y-59970580D02*
X159510000Y-59689420D01*
X160530000Y-59970580D02*
X160530000Y-59689420D01*
%LPC*%
D13*
X150780000Y-88320000D03*
X138780000Y-88320000D03*
D14*
X147780000Y-86360000D03*
D15*
X144780000Y-86360000D03*
X141780000Y-86360000D03*
D16*
X148183600Y-75630000D03*
X146913600Y-75630000D03*
X145643600Y-75630000D03*
X144373600Y-75630000D03*
X144373600Y-80580000D03*
X145643600Y-80580000D03*
X146913600Y-80580000D03*
X148183600Y-80580000D03*
D17*
X141885000Y-80645000D03*
X140335000Y-80645000D03*
D18*
X157480000Y-74925000D03*
D19*
X157480000Y-77465000D03*
D20*
X77415000Y-49680000D03*
X77415000Y-43180000D03*
X81915000Y-49680000D03*
X81915000Y-43180000D03*
D21*
X155180000Y-50775000D03*
X157480000Y-50775000D03*
D22*
X157480000Y-44475000D03*
D21*
X159780000Y-50775000D03*
D23*
X157480000Y-55435000D03*
X157480000Y-53785000D03*
D17*
X141885000Y-78105000D03*
X140335000Y-78105000D03*
D24*
X135255000Y-77466000D03*
X135255000Y-74926000D03*
X135255000Y-72386000D03*
X135255000Y-69846000D03*
X135255000Y-67306000D03*
X135255000Y-64766000D03*
X135255000Y-62226000D03*
X135255000Y-59686000D03*
X135255000Y-57146000D03*
X135255000Y-54606000D03*
X135255000Y-52066000D03*
X135255000Y-49526000D03*
X135255000Y-46986000D03*
X135255000Y-44446000D03*
X135255000Y-41906000D03*
X109855000Y-41906000D03*
X109855000Y-44446000D03*
X109855000Y-46986000D03*
X109855000Y-49526000D03*
X109855000Y-52066000D03*
X109855000Y-54606000D03*
X109855000Y-57146000D03*
X109855000Y-59686000D03*
X109855000Y-62226000D03*
X109855000Y-64766000D03*
X109855000Y-67306000D03*
X109855000Y-69846000D03*
X109855000Y-72386000D03*
X109855000Y-74926000D03*
X109855000Y-77466000D03*
D13*
X76200000Y-67310000D03*
X76200000Y-55310000D03*
D25*
X78160000Y-64310000D03*
D26*
X78160000Y-61310000D03*
X78160000Y-58310000D03*
D27*
X157480000Y-60605000D03*
X157480000Y-59055000D03*
D28*
X80645000Y-52705000D03*
X78995000Y-52705000D03*
D29*
X78740000Y-85725000D03*
D18*
X157480000Y-67305000D03*
D19*
X157480000Y-69845000D03*
D30*
X89535000Y-71596000D03*
D24*
X92075000Y-71596000D03*
X94615000Y-71596000D03*
X97155000Y-71596000D03*
X99695000Y-71596000D03*
X102235000Y-71596000D03*
D30*
X102997000Y-75822000D03*
D24*
X100457000Y-75822000D03*
X97917000Y-75822000D03*
X95377000Y-75822000D03*
X92837000Y-75822000D03*
X90297000Y-75822000D03*
X87757000Y-75822000D03*
X85217000Y-75822000D03*
D18*
X106299000Y-80772000D03*
D19*
X106299000Y-83312000D03*
X106299000Y-85852000D03*
X106299000Y-88392000D03*
D30*
X141097000Y-71862000D03*
D24*
X141097000Y-69322000D03*
X143637000Y-71862000D03*
X143637000Y-69322000D03*
X146177000Y-71862000D03*
X146177000Y-69322000D03*
X148717000Y-71862000D03*
X148717000Y-69322000D03*
D20*
X77470000Y-79375000D03*
X77470000Y-72875000D03*
X81970000Y-79375000D03*
X81970000Y-72875000D03*
D29*
X157480000Y-85725000D03*
D31*
X160020000Y-55397500D03*
X160020000Y-53822500D03*
D27*
X154940000Y-55385000D03*
X154940000Y-53835000D03*
X154940000Y-60605000D03*
X154940000Y-59055000D03*
D28*
X141935000Y-75565000D03*
X140285000Y-75565000D03*
D29*
X157480000Y-36830000D03*
D28*
X80645000Y-69850000D03*
X78995000Y-69850000D03*
D27*
X160020000Y-60605000D03*
X160020000Y-59055000D03*
D29*
X78740000Y-36830000D03*
%LPD*%
M02*
