G04 #@! TF.GenerationSoftware,KiCad,Pcbnew,7.0.9*
G04 #@! TF.CreationDate,2023-11-18T03:00:04-05:00*
G04 #@! TF.ProjectId,RLM,524c4d2e-6b69-4636-9164-5f7063625858,rev?*
G04 #@! TF.SameCoordinates,Original*
G04 #@! TF.FileFunction,Legend,Bot*
G04 #@! TF.FilePolarity,Positive*
%FSLAX46Y46*%
G04 Gerber Fmt 4.6, Leading zero omitted, Abs format (unit mm)*
G04 Created by KiCad (PCBNEW 7.0.9) date 2023-11-18 03:00:04*
%MOMM*%
%LPD*%
G01*
G04 APERTURE LIST*
G04 Aperture macros list*
%AMRoundRect*
0 Rectangle with rounded corners*
0 $1 Rounding radius*
0 $2 $3 $4 $5 $6 $7 $8 $9 X,Y pos of 4 corners*
0 Add a 4 corners polygon primitive as box body*
4,1,4,$2,$3,$4,$5,$6,$7,$8,$9,$2,$3,0*
0 Add four circle primitives for the rounded corners*
1,1,$1+$1,$2,$3*
1,1,$1+$1,$4,$5*
1,1,$1+$1,$6,$7*
1,1,$1+$1,$8,$9*
0 Add four rect primitives between the rounded corners*
20,1,$1+$1,$2,$3,$4,$5,0*
20,1,$1+$1,$4,$5,$6,$7,0*
20,1,$1+$1,$6,$7,$8,$9,0*
20,1,$1+$1,$8,$9,$2,$3,0*%
G04 Aperture macros list end*
%ADD10C,1.270000*%
%ADD11RoundRect,0.250001X0.499999X0.759999X-0.499999X0.759999X-0.499999X-0.759999X0.499999X-0.759999X0*%
%ADD12O,1.500000X2.020000*%
%ADD13R,1.700000X1.700000*%
%ADD14O,1.700000X1.700000*%
%ADD15C,2.000000*%
%ADD16C,1.524000*%
%ADD17RoundRect,0.250001X0.759999X-0.499999X0.759999X0.499999X-0.759999X0.499999X-0.759999X-0.499999X0*%
%ADD18O,2.020000X1.500000*%
%ADD19C,7.000000*%
%ADD20R,1.524000X1.524000*%
G04 APERTURE END LIST*
G36*
X114995858Y-78753606D02*
G01*
X114723915Y-78934580D01*
X114642479Y-78988264D01*
X114540303Y-79053949D01*
X114467129Y-79098895D01*
X114435005Y-79115555D01*
X114433217Y-79111554D01*
X114429038Y-79060493D01*
X114426181Y-78957998D01*
X114424761Y-78813370D01*
X114424890Y-78635907D01*
X114426684Y-78434911D01*
X114435328Y-77754268D01*
X114715593Y-77745014D01*
X114995858Y-77735759D01*
X114995858Y-78753606D01*
G37*
G36*
X130594597Y-60121607D02*
G01*
X128448569Y-60121607D01*
X128448569Y-62427787D01*
X130594597Y-62427787D01*
X130594597Y-63100422D01*
X128117590Y-63100422D01*
X128034673Y-63100410D01*
X127645435Y-63100031D01*
X127275864Y-63099149D01*
X126930893Y-63097807D01*
X126615454Y-63096047D01*
X126334480Y-63093911D01*
X126092905Y-63091442D01*
X125895659Y-63088680D01*
X125747676Y-63085670D01*
X125653889Y-63082452D01*
X125619229Y-63079069D01*
X125613449Y-63061489D01*
X125605429Y-62990179D01*
X125599922Y-62878954D01*
X125597875Y-62742751D01*
X125597875Y-62427787D01*
X127839994Y-62427787D01*
X127839994Y-60121607D01*
X125597875Y-60121607D01*
X125597875Y-59448972D01*
X130594597Y-59448972D01*
X130594597Y-60121607D01*
G37*
G36*
X117375918Y-83728733D02*
G01*
X117381719Y-83768946D01*
X117386369Y-83863826D01*
X117389725Y-84005287D01*
X117391646Y-84185242D01*
X117391991Y-84395604D01*
X117390619Y-84628287D01*
X117382112Y-85528661D01*
X116116917Y-85989470D01*
X116007388Y-86029365D01*
X115731079Y-86130034D01*
X115468691Y-86225664D01*
X115227939Y-86313442D01*
X115016533Y-86390555D01*
X114842186Y-86454191D01*
X114712610Y-86501536D01*
X114635517Y-86529778D01*
X114419313Y-86609278D01*
X114419313Y-84795392D01*
X115884982Y-84261652D01*
X115913320Y-84251334D01*
X116203383Y-84145913D01*
X116474567Y-84047693D01*
X116720972Y-83958786D01*
X116936701Y-83881306D01*
X117115855Y-83817366D01*
X117252537Y-83769078D01*
X117340847Y-83738556D01*
X117374888Y-83727913D01*
X117375918Y-83728733D01*
G37*
G36*
X124917795Y-64005905D02*
G01*
X124919030Y-64184099D01*
X124918671Y-64388999D01*
X124916375Y-64565605D01*
X124912336Y-64704979D01*
X124906748Y-64798182D01*
X124899805Y-64836273D01*
X124899526Y-64836517D01*
X124879714Y-64845932D01*
X124829835Y-64866124D01*
X124748115Y-64897743D01*
X124632780Y-64941440D01*
X124482057Y-64997865D01*
X124294171Y-65067670D01*
X124067348Y-65151505D01*
X123799815Y-65250020D01*
X123489798Y-65363867D01*
X123135523Y-65493696D01*
X122735216Y-65640158D01*
X122287103Y-65803904D01*
X121789410Y-65985584D01*
X121240364Y-66185850D01*
X120638190Y-66405351D01*
X119981114Y-66644739D01*
X119267364Y-66904664D01*
X118495164Y-67185778D01*
X118198884Y-67293621D01*
X118198884Y-65642282D01*
X121554054Y-64422189D01*
X124909225Y-63202096D01*
X124917795Y-64005905D01*
G37*
G36*
X116845326Y-77559138D02*
G01*
X116831746Y-77571359D01*
X116773150Y-77613240D01*
X116676643Y-77679114D01*
X116551248Y-77763085D01*
X116405987Y-77859258D01*
X116249885Y-77961736D01*
X116091962Y-78064624D01*
X115941243Y-78162026D01*
X115806750Y-78248047D01*
X115697505Y-78316789D01*
X115622531Y-78362359D01*
X115590852Y-78378858D01*
X115584420Y-78356580D01*
X115578193Y-78281978D01*
X115573963Y-78167321D01*
X115572403Y-78025520D01*
X115573883Y-77887181D01*
X115580516Y-77761135D01*
X115593130Y-77687355D01*
X115612440Y-77659304D01*
X115624384Y-77656821D01*
X115691039Y-77648349D01*
X115802060Y-77636986D01*
X115945429Y-77623707D01*
X116109129Y-77609489D01*
X116281143Y-77595309D01*
X116449455Y-77582142D01*
X116602046Y-77570965D01*
X116726899Y-77562755D01*
X116811998Y-77558487D01*
X116845326Y-77559138D01*
G37*
G36*
X117390888Y-75499788D02*
G01*
X117393195Y-75548159D01*
X117395185Y-75648294D01*
X117396745Y-75790826D01*
X117397763Y-75966388D01*
X117398128Y-76165610D01*
X117398128Y-76835086D01*
X117037787Y-76854659D01*
X116958569Y-76858731D01*
X116790022Y-76866655D01*
X116580349Y-76875896D01*
X116343559Y-76885858D01*
X116093660Y-76895941D01*
X115844660Y-76905549D01*
X115677358Y-76911977D01*
X115434144Y-76921773D01*
X115203286Y-76931566D01*
X114997701Y-76940787D01*
X114830304Y-76948870D01*
X114714011Y-76955245D01*
X114416150Y-76973624D01*
X114425739Y-76772020D01*
X114435328Y-76570417D01*
X115908720Y-76033910D01*
X115946031Y-76020325D01*
X116235701Y-75914903D01*
X116505783Y-75816698D01*
X116750476Y-75727811D01*
X116963981Y-75650347D01*
X117140497Y-75586407D01*
X117274226Y-75538096D01*
X117359367Y-75507515D01*
X117390120Y-75496769D01*
X117390888Y-75499788D01*
G37*
G36*
X130594444Y-68409439D02*
G01*
X130594292Y-68721734D01*
X129281203Y-69453417D01*
X129027808Y-69595019D01*
X128779594Y-69734565D01*
X128554569Y-69861931D01*
X128358210Y-69973976D01*
X128195991Y-70067559D01*
X128073389Y-70139540D01*
X127995881Y-70186777D01*
X127968943Y-70206128D01*
X127992416Y-70223070D01*
X128066702Y-70268347D01*
X128186436Y-70338570D01*
X128346113Y-70430586D01*
X128540231Y-70541244D01*
X128763283Y-70667391D01*
X129009766Y-70805876D01*
X129274176Y-70953546D01*
X130578582Y-71679936D01*
X130596916Y-72293108D01*
X130482272Y-72293108D01*
X130452801Y-72288922D01*
X130400907Y-72272017D01*
X130326534Y-72240084D01*
X130225593Y-72190938D01*
X130093992Y-72122396D01*
X129927641Y-72032273D01*
X129722450Y-71918383D01*
X129474329Y-71778544D01*
X129179186Y-71610569D01*
X128832932Y-71412276D01*
X127298237Y-70531444D01*
X125597875Y-70531444D01*
X125597875Y-69858808D01*
X127330925Y-69858808D01*
X128866118Y-68977976D01*
X128891010Y-68963697D01*
X129262165Y-68751612D01*
X129580589Y-68571374D01*
X129848321Y-68421885D01*
X130067400Y-68302044D01*
X130239864Y-68210749D01*
X130367752Y-68146901D01*
X130453102Y-68109399D01*
X130497954Y-68097143D01*
X130594597Y-68097143D01*
X130594444Y-68409439D01*
G37*
G36*
X120886740Y-45533479D02*
G01*
X120969622Y-45561517D01*
X121076189Y-45600570D01*
X121190605Y-45644579D01*
X121297033Y-45687485D01*
X121379638Y-45723229D01*
X121422583Y-45745753D01*
X121426351Y-45749170D01*
X121456650Y-45803986D01*
X121480514Y-45887571D01*
X121482336Y-45897133D01*
X121501304Y-45984195D01*
X121517940Y-46042979D01*
X121518226Y-46043767D01*
X121509460Y-46064754D01*
X121461304Y-46081293D01*
X121365536Y-46095143D01*
X121213934Y-46108066D01*
X121189449Y-46109881D01*
X121024023Y-46126839D01*
X120919792Y-46147510D01*
X120878148Y-46171633D01*
X120843167Y-46313878D01*
X120838362Y-46508831D01*
X120874494Y-46704502D01*
X120905171Y-46821215D01*
X120912925Y-46904605D01*
X120897077Y-46965583D01*
X120890249Y-46981541D01*
X120864796Y-47070018D01*
X120846717Y-47174629D01*
X120818920Y-47302879D01*
X120766822Y-47380580D01*
X120688359Y-47405592D01*
X120655741Y-47404440D01*
X120641849Y-47390389D01*
X120676265Y-47347017D01*
X120700365Y-47309949D01*
X120725870Y-47202753D01*
X120719187Y-47070470D01*
X120680125Y-46933569D01*
X120673696Y-46917074D01*
X120649178Y-46817657D01*
X120648331Y-46734408D01*
X120651596Y-46711435D01*
X120651225Y-46616364D01*
X120637427Y-46508745D01*
X120621027Y-46371231D01*
X120628723Y-46137813D01*
X120673008Y-45903724D01*
X120749945Y-45697334D01*
X120786415Y-45625335D01*
X120823338Y-45554103D01*
X120840615Y-45523095D01*
X120843380Y-45522514D01*
X120886740Y-45533479D01*
G37*
G36*
X125466688Y-44292938D02*
G01*
X125524292Y-44549444D01*
X125561942Y-44819198D01*
X125574250Y-45097864D01*
X125574270Y-45104122D01*
X125565848Y-45342513D01*
X125535603Y-45528620D01*
X125478049Y-45671917D01*
X125387699Y-45781875D01*
X125259067Y-45867966D01*
X125086667Y-45939663D01*
X125080526Y-45941772D01*
X124982354Y-45971945D01*
X124886198Y-45992070D01*
X124775554Y-46003966D01*
X124633918Y-46009449D01*
X124444786Y-46010338D01*
X124432215Y-46010276D01*
X124253409Y-46006371D01*
X124081850Y-45997642D01*
X123936472Y-45985325D01*
X123836211Y-45970653D01*
X123796810Y-45962482D01*
X123710843Y-45950325D01*
X123631589Y-45953160D01*
X123536695Y-45973148D01*
X123403802Y-46012451D01*
X123362336Y-46025281D01*
X123248146Y-46059512D01*
X123163096Y-46083380D01*
X123123135Y-46092347D01*
X123120997Y-46090742D01*
X123129028Y-46053097D01*
X123160357Y-45975672D01*
X123209644Y-45872064D01*
X123235839Y-45822160D01*
X123277310Y-45753214D01*
X123328176Y-45682962D01*
X123394798Y-45604471D01*
X123483540Y-45510808D01*
X123600763Y-45395038D01*
X123752830Y-45250228D01*
X123946103Y-45069444D01*
X124106351Y-44920427D01*
X124260466Y-44778288D01*
X124380938Y-44669890D01*
X124474939Y-44589806D01*
X124549642Y-44532607D01*
X124612219Y-44492868D01*
X124669843Y-44465159D01*
X124729688Y-44444054D01*
X124798924Y-44424124D01*
X124920082Y-44386833D01*
X125086324Y-44327642D01*
X125231355Y-44268125D01*
X125436488Y-44175114D01*
X125466688Y-44292938D01*
G37*
G36*
X130594597Y-50544558D02*
G01*
X128634344Y-50544558D01*
X128330598Y-50544852D01*
X127980182Y-50545996D01*
X127663005Y-50547943D01*
X127383470Y-50550629D01*
X127145979Y-50553989D01*
X126954936Y-50557958D01*
X126814743Y-50562472D01*
X126729804Y-50567467D01*
X126704521Y-50572877D01*
X126705382Y-50573620D01*
X126745671Y-50599106D01*
X126832477Y-50649320D01*
X126956546Y-50719059D01*
X127108626Y-50803118D01*
X127279464Y-50896291D01*
X127396628Y-50960609D01*
X127577950Y-51061791D01*
X127799084Y-51186439D01*
X128051669Y-51329791D01*
X128327343Y-51487087D01*
X128617745Y-51653567D01*
X128914514Y-51824469D01*
X129209288Y-51995034D01*
X130594597Y-52798682D01*
X130594597Y-53555403D01*
X125597875Y-53555403D01*
X125597875Y-52878386D01*
X127567748Y-52888584D01*
X127607595Y-52888787D01*
X127954337Y-52890213D01*
X128280764Y-52890970D01*
X128581407Y-52891083D01*
X128850799Y-52890576D01*
X129083472Y-52889475D01*
X129273957Y-52887804D01*
X129416787Y-52885589D01*
X129506494Y-52882854D01*
X129537610Y-52879624D01*
X129529518Y-52871655D01*
X129475989Y-52837146D01*
X129380639Y-52781683D01*
X129253200Y-52710853D01*
X129103404Y-52630247D01*
X129093630Y-52625060D01*
X128956885Y-52551642D01*
X128802217Y-52467018D01*
X128625481Y-52368829D01*
X128422531Y-52254713D01*
X128189223Y-52122309D01*
X127921409Y-51969256D01*
X127614946Y-51793195D01*
X127265686Y-51591763D01*
X126869486Y-51362601D01*
X126422199Y-51103346D01*
X125596963Y-50624634D01*
X125613891Y-49887938D01*
X130594597Y-49871530D01*
X130594597Y-50544558D01*
G37*
G36*
X120761745Y-39887660D02*
G01*
X120763347Y-39888221D01*
X120846965Y-39932928D01*
X120873411Y-39990586D01*
X120887129Y-40027410D01*
X120935371Y-40070997D01*
X121026519Y-40126155D01*
X121168944Y-40198783D01*
X121249514Y-40239065D01*
X121369717Y-40306036D01*
X121435728Y-40355734D01*
X121451675Y-40390964D01*
X121437216Y-40437341D01*
X121406867Y-40527344D01*
X121368426Y-40637297D01*
X121335107Y-40746643D01*
X121316393Y-40903831D01*
X121346156Y-41038189D01*
X121425883Y-41163306D01*
X121463497Y-41202674D01*
X121587493Y-41293321D01*
X121729411Y-41358014D01*
X121862346Y-41383199D01*
X121923345Y-41388726D01*
X121943040Y-41417144D01*
X121933346Y-41488001D01*
X121924455Y-41537757D01*
X121907745Y-41651793D01*
X121892907Y-41774757D01*
X121873556Y-41957414D01*
X121560610Y-41717536D01*
X121558926Y-41716244D01*
X121435108Y-41620068D01*
X121328403Y-41534883D01*
X121250148Y-41469892D01*
X121211680Y-41434299D01*
X121206975Y-41426897D01*
X121185863Y-41363058D01*
X121164248Y-41258528D01*
X121146145Y-41131834D01*
X121142649Y-41102630D01*
X121123572Y-40974859D01*
X121102236Y-40870312D01*
X121082636Y-40809278D01*
X121050283Y-40774370D01*
X120972240Y-40712128D01*
X120862496Y-40634990D01*
X120733658Y-40552242D01*
X120620841Y-40479702D01*
X120507413Y-40399381D01*
X120424000Y-40331842D01*
X120383325Y-40286726D01*
X120361479Y-40230480D01*
X120360479Y-40148734D01*
X120406720Y-40066824D01*
X120505502Y-39971063D01*
X120588711Y-39903562D01*
X120645347Y-39871562D01*
X120696032Y-39868538D01*
X120761745Y-39887660D01*
G37*
G36*
X129404728Y-36731507D02*
G01*
X129405578Y-36735494D01*
X129419245Y-36800934D01*
X129444417Y-36922525D01*
X129479889Y-37094406D01*
X129524453Y-37310714D01*
X129576903Y-37565588D01*
X129636034Y-37853167D01*
X129700638Y-38167588D01*
X129769509Y-38502990D01*
X129841442Y-38853512D01*
X129893898Y-39109166D01*
X129974258Y-39500696D01*
X130055511Y-39896434D01*
X130135689Y-40286815D01*
X130212829Y-40662272D01*
X130284964Y-41013240D01*
X130350128Y-41330151D01*
X130406357Y-41603440D01*
X130451684Y-41823540D01*
X130657802Y-42823707D01*
X130017670Y-45939429D01*
X129966209Y-46189981D01*
X129878511Y-46617327D01*
X129795044Y-47024510D01*
X129716676Y-47407270D01*
X129644276Y-47761349D01*
X129578712Y-48082491D01*
X129520851Y-48366435D01*
X129471562Y-48608925D01*
X129431714Y-48805702D01*
X129402174Y-48952508D01*
X129383810Y-49045084D01*
X129377492Y-49079174D01*
X129375635Y-49080698D01*
X129330634Y-49086708D01*
X129231486Y-49092091D01*
X129086175Y-49096638D01*
X128902682Y-49100143D01*
X128688992Y-49102399D01*
X128453086Y-49103196D01*
X127528725Y-49103196D01*
X127666561Y-48422553D01*
X127700111Y-48257269D01*
X127748432Y-48019989D01*
X127804894Y-47743347D01*
X127866943Y-47439820D01*
X127932031Y-47121889D01*
X127997604Y-46802032D01*
X128061111Y-46492730D01*
X128094466Y-46330329D01*
X128169761Y-45963185D01*
X128251496Y-45564038D01*
X128335795Y-45151837D01*
X128418786Y-44745531D01*
X128496593Y-44364069D01*
X128565343Y-44026399D01*
X128812860Y-42809249D01*
X128172698Y-39694306D01*
X127532537Y-36579363D01*
X129372138Y-36579363D01*
X129404728Y-36731507D01*
G37*
G36*
X117376087Y-77935469D02*
G01*
X117384802Y-77987884D01*
X117390943Y-78080242D01*
X117394830Y-78218569D01*
X117396779Y-78408890D01*
X117397109Y-78657233D01*
X117396890Y-78772392D01*
X117395832Y-78986368D01*
X117393621Y-79145878D01*
X117389810Y-79257547D01*
X117383948Y-79328003D01*
X117375586Y-79363871D01*
X117364274Y-79371779D01*
X117349564Y-79358352D01*
X117308877Y-79314253D01*
X117230582Y-79250564D01*
X117149592Y-79200340D01*
X117089567Y-79179826D01*
X117069001Y-79192769D01*
X117015624Y-79248258D01*
X116941920Y-79337416D01*
X116857348Y-79449269D01*
X116791407Y-79541477D01*
X116723909Y-79644193D01*
X116684473Y-79722100D01*
X116666010Y-79790185D01*
X116661432Y-79863435D01*
X116661483Y-79878272D01*
X116667179Y-79962356D01*
X116688151Y-80002985D01*
X116732698Y-80018182D01*
X116760658Y-80025603D01*
X116828600Y-80086051D01*
X116870090Y-80200449D01*
X116883363Y-80364735D01*
X116875368Y-80509250D01*
X116841850Y-80653719D01*
X116777554Y-80758238D01*
X116677447Y-80834287D01*
X116612669Y-80868168D01*
X116486325Y-80919062D01*
X116395431Y-80927799D01*
X116332218Y-80895763D01*
X116306687Y-80848498D01*
X116271904Y-80751710D01*
X116233185Y-80620438D01*
X116195145Y-80469045D01*
X116189730Y-80445722D01*
X116127083Y-80199621D01*
X116065099Y-80010526D01*
X115998877Y-79872185D01*
X115923520Y-79778343D01*
X115834128Y-79722748D01*
X115725802Y-79699147D01*
X115593643Y-79701286D01*
X115466009Y-79718970D01*
X115195240Y-79798293D01*
X114943534Y-79927542D01*
X114723827Y-80099226D01*
X114549059Y-80305859D01*
X114419313Y-80500156D01*
X114419313Y-79927610D01*
X115868682Y-78934681D01*
X116028402Y-78825284D01*
X116292868Y-78644250D01*
X116539165Y-78475784D01*
X116762341Y-78323266D01*
X116957445Y-78190076D01*
X117119524Y-78079593D01*
X117243626Y-77995198D01*
X117324799Y-77940269D01*
X117358090Y-77918188D01*
X117364481Y-77916971D01*
X117376087Y-77935469D01*
G37*
G36*
X129174320Y-64045398D02*
G01*
X129361329Y-64046797D01*
X129500888Y-64050835D01*
X129605060Y-64058681D01*
X129685906Y-64071506D01*
X129755488Y-64090480D01*
X129825870Y-64116772D01*
X129895959Y-64148179D01*
X130116336Y-64290372D01*
X130303920Y-64480684D01*
X130451014Y-64710047D01*
X130549917Y-64969394D01*
X130560632Y-65021008D01*
X130571680Y-65111673D01*
X130580262Y-65236718D01*
X130586593Y-65402074D01*
X130590887Y-65613676D01*
X130593357Y-65877457D01*
X130594217Y-66199350D01*
X130594597Y-67264357D01*
X130023467Y-67264357D01*
X125597875Y-67264357D01*
X125597875Y-66591721D01*
X127583752Y-66591721D01*
X128192327Y-66591721D01*
X130023467Y-66591721D01*
X130012752Y-65895063D01*
X130009775Y-65711117D01*
X130005818Y-65525000D01*
X130000736Y-65385775D01*
X129993487Y-65283797D01*
X129983028Y-65209425D01*
X129968316Y-65153015D01*
X129948308Y-65104923D01*
X129921961Y-65055508D01*
X129850715Y-64952296D01*
X129698248Y-64818480D01*
X129509335Y-64734479D01*
X129448119Y-64721682D01*
X129300617Y-64707027D01*
X129124731Y-64702956D01*
X128942797Y-64709060D01*
X128777150Y-64724932D01*
X128650126Y-64750164D01*
X128573872Y-64779365D01*
X128421880Y-64879138D01*
X128300604Y-65015576D01*
X128226667Y-65172115D01*
X128225598Y-65176277D01*
X128215145Y-65251692D01*
X128206078Y-65378042D01*
X128198930Y-65543368D01*
X128194229Y-65735710D01*
X128192505Y-65943108D01*
X128192327Y-66591721D01*
X127583752Y-66591721D01*
X127583994Y-65959123D01*
X127585718Y-65753819D01*
X127590552Y-65549261D01*
X127597915Y-65365694D01*
X127607229Y-65217472D01*
X127617913Y-65118950D01*
X127650578Y-64968996D01*
X127754401Y-64703163D01*
X127908271Y-64470238D01*
X128107024Y-64277232D01*
X128345493Y-64131158D01*
X128411023Y-64101548D01*
X128473199Y-64078631D01*
X128539817Y-64062967D01*
X128622799Y-64053180D01*
X128734071Y-64047893D01*
X128885555Y-64045730D01*
X129089174Y-64045315D01*
X129174320Y-64045398D01*
G37*
G36*
X125763178Y-72745139D02*
G01*
X125818015Y-72759763D01*
X125890646Y-72788597D01*
X125987253Y-72834782D01*
X126114017Y-72901457D01*
X126277116Y-72991760D01*
X126482734Y-73108831D01*
X126737049Y-73255810D01*
X126861632Y-73328000D01*
X127067370Y-73446570D01*
X127250866Y-73551514D01*
X127405504Y-73639094D01*
X127524670Y-73705573D01*
X127601749Y-73747216D01*
X127630127Y-73760287D01*
X127630592Y-73759567D01*
X127648696Y-73723268D01*
X127685522Y-73645677D01*
X127733709Y-73542288D01*
X127740547Y-73527747D01*
X127887152Y-73292605D01*
X128081128Y-73100263D01*
X128320448Y-72952757D01*
X128528645Y-72853638D01*
X129683081Y-72853638D01*
X129894531Y-72957734D01*
X129922136Y-72971728D01*
X130145845Y-73121952D01*
X130329636Y-73319601D01*
X130477221Y-73568566D01*
X130578582Y-73782515D01*
X130588396Y-74959628D01*
X130598211Y-76136740D01*
X130023295Y-76136740D01*
X125597875Y-76136740D01*
X125597875Y-75464104D01*
X127583752Y-75464104D01*
X128192327Y-75464104D01*
X130023295Y-75464104D01*
X130012493Y-74735416D01*
X130009959Y-74573553D01*
X130005935Y-74373928D01*
X130000929Y-74222959D01*
X129994054Y-74111347D01*
X129984420Y-74029791D01*
X129971141Y-73968990D01*
X129953327Y-73919645D01*
X129930092Y-73872454D01*
X129867048Y-73776479D01*
X129720823Y-73638441D01*
X129540826Y-73546712D01*
X129507737Y-73538078D01*
X129392827Y-73522529D01*
X129241557Y-73513722D01*
X129073127Y-73511669D01*
X128906737Y-73516382D01*
X128761585Y-73527873D01*
X128656871Y-73546154D01*
X128650221Y-73548082D01*
X128520637Y-73612721D01*
X128394093Y-73718405D01*
X128290113Y-73845607D01*
X128228223Y-73974803D01*
X128217194Y-74043021D01*
X128207083Y-74169713D01*
X128199312Y-74341813D01*
X128194311Y-74549627D01*
X128192505Y-74783461D01*
X128192327Y-75464104D01*
X127583752Y-75464104D01*
X127582341Y-74991658D01*
X127580931Y-74519212D01*
X125597875Y-73376570D01*
X125597875Y-72741532D01*
X125724551Y-72741532D01*
X125763178Y-72745139D01*
G37*
G36*
X115455786Y-80493959D02*
G01*
X115490932Y-80505087D01*
X115520947Y-80535359D01*
X115549661Y-80593447D01*
X115580906Y-80688025D01*
X115618511Y-80827765D01*
X115666308Y-81021339D01*
X115688580Y-81109977D01*
X115756575Y-81337723D01*
X115828932Y-81508730D01*
X115910155Y-81628486D01*
X116004747Y-81702481D01*
X116117213Y-81736201D01*
X116252055Y-81735135D01*
X116459605Y-81692805D01*
X116713340Y-81591770D01*
X116948348Y-81445782D01*
X117150304Y-81264081D01*
X117304885Y-81055908D01*
X117398855Y-80893234D01*
X117390484Y-81245282D01*
X117382112Y-81597331D01*
X117117863Y-81692199D01*
X116853613Y-81787068D01*
X116853613Y-83146070D01*
X116717484Y-83196038D01*
X116628152Y-83228829D01*
X116497745Y-83276699D01*
X116365152Y-83325373D01*
X116148947Y-83404739D01*
X116148947Y-82845645D01*
X116147986Y-82689378D01*
X116144679Y-82528771D01*
X116139440Y-82401550D01*
X116132708Y-82317939D01*
X116124925Y-82288162D01*
X116113120Y-82291005D01*
X116051227Y-82311490D01*
X115951449Y-82347286D01*
X115828645Y-82393127D01*
X115556387Y-82496482D01*
X115547641Y-83064152D01*
X115544706Y-83228014D01*
X115540886Y-83389402D01*
X115536824Y-83517290D01*
X115532851Y-83601491D01*
X115529295Y-83631822D01*
X115506276Y-83639296D01*
X115431695Y-83665639D01*
X115315182Y-83707577D01*
X115166611Y-83761551D01*
X114995858Y-83824003D01*
X114852512Y-83876228D01*
X114696699Y-83932072D01*
X114570099Y-83976407D01*
X114482994Y-84005642D01*
X114445667Y-84016185D01*
X114443426Y-84012757D01*
X114436968Y-83962663D01*
X114431194Y-83858974D01*
X114426323Y-83709562D01*
X114422574Y-83522300D01*
X114420165Y-83305058D01*
X114419313Y-83065709D01*
X114419313Y-82115233D01*
X114491381Y-82180874D01*
X114575670Y-82246544D01*
X114666439Y-82298338D01*
X114735309Y-82318581D01*
X114748631Y-82311080D01*
X114796127Y-82262997D01*
X114865089Y-82180249D01*
X114945612Y-82074340D01*
X114963813Y-82049295D01*
X115045108Y-81931356D01*
X115093913Y-81843739D01*
X115117709Y-81770578D01*
X115123979Y-81696001D01*
X115119658Y-81621127D01*
X115092527Y-81550934D01*
X115027888Y-81490859D01*
X115018499Y-81483892D01*
X114976673Y-81449028D01*
X114951100Y-81410841D01*
X114937817Y-81354145D01*
X114932861Y-81263758D01*
X114932269Y-81124495D01*
X114932711Y-81080935D01*
X114939646Y-80936542D01*
X114953489Y-80819888D01*
X114972307Y-80749098D01*
X114973034Y-80747666D01*
X115027596Y-80687059D01*
X115121841Y-80619603D01*
X115234790Y-80556969D01*
X115345464Y-80510830D01*
X115432883Y-80492856D01*
X115455786Y-80493959D01*
G37*
G36*
X124925240Y-75170833D02*
G01*
X121669703Y-77401926D01*
X121518117Y-77505805D01*
X121040261Y-77833158D01*
X120896879Y-77931305D01*
X120611632Y-78126561D01*
X120229495Y-78387835D01*
X119891114Y-78618803D01*
X119593751Y-78821285D01*
X119334670Y-78997101D01*
X119111135Y-79148075D01*
X118920410Y-79276026D01*
X118759759Y-79382777D01*
X118626445Y-79470148D01*
X118517731Y-79539960D01*
X118430882Y-79594036D01*
X118363160Y-79634195D01*
X118311831Y-79662260D01*
X118274157Y-79680052D01*
X118247402Y-79689391D01*
X118228829Y-79692099D01*
X118223628Y-79682215D01*
X118215328Y-79618016D01*
X118208475Y-79499422D01*
X118203299Y-79332617D01*
X118200026Y-79123788D01*
X118198884Y-78879122D01*
X118198884Y-78066145D01*
X119576186Y-77157073D01*
X119576186Y-75967462D01*
X120862438Y-75967462D01*
X120863997Y-76124986D01*
X120867976Y-76235160D01*
X120874619Y-76304009D01*
X120884172Y-76337562D01*
X120896879Y-76341844D01*
X120932875Y-76319087D01*
X121015242Y-76265942D01*
X121136400Y-76187325D01*
X121288902Y-76088076D01*
X121465302Y-75973037D01*
X121658153Y-75847047D01*
X121754501Y-75784115D01*
X122004370Y-75621379D01*
X122271230Y-75448134D01*
X122537447Y-75275799D01*
X122785390Y-75115797D01*
X122997425Y-74979548D01*
X123171622Y-74866970D01*
X123352653Y-74746493D01*
X123483014Y-74654387D01*
X123565370Y-74588471D01*
X123602384Y-74546563D01*
X123596718Y-74526482D01*
X123551037Y-74526045D01*
X123543065Y-74526904D01*
X123480408Y-74532546D01*
X123365256Y-74542373D01*
X123206023Y-74555699D01*
X123011123Y-74571838D01*
X122788972Y-74590101D01*
X122547984Y-74609803D01*
X122296574Y-74630257D01*
X122043155Y-74650775D01*
X121796144Y-74670671D01*
X121563955Y-74689259D01*
X121355001Y-74705851D01*
X121177699Y-74719760D01*
X120873411Y-74743423D01*
X120864849Y-75554421D01*
X120863053Y-75756560D01*
X120862438Y-75967462D01*
X119576186Y-75967462D01*
X119576186Y-74881270D01*
X119392012Y-74899694D01*
X119308733Y-74906867D01*
X119164661Y-74917045D01*
X118995691Y-74927335D01*
X118823474Y-74936343D01*
X118678758Y-74943973D01*
X118524959Y-74953736D01*
X118399013Y-74963479D01*
X118318998Y-74971925D01*
X118198884Y-74989281D01*
X118198884Y-73330946D01*
X118305223Y-73292493D01*
X118351303Y-73284699D01*
X118462096Y-73274321D01*
X118635199Y-73262024D01*
X118869715Y-73247855D01*
X119164746Y-73231858D01*
X119519397Y-73214081D01*
X119932770Y-73194571D01*
X120403969Y-73173373D01*
X120932097Y-73150535D01*
X121516257Y-73126103D01*
X121687189Y-73119068D01*
X122125397Y-73101118D01*
X122545987Y-73084009D01*
X122944320Y-73067923D01*
X123315758Y-73053043D01*
X123655661Y-73039551D01*
X123959391Y-73027629D01*
X124222310Y-73017461D01*
X124439779Y-73009228D01*
X124607158Y-73003114D01*
X124719810Y-72999300D01*
X124773096Y-72997969D01*
X124925240Y-72997774D01*
X124925240Y-75170833D01*
G37*
G36*
X114464649Y-45468177D02*
G01*
X114499792Y-45522788D01*
X114562454Y-45620209D01*
X114646781Y-45751337D01*
X114746917Y-45907066D01*
X114857007Y-46078292D01*
X115129894Y-46490918D01*
X115448726Y-46944157D01*
X115765535Y-47364499D01*
X116076588Y-47747555D01*
X116378154Y-48088938D01*
X116666499Y-48384261D01*
X116937891Y-48629134D01*
X117188597Y-48819171D01*
X117396162Y-48959060D01*
X117382112Y-73269334D01*
X117118497Y-73365773D01*
X116854882Y-73462213D01*
X116837598Y-74933579D01*
X116565341Y-75036277D01*
X116507404Y-75057850D01*
X116389500Y-75099909D01*
X116299393Y-75129547D01*
X116253046Y-75141389D01*
X116243836Y-75136653D01*
X116231633Y-75102597D01*
X116222863Y-75030265D01*
X116217112Y-74913216D01*
X116213965Y-74745012D01*
X116213008Y-74519212D01*
X116212999Y-74493063D01*
X116212364Y-74303520D01*
X116210846Y-74139193D01*
X116208605Y-74009794D01*
X116205803Y-73925033D01*
X116202603Y-73894621D01*
X116196094Y-73896106D01*
X116144373Y-73912417D01*
X116056455Y-73941904D01*
X115949859Y-73978516D01*
X115842101Y-74016203D01*
X115750699Y-74048914D01*
X115693169Y-74070597D01*
X115676508Y-74081424D01*
X115661468Y-74107105D01*
X115650365Y-74154849D01*
X115642388Y-74233056D01*
X115636727Y-74350124D01*
X115632570Y-74514455D01*
X115629109Y-74734446D01*
X115620448Y-75375737D01*
X115292138Y-75496239D01*
X114963827Y-75616741D01*
X114962171Y-75532415D01*
X114962125Y-75529810D01*
X114961675Y-75467327D01*
X114961381Y-75353213D01*
X114961253Y-75198910D01*
X114961301Y-75015856D01*
X114961536Y-74815491D01*
X114961560Y-74798572D01*
X114961047Y-74579879D01*
X114958558Y-74417400D01*
X114953598Y-74303799D01*
X114945674Y-74231738D01*
X114934293Y-74193882D01*
X114918960Y-74182894D01*
X114918143Y-74182907D01*
X114866202Y-74194328D01*
X114774598Y-74223024D01*
X114662622Y-74262969D01*
X114654246Y-74266118D01*
X114548683Y-74304994D01*
X114469970Y-74332567D01*
X114434597Y-74343045D01*
X114433893Y-74327669D01*
X114432901Y-74252617D01*
X114431935Y-74116925D01*
X114430999Y-73922611D01*
X114430092Y-73671692D01*
X114429218Y-73366185D01*
X114428377Y-73008109D01*
X114427573Y-72599481D01*
X114426806Y-72142319D01*
X114426079Y-71638639D01*
X114425393Y-71090461D01*
X114424751Y-70499800D01*
X114424154Y-69868676D01*
X114423604Y-69199104D01*
X114423103Y-68493104D01*
X114422652Y-67752693D01*
X114422255Y-66979887D01*
X114421912Y-66176705D01*
X114421626Y-65345165D01*
X114421397Y-64487283D01*
X114421229Y-63605078D01*
X114421123Y-62700567D01*
X114421081Y-61775767D01*
X114421105Y-60832697D01*
X114421197Y-59873373D01*
X114421248Y-59505572D01*
X114421458Y-58324883D01*
X114421735Y-57206467D01*
X114422081Y-56148947D01*
X114422500Y-55150949D01*
X114422997Y-54211098D01*
X114423575Y-53328019D01*
X114424239Y-52500338D01*
X114424991Y-51726680D01*
X114425835Y-51005669D01*
X114426776Y-50335931D01*
X114427818Y-49716091D01*
X114428963Y-49144774D01*
X114430217Y-48620605D01*
X114431582Y-48142210D01*
X114433062Y-47708213D01*
X114434662Y-47317240D01*
X114436386Y-46967915D01*
X114438236Y-46658864D01*
X114440217Y-46388713D01*
X114442333Y-46156085D01*
X114444587Y-45959607D01*
X114446984Y-45797902D01*
X114449526Y-45669598D01*
X114452219Y-45573318D01*
X114455065Y-45507688D01*
X114458069Y-45471333D01*
X114461234Y-45462877D01*
X114464649Y-45468177D01*
G37*
G36*
X128409049Y-78128738D02*
G01*
X128400524Y-79003449D01*
X128104244Y-79012658D01*
X127807964Y-79021868D01*
X127807964Y-77924807D01*
X127303487Y-77936079D01*
X127128040Y-77940675D01*
X126977308Y-77947216D01*
X126867950Y-77956616D01*
X126787871Y-77970422D01*
X126724972Y-77990180D01*
X126667159Y-78017438D01*
X126512023Y-78113014D01*
X126359964Y-78251893D01*
X126245340Y-78423069D01*
X126232524Y-78447745D01*
X126202845Y-78510895D01*
X126182469Y-78572648D01*
X126169636Y-78646094D01*
X126162591Y-78744326D01*
X126159575Y-78880434D01*
X126158832Y-79067509D01*
X126159437Y-79205935D01*
X126165282Y-79401693D01*
X126179949Y-79552739D01*
X126206625Y-79671261D01*
X126248498Y-79769445D01*
X126308756Y-79859478D01*
X126390586Y-79953548D01*
X126412472Y-79976830D01*
X126475013Y-80040157D01*
X126535845Y-80092259D01*
X126601545Y-80134230D01*
X126678691Y-80167164D01*
X126773858Y-80192156D01*
X126893624Y-80210300D01*
X127044565Y-80222692D01*
X127233259Y-80230424D01*
X127466282Y-80234593D01*
X127750212Y-80236291D01*
X128091624Y-80236614D01*
X128427293Y-80236262D01*
X128710690Y-80234630D01*
X128943127Y-80230874D01*
X129131199Y-80224147D01*
X129281502Y-80213605D01*
X129400632Y-80198404D01*
X129495187Y-80177696D01*
X129571760Y-80150639D01*
X129636950Y-80116386D01*
X129697351Y-80074092D01*
X129759560Y-80022912D01*
X129805449Y-79979040D01*
X129901819Y-79861742D01*
X129974052Y-79741926D01*
X129988428Y-79710232D01*
X130012464Y-79648175D01*
X130029246Y-79582257D01*
X130040070Y-79500439D01*
X130046234Y-79390682D01*
X130049035Y-79240947D01*
X130049769Y-79039195D01*
X130049727Y-79002318D01*
X130046559Y-78782705D01*
X130038785Y-78597584D01*
X130026965Y-78456789D01*
X130011660Y-78370154D01*
X129974544Y-78288393D01*
X129904486Y-78179169D01*
X129819478Y-78073675D01*
X129813893Y-78067545D01*
X129739030Y-77981426D01*
X129685911Y-77913157D01*
X129665719Y-77877039D01*
X129673018Y-77862526D01*
X129716379Y-77808630D01*
X129790068Y-77728028D01*
X129884046Y-77631987D01*
X130102374Y-77415332D01*
X130270143Y-77592723D01*
X130413526Y-77770108D01*
X130550210Y-78025506D01*
X130627752Y-78304524D01*
X130641932Y-78428644D01*
X130652233Y-78607304D01*
X130657366Y-78816191D01*
X130657506Y-79039613D01*
X130652825Y-79261878D01*
X130643497Y-79467293D01*
X130629696Y-79640165D01*
X130611596Y-79764802D01*
X130607143Y-79785105D01*
X130514208Y-80063951D01*
X130370896Y-80316032D01*
X130184627Y-80528079D01*
X130110913Y-80593018D01*
X129955310Y-80708274D01*
X129793044Y-80791852D01*
X129596058Y-80859554D01*
X129561118Y-80868780D01*
X129504310Y-80879928D01*
X129433788Y-80888825D01*
X129343257Y-80895642D01*
X129226427Y-80900552D01*
X129077004Y-80903728D01*
X128888696Y-80905342D01*
X128655211Y-80905566D01*
X128370256Y-80904573D01*
X128027539Y-80902535D01*
X126638859Y-80893234D01*
X126421450Y-80790255D01*
X126327721Y-80741710D01*
X126084029Y-80571199D01*
X125878908Y-80359293D01*
X125720397Y-80115392D01*
X125616534Y-79848899D01*
X125609316Y-79818021D01*
X125589864Y-79682369D01*
X125576138Y-79502960D01*
X125568154Y-79295087D01*
X125565929Y-79074040D01*
X125569480Y-78855113D01*
X125578821Y-78653597D01*
X125593971Y-78484783D01*
X125614945Y-78363963D01*
X125634891Y-78294209D01*
X125754334Y-78015623D01*
X125927029Y-77770497D01*
X126149636Y-77562845D01*
X126418820Y-77396684D01*
X126667292Y-77273814D01*
X127542434Y-77263921D01*
X128417575Y-77254027D01*
X128409049Y-78128738D01*
G37*
G36*
X129761987Y-54694926D02*
G01*
X130007930Y-54843060D01*
X130227656Y-55038958D01*
X130409929Y-55270238D01*
X130545887Y-55525635D01*
X130626666Y-55793886D01*
X130632528Y-55831444D01*
X130645220Y-55969424D01*
X130653454Y-56148082D01*
X130657220Y-56350491D01*
X130656508Y-56559724D01*
X130651309Y-56758854D01*
X130641611Y-56930955D01*
X130627406Y-57059100D01*
X130587806Y-57229950D01*
X130476184Y-57498703D01*
X130313780Y-57742394D01*
X130108280Y-57952234D01*
X129867373Y-58119432D01*
X129598745Y-58235199D01*
X129551435Y-58248869D01*
X129494728Y-58261692D01*
X129428176Y-58271961D01*
X129345003Y-58279952D01*
X129238431Y-58285941D01*
X129101684Y-58290203D01*
X128927984Y-58293014D01*
X128710556Y-58294650D01*
X128442622Y-58295388D01*
X128117405Y-58295502D01*
X128045680Y-58295396D01*
X127833433Y-58295081D01*
X127532189Y-58293535D01*
X127285013Y-58290696D01*
X127086361Y-58286397D01*
X126930687Y-58280467D01*
X126812447Y-58272737D01*
X126726097Y-58263039D01*
X126666091Y-58251203D01*
X126551632Y-58214599D01*
X126299375Y-58089748D01*
X126069495Y-57916201D01*
X125872300Y-57704226D01*
X125718097Y-57464095D01*
X125617193Y-57206077D01*
X125606854Y-57159082D01*
X125588198Y-57016427D01*
X125575116Y-56831849D01*
X125567632Y-56620394D01*
X125565904Y-56413568D01*
X126151296Y-56413568D01*
X126152368Y-56653846D01*
X126163668Y-56834160D01*
X126185347Y-56957263D01*
X126262180Y-57146402D01*
X126399095Y-57333937D01*
X126580839Y-57479760D01*
X126800985Y-57577399D01*
X126831178Y-57584286D01*
X126939774Y-57597651D01*
X127098565Y-57608569D01*
X127298051Y-57617058D01*
X127528733Y-57623137D01*
X127781109Y-57626823D01*
X128045680Y-57628134D01*
X128312945Y-57627089D01*
X128573404Y-57623706D01*
X128817558Y-57618003D01*
X129035904Y-57609998D01*
X129218944Y-57599710D01*
X129357177Y-57587156D01*
X129441103Y-57572354D01*
X129542947Y-57530642D01*
X129696086Y-57430940D01*
X129836714Y-57300444D01*
X129948442Y-57155184D01*
X130014879Y-57011191D01*
X130024627Y-56967216D01*
X130040095Y-56838461D01*
X130048538Y-56674262D01*
X130050390Y-56488816D01*
X130046084Y-56296322D01*
X130036057Y-56110975D01*
X130020741Y-55946974D01*
X130000571Y-55818515D01*
X129975982Y-55739795D01*
X129949040Y-55694733D01*
X129821191Y-55541309D01*
X129658136Y-55409043D01*
X129482242Y-55317083D01*
X129464315Y-55310466D01*
X129417416Y-55294773D01*
X129367678Y-55282166D01*
X129308299Y-55272372D01*
X129232476Y-55265118D01*
X129133408Y-55260131D01*
X129004292Y-55257137D01*
X128838327Y-55255864D01*
X128628710Y-55256038D01*
X128368640Y-55257387D01*
X128051314Y-55259637D01*
X127874656Y-55260983D01*
X127589620Y-55263409D01*
X127358582Y-55266032D01*
X127174983Y-55269231D01*
X127032264Y-55273384D01*
X126923866Y-55278871D01*
X126843232Y-55286070D01*
X126783803Y-55295360D01*
X126739020Y-55307119D01*
X126702325Y-55321726D01*
X126667159Y-55339559D01*
X126492777Y-55449717D01*
X126361625Y-55576518D01*
X126254713Y-55738742D01*
X126251605Y-55744463D01*
X126215295Y-55815245D01*
X126189984Y-55879899D01*
X126173350Y-55952462D01*
X126163072Y-56046970D01*
X126156829Y-56177462D01*
X126152297Y-56357974D01*
X126151296Y-56413568D01*
X125565904Y-56413568D01*
X125565767Y-56397106D01*
X125569543Y-56177031D01*
X125578984Y-55975214D01*
X125594110Y-55806701D01*
X125614945Y-55686536D01*
X125636072Y-55613023D01*
X125756158Y-55335196D01*
X125929654Y-55090698D01*
X126153467Y-54883236D01*
X126424502Y-54716516D01*
X126667567Y-54596387D01*
X129553613Y-54596387D01*
X129761987Y-54694926D01*
G37*
G36*
X124253602Y-66032507D02*
G01*
X124324730Y-66070607D01*
X124412756Y-66124640D01*
X124584679Y-66258303D01*
X124747372Y-66459799D01*
X124870727Y-66710270D01*
X124873985Y-66718989D01*
X124892763Y-66773451D01*
X124907790Y-66829774D01*
X124919578Y-66895733D01*
X124928639Y-66979103D01*
X124935484Y-67087659D01*
X124940625Y-67229176D01*
X124944573Y-67411427D01*
X124947840Y-67642189D01*
X124950938Y-67929235D01*
X124953126Y-68211498D01*
X124952783Y-68496216D01*
X124948042Y-68733385D01*
X124937645Y-68931964D01*
X124920333Y-69100910D01*
X124894846Y-69249182D01*
X124859926Y-69385738D01*
X124814314Y-69519536D01*
X124756751Y-69659534D01*
X124685978Y-69814690D01*
X124503815Y-70154279D01*
X124241550Y-70529174D01*
X123936967Y-70862182D01*
X123595077Y-71147946D01*
X123220888Y-71381108D01*
X123175022Y-71403341D01*
X123055174Y-71455132D01*
X122887589Y-71522997D01*
X122679949Y-71604152D01*
X122439937Y-71695808D01*
X122175234Y-71795179D01*
X121893523Y-71899480D01*
X121602486Y-72005922D01*
X121309805Y-72111719D01*
X121023163Y-72214085D01*
X120750240Y-72310232D01*
X120498720Y-72397375D01*
X120276284Y-72472726D01*
X120090615Y-72533499D01*
X119949394Y-72576907D01*
X119860304Y-72600163D01*
X119629968Y-72632515D01*
X119325141Y-72627626D01*
X119045375Y-72566428D01*
X118794772Y-72451566D01*
X118577436Y-72285685D01*
X118397470Y-72071428D01*
X118258978Y-71811441D01*
X118166064Y-71508367D01*
X118163160Y-71488494D01*
X118157149Y-71400368D01*
X118152317Y-71261030D01*
X118148812Y-71079466D01*
X118146776Y-70864664D01*
X118146357Y-70625610D01*
X118147699Y-70371292D01*
X118149559Y-70173877D01*
X118152631Y-69925023D01*
X118156495Y-69726165D01*
X118161672Y-69568858D01*
X118168685Y-69444657D01*
X118178053Y-69345116D01*
X118190297Y-69261790D01*
X118205939Y-69186233D01*
X118225499Y-69110000D01*
X118300596Y-68877358D01*
X118475735Y-68496902D01*
X118708546Y-68138215D01*
X118717590Y-68126195D01*
X118814111Y-67996252D01*
X118887725Y-67903473D01*
X118949715Y-67846975D01*
X119011365Y-67825872D01*
X119083957Y-67839281D01*
X119178774Y-67886317D01*
X119307100Y-67966096D01*
X119480217Y-68077733D01*
X119944534Y-68374281D01*
X119954291Y-68542189D01*
X119956918Y-68607459D01*
X119949000Y-68689486D01*
X119916110Y-68756806D01*
X119847629Y-68838958D01*
X119792954Y-68901427D01*
X119676171Y-69056166D01*
X119590225Y-69212833D01*
X119531629Y-69383571D01*
X119496896Y-69580521D01*
X119482541Y-69815828D01*
X119485076Y-70101635D01*
X119491435Y-70252876D01*
X119506735Y-70425689D01*
X119532787Y-70554852D01*
X119573535Y-70652356D01*
X119632923Y-70730192D01*
X119714894Y-70800353D01*
X119731169Y-70811876D01*
X119800023Y-70845683D01*
X119888773Y-70861409D01*
X120019182Y-70863577D01*
X120023897Y-70863475D01*
X120081052Y-70860253D01*
X120143445Y-70852019D01*
X120217160Y-70836839D01*
X120308285Y-70812779D01*
X120422905Y-70777908D01*
X120567107Y-70730291D01*
X120746977Y-70667995D01*
X120968601Y-70589088D01*
X121238065Y-70491636D01*
X121561455Y-70373706D01*
X121736510Y-70309352D01*
X122012440Y-70206424D01*
X122270378Y-70108427D01*
X122503272Y-70018140D01*
X122704069Y-69938342D01*
X122865716Y-69871813D01*
X122981162Y-69821332D01*
X123043354Y-69789679D01*
X123045452Y-69788328D01*
X123231009Y-69640148D01*
X123397297Y-69454376D01*
X123522418Y-69255433D01*
X123546512Y-69203356D01*
X123566103Y-69147556D01*
X123579724Y-69082261D01*
X123588448Y-68996558D01*
X123593351Y-68879535D01*
X123595505Y-68720279D01*
X123595984Y-68507878D01*
X123595248Y-68316409D01*
X123590608Y-68123738D01*
X123579057Y-67979539D01*
X123557622Y-67875102D01*
X123523328Y-67801715D01*
X123473199Y-67750668D01*
X123404263Y-67713250D01*
X123313544Y-67680750D01*
X123163912Y-67632705D01*
X123163743Y-67439909D01*
X123163575Y-67247112D01*
X123622364Y-66623137D01*
X123661666Y-66569648D01*
X123803566Y-66376980D01*
X123915101Y-66230053D01*
X124003022Y-66124610D01*
X124074080Y-66056392D01*
X124135029Y-66021141D01*
X124192619Y-66014599D01*
X124253602Y-66032507D01*
G37*
G36*
X124913562Y-55853865D02*
G01*
X124916777Y-55934315D01*
X124918887Y-56062838D01*
X124919810Y-56230976D01*
X124919466Y-56430267D01*
X124917773Y-56652252D01*
X124909225Y-57474953D01*
X123515908Y-57981513D01*
X123436964Y-58010187D01*
X123097132Y-58133103D01*
X122737900Y-58262298D01*
X122372524Y-58393049D01*
X122014263Y-58520631D01*
X121676372Y-58640322D01*
X121372108Y-58747396D01*
X121114729Y-58837131D01*
X120946393Y-58895805D01*
X120718594Y-58976477D01*
X120515762Y-59049794D01*
X120345032Y-59113099D01*
X120213540Y-59163734D01*
X120128420Y-59199040D01*
X120096808Y-59216360D01*
X120097254Y-59218272D01*
X120135794Y-59228927D01*
X120230466Y-59239676D01*
X120374581Y-59250021D01*
X120561445Y-59259465D01*
X120784369Y-59267509D01*
X120792449Y-59267753D01*
X121015433Y-59275359D01*
X121236787Y-59284815D01*
X121463773Y-59296657D01*
X121703650Y-59311420D01*
X121963678Y-59329639D01*
X122251117Y-59351849D01*
X122573229Y-59378585D01*
X122937272Y-59410383D01*
X123350508Y-59447778D01*
X123820196Y-59491305D01*
X124909225Y-59593108D01*
X124917638Y-60718592D01*
X124919135Y-60951639D01*
X124919915Y-61219977D01*
X124919084Y-61433343D01*
X124916495Y-61596989D01*
X124912000Y-61716165D01*
X124905452Y-61796122D01*
X124896704Y-61842110D01*
X124885608Y-61859380D01*
X124884546Y-61859776D01*
X124842774Y-61875044D01*
X124745180Y-61910607D01*
X124595688Y-61965038D01*
X124398220Y-62036908D01*
X124156699Y-62124792D01*
X123875047Y-62227261D01*
X123557187Y-62342890D01*
X123207042Y-62470250D01*
X122828534Y-62607916D01*
X122425586Y-62754459D01*
X122002121Y-62908453D01*
X121562062Y-63068471D01*
X121509643Y-63087531D01*
X121071326Y-63246916D01*
X120650062Y-63400109D01*
X120249774Y-63545682D01*
X119874385Y-63682210D01*
X119527817Y-63808265D01*
X119213994Y-63922421D01*
X118936839Y-64023249D01*
X118700274Y-64109323D01*
X118508222Y-64179215D01*
X118364606Y-64231500D01*
X118273349Y-64264750D01*
X118238374Y-64277537D01*
X118228230Y-64274117D01*
X118218052Y-64244353D01*
X118210802Y-64180528D01*
X118206242Y-64076648D01*
X118204136Y-63926717D01*
X118204249Y-63724739D01*
X118206344Y-63464721D01*
X118214899Y-62636625D01*
X119736337Y-62084172D01*
X119974534Y-61997892D01*
X120321207Y-61872975D01*
X120673610Y-61746680D01*
X121020762Y-61622908D01*
X121351684Y-61505561D01*
X121655395Y-61398540D01*
X121920914Y-61305747D01*
X122137260Y-61231083D01*
X122193072Y-61211940D01*
X122413697Y-61134968D01*
X122612049Y-61063737D01*
X122780432Y-61001154D01*
X122911145Y-60950128D01*
X122996491Y-60913565D01*
X123028769Y-60894375D01*
X123029060Y-60893265D01*
X123008672Y-60877381D01*
X122937505Y-60866521D01*
X122811172Y-60860293D01*
X122625283Y-60858304D01*
X122541256Y-60857765D01*
X122337289Y-60853771D01*
X122103553Y-60846520D01*
X121862774Y-60836772D01*
X121637683Y-60825287D01*
X121596679Y-60822890D01*
X121474746Y-60815365D01*
X121347016Y-60806797D01*
X121208218Y-60796734D01*
X121053081Y-60784724D01*
X120876333Y-60770317D01*
X120672705Y-60753060D01*
X120436924Y-60732503D01*
X120163721Y-60708194D01*
X119847823Y-60679682D01*
X119483960Y-60646516D01*
X119066861Y-60608243D01*
X118591255Y-60564414D01*
X118198884Y-60528199D01*
X118198884Y-59399453D01*
X118198922Y-59246797D01*
X118199356Y-58975855D01*
X118200520Y-58759626D01*
X118202724Y-58591812D01*
X118206273Y-58466113D01*
X118211474Y-58376232D01*
X118218634Y-58315870D01*
X118228060Y-58278728D01*
X118240059Y-58258508D01*
X118254937Y-58248911D01*
X118265573Y-58244858D01*
X118335043Y-58219065D01*
X118456803Y-58174307D01*
X118626166Y-58112290D01*
X118838446Y-58034715D01*
X119088954Y-57943288D01*
X119373006Y-57839712D01*
X119685914Y-57725691D01*
X120022991Y-57602929D01*
X120379552Y-57473129D01*
X120750908Y-57337995D01*
X121132374Y-57199232D01*
X121519262Y-57058542D01*
X121906887Y-56917631D01*
X122290561Y-56778201D01*
X122665598Y-56641956D01*
X123027311Y-56510601D01*
X123371013Y-56385839D01*
X123692017Y-56269374D01*
X123985638Y-56162909D01*
X124247188Y-56068149D01*
X124471981Y-55986798D01*
X124655329Y-55920559D01*
X124792547Y-55871135D01*
X124878947Y-55840232D01*
X124909843Y-55829552D01*
X124913562Y-55853865D01*
G37*
G36*
X123798474Y-78204166D02*
G01*
X123923891Y-78209592D01*
X124018662Y-78223208D01*
X124102041Y-78248138D01*
X124193283Y-78287507D01*
X124255914Y-78319177D01*
X124453591Y-78458003D01*
X124616093Y-78641887D01*
X124746934Y-78875521D01*
X124849631Y-79163600D01*
X124858941Y-79199932D01*
X124869825Y-79256405D01*
X124879059Y-79326855D01*
X124886841Y-79416846D01*
X124893368Y-79531943D01*
X124898841Y-79677712D01*
X124903457Y-79859717D01*
X124907415Y-80083522D01*
X124910914Y-80354694D01*
X124914151Y-80678796D01*
X124917326Y-81061393D01*
X124918482Y-81218591D01*
X124920407Y-81533512D01*
X124921671Y-81825509D01*
X124922282Y-82088704D01*
X124922245Y-82317223D01*
X124921564Y-82505188D01*
X124920247Y-82646724D01*
X124918297Y-82735955D01*
X124915721Y-82767005D01*
X124913560Y-82767620D01*
X124868390Y-82783363D01*
X124767795Y-82819325D01*
X124615619Y-82874112D01*
X124415710Y-82946328D01*
X124171913Y-83034580D01*
X123888074Y-83137471D01*
X123568039Y-83253608D01*
X123215655Y-83381595D01*
X122834766Y-83520039D01*
X122429220Y-83667543D01*
X122002861Y-83822713D01*
X121781724Y-83903243D01*
X121559537Y-83984155D01*
X121452268Y-84023228D01*
X121012767Y-84183276D01*
X120591222Y-84336722D01*
X120191473Y-84482171D01*
X119817360Y-84618229D01*
X119472720Y-84743501D01*
X119161393Y-84856594D01*
X118887219Y-84956113D01*
X118654035Y-85040664D01*
X118465682Y-85108853D01*
X118325999Y-85159286D01*
X118238823Y-85190568D01*
X118207996Y-85201305D01*
X118205780Y-85176641D01*
X118204117Y-85095840D01*
X118203325Y-84967002D01*
X118203422Y-84798577D01*
X118204425Y-84599015D01*
X118206351Y-84376769D01*
X118214899Y-83552233D01*
X119359708Y-83135596D01*
X120504516Y-82718959D01*
X120504790Y-82295169D01*
X120504805Y-82266609D01*
X120504765Y-82253805D01*
X121781724Y-82253805D01*
X122064264Y-82151029D01*
X122066171Y-82150336D01*
X122187683Y-82106107D01*
X122354016Y-82045525D01*
X122550116Y-81974075D01*
X122760926Y-81897244D01*
X122971394Y-81820515D01*
X123595984Y-81592776D01*
X123605645Y-80970748D01*
X123607183Y-80809065D01*
X123605992Y-80604838D01*
X123601210Y-80434296D01*
X123593158Y-80307546D01*
X123582161Y-80234696D01*
X123571733Y-80202380D01*
X123497670Y-80071565D01*
X123385688Y-79989900D01*
X123234660Y-79957097D01*
X123043457Y-79972866D01*
X122810952Y-80036918D01*
X122641609Y-80098895D01*
X122410515Y-80199355D01*
X122228528Y-80304459D01*
X122086547Y-80420873D01*
X121975472Y-80555264D01*
X121886202Y-80714298D01*
X121866997Y-80756138D01*
X121843679Y-80814208D01*
X121826439Y-80874733D01*
X121814151Y-80947979D01*
X121805689Y-81044214D01*
X121799928Y-81173704D01*
X121795743Y-81346717D01*
X121792007Y-81573520D01*
X121781724Y-82253805D01*
X120504765Y-82253805D01*
X120504301Y-82103328D01*
X120501510Y-81992037D01*
X120494707Y-81922190D01*
X120482169Y-81883244D01*
X120462173Y-81864654D01*
X120432995Y-81855876D01*
X120416295Y-81852951D01*
X120339185Y-81841529D01*
X120210918Y-81823655D01*
X120039780Y-81800448D01*
X119834054Y-81773026D01*
X119602024Y-81742506D01*
X119351974Y-81710006D01*
X119226360Y-81693727D01*
X118984202Y-81662069D01*
X118764168Y-81632944D01*
X118574542Y-81607470D01*
X118423608Y-81586766D01*
X118319651Y-81571948D01*
X118270952Y-81564136D01*
X118198884Y-81548634D01*
X118198884Y-79858272D01*
X118342252Y-79809422D01*
X118377877Y-79798005D01*
X118418070Y-79788824D01*
X118464822Y-79784508D01*
X118525175Y-79785959D01*
X118606174Y-79794078D01*
X118714864Y-79809768D01*
X118858288Y-79833930D01*
X119043491Y-79867467D01*
X119277517Y-79911279D01*
X119567409Y-79966270D01*
X119768394Y-80004325D01*
X120010909Y-80049792D01*
X120228691Y-80090120D01*
X120414104Y-80123919D01*
X120559513Y-80149802D01*
X120657283Y-80166379D01*
X120699777Y-80172260D01*
X120723708Y-80161895D01*
X120773769Y-80103588D01*
X120827898Y-80005279D01*
X120908408Y-79848762D01*
X121052062Y-79615976D01*
X121214344Y-79393644D01*
X121377557Y-79207453D01*
X121447149Y-79138938D01*
X121625547Y-78981474D01*
X121814945Y-78842781D01*
X122025782Y-78717007D01*
X122268498Y-78598298D01*
X122553530Y-78480800D01*
X122891318Y-78358661D01*
X122919569Y-78348958D01*
X123091893Y-78290976D01*
X123223205Y-78250945D01*
X123330391Y-78225527D01*
X123430337Y-78211385D01*
X123539931Y-78205183D01*
X123676060Y-78203583D01*
X123798474Y-78204166D01*
G37*
G36*
X117567724Y-40935499D02*
G01*
X117576503Y-40966912D01*
X117583683Y-41049692D01*
X117588530Y-41171461D01*
X117590309Y-41319842D01*
X117589350Y-41471613D01*
X117585296Y-41588072D01*
X117576914Y-41659124D01*
X117562978Y-41694568D01*
X117542264Y-41704205D01*
X117514246Y-41692315D01*
X117494218Y-41640145D01*
X117476322Y-41578862D01*
X117426914Y-41508779D01*
X117417954Y-41500085D01*
X117375895Y-41469677D01*
X117320738Y-41453651D01*
X117235579Y-41449097D01*
X117103512Y-41453105D01*
X117039536Y-41456278D01*
X116931325Y-41465442D01*
X116861696Y-41481749D01*
X116812927Y-41510721D01*
X116767294Y-41557881D01*
X116754003Y-41573664D01*
X116718416Y-41625768D01*
X116699883Y-41684111D01*
X116694490Y-41767894D01*
X116698325Y-41896316D01*
X116706383Y-42018842D01*
X116722612Y-42115303D01*
X116752438Y-42189356D01*
X116802093Y-42263029D01*
X116909861Y-42372376D01*
X117054945Y-42454400D01*
X117241333Y-42505833D01*
X117478203Y-42530303D01*
X117522331Y-42531947D01*
X117807318Y-42519854D01*
X118054926Y-42464722D01*
X118275892Y-42364317D01*
X118345737Y-42316504D01*
X118461015Y-42186205D01*
X118528947Y-42016191D01*
X118551217Y-41803032D01*
X118551077Y-41780141D01*
X118536159Y-41607721D01*
X118491950Y-41481816D01*
X118411757Y-41390107D01*
X118288885Y-41320276D01*
X118223358Y-41288475D01*
X118165972Y-41249773D01*
X118154990Y-41224083D01*
X118167163Y-41218293D01*
X118233287Y-41205437D01*
X118340010Y-41194231D01*
X118471141Y-41186595D01*
X118759414Y-41175706D01*
X118759414Y-41656160D01*
X118759315Y-41772145D01*
X118757888Y-41926253D01*
X118753225Y-42037064D01*
X118743416Y-42117657D01*
X118726548Y-42181110D01*
X118700709Y-42240502D01*
X118663987Y-42308913D01*
X118584594Y-42427592D01*
X118440276Y-42574844D01*
X118242353Y-42719283D01*
X118239787Y-42720989D01*
X118230168Y-42736042D01*
X118256619Y-42746664D01*
X118326134Y-42753594D01*
X118445705Y-42757567D01*
X118622326Y-42759320D01*
X119061784Y-42761204D01*
X119132827Y-42665113D01*
X119144143Y-42650247D01*
X119195950Y-42592438D01*
X119230893Y-42569022D01*
X119240575Y-42598048D01*
X119247289Y-42678775D01*
X119250260Y-42798717D01*
X119248892Y-42945378D01*
X119243145Y-43090025D01*
X119234008Y-43208848D01*
X119222779Y-43288080D01*
X119210720Y-43315488D01*
X119204578Y-43312258D01*
X119173820Y-43268341D01*
X119141048Y-43191364D01*
X119134760Y-43173805D01*
X119098134Y-43090145D01*
X119064562Y-43037458D01*
X119062764Y-43036025D01*
X119012872Y-43023410D01*
X118911160Y-43012514D01*
X118768678Y-43003484D01*
X118596476Y-42996470D01*
X118405603Y-42991619D01*
X118207109Y-42989081D01*
X118012043Y-42989003D01*
X117831455Y-42991534D01*
X117676394Y-42996822D01*
X117557910Y-43005016D01*
X117487053Y-43016265D01*
X117366900Y-43078165D01*
X117266348Y-43188375D01*
X117199083Y-43330599D01*
X117167561Y-43491666D01*
X117174233Y-43658402D01*
X117221554Y-43817638D01*
X117311977Y-43956200D01*
X117338940Y-43983448D01*
X117432928Y-44057089D01*
X117523021Y-44103437D01*
X117586135Y-44114498D01*
X117708460Y-44124467D01*
X117878991Y-44132028D01*
X118089506Y-44136827D01*
X118331785Y-44138505D01*
X118459894Y-44138507D01*
X118665981Y-44137808D01*
X118821341Y-44134630D01*
X118934790Y-44127114D01*
X119015144Y-44113406D01*
X119071220Y-44091649D01*
X119111832Y-44059988D01*
X119145797Y-44016567D01*
X119181931Y-43959528D01*
X119197304Y-43944992D01*
X119208648Y-43964475D01*
X119215987Y-44026461D01*
X119220152Y-44138131D01*
X119221969Y-44306664D01*
X119220987Y-44456202D01*
X119215435Y-44595707D01*
X119205555Y-44684139D01*
X119191822Y-44715050D01*
X119176643Y-44709100D01*
X119159792Y-44665549D01*
X119159595Y-44661841D01*
X119134815Y-44604464D01*
X119081172Y-44537428D01*
X119002553Y-44458808D01*
X118224363Y-44458105D01*
X118126105Y-44457960D01*
X117898452Y-44456852D01*
X117722848Y-44454248D01*
X117590506Y-44449569D01*
X117492642Y-44442239D01*
X117420469Y-44431680D01*
X117365201Y-44417315D01*
X117318052Y-44398568D01*
X117249380Y-44363772D01*
X117155363Y-44294559D01*
X117081565Y-44199532D01*
X117011272Y-44060256D01*
X116969778Y-43933637D01*
X116940773Y-43733966D01*
X116943104Y-43523711D01*
X116977979Y-43329419D01*
X116998445Y-43273547D01*
X117065117Y-43147717D01*
X117148835Y-43033169D01*
X117182589Y-42994498D01*
X117233748Y-42926845D01*
X117236202Y-42887525D01*
X117185070Y-42863913D01*
X117075473Y-42843385D01*
X116975124Y-42813815D01*
X116831206Y-42739963D01*
X116696108Y-42641133D01*
X116594858Y-42533463D01*
X116570275Y-42495360D01*
X116511610Y-42383448D01*
X116462889Y-42265405D01*
X116435735Y-42180269D01*
X116413983Y-42080716D01*
X116409265Y-41983453D01*
X116423941Y-41878773D01*
X116460369Y-41756967D01*
X116520908Y-41608329D01*
X116607916Y-41423149D01*
X116723752Y-41191721D01*
X116748059Y-41169932D01*
X116809299Y-41151515D01*
X116915539Y-41138002D01*
X117076302Y-41127660D01*
X117112663Y-41125859D01*
X117250249Y-41117552D01*
X117341019Y-41106883D01*
X117399186Y-41090138D01*
X117438959Y-41063603D01*
X117474550Y-41023562D01*
X117482572Y-41013666D01*
X117534216Y-40958135D01*
X117567490Y-40935479D01*
X117567724Y-40935499D01*
G37*
G36*
X124336062Y-49960095D02*
G01*
X124396301Y-49997569D01*
X124471092Y-50048103D01*
X124622347Y-50181297D01*
X124758127Y-50372742D01*
X124866787Y-50610514D01*
X124885878Y-50665120D01*
X124901958Y-50719139D01*
X124914581Y-50777626D01*
X124924165Y-50848032D01*
X124931128Y-50937803D01*
X124935888Y-51054391D01*
X124938863Y-51205242D01*
X124940471Y-51397808D01*
X124941129Y-51639536D01*
X124941255Y-51937875D01*
X124941145Y-52148586D01*
X124940029Y-52435464D01*
X124936786Y-52672199D01*
X124930305Y-52867323D01*
X124919478Y-53029368D01*
X124903195Y-53166867D01*
X124880348Y-53288351D01*
X124849825Y-53402353D01*
X124810519Y-53517405D01*
X124761320Y-53642039D01*
X124701118Y-53784787D01*
X124589393Y-54018754D01*
X124367668Y-54382457D01*
X124102201Y-54721431D01*
X123801903Y-55025971D01*
X123475686Y-55286373D01*
X123132463Y-55492932D01*
X123068049Y-55521772D01*
X122947585Y-55570771D01*
X122781962Y-55635448D01*
X122578688Y-55713068D01*
X122345268Y-55800896D01*
X122089210Y-55896195D01*
X121818020Y-55996230D01*
X121539205Y-56098265D01*
X121260270Y-56199565D01*
X120988724Y-56297393D01*
X120732071Y-56389014D01*
X120497819Y-56471692D01*
X120293474Y-56542691D01*
X120126544Y-56599276D01*
X120004533Y-56638711D01*
X119934950Y-56658260D01*
X119837945Y-56674890D01*
X119626478Y-56691389D01*
X119412533Y-56686598D01*
X119227525Y-56660421D01*
X119069184Y-56612962D01*
X118818792Y-56487551D01*
X118599547Y-56311634D01*
X118417081Y-56091254D01*
X118277022Y-55832454D01*
X118185002Y-55541280D01*
X118173936Y-55478854D01*
X118156342Y-55315802D01*
X118143893Y-55108870D01*
X118136524Y-54871243D01*
X118134166Y-54616109D01*
X118136752Y-54356656D01*
X118144216Y-54106070D01*
X118156490Y-53877539D01*
X118173507Y-53684249D01*
X118195200Y-53539388D01*
X118243369Y-53345996D01*
X118338308Y-53059248D01*
X118455800Y-52776604D01*
X118584313Y-52528042D01*
X118625659Y-52459529D01*
X118848695Y-52138438D01*
X119104444Y-51838119D01*
X119382163Y-51569188D01*
X119671112Y-51342260D01*
X119960549Y-51167950D01*
X119968593Y-51164028D01*
X120042858Y-51131848D01*
X120162769Y-51083467D01*
X120319539Y-51022153D01*
X120504382Y-50951173D01*
X120708512Y-50873793D01*
X120923144Y-50793282D01*
X121139491Y-50712905D01*
X121348766Y-50635931D01*
X121542185Y-50565625D01*
X121710960Y-50505256D01*
X121846306Y-50458090D01*
X121939437Y-50427395D01*
X121981566Y-50416437D01*
X121983356Y-50418608D01*
X121989835Y-50465551D01*
X121995640Y-50569603D01*
X122000651Y-50725257D01*
X122004751Y-50927002D01*
X122007819Y-51169330D01*
X122009738Y-51446733D01*
X122010388Y-51753701D01*
X122010290Y-53090964D01*
X121495016Y-53277589D01*
X121358322Y-53326312D01*
X121204957Y-53378874D01*
X121081298Y-53418842D01*
X120997460Y-53442974D01*
X120963554Y-53448026D01*
X120960397Y-53434610D01*
X120955828Y-53367152D01*
X120952707Y-53253447D01*
X120951292Y-53104827D01*
X120951840Y-52932628D01*
X120952014Y-52912266D01*
X120952320Y-52718668D01*
X120949227Y-52580350D01*
X120942142Y-52489308D01*
X120930470Y-52437537D01*
X120913620Y-52417035D01*
X120901416Y-52416317D01*
X120836154Y-52429591D01*
X120731245Y-52460107D01*
X120600587Y-52503016D01*
X120458076Y-52553468D01*
X120317610Y-52606611D01*
X120193085Y-52657595D01*
X120098399Y-52701570D01*
X120084410Y-52709031D01*
X119931507Y-52815321D01*
X119777126Y-52960890D01*
X119639516Y-53126519D01*
X119536920Y-53292988D01*
X119432049Y-53506011D01*
X119432049Y-54067214D01*
X119432294Y-54226055D01*
X119433969Y-54389174D01*
X119438251Y-54507209D01*
X119446297Y-54590989D01*
X119459268Y-54651348D01*
X119478323Y-54699114D01*
X119504622Y-54745121D01*
X119542370Y-54798465D01*
X119660384Y-54899779D01*
X119813032Y-54951471D01*
X120005782Y-54955843D01*
X120027476Y-54952873D01*
X120127085Y-54929508D01*
X120275751Y-54886377D01*
X120465683Y-54826319D01*
X120689086Y-54752172D01*
X120938168Y-54666775D01*
X121205136Y-54572970D01*
X121482196Y-54473593D01*
X121761556Y-54371485D01*
X122035422Y-54269485D01*
X122296002Y-54170432D01*
X122535502Y-54077165D01*
X122746130Y-53992524D01*
X122920092Y-53919348D01*
X123049595Y-53860476D01*
X123126846Y-53818747D01*
X123326552Y-53652714D01*
X123492934Y-53446069D01*
X123609673Y-53217951D01*
X123630817Y-53156450D01*
X123650308Y-53079046D01*
X123663376Y-52988689D01*
X123671223Y-52872609D01*
X123675051Y-52718033D01*
X123676060Y-52512189D01*
X123675542Y-52380319D01*
X123671064Y-52181743D01*
X123660251Y-52031408D01*
X123641023Y-51919116D01*
X123611297Y-51834669D01*
X123568993Y-51767869D01*
X123512029Y-51708519D01*
X123495662Y-51695153D01*
X123404880Y-51642579D01*
X123299704Y-51603187D01*
X123250599Y-51589556D01*
X123190776Y-51562755D01*
X123167507Y-51519015D01*
X123163575Y-51437370D01*
X123163579Y-51435667D01*
X123166865Y-51392526D01*
X123179160Y-51345711D01*
X123204673Y-51288430D01*
X123247611Y-51213890D01*
X123312182Y-51115296D01*
X123402594Y-50985856D01*
X123523057Y-50818776D01*
X123677776Y-50607263D01*
X123813807Y-50421533D01*
X123941526Y-50248228D01*
X124041461Y-50117823D01*
X124119661Y-50026055D01*
X124182173Y-49968661D01*
X124235046Y-49941378D01*
X124284326Y-49939944D01*
X124336062Y-49960095D01*
G37*
G36*
X126579949Y-36579430D02*
G01*
X126717189Y-36580505D01*
X126804220Y-36585464D01*
X126853655Y-36597086D01*
X126878105Y-36618149D01*
X126890180Y-36651431D01*
X126892446Y-36661511D01*
X126906536Y-36727977D01*
X126932192Y-36850930D01*
X126968509Y-37025975D01*
X127014580Y-37248715D01*
X127069499Y-37514754D01*
X127132359Y-37819698D01*
X127202255Y-38159149D01*
X127278279Y-38528713D01*
X127359525Y-38923993D01*
X127445087Y-39340594D01*
X127534058Y-39774120D01*
X128159899Y-42824740D01*
X127519492Y-45943607D01*
X127467507Y-46196862D01*
X127379837Y-46624313D01*
X127296402Y-47031569D01*
X127218067Y-47414376D01*
X127145700Y-47768477D01*
X127080169Y-48089617D01*
X127022340Y-48373541D01*
X126973081Y-48615995D01*
X126933259Y-48812722D01*
X126903741Y-48959468D01*
X126885394Y-49051977D01*
X126879086Y-49085994D01*
X126854660Y-49093158D01*
X126778124Y-49096797D01*
X126661906Y-49095771D01*
X126548505Y-49091153D01*
X126518746Y-49089941D01*
X126391269Y-49083104D01*
X126199526Y-49072986D01*
X125977854Y-49061416D01*
X125744521Y-49049346D01*
X125517800Y-49037729D01*
X125466744Y-49035111D01*
X124655369Y-48988808D01*
X123874174Y-48935376D01*
X123126540Y-48875234D01*
X122415848Y-48808799D01*
X121745480Y-48736490D01*
X121118816Y-48658723D01*
X120539238Y-48575916D01*
X120010128Y-48488489D01*
X119534866Y-48396857D01*
X119116834Y-48301440D01*
X118759414Y-48202654D01*
X118707738Y-48186511D01*
X118414867Y-48083143D01*
X118166026Y-47970629D01*
X117943937Y-47840237D01*
X117731320Y-47683239D01*
X117548202Y-47523012D01*
X117286934Y-47259829D01*
X117008242Y-46943236D01*
X116714841Y-46577054D01*
X116409444Y-46165103D01*
X116094765Y-45711205D01*
X115773518Y-45219180D01*
X115448415Y-44692849D01*
X115122172Y-44136033D01*
X114797501Y-43552552D01*
X114767145Y-43496651D01*
X114680378Y-43337601D01*
X114600759Y-43192654D01*
X114536049Y-43075901D01*
X114494007Y-43001431D01*
X114473003Y-42963566D01*
X114434868Y-42884252D01*
X114420144Y-42836951D01*
X114868696Y-42836951D01*
X114869722Y-42841453D01*
X114892090Y-42891675D01*
X114940158Y-42986536D01*
X115009233Y-43117127D01*
X115094619Y-43274536D01*
X115191623Y-43449855D01*
X115415110Y-43844552D01*
X115763901Y-44438037D01*
X116103551Y-44988291D01*
X116432642Y-45493427D01*
X116749755Y-45951562D01*
X117053471Y-46360810D01*
X117342370Y-46719287D01*
X117615034Y-47025107D01*
X117870045Y-47276385D01*
X118105982Y-47471236D01*
X118321428Y-47607775D01*
X118365094Y-47629806D01*
X118621271Y-47737680D01*
X118939601Y-47841702D01*
X119318581Y-47941665D01*
X119756706Y-48037364D01*
X120252474Y-48128592D01*
X120804379Y-48215145D01*
X121410918Y-48296817D01*
X122070586Y-48373402D01*
X122781880Y-48444695D01*
X123543295Y-48510490D01*
X124353327Y-48570582D01*
X125210473Y-48624764D01*
X126113228Y-48672832D01*
X126548505Y-48693979D01*
X126596395Y-48458171D01*
X126604233Y-48419744D01*
X126625998Y-48313428D01*
X126658921Y-48152842D01*
X126701960Y-47943059D01*
X126754074Y-47689149D01*
X126814223Y-47396183D01*
X126881364Y-47069232D01*
X126954457Y-46713367D01*
X127032460Y-46333659D01*
X127114333Y-45935178D01*
X127199034Y-45522997D01*
X127753783Y-42823630D01*
X127216989Y-40205973D01*
X127177366Y-40012783D01*
X127094603Y-39609441D01*
X127014765Y-39220602D01*
X126938957Y-38851628D01*
X126868281Y-38507879D01*
X126803840Y-38194717D01*
X126746740Y-37917505D01*
X126698082Y-37681603D01*
X126658971Y-37492374D01*
X126630510Y-37355178D01*
X126613803Y-37275378D01*
X126547411Y-36962440D01*
X126224787Y-36979718D01*
X125417329Y-37025202D01*
X124555790Y-37079428D01*
X123754699Y-37136439D01*
X123012152Y-37196468D01*
X122326247Y-37259749D01*
X121695084Y-37326516D01*
X121116759Y-37397002D01*
X120589372Y-37471443D01*
X120111020Y-37550070D01*
X119679801Y-37633119D01*
X119293813Y-37720824D01*
X118951155Y-37813417D01*
X118649925Y-37911133D01*
X118591583Y-37932473D01*
X118395779Y-38014593D01*
X118222230Y-38108618D01*
X118056065Y-38224605D01*
X117882412Y-38372609D01*
X117686400Y-38562687D01*
X117572702Y-38681373D01*
X117305885Y-38985554D01*
X117021560Y-39342150D01*
X116723255Y-39745983D01*
X116414497Y-40191874D01*
X116098816Y-40674643D01*
X115779739Y-41189113D01*
X115460794Y-41730104D01*
X115145510Y-42292436D01*
X115064043Y-42443155D01*
X114985701Y-42591794D01*
X114923756Y-42713410D01*
X114883118Y-42798348D01*
X114868696Y-42836951D01*
X114420144Y-42836951D01*
X114419616Y-42835256D01*
X114429898Y-42801201D01*
X114469129Y-42714729D01*
X114534135Y-42585526D01*
X114621129Y-42420430D01*
X114726324Y-42226283D01*
X114845931Y-42009923D01*
X114976164Y-41778191D01*
X115113235Y-41537926D01*
X115253356Y-41295969D01*
X115392741Y-41059158D01*
X115527600Y-40834335D01*
X115609922Y-40699618D01*
X115927005Y-40199542D01*
X116240620Y-39734219D01*
X116548204Y-39306731D01*
X116847198Y-38920162D01*
X117135041Y-38577594D01*
X117409172Y-38282109D01*
X117667031Y-38036789D01*
X117906057Y-37844718D01*
X118123691Y-37708978D01*
X118350446Y-37604708D01*
X118668123Y-37488645D01*
X119043406Y-37378669D01*
X119477192Y-37274603D01*
X119970375Y-37176271D01*
X120523851Y-37083496D01*
X121138517Y-36996102D01*
X121815268Y-36913914D01*
X122555000Y-36836754D01*
X122765418Y-36816950D01*
X123128899Y-36784953D01*
X123514512Y-36753382D01*
X123913664Y-36722789D01*
X124317764Y-36693725D01*
X124718221Y-36666742D01*
X125106442Y-36642392D01*
X125473837Y-36621225D01*
X125811813Y-36603794D01*
X126111780Y-36590650D01*
X126365146Y-36582345D01*
X126563319Y-36579429D01*
X126579949Y-36579430D01*
G37*
G36*
X125460116Y-37386754D02*
G01*
X125475743Y-37438244D01*
X125489851Y-37532277D01*
X125503824Y-37676007D01*
X125519047Y-37876589D01*
X125544409Y-38169873D01*
X125584804Y-38530978D01*
X125635472Y-38913496D01*
X125693386Y-39296211D01*
X125755519Y-39657912D01*
X125818843Y-39977384D01*
X125850601Y-40125483D01*
X125912265Y-40422270D01*
X125961573Y-40676667D01*
X126000813Y-40902359D01*
X126032277Y-41113031D01*
X126058255Y-41322368D01*
X126081036Y-41544054D01*
X126088534Y-41631274D01*
X126104262Y-41981937D01*
X126097827Y-42325069D01*
X126070668Y-42652759D01*
X126024220Y-42957096D01*
X125959922Y-43230170D01*
X125879210Y-43464068D01*
X125783522Y-43650882D01*
X125674295Y-43782699D01*
X125673408Y-43783478D01*
X125525129Y-43891251D01*
X125320749Y-44005380D01*
X125067394Y-44122268D01*
X124772188Y-44238316D01*
X124475000Y-44346702D01*
X123827295Y-44943122D01*
X123814583Y-44954827D01*
X123625739Y-45128981D01*
X123477650Y-45266969D01*
X123364293Y-45375594D01*
X123279646Y-45461666D01*
X123217687Y-45531989D01*
X123172394Y-45593369D01*
X123137744Y-45652615D01*
X123107715Y-45716531D01*
X123076285Y-45791924D01*
X123054992Y-45846075D01*
X123010041Y-45972315D01*
X122967187Y-46106100D01*
X122930245Y-46233830D01*
X122903034Y-46341904D01*
X122889370Y-46416723D01*
X122893072Y-46444684D01*
X122897528Y-46443672D01*
X122943176Y-46425221D01*
X123017950Y-46390898D01*
X123040598Y-46380539D01*
X123110268Y-46354943D01*
X123145756Y-46352128D01*
X123145966Y-46352364D01*
X123147060Y-46390273D01*
X123136231Y-46472737D01*
X123115752Y-46582313D01*
X123096396Y-46661916D01*
X122998592Y-46923930D01*
X122852586Y-47186165D01*
X122667332Y-47431657D01*
X122638934Y-47464605D01*
X122563392Y-47556603D01*
X122510722Y-47627390D01*
X122490940Y-47663784D01*
X122490506Y-47669313D01*
X122474148Y-47701031D01*
X122460089Y-47728292D01*
X122393192Y-47804195D01*
X122305941Y-47882380D01*
X122214463Y-47948208D01*
X122134883Y-47987037D01*
X122106737Y-47994941D01*
X122031774Y-48010061D01*
X121993844Y-48008202D01*
X121991735Y-48003690D01*
X121998013Y-47956244D01*
X122024264Y-47880325D01*
X122062611Y-47777094D01*
X122094416Y-47631257D01*
X122093882Y-47483004D01*
X122060308Y-47315136D01*
X122032147Y-47229501D01*
X122397923Y-47229501D01*
X122437614Y-47323712D01*
X122446220Y-47335183D01*
X122474148Y-47358789D01*
X122502669Y-47340667D01*
X122547223Y-47273781D01*
X122583982Y-47209682D01*
X122630203Y-47101957D01*
X122640891Y-47027852D01*
X122618030Y-46993417D01*
X122563605Y-47004699D01*
X122479602Y-47067745D01*
X122420874Y-47137639D01*
X122397923Y-47229501D01*
X122032147Y-47229501D01*
X121992996Y-47110450D01*
X121963609Y-47028216D01*
X121904826Y-46854451D01*
X121838485Y-46649658D01*
X121770717Y-46432893D01*
X121707650Y-46223214D01*
X121543836Y-45665425D01*
X121181585Y-45510540D01*
X121175305Y-45507857D01*
X121034280Y-45448654D01*
X120914519Y-45400270D01*
X120828510Y-45367630D01*
X120788741Y-45355655D01*
X120783638Y-45357760D01*
X120751103Y-45398217D01*
X120703366Y-45479567D01*
X120648822Y-45587875D01*
X120645296Y-45595394D01*
X120607423Y-45682344D01*
X120578252Y-45767366D01*
X120556872Y-45859880D01*
X120542370Y-45969307D01*
X120533835Y-46105069D01*
X120530353Y-46276586D01*
X120531014Y-46493280D01*
X120534905Y-46764571D01*
X120535218Y-46788200D01*
X120532572Y-46921049D01*
X120522585Y-47010970D01*
X120506312Y-47047505D01*
X120483632Y-47079109D01*
X120473033Y-47147700D01*
X120465416Y-47205262D01*
X120418768Y-47303618D01*
X120343658Y-47376864D01*
X120256390Y-47405592D01*
X120217527Y-47404619D01*
X120194988Y-47394410D01*
X120225242Y-47365555D01*
X120227316Y-47363953D01*
X120291042Y-47281901D01*
X120323778Y-47175955D01*
X120315638Y-47077601D01*
X120288193Y-47005214D01*
X120248960Y-47089765D01*
X120244646Y-47098520D01*
X120174932Y-47180107D01*
X120080588Y-47227196D01*
X119985663Y-47227231D01*
X119983501Y-47226540D01*
X119948706Y-47209973D01*
X119959229Y-47187681D01*
X120020514Y-47147158D01*
X120110127Y-47061590D01*
X120146442Y-46946738D01*
X120124402Y-46811210D01*
X120112752Y-46771488D01*
X120103125Y-46688725D01*
X120107339Y-46575607D01*
X120125434Y-46416046D01*
X120133904Y-46349123D01*
X120146406Y-46231138D01*
X120152023Y-46146627D01*
X120149572Y-46110546D01*
X120139423Y-46107689D01*
X120081858Y-46111501D01*
X119994434Y-46127531D01*
X119940612Y-46138263D01*
X119866063Y-46142156D01*
X119830194Y-46120767D01*
X119818470Y-46108901D01*
X119773071Y-46109788D01*
X119691341Y-46150369D01*
X119620169Y-46188731D01*
X119583613Y-46194295D01*
X119590543Y-46156319D01*
X119638343Y-46070882D01*
X119703054Y-45998213D01*
X119817448Y-45916185D01*
X119987271Y-45821101D01*
X120031011Y-45798165D01*
X120182233Y-45710324D01*
X120286188Y-45631746D01*
X120354057Y-45554298D01*
X120386044Y-45498738D01*
X120447189Y-45339853D01*
X120494941Y-45140437D01*
X120526007Y-44916168D01*
X120537094Y-44682728D01*
X120537094Y-44402021D01*
X120681107Y-44380425D01*
X120685516Y-44379758D01*
X120775881Y-44360050D01*
X120822277Y-44328626D01*
X120844061Y-44272690D01*
X120858108Y-44209937D01*
X120868205Y-44167259D01*
X120873958Y-44165899D01*
X120926370Y-44175040D01*
X121024437Y-44199611D01*
X121157231Y-44236757D01*
X121313827Y-44283626D01*
X121380108Y-44303944D01*
X121527616Y-44348381D01*
X121646330Y-44383045D01*
X121725468Y-44404825D01*
X121754244Y-44410613D01*
X121753772Y-44408776D01*
X121736817Y-44368611D01*
X121700415Y-44288125D01*
X121651247Y-44182139D01*
X121631480Y-44138907D01*
X121577802Y-43999725D01*
X121549807Y-43871155D01*
X121548306Y-43739729D01*
X121574113Y-43591977D01*
X121628039Y-43414428D01*
X121710899Y-43193613D01*
X121725569Y-43156440D01*
X121811755Y-42933792D01*
X121876836Y-42753262D01*
X121924406Y-42600232D01*
X121958055Y-42460085D01*
X121981377Y-42318203D01*
X121997964Y-42159967D01*
X122011408Y-41970762D01*
X122023803Y-41805656D01*
X122043274Y-41624784D01*
X122065578Y-41485209D01*
X122089168Y-41398313D01*
X122099825Y-41372628D01*
X122127509Y-41303726D01*
X122138607Y-41272366D01*
X122123535Y-41267714D01*
X122060423Y-41257940D01*
X121964845Y-41246810D01*
X121946760Y-41244770D01*
X121788517Y-41213033D01*
X121644331Y-41161712D01*
X121530858Y-41098051D01*
X121464755Y-41029296D01*
X121445577Y-40982310D01*
X121430518Y-40839193D01*
X121458455Y-40657284D01*
X121528783Y-40442154D01*
X121561447Y-40357813D01*
X121606005Y-40222915D01*
X121625137Y-40111541D01*
X121614196Y-40016427D01*
X121568538Y-39930308D01*
X121483518Y-39845921D01*
X121354492Y-39756003D01*
X121176814Y-39653288D01*
X120945841Y-39530514D01*
X120932940Y-39523773D01*
X120757526Y-39430288D01*
X120599520Y-39342849D01*
X120468851Y-39267195D01*
X120375448Y-39209064D01*
X120329238Y-39174191D01*
X120314837Y-39155892D01*
X120279822Y-39067342D01*
X120267373Y-38931538D01*
X120267400Y-38869185D01*
X120277075Y-38783138D01*
X120307655Y-38720199D01*
X120368935Y-38653558D01*
X120405478Y-38618565D01*
X120451000Y-38580868D01*
X120469523Y-38583525D01*
X120473033Y-38623017D01*
X120472816Y-38661333D01*
X120480185Y-38683656D01*
X120508497Y-38685479D01*
X120571133Y-38667200D01*
X120681471Y-38629217D01*
X120769257Y-38601064D01*
X120846461Y-38581000D01*
X120881262Y-38578428D01*
X120881996Y-38600909D01*
X120859991Y-38656481D01*
X120839807Y-38702679D01*
X120825366Y-38766117D01*
X120829489Y-38773478D01*
X120876421Y-38808011D01*
X120966633Y-38860122D01*
X121088761Y-38924366D01*
X121231441Y-38995299D01*
X121383312Y-39067476D01*
X121533010Y-39135450D01*
X121669172Y-39193779D01*
X121780435Y-39237015D01*
X121855437Y-39259715D01*
X121878985Y-39264596D01*
X121913346Y-39276423D01*
X121938853Y-39300492D01*
X121959317Y-39347003D01*
X121978546Y-39426157D01*
X122000351Y-39548154D01*
X122028542Y-39723195D01*
X122047177Y-39835081D01*
X122070334Y-39960813D01*
X122089822Y-40052187D01*
X122102745Y-40094701D01*
X122130037Y-40109993D01*
X122206346Y-40130218D01*
X122310467Y-40146603D01*
X122338867Y-40149741D01*
X122432953Y-40156281D01*
X122476600Y-40149228D01*
X122480020Y-40127429D01*
X122389999Y-39912606D01*
X122244176Y-39489938D01*
X122129913Y-39053666D01*
X122055230Y-38632028D01*
X122048406Y-38575376D01*
X122044423Y-38503194D01*
X122055209Y-38474936D01*
X122083066Y-38477855D01*
X122100921Y-38479016D01*
X122124673Y-38456239D01*
X122150354Y-38397085D01*
X122181521Y-38292744D01*
X122221733Y-38134405D01*
X122310198Y-37771690D01*
X122449471Y-37704026D01*
X122496271Y-37681644D01*
X122567833Y-37649139D01*
X122601667Y-37636362D01*
X122602957Y-37637088D01*
X122600022Y-37671159D01*
X122580883Y-37740460D01*
X122579771Y-37744212D01*
X122568548Y-37813798D01*
X122557361Y-37934464D01*
X122546985Y-38094432D01*
X122538197Y-38281925D01*
X122531775Y-38485164D01*
X122528669Y-38621043D01*
X122526148Y-38831441D01*
X122530443Y-39002739D01*
X122544736Y-39148676D01*
X122572206Y-39282993D01*
X122616033Y-39419430D01*
X122679397Y-39571728D01*
X122765478Y-39753627D01*
X122877455Y-39978867D01*
X122907795Y-40040402D01*
X122989959Y-40216510D01*
X123063139Y-40386342D01*
X123120311Y-40533133D01*
X123154453Y-40640117D01*
X123176668Y-40759952D01*
X123196214Y-40954736D01*
X123206482Y-41183865D01*
X123207468Y-41431178D01*
X123199169Y-41680512D01*
X123181583Y-41915706D01*
X123154707Y-42120599D01*
X123144431Y-42181579D01*
X123112344Y-42384317D01*
X123085150Y-42574737D01*
X123064052Y-42742677D01*
X123050254Y-42877976D01*
X123044958Y-42970474D01*
X123049369Y-43010007D01*
X123064523Y-43012514D01*
X123092744Y-42970234D01*
X123123396Y-42877770D01*
X123154334Y-42743559D01*
X123183415Y-42576041D01*
X123208495Y-42383655D01*
X123211359Y-42358467D01*
X123287026Y-41920689D01*
X123406775Y-41518704D01*
X123568495Y-41159691D01*
X123570759Y-41155522D01*
X123640295Y-41029531D01*
X123690138Y-40949447D01*
X123723213Y-40918290D01*
X123742444Y-40939078D01*
X123750755Y-41014832D01*
X123751069Y-41148571D01*
X123746312Y-41343316D01*
X123744587Y-41410893D01*
X123741700Y-41579969D01*
X123741165Y-41726448D01*
X123742962Y-41836524D01*
X123747072Y-41896387D01*
X123753172Y-41925911D01*
X123765890Y-41943218D01*
X123788380Y-41914080D01*
X123828484Y-41832326D01*
X123836378Y-41815066D01*
X123856836Y-41762911D01*
X123872118Y-41704742D01*
X123883030Y-41630887D01*
X123890378Y-41531670D01*
X123894968Y-41397417D01*
X123897608Y-41218452D01*
X123899103Y-40985103D01*
X123899202Y-40963307D01*
X123900592Y-40727464D01*
X123902931Y-40544255D01*
X123907134Y-40403113D01*
X123914121Y-40293471D01*
X123924809Y-40204762D01*
X123940115Y-40126418D01*
X123960957Y-40047872D01*
X123988254Y-39958556D01*
X124021767Y-39868247D01*
X124074812Y-39756168D01*
X124132529Y-39656652D01*
X124185631Y-39585416D01*
X124224830Y-39558177D01*
X124231958Y-39586059D01*
X124238803Y-39669953D01*
X124244715Y-39801561D01*
X124249402Y-39972513D01*
X124252576Y-40174440D01*
X124253947Y-40398972D01*
X124255289Y-41239766D01*
X124316665Y-41127660D01*
X124330026Y-41101241D01*
X124346322Y-41057376D01*
X124358543Y-41001003D01*
X124367291Y-40923531D01*
X124373170Y-40816368D01*
X124376783Y-40670922D01*
X124378734Y-40478601D01*
X124379625Y-40230813D01*
X124379947Y-40132158D01*
X124382960Y-39842097D01*
X124389665Y-39603349D01*
X124400980Y-39406146D01*
X124417824Y-39240726D01*
X124441116Y-39097320D01*
X124471775Y-38966166D01*
X124510720Y-38837497D01*
X124534765Y-38773950D01*
X124590695Y-38656298D01*
X124657327Y-38539854D01*
X124725462Y-38438945D01*
X124785906Y-38367894D01*
X124829460Y-38341027D01*
X124838576Y-38370016D01*
X124846649Y-38460613D01*
X124853166Y-38610396D01*
X124858048Y-38816880D01*
X124861218Y-39077582D01*
X124862595Y-39390019D01*
X124864011Y-40439010D01*
X124932981Y-40310889D01*
X124946298Y-40285010D01*
X124967929Y-40232360D01*
X124983588Y-40170014D01*
X124994467Y-40087101D01*
X125001761Y-39972747D01*
X125006664Y-39816079D01*
X125010370Y-39606223D01*
X125012801Y-39474020D01*
X125028376Y-39058776D01*
X125055868Y-38693842D01*
X125096185Y-38369279D01*
X125150236Y-38075148D01*
X125159210Y-38035509D01*
X125204979Y-37866140D01*
X125259911Y-37701307D01*
X125318320Y-37555527D01*
X125374519Y-37443317D01*
X125422824Y-37379194D01*
X125441587Y-37370653D01*
X125460116Y-37386754D01*
G37*
%LPC*%
D10*
X150780000Y-88320000D03*
X138780000Y-88320000D03*
D11*
X147780000Y-86360000D03*
D12*
X144780000Y-86360000D03*
X141780000Y-86360000D03*
D13*
X157480000Y-74925000D03*
D14*
X157480000Y-77465000D03*
D15*
X77415000Y-49680000D03*
X77415000Y-43180000D03*
X81915000Y-49680000D03*
X81915000Y-43180000D03*
D16*
X135255000Y-77466000D03*
X135255000Y-74926000D03*
X135255000Y-72386000D03*
X135255000Y-69846000D03*
X135255000Y-67306000D03*
X135255000Y-64766000D03*
X135255000Y-62226000D03*
X135255000Y-59686000D03*
X135255000Y-57146000D03*
X135255000Y-54606000D03*
X135255000Y-52066000D03*
X135255000Y-49526000D03*
X135255000Y-46986000D03*
X135255000Y-44446000D03*
X135255000Y-41906000D03*
X109855000Y-41906000D03*
X109855000Y-44446000D03*
X109855000Y-46986000D03*
X109855000Y-49526000D03*
X109855000Y-52066000D03*
X109855000Y-54606000D03*
X109855000Y-57146000D03*
X109855000Y-59686000D03*
X109855000Y-62226000D03*
X109855000Y-64766000D03*
X109855000Y-67306000D03*
X109855000Y-69846000D03*
X109855000Y-72386000D03*
X109855000Y-74926000D03*
X109855000Y-77466000D03*
D10*
X76200000Y-67310000D03*
X76200000Y-55310000D03*
D17*
X78160000Y-64310000D03*
D18*
X78160000Y-61310000D03*
X78160000Y-58310000D03*
D19*
X78740000Y-85725000D03*
D13*
X157480000Y-67305000D03*
D14*
X157480000Y-69845000D03*
D20*
X89535000Y-71596000D03*
D16*
X92075000Y-71596000D03*
X94615000Y-71596000D03*
X97155000Y-71596000D03*
X99695000Y-71596000D03*
X102235000Y-71596000D03*
D20*
X102997000Y-75822000D03*
D16*
X100457000Y-75822000D03*
X97917000Y-75822000D03*
X95377000Y-75822000D03*
X92837000Y-75822000D03*
X90297000Y-75822000D03*
X87757000Y-75822000D03*
X85217000Y-75822000D03*
D13*
X106299000Y-80772000D03*
D14*
X106299000Y-83312000D03*
X106299000Y-85852000D03*
X106299000Y-88392000D03*
D20*
X141097000Y-71862000D03*
D16*
X141097000Y-69322000D03*
X143637000Y-71862000D03*
X143637000Y-69322000D03*
X146177000Y-71862000D03*
X146177000Y-69322000D03*
X148717000Y-71862000D03*
X148717000Y-69322000D03*
D15*
X77470000Y-79375000D03*
X77470000Y-72875000D03*
X81970000Y-79375000D03*
X81970000Y-72875000D03*
D19*
X157480000Y-85725000D03*
X157480000Y-36830000D03*
X78740000Y-36830000D03*
%LPD*%
M02*
