G04 #@! TF.GenerationSoftware,KiCad,Pcbnew,7.0.9*
G04 #@! TF.CreationDate,2023-11-18T03:00:04-05:00*
G04 #@! TF.ProjectId,RLM,524c4d2e-6b69-4636-9164-5f7063625858,rev?*
G04 #@! TF.SameCoordinates,Original*
G04 #@! TF.FileFunction,Soldermask,Bot*
G04 #@! TF.FilePolarity,Negative*
%FSLAX46Y46*%
G04 Gerber Fmt 4.6, Leading zero omitted, Abs format (unit mm)*
G04 Created by KiCad (PCBNEW 7.0.9) date 2023-11-18 03:00:04*
%MOMM*%
%LPD*%
G01*
G04 APERTURE LIST*
G04 Aperture macros list*
%AMRoundRect*
0 Rectangle with rounded corners*
0 $1 Rounding radius*
0 $2 $3 $4 $5 $6 $7 $8 $9 X,Y pos of 4 corners*
0 Add a 4 corners polygon primitive as box body*
4,1,4,$2,$3,$4,$5,$6,$7,$8,$9,$2,$3,0*
0 Add four circle primitives for the rounded corners*
1,1,$1+$1,$2,$3*
1,1,$1+$1,$4,$5*
1,1,$1+$1,$6,$7*
1,1,$1+$1,$8,$9*
0 Add four rect primitives between the rounded corners*
20,1,$1+$1,$2,$3,$4,$5,0*
20,1,$1+$1,$4,$5,$6,$7,0*
20,1,$1+$1,$6,$7,$8,$9,0*
20,1,$1+$1,$8,$9,$2,$3,0*%
G04 Aperture macros list end*
%ADD10C,1.270000*%
%ADD11RoundRect,0.250001X0.499999X0.759999X-0.499999X0.759999X-0.499999X-0.759999X0.499999X-0.759999X0*%
%ADD12O,1.500000X2.020000*%
%ADD13R,1.700000X1.700000*%
%ADD14O,1.700000X1.700000*%
%ADD15C,2.000000*%
%ADD16C,1.524000*%
%ADD17RoundRect,0.250001X0.759999X-0.499999X0.759999X0.499999X-0.759999X0.499999X-0.759999X-0.499999X0*%
%ADD18O,2.020000X1.500000*%
%ADD19C,7.000000*%
%ADD20R,1.524000X1.524000*%
G04 APERTURE END LIST*
D10*
X150780000Y-88320000D03*
X138780000Y-88320000D03*
D11*
X147780000Y-86360000D03*
D12*
X144780000Y-86360000D03*
X141780000Y-86360000D03*
D13*
X157480000Y-74925000D03*
D14*
X157480000Y-77465000D03*
D15*
X77415000Y-49680000D03*
X77415000Y-43180000D03*
X81915000Y-49680000D03*
X81915000Y-43180000D03*
D16*
X135255000Y-77466000D03*
X135255000Y-74926000D03*
X135255000Y-72386000D03*
X135255000Y-69846000D03*
X135255000Y-67306000D03*
X135255000Y-64766000D03*
X135255000Y-62226000D03*
X135255000Y-59686000D03*
X135255000Y-57146000D03*
X135255000Y-54606000D03*
X135255000Y-52066000D03*
X135255000Y-49526000D03*
X135255000Y-46986000D03*
X135255000Y-44446000D03*
X135255000Y-41906000D03*
X109855000Y-41906000D03*
X109855000Y-44446000D03*
X109855000Y-46986000D03*
X109855000Y-49526000D03*
X109855000Y-52066000D03*
X109855000Y-54606000D03*
X109855000Y-57146000D03*
X109855000Y-59686000D03*
X109855000Y-62226000D03*
X109855000Y-64766000D03*
X109855000Y-67306000D03*
X109855000Y-69846000D03*
X109855000Y-72386000D03*
X109855000Y-74926000D03*
X109855000Y-77466000D03*
D10*
X76200000Y-67310000D03*
X76200000Y-55310000D03*
D17*
X78160000Y-64310000D03*
D18*
X78160000Y-61310000D03*
X78160000Y-58310000D03*
D19*
X78740000Y-85725000D03*
D13*
X157480000Y-67305000D03*
D14*
X157480000Y-69845000D03*
D20*
X89535000Y-71596000D03*
D16*
X92075000Y-71596000D03*
X94615000Y-71596000D03*
X97155000Y-71596000D03*
X99695000Y-71596000D03*
X102235000Y-71596000D03*
D20*
X102997000Y-75822000D03*
D16*
X100457000Y-75822000D03*
X97917000Y-75822000D03*
X95377000Y-75822000D03*
X92837000Y-75822000D03*
X90297000Y-75822000D03*
X87757000Y-75822000D03*
X85217000Y-75822000D03*
D13*
X106299000Y-80772000D03*
D14*
X106299000Y-83312000D03*
X106299000Y-85852000D03*
X106299000Y-88392000D03*
D20*
X141097000Y-71862000D03*
D16*
X141097000Y-69322000D03*
X143637000Y-71862000D03*
X143637000Y-69322000D03*
X146177000Y-71862000D03*
X146177000Y-69322000D03*
X148717000Y-71862000D03*
X148717000Y-69322000D03*
D15*
X77470000Y-79375000D03*
X77470000Y-72875000D03*
X81970000Y-79375000D03*
X81970000Y-72875000D03*
D19*
X157480000Y-85725000D03*
X157480000Y-36830000D03*
X78740000Y-36830000D03*
M02*
