G04 #@! TF.GenerationSoftware,KiCad,Pcbnew,7.0.9*
G04 #@! TF.CreationDate,2023-11-18T03:00:04-05:00*
G04 #@! TF.ProjectId,RLM,524c4d2e-6b69-4636-9164-5f7063625858,rev?*
G04 #@! TF.SameCoordinates,Original*
G04 #@! TF.FileFunction,Soldermask,Top*
G04 #@! TF.FilePolarity,Negative*
%FSLAX46Y46*%
G04 Gerber Fmt 4.6, Leading zero omitted, Abs format (unit mm)*
G04 Created by KiCad (PCBNEW 7.0.9) date 2023-11-18 03:00:04*
%MOMM*%
%LPD*%
G01*
G04 APERTURE LIST*
G04 Aperture macros list*
%AMRoundRect*
0 Rectangle with rounded corners*
0 $1 Rounding radius*
0 $2 $3 $4 $5 $6 $7 $8 $9 X,Y pos of 4 corners*
0 Add a 4 corners polygon primitive as box body*
4,1,4,$2,$3,$4,$5,$6,$7,$8,$9,$2,$3,0*
0 Add four circle primitives for the rounded corners*
1,1,$1+$1,$2,$3*
1,1,$1+$1,$4,$5*
1,1,$1+$1,$6,$7*
1,1,$1+$1,$8,$9*
0 Add four rect primitives between the rounded corners*
20,1,$1+$1,$2,$3,$4,$5,0*
20,1,$1+$1,$4,$5,$6,$7,0*
20,1,$1+$1,$6,$7,$8,$9,0*
20,1,$1+$1,$8,$9,$2,$3,0*%
G04 Aperture macros list end*
%ADD10C,1.270000*%
%ADD11RoundRect,0.250001X0.499999X0.759999X-0.499999X0.759999X-0.499999X-0.759999X0.499999X-0.759999X0*%
%ADD12O,1.500000X2.020000*%
%ADD13RoundRect,0.150000X-0.150000X0.825000X-0.150000X-0.825000X0.150000X-0.825000X0.150000X0.825000X0*%
%ADD14RoundRect,0.225000X0.225000X0.250000X-0.225000X0.250000X-0.225000X-0.250000X0.225000X-0.250000X0*%
%ADD15R,1.700000X1.700000*%
%ADD16O,1.700000X1.700000*%
%ADD17C,2.000000*%
%ADD18R,1.500000X2.000000*%
%ADD19R,3.800000X2.000000*%
%ADD20RoundRect,0.200000X0.275000X-0.200000X0.275000X0.200000X-0.275000X0.200000X-0.275000X-0.200000X0*%
%ADD21C,1.524000*%
%ADD22RoundRect,0.250001X0.759999X-0.499999X0.759999X0.499999X-0.759999X0.499999X-0.759999X-0.499999X0*%
%ADD23O,2.020000X1.500000*%
%ADD24RoundRect,0.225000X0.250000X-0.225000X0.250000X0.225000X-0.250000X0.225000X-0.250000X-0.225000X0*%
%ADD25RoundRect,0.200000X0.200000X0.275000X-0.200000X0.275000X-0.200000X-0.275000X0.200000X-0.275000X0*%
%ADD26C,7.000000*%
%ADD27R,1.524000X1.524000*%
%ADD28RoundRect,0.218750X0.256250X-0.218750X0.256250X0.218750X-0.256250X0.218750X-0.256250X-0.218750X0*%
G04 APERTURE END LIST*
D10*
X150780000Y-88320000D03*
X138780000Y-88320000D03*
D11*
X147780000Y-86360000D03*
D12*
X144780000Y-86360000D03*
X141780000Y-86360000D03*
D13*
X148183600Y-75630000D03*
X146913600Y-75630000D03*
X145643600Y-75630000D03*
X144373600Y-75630000D03*
X144373600Y-80580000D03*
X145643600Y-80580000D03*
X146913600Y-80580000D03*
X148183600Y-80580000D03*
D14*
X141885000Y-80645000D03*
X140335000Y-80645000D03*
D15*
X157480000Y-74925000D03*
D16*
X157480000Y-77465000D03*
D17*
X77415000Y-49680000D03*
X77415000Y-43180000D03*
X81915000Y-49680000D03*
X81915000Y-43180000D03*
D18*
X155180000Y-50775000D03*
X157480000Y-50775000D03*
D19*
X157480000Y-44475000D03*
D18*
X159780000Y-50775000D03*
D20*
X157480000Y-55435000D03*
X157480000Y-53785000D03*
D14*
X141885000Y-78105000D03*
X140335000Y-78105000D03*
D21*
X135255000Y-77466000D03*
X135255000Y-74926000D03*
X135255000Y-72386000D03*
X135255000Y-69846000D03*
X135255000Y-67306000D03*
X135255000Y-64766000D03*
X135255000Y-62226000D03*
X135255000Y-59686000D03*
X135255000Y-57146000D03*
X135255000Y-54606000D03*
X135255000Y-52066000D03*
X135255000Y-49526000D03*
X135255000Y-46986000D03*
X135255000Y-44446000D03*
X135255000Y-41906000D03*
X109855000Y-41906000D03*
X109855000Y-44446000D03*
X109855000Y-46986000D03*
X109855000Y-49526000D03*
X109855000Y-52066000D03*
X109855000Y-54606000D03*
X109855000Y-57146000D03*
X109855000Y-59686000D03*
X109855000Y-62226000D03*
X109855000Y-64766000D03*
X109855000Y-67306000D03*
X109855000Y-69846000D03*
X109855000Y-72386000D03*
X109855000Y-74926000D03*
X109855000Y-77466000D03*
D10*
X76200000Y-67310000D03*
X76200000Y-55310000D03*
D22*
X78160000Y-64310000D03*
D23*
X78160000Y-61310000D03*
X78160000Y-58310000D03*
D24*
X157480000Y-60605000D03*
X157480000Y-59055000D03*
D25*
X80645000Y-52705000D03*
X78995000Y-52705000D03*
D26*
X78740000Y-85725000D03*
D15*
X157480000Y-67305000D03*
D16*
X157480000Y-69845000D03*
D27*
X89535000Y-71596000D03*
D21*
X92075000Y-71596000D03*
X94615000Y-71596000D03*
X97155000Y-71596000D03*
X99695000Y-71596000D03*
X102235000Y-71596000D03*
D27*
X102997000Y-75822000D03*
D21*
X100457000Y-75822000D03*
X97917000Y-75822000D03*
X95377000Y-75822000D03*
X92837000Y-75822000D03*
X90297000Y-75822000D03*
X87757000Y-75822000D03*
X85217000Y-75822000D03*
D15*
X106299000Y-80772000D03*
D16*
X106299000Y-83312000D03*
X106299000Y-85852000D03*
X106299000Y-88392000D03*
D27*
X141097000Y-71862000D03*
D21*
X141097000Y-69322000D03*
X143637000Y-71862000D03*
X143637000Y-69322000D03*
X146177000Y-71862000D03*
X146177000Y-69322000D03*
X148717000Y-71862000D03*
X148717000Y-69322000D03*
D17*
X77470000Y-79375000D03*
X77470000Y-72875000D03*
X81970000Y-79375000D03*
X81970000Y-72875000D03*
D26*
X157480000Y-85725000D03*
D28*
X160020000Y-55397500D03*
X160020000Y-53822500D03*
D24*
X154940000Y-55385000D03*
X154940000Y-53835000D03*
X154940000Y-60605000D03*
X154940000Y-59055000D03*
D25*
X141935000Y-75565000D03*
X140285000Y-75565000D03*
D26*
X157480000Y-36830000D03*
D25*
X80645000Y-69850000D03*
X78995000Y-69850000D03*
D24*
X160020000Y-60605000D03*
X160020000Y-59055000D03*
D26*
X78740000Y-36830000D03*
M02*
