G04 #@! TF.GenerationSoftware,KiCad,Pcbnew,7.0.9*
G04 #@! TF.CreationDate,2023-11-18T03:00:04-05:00*
G04 #@! TF.ProjectId,RLM,524c4d2e-6b69-4636-9164-5f7063625858,rev?*
G04 #@! TF.SameCoordinates,Original*
G04 #@! TF.FileFunction,Copper,L1,Top*
G04 #@! TF.FilePolarity,Positive*
%FSLAX46Y46*%
G04 Gerber Fmt 4.6, Leading zero omitted, Abs format (unit mm)*
G04 Created by KiCad (PCBNEW 7.0.9) date 2023-11-18 03:00:04*
%MOMM*%
%LPD*%
G01*
G04 APERTURE LIST*
G04 Aperture macros list*
%AMRoundRect*
0 Rectangle with rounded corners*
0 $1 Rounding radius*
0 $2 $3 $4 $5 $6 $7 $8 $9 X,Y pos of 4 corners*
0 Add a 4 corners polygon primitive as box body*
4,1,4,$2,$3,$4,$5,$6,$7,$8,$9,$2,$3,0*
0 Add four circle primitives for the rounded corners*
1,1,$1+$1,$2,$3*
1,1,$1+$1,$4,$5*
1,1,$1+$1,$6,$7*
1,1,$1+$1,$8,$9*
0 Add four rect primitives between the rounded corners*
20,1,$1+$1,$2,$3,$4,$5,0*
20,1,$1+$1,$4,$5,$6,$7,0*
20,1,$1+$1,$6,$7,$8,$9,0*
20,1,$1+$1,$8,$9,$2,$3,0*%
G04 Aperture macros list end*
G04 #@! TA.AperFunction,ComponentPad*
%ADD10RoundRect,0.250001X0.499999X0.759999X-0.499999X0.759999X-0.499999X-0.759999X0.499999X-0.759999X0*%
G04 #@! TD*
G04 #@! TA.AperFunction,ComponentPad*
%ADD11O,1.500000X2.020000*%
G04 #@! TD*
G04 #@! TA.AperFunction,SMDPad,CuDef*
%ADD12RoundRect,0.150000X-0.150000X0.825000X-0.150000X-0.825000X0.150000X-0.825000X0.150000X0.825000X0*%
G04 #@! TD*
G04 #@! TA.AperFunction,SMDPad,CuDef*
%ADD13RoundRect,0.225000X0.225000X0.250000X-0.225000X0.250000X-0.225000X-0.250000X0.225000X-0.250000X0*%
G04 #@! TD*
G04 #@! TA.AperFunction,ComponentPad*
%ADD14R,1.700000X1.700000*%
G04 #@! TD*
G04 #@! TA.AperFunction,ComponentPad*
%ADD15O,1.700000X1.700000*%
G04 #@! TD*
G04 #@! TA.AperFunction,ComponentPad*
%ADD16C,2.000000*%
G04 #@! TD*
G04 #@! TA.AperFunction,SMDPad,CuDef*
%ADD17R,1.500000X2.000000*%
G04 #@! TD*
G04 #@! TA.AperFunction,SMDPad,CuDef*
%ADD18R,3.800000X2.000000*%
G04 #@! TD*
G04 #@! TA.AperFunction,SMDPad,CuDef*
%ADD19RoundRect,0.200000X0.275000X-0.200000X0.275000X0.200000X-0.275000X0.200000X-0.275000X-0.200000X0*%
G04 #@! TD*
G04 #@! TA.AperFunction,ComponentPad*
%ADD20C,1.524000*%
G04 #@! TD*
G04 #@! TA.AperFunction,ComponentPad*
%ADD21RoundRect,0.250001X0.759999X-0.499999X0.759999X0.499999X-0.759999X0.499999X-0.759999X-0.499999X0*%
G04 #@! TD*
G04 #@! TA.AperFunction,ComponentPad*
%ADD22O,2.020000X1.500000*%
G04 #@! TD*
G04 #@! TA.AperFunction,SMDPad,CuDef*
%ADD23RoundRect,0.225000X0.250000X-0.225000X0.250000X0.225000X-0.250000X0.225000X-0.250000X-0.225000X0*%
G04 #@! TD*
G04 #@! TA.AperFunction,SMDPad,CuDef*
%ADD24RoundRect,0.200000X0.200000X0.275000X-0.200000X0.275000X-0.200000X-0.275000X0.200000X-0.275000X0*%
G04 #@! TD*
G04 #@! TA.AperFunction,ComponentPad*
%ADD25C,7.000000*%
G04 #@! TD*
G04 #@! TA.AperFunction,ComponentPad*
%ADD26R,1.524000X1.524000*%
G04 #@! TD*
G04 #@! TA.AperFunction,SMDPad,CuDef*
%ADD27RoundRect,0.218750X0.256250X-0.218750X0.256250X0.218750X-0.256250X0.218750X-0.256250X-0.218750X0*%
G04 #@! TD*
G04 #@! TA.AperFunction,ViaPad*
%ADD28C,0.800000*%
G04 #@! TD*
G04 #@! TA.AperFunction,Conductor*
%ADD29C,0.250000*%
G04 #@! TD*
G04 APERTURE END LIST*
D10*
X147780000Y-86360000D03*
D11*
X144780000Y-86360000D03*
X141780000Y-86360000D03*
D12*
X148183600Y-75630000D03*
X146913600Y-75630000D03*
X145643600Y-75630000D03*
X144373600Y-75630000D03*
X144373600Y-80580000D03*
X145643600Y-80580000D03*
X146913600Y-80580000D03*
X148183600Y-80580000D03*
D13*
X141885000Y-80645000D03*
X140335000Y-80645000D03*
D14*
X157480000Y-74925000D03*
D15*
X157480000Y-77465000D03*
D16*
X77415000Y-49680000D03*
X77415000Y-43180000D03*
X81915000Y-49680000D03*
X81915000Y-43180000D03*
D17*
X155180000Y-50775000D03*
X157480000Y-50775000D03*
D18*
X157480000Y-44475000D03*
D17*
X159780000Y-50775000D03*
D19*
X157480000Y-55435000D03*
X157480000Y-53785000D03*
D13*
X141885000Y-78105000D03*
X140335000Y-78105000D03*
D20*
X135255000Y-77466000D03*
X135255000Y-74926000D03*
X135255000Y-72386000D03*
X135255000Y-69846000D03*
X135255000Y-67306000D03*
X135255000Y-64766000D03*
X135255000Y-62226000D03*
X135255000Y-59686000D03*
X135255000Y-57146000D03*
X135255000Y-54606000D03*
X135255000Y-52066000D03*
X135255000Y-49526000D03*
X135255000Y-46986000D03*
X135255000Y-44446000D03*
X135255000Y-41906000D03*
X109855000Y-41906000D03*
X109855000Y-44446000D03*
X109855000Y-46986000D03*
X109855000Y-49526000D03*
X109855000Y-52066000D03*
X109855000Y-54606000D03*
X109855000Y-57146000D03*
X109855000Y-59686000D03*
X109855000Y-62226000D03*
X109855000Y-64766000D03*
X109855000Y-67306000D03*
X109855000Y-69846000D03*
X109855000Y-72386000D03*
X109855000Y-74926000D03*
X109855000Y-77466000D03*
D21*
X78160000Y-64310000D03*
D22*
X78160000Y-61310000D03*
X78160000Y-58310000D03*
D23*
X157480000Y-60605000D03*
X157480000Y-59055000D03*
D24*
X80645000Y-52705000D03*
X78995000Y-52705000D03*
D25*
X78740000Y-85725000D03*
D14*
X157480000Y-67305000D03*
D15*
X157480000Y-69845000D03*
D26*
X89535000Y-71596000D03*
D20*
X92075000Y-71596000D03*
X94615000Y-71596000D03*
X97155000Y-71596000D03*
X99695000Y-71596000D03*
X102235000Y-71596000D03*
D26*
X102997000Y-75822000D03*
D20*
X100457000Y-75822000D03*
X97917000Y-75822000D03*
X95377000Y-75822000D03*
X92837000Y-75822000D03*
X90297000Y-75822000D03*
X87757000Y-75822000D03*
X85217000Y-75822000D03*
D14*
X106299000Y-80772000D03*
D15*
X106299000Y-83312000D03*
X106299000Y-85852000D03*
X106299000Y-88392000D03*
D26*
X141097000Y-71862000D03*
D20*
X141097000Y-69322000D03*
X143637000Y-71862000D03*
X143637000Y-69322000D03*
X146177000Y-71862000D03*
X146177000Y-69322000D03*
X148717000Y-71862000D03*
X148717000Y-69322000D03*
D16*
X77470000Y-79375000D03*
X77470000Y-72875000D03*
X81970000Y-79375000D03*
X81970000Y-72875000D03*
D25*
X157480000Y-85725000D03*
D27*
X160020000Y-55397500D03*
X160020000Y-53822500D03*
D23*
X154940000Y-55385000D03*
X154940000Y-53835000D03*
X154940000Y-60605000D03*
X154940000Y-59055000D03*
D24*
X141935000Y-75565000D03*
X140285000Y-75565000D03*
D25*
X157480000Y-36830000D03*
D24*
X80645000Y-69850000D03*
X78995000Y-69850000D03*
D23*
X160020000Y-60605000D03*
X160020000Y-59055000D03*
D25*
X78740000Y-36830000D03*
D28*
X153543000Y-55372000D03*
X157353000Y-52578000D03*
X147701000Y-82296000D03*
X142113000Y-76708000D03*
X144907000Y-82296000D03*
X140335000Y-76708000D03*
X81915000Y-69850000D03*
X143129000Y-80518000D03*
X145669000Y-73914000D03*
X160273750Y-52544152D03*
X157555500Y-61976000D03*
X149479000Y-75692000D03*
X150241000Y-71882000D03*
X144399000Y-73914000D03*
X147447000Y-63246000D03*
X139827000Y-70612000D03*
D29*
X77470000Y-72875000D02*
X77470000Y-65786000D01*
X77470000Y-65786000D02*
X76708000Y-65024000D01*
X76708000Y-65024000D02*
X76708000Y-57912000D01*
X76708000Y-57912000D02*
X77415000Y-57205000D01*
X77415000Y-57205000D02*
X77415000Y-49680000D01*
X157430000Y-53835000D02*
X157480000Y-53785000D01*
X161163000Y-52679500D02*
X161163000Y-45720000D01*
X161163000Y-45720000D02*
X159918000Y-44475000D01*
X160820000Y-54622500D02*
X160820000Y-59805000D01*
X154940000Y-55385000D02*
X153556000Y-55385000D01*
X160820000Y-59805000D02*
X160020000Y-60605000D01*
X159918000Y-44475000D02*
X157480000Y-44475000D01*
X157480000Y-52451000D02*
X157353000Y-52578000D01*
X157480000Y-50775000D02*
X157480000Y-52451000D01*
X160020000Y-53822500D02*
X161163000Y-52679500D01*
X157480000Y-50775000D02*
X160020000Y-53315000D01*
X160020000Y-53822500D02*
X160820000Y-54622500D01*
X153556000Y-55385000D02*
X153543000Y-55372000D01*
X160020000Y-53315000D02*
X160020000Y-53822500D01*
X77470000Y-72875000D02*
X77470000Y-79375000D01*
X109605000Y-41656000D02*
X109855000Y-41906000D01*
X77415000Y-43180000D02*
X77415000Y-49680000D01*
X77415000Y-43180000D02*
X78939000Y-41656000D01*
X78939000Y-41656000D02*
X109605000Y-41656000D01*
X157517500Y-55397500D02*
X157480000Y-55435000D01*
X160020000Y-55397500D02*
X157517500Y-55397500D01*
X141885000Y-78105000D02*
X141898600Y-78105000D01*
X141898600Y-78105000D02*
X144373600Y-80580000D01*
X95531000Y-61310000D02*
X109855000Y-46986000D01*
X78160000Y-61310000D02*
X95531000Y-61310000D01*
X147701000Y-81915000D02*
X147701000Y-82296000D01*
X146913600Y-80580000D02*
X146913600Y-81127600D01*
X142113000Y-75743000D02*
X141935000Y-75565000D01*
X146913600Y-81127600D02*
X147701000Y-81915000D01*
X146913600Y-85493600D02*
X146913600Y-80580000D01*
X142113000Y-76708000D02*
X142113000Y-75743000D01*
X147780000Y-86360000D02*
X146913600Y-85493600D01*
X135255000Y-57146000D02*
X143637000Y-65528000D01*
X143637000Y-65528000D02*
X143637000Y-69322000D01*
X135255000Y-59686000D02*
X142367000Y-66798000D01*
X142367000Y-70592000D02*
X143637000Y-71862000D01*
X142367000Y-66798000D02*
X142367000Y-70592000D01*
X144907000Y-81915000D02*
X145643600Y-81178400D01*
X144780000Y-86360000D02*
X145643600Y-85496400D01*
X144907000Y-82296000D02*
X144907000Y-81915000D01*
X145643600Y-81178400D02*
X145643600Y-80580000D01*
X145643600Y-85496400D02*
X145643600Y-80580000D01*
X148463000Y-87884000D02*
X155829000Y-80518000D01*
X141780000Y-86360000D02*
X143304000Y-87884000D01*
X143304000Y-87884000D02*
X148463000Y-87884000D01*
X155829000Y-80518000D02*
X155829000Y-71496000D01*
X155829000Y-71496000D02*
X157480000Y-69845000D01*
X140285000Y-75565000D02*
X140285000Y-76658000D01*
X140285000Y-76658000D02*
X140335000Y-76708000D01*
X81915000Y-49680000D02*
X81915000Y-43180000D01*
X80645000Y-50950000D02*
X80645000Y-52705000D01*
X81915000Y-49680000D02*
X80645000Y-50950000D01*
X80645000Y-69850000D02*
X81915000Y-69850000D01*
X81970000Y-72875000D02*
X81970000Y-79375000D01*
X80645000Y-69850000D02*
X80645000Y-71550000D01*
X80645000Y-71550000D02*
X81970000Y-72875000D01*
X111629000Y-85852000D02*
X135255000Y-62226000D01*
X106299000Y-85852000D02*
X111629000Y-85852000D01*
X134138000Y-88392000D02*
X141885000Y-80645000D01*
X160273750Y-52544152D02*
X160273750Y-51268750D01*
X157480000Y-60605000D02*
X157480000Y-61900500D01*
X142012000Y-80518000D02*
X141885000Y-80645000D01*
X145643600Y-73939400D02*
X145669000Y-73914000D01*
X106299000Y-88392000D02*
X134138000Y-88392000D01*
X160273750Y-51268750D02*
X159780000Y-50775000D01*
X154940000Y-60605000D02*
X154940000Y-68324604D01*
X143129000Y-80518000D02*
X142012000Y-80518000D01*
X102997000Y-85090000D02*
X106299000Y-88392000D01*
X157480000Y-61900500D02*
X157555500Y-61976000D01*
X145643600Y-75630000D02*
X145643600Y-73939400D01*
X154940000Y-68324604D02*
X149546604Y-73718000D01*
X147135000Y-73718000D02*
X145643600Y-75209400D01*
X149546604Y-73718000D02*
X147135000Y-73718000D01*
X145643600Y-75209400D02*
X145643600Y-75630000D01*
X102997000Y-75822000D02*
X102997000Y-85090000D01*
X154940000Y-60605000D02*
X157480000Y-60605000D01*
X148183600Y-75630000D02*
X149417000Y-75630000D01*
X150241000Y-71882000D02*
X150241000Y-67564000D01*
X136017000Y-53340000D02*
X111121000Y-53340000D01*
X111121000Y-53340000D02*
X109855000Y-54606000D01*
X149417000Y-75630000D02*
X149479000Y-75692000D01*
X150241000Y-67564000D02*
X136017000Y-53340000D01*
X144373600Y-73939400D02*
X144399000Y-73914000D01*
X144373600Y-75630000D02*
X144373600Y-73939400D01*
X147447000Y-62484000D02*
X135763000Y-50800000D01*
X135763000Y-50800000D02*
X109347000Y-50800000D01*
X99695000Y-71596000D02*
X109065000Y-62226000D01*
X108585000Y-51562000D02*
X108585000Y-60956000D01*
X108585000Y-60956000D02*
X109855000Y-62226000D01*
X147447000Y-63246000D02*
X147447000Y-62484000D01*
X109347000Y-50800000D02*
X108585000Y-51562000D01*
X109065000Y-62226000D02*
X109855000Y-62226000D01*
X135771626Y-55880000D02*
X147447000Y-67555374D01*
X147447000Y-67555374D02*
X147447000Y-70592000D01*
X95917000Y-72898000D02*
X102616000Y-72898000D01*
X147447000Y-70592000D02*
X148717000Y-71862000D01*
X109855000Y-64766000D02*
X125852374Y-64766000D01*
X125852374Y-64766000D02*
X134738374Y-55880000D01*
X102616000Y-72898000D02*
X109855000Y-65659000D01*
X134738374Y-55880000D02*
X135771626Y-55880000D01*
X109855000Y-65659000D02*
X109855000Y-64766000D01*
X94615000Y-71596000D02*
X95917000Y-72898000D01*
X139827000Y-70612000D02*
X139827000Y-64959198D01*
X134617749Y-60960000D02*
X118111749Y-77466000D01*
X139827000Y-64959198D02*
X135827802Y-60960000D01*
X135827802Y-60960000D02*
X134617749Y-60960000D01*
X118111749Y-77466000D02*
X109855000Y-77466000D01*
X102235000Y-70518370D02*
X109253370Y-63500000D01*
X109253370Y-63500000D02*
X126361000Y-63500000D01*
X126361000Y-63500000D02*
X135255000Y-54606000D01*
X102235000Y-71596000D02*
X102235000Y-70518370D01*
G04 #@! TA.AperFunction,Conductor*
G36*
X80548202Y-42301185D02*
G01*
X80593957Y-42353989D01*
X80603901Y-42423147D01*
X80592238Y-42458411D01*
X80592887Y-42458696D01*
X80490936Y-42691118D01*
X80429892Y-42932175D01*
X80429890Y-42932187D01*
X80409357Y-43179994D01*
X80409357Y-43180005D01*
X80429890Y-43427812D01*
X80429892Y-43427824D01*
X80490936Y-43668881D01*
X80590826Y-43896606D01*
X80726833Y-44104782D01*
X80757291Y-44137868D01*
X80895256Y-44287738D01*
X81017764Y-44383090D01*
X81091488Y-44440472D01*
X81091493Y-44440475D01*
X81224517Y-44512464D01*
X81274108Y-44561683D01*
X81289500Y-44621519D01*
X81289500Y-48238479D01*
X81269815Y-48305518D01*
X81224519Y-48347533D01*
X81091496Y-48419522D01*
X81091494Y-48419523D01*
X80895257Y-48572261D01*
X80726833Y-48755217D01*
X80590826Y-48963393D01*
X80490936Y-49191118D01*
X80429892Y-49432175D01*
X80429890Y-49432187D01*
X80409357Y-49679994D01*
X80409357Y-49680005D01*
X80429890Y-49927812D01*
X80429892Y-49927824D01*
X80483863Y-50140948D01*
X80481238Y-50210768D01*
X80451338Y-50259069D01*
X80261208Y-50449199D01*
X80248951Y-50459020D01*
X80249134Y-50459241D01*
X80243123Y-50464213D01*
X80195772Y-50514636D01*
X80174889Y-50535519D01*
X80174877Y-50535532D01*
X80170621Y-50541017D01*
X80166837Y-50545447D01*
X80134937Y-50579418D01*
X80134936Y-50579420D01*
X80125284Y-50596976D01*
X80114610Y-50613226D01*
X80102329Y-50629061D01*
X80102324Y-50629068D01*
X80083815Y-50671838D01*
X80081245Y-50677084D01*
X80058803Y-50717906D01*
X80053822Y-50737307D01*
X80047521Y-50755710D01*
X80039562Y-50774102D01*
X80039561Y-50774105D01*
X80032271Y-50820127D01*
X80031087Y-50825846D01*
X80019501Y-50870972D01*
X80019500Y-50870982D01*
X80019500Y-50891016D01*
X80017973Y-50910415D01*
X80014840Y-50930194D01*
X80014840Y-50930195D01*
X80019225Y-50976583D01*
X80019500Y-50982421D01*
X80019500Y-51813480D01*
X79999815Y-51880519D01*
X79983181Y-51901161D01*
X79907327Y-51977015D01*
X79846004Y-52010500D01*
X79776312Y-52005516D01*
X79731965Y-51977015D01*
X79629877Y-51874927D01*
X79484395Y-51786980D01*
X79484396Y-51786980D01*
X79322105Y-51736409D01*
X79322106Y-51736409D01*
X79251572Y-51730000D01*
X79245000Y-51730000D01*
X79245000Y-53679999D01*
X79251581Y-53679999D01*
X79322102Y-53673591D01*
X79322107Y-53673590D01*
X79484396Y-53623018D01*
X79629877Y-53535072D01*
X79629878Y-53535071D01*
X79731963Y-53432985D01*
X79793286Y-53399499D01*
X79862977Y-53404483D01*
X79907326Y-53432984D01*
X80009811Y-53535469D01*
X80009813Y-53535470D01*
X80009815Y-53535472D01*
X80155394Y-53623478D01*
X80317804Y-53674086D01*
X80388384Y-53680500D01*
X80388387Y-53680500D01*
X80901613Y-53680500D01*
X80901616Y-53680500D01*
X80972196Y-53674086D01*
X81134606Y-53623478D01*
X81280185Y-53535472D01*
X81400472Y-53415185D01*
X81488478Y-53269606D01*
X81539086Y-53107196D01*
X81545500Y-53036616D01*
X81545500Y-52373384D01*
X81539086Y-52302804D01*
X81488478Y-52140394D01*
X81400472Y-51994815D01*
X81400470Y-51994813D01*
X81400469Y-51994811D01*
X81306819Y-51901161D01*
X81273334Y-51839838D01*
X81270500Y-51813480D01*
X81270500Y-51260452D01*
X81290185Y-51193413D01*
X81306814Y-51172775D01*
X81337771Y-51141818D01*
X81399091Y-51108334D01*
X81465712Y-51112218D01*
X81507705Y-51126635D01*
X81545385Y-51139571D01*
X81790665Y-51180500D01*
X82039335Y-51180500D01*
X82284614Y-51139571D01*
X82519810Y-51058828D01*
X82738509Y-50940474D01*
X82934744Y-50787738D01*
X83103164Y-50604785D01*
X83239173Y-50396607D01*
X83339063Y-50168881D01*
X83400108Y-49927821D01*
X83400109Y-49927812D01*
X83420643Y-49680005D01*
X83420643Y-49679994D01*
X83400109Y-49432187D01*
X83400107Y-49432175D01*
X83339063Y-49191118D01*
X83239173Y-48963393D01*
X83103166Y-48755217D01*
X83062808Y-48711377D01*
X82934744Y-48572262D01*
X82738509Y-48419526D01*
X82738508Y-48419525D01*
X82738505Y-48419523D01*
X82738503Y-48419522D01*
X82605481Y-48347533D01*
X82555891Y-48298313D01*
X82540500Y-48238479D01*
X82540500Y-44621519D01*
X82560185Y-44554480D01*
X82605483Y-44512464D01*
X82669355Y-44477898D01*
X82738509Y-44440474D01*
X82934744Y-44287738D01*
X83103164Y-44104785D01*
X83239173Y-43896607D01*
X83339063Y-43668881D01*
X83400108Y-43427821D01*
X83400165Y-43427135D01*
X83420643Y-43180005D01*
X83420643Y-43179994D01*
X83400109Y-42932187D01*
X83400107Y-42932175D01*
X83339063Y-42691118D01*
X83237113Y-42458696D01*
X83238414Y-42458125D01*
X83225188Y-42396178D01*
X83249857Y-42330808D01*
X83305951Y-42289152D01*
X83348837Y-42281500D01*
X108558087Y-42281500D01*
X108625126Y-42301185D01*
X108670468Y-42353094D01*
X108719445Y-42458125D01*
X108757466Y-42539662D01*
X108757468Y-42539666D01*
X108884170Y-42720615D01*
X108884175Y-42720621D01*
X109040378Y-42876824D01*
X109040384Y-42876829D01*
X109221333Y-43003531D01*
X109221335Y-43003532D01*
X109221338Y-43003534D01*
X109350781Y-43063894D01*
X109403220Y-43110066D01*
X109422372Y-43177260D01*
X109402156Y-43244141D01*
X109350781Y-43288658D01*
X109221586Y-43348903D01*
X109156812Y-43394257D01*
X109156811Y-43394258D01*
X109827554Y-44065000D01*
X109823431Y-44065000D01*
X109729579Y-44080661D01*
X109617749Y-44141180D01*
X109531629Y-44234731D01*
X109480552Y-44351177D01*
X109474894Y-44419447D01*
X108803258Y-43747811D01*
X108803257Y-43747812D01*
X108757903Y-43812586D01*
X108664579Y-44012720D01*
X108664575Y-44012729D01*
X108607426Y-44226013D01*
X108607424Y-44226023D01*
X108588179Y-44445999D01*
X108588179Y-44446000D01*
X108607424Y-44665976D01*
X108607426Y-44665986D01*
X108664575Y-44879270D01*
X108664580Y-44879284D01*
X108757899Y-45079407D01*
X108757900Y-45079409D01*
X108803258Y-45144187D01*
X109470096Y-44477349D01*
X109470051Y-44477898D01*
X109501266Y-44601162D01*
X109570813Y-44707612D01*
X109671157Y-44785713D01*
X109791422Y-44827000D01*
X109827553Y-44827000D01*
X109156811Y-45497741D01*
X109221582Y-45543094D01*
X109221588Y-45543098D01*
X109350781Y-45603342D01*
X109403220Y-45649514D01*
X109422372Y-45716708D01*
X109402156Y-45783589D01*
X109350781Y-45828106D01*
X109221340Y-45888465D01*
X109221338Y-45888466D01*
X109040377Y-46015175D01*
X108884175Y-46171377D01*
X108757466Y-46352338D01*
X108757465Y-46352340D01*
X108664107Y-46552548D01*
X108664104Y-46552554D01*
X108606930Y-46765929D01*
X108606929Y-46765937D01*
X108587677Y-46985997D01*
X108587677Y-46986000D01*
X108606929Y-47206062D01*
X108606930Y-47206066D01*
X108606930Y-47206070D01*
X108618707Y-47250021D01*
X108617044Y-47319871D01*
X108586613Y-47369795D01*
X95308228Y-60648181D01*
X95246905Y-60681666D01*
X95220547Y-60684500D01*
X79577552Y-60684500D01*
X79510513Y-60664815D01*
X79471457Y-60622609D01*
X79470919Y-60622965D01*
X79468762Y-60619698D01*
X79468360Y-60619263D01*
X79467852Y-60618319D01*
X79327510Y-60442336D01*
X79307854Y-60425163D01*
X79157996Y-60294235D01*
X78964764Y-60178785D01*
X78846786Y-60134507D01*
X78754023Y-60099692D01*
X78532550Y-60059500D01*
X78532547Y-60059500D01*
X77843845Y-60059500D01*
X77805399Y-60062960D01*
X77675813Y-60074622D01*
X77675807Y-60074623D01*
X77490489Y-60125769D01*
X77420629Y-60124629D01*
X77362475Y-60085901D01*
X77334491Y-60021880D01*
X77333500Y-60006238D01*
X77333500Y-59612040D01*
X77353185Y-59545001D01*
X77405989Y-59499246D01*
X77475147Y-59489302D01*
X77501062Y-59495944D01*
X77565976Y-59520307D01*
X77676714Y-59540403D01*
X77787450Y-59560500D01*
X77787453Y-59560500D01*
X78476148Y-59560500D01*
X78476155Y-59560500D01*
X78644188Y-59545377D01*
X78644192Y-59545376D01*
X78861160Y-59485496D01*
X78861162Y-59485495D01*
X78861170Y-59485493D01*
X79063973Y-59387829D01*
X79246078Y-59255522D01*
X79401632Y-59092825D01*
X79525635Y-58904968D01*
X79614103Y-58697988D01*
X79664191Y-58478537D01*
X79674290Y-58253670D01*
X79644075Y-58030613D01*
X79574517Y-57816536D01*
X79557556Y-57785018D01*
X79467853Y-57618321D01*
X79467851Y-57618318D01*
X79433548Y-57575304D01*
X79371517Y-57497519D01*
X79327510Y-57442336D01*
X79303112Y-57421020D01*
X79157996Y-57294235D01*
X78964764Y-57178785D01*
X78859394Y-57139239D01*
X78754023Y-57099692D01*
X78532550Y-57059500D01*
X78532547Y-57059500D01*
X78164500Y-57059500D01*
X78097461Y-57039815D01*
X78051706Y-56987011D01*
X78040500Y-56935500D01*
X78040500Y-53514812D01*
X78060185Y-53447773D01*
X78112989Y-53402018D01*
X78182147Y-53392074D01*
X78245703Y-53421099D01*
X78252181Y-53427131D01*
X78360122Y-53535072D01*
X78505604Y-53623019D01*
X78505603Y-53623019D01*
X78667894Y-53673590D01*
X78667893Y-53673590D01*
X78738408Y-53679998D01*
X78738426Y-53679999D01*
X78744999Y-53679998D01*
X78745000Y-53679998D01*
X78745000Y-51730000D01*
X78744999Y-51729999D01*
X78738436Y-51730000D01*
X78738417Y-51730001D01*
X78667897Y-51736408D01*
X78667892Y-51736409D01*
X78505603Y-51786981D01*
X78360122Y-51874927D01*
X78360121Y-51874928D01*
X78252181Y-51982869D01*
X78190858Y-52016354D01*
X78121166Y-52011370D01*
X78065233Y-51969498D01*
X78040816Y-51904034D01*
X78040500Y-51895188D01*
X78040500Y-51121519D01*
X78060185Y-51054480D01*
X78105483Y-51012464D01*
X78106369Y-51011984D01*
X78238509Y-50940474D01*
X78434744Y-50787738D01*
X78603164Y-50604785D01*
X78739173Y-50396607D01*
X78839063Y-50168881D01*
X78900108Y-49927821D01*
X78900109Y-49927812D01*
X78920643Y-49680005D01*
X78920643Y-49679994D01*
X78900109Y-49432187D01*
X78900107Y-49432175D01*
X78839063Y-49191118D01*
X78739173Y-48963393D01*
X78603166Y-48755217D01*
X78562808Y-48711377D01*
X78434744Y-48572262D01*
X78238509Y-48419526D01*
X78238508Y-48419525D01*
X78238505Y-48419523D01*
X78238503Y-48419522D01*
X78105481Y-48347533D01*
X78055891Y-48298313D01*
X78040500Y-48238479D01*
X78040500Y-44621519D01*
X78060185Y-44554480D01*
X78105483Y-44512464D01*
X78169355Y-44477898D01*
X78238509Y-44440474D01*
X78434744Y-44287738D01*
X78603164Y-44104785D01*
X78739173Y-43896607D01*
X78839063Y-43668881D01*
X78900108Y-43427821D01*
X78900165Y-43427135D01*
X78920643Y-43180005D01*
X78920643Y-43179994D01*
X78900109Y-42932187D01*
X78900107Y-42932175D01*
X78846136Y-42719049D01*
X78848761Y-42649229D01*
X78878658Y-42600930D01*
X79161773Y-42317817D01*
X79223095Y-42284334D01*
X79249453Y-42281500D01*
X80481163Y-42281500D01*
X80548202Y-42301185D01*
G37*
G04 #@! TD.AperFunction*
G04 #@! TA.AperFunction,Conductor*
G36*
X157697525Y-31759496D02*
G01*
X157902732Y-31768456D01*
X157907654Y-31768870D01*
X158125755Y-31796056D01*
X158330849Y-31823058D01*
X158335420Y-31823837D01*
X158550399Y-31868913D01*
X158752714Y-31913766D01*
X158756969Y-31914869D01*
X158875715Y-31950222D01*
X158967449Y-31977533D01*
X159020220Y-31994171D01*
X159165378Y-32039939D01*
X159169180Y-32041277D01*
X159373265Y-32120912D01*
X159373908Y-32121163D01*
X159565763Y-32200632D01*
X159569234Y-32202196D01*
X159766710Y-32298737D01*
X159766733Y-32298748D01*
X159951061Y-32394704D01*
X159954169Y-32396437D01*
X160076039Y-32469054D01*
X160143108Y-32509019D01*
X160318522Y-32620771D01*
X160321212Y-32622586D01*
X160500304Y-32750456D01*
X160665405Y-32877142D01*
X160667733Y-32879019D01*
X160835753Y-33021323D01*
X160990324Y-33162962D01*
X161147037Y-33319675D01*
X161288676Y-33474246D01*
X161430979Y-33642265D01*
X161432856Y-33644593D01*
X161559543Y-33809695D01*
X161687412Y-33988786D01*
X161689244Y-33991501D01*
X161800986Y-34166901D01*
X161913561Y-34355829D01*
X161915294Y-34358937D01*
X162011251Y-34543266D01*
X162107786Y-34740731D01*
X162109366Y-34744235D01*
X162188836Y-34936091D01*
X162209367Y-34988706D01*
X162268708Y-35140785D01*
X162270072Y-35144657D01*
X162332466Y-35342549D01*
X162395124Y-35553014D01*
X162396232Y-35557286D01*
X162441099Y-35759663D01*
X162486157Y-35974559D01*
X162486946Y-35979191D01*
X162513952Y-36184318D01*
X162541126Y-36402322D01*
X162541543Y-36407288D01*
X162550512Y-36612701D01*
X162559500Y-36830000D01*
X162559500Y-85725000D01*
X162550512Y-85942298D01*
X162541543Y-86147710D01*
X162541126Y-86152676D01*
X162513952Y-86370681D01*
X162486946Y-86575807D01*
X162486157Y-86580439D01*
X162441099Y-86795336D01*
X162396232Y-86997712D01*
X162395124Y-87001984D01*
X162332466Y-87212450D01*
X162270072Y-87410341D01*
X162268700Y-87414236D01*
X162188836Y-87618908D01*
X162109366Y-87810763D01*
X162107786Y-87814267D01*
X162011251Y-88011733D01*
X161915294Y-88196061D01*
X161913561Y-88199169D01*
X161800986Y-88388098D01*
X161689244Y-88563497D01*
X161687412Y-88566212D01*
X161559543Y-88745304D01*
X161432856Y-88910405D01*
X161430979Y-88912733D01*
X161288676Y-89080753D01*
X161147037Y-89235324D01*
X160990324Y-89392037D01*
X160835753Y-89533676D01*
X160667733Y-89675979D01*
X160665405Y-89677856D01*
X160500304Y-89804543D01*
X160321212Y-89932412D01*
X160318497Y-89934244D01*
X160143098Y-90045986D01*
X159954169Y-90158561D01*
X159951061Y-90160294D01*
X159766733Y-90256251D01*
X159569267Y-90352786D01*
X159565763Y-90354366D01*
X159373908Y-90433836D01*
X159169236Y-90513700D01*
X159165341Y-90515072D01*
X158967450Y-90577466D01*
X158756984Y-90640124D01*
X158752712Y-90641232D01*
X158550336Y-90686099D01*
X158335439Y-90731157D01*
X158330807Y-90731946D01*
X158125681Y-90758952D01*
X157907676Y-90786126D01*
X157902710Y-90786543D01*
X157697298Y-90795512D01*
X157480000Y-90804500D01*
X78740000Y-90804500D01*
X78522701Y-90795512D01*
X78317288Y-90786543D01*
X78312322Y-90786126D01*
X78094318Y-90758952D01*
X77889191Y-90731946D01*
X77884559Y-90731157D01*
X77669663Y-90686099D01*
X77467286Y-90641232D01*
X77463014Y-90640124D01*
X77252549Y-90577466D01*
X77054657Y-90515072D01*
X77050785Y-90513708D01*
X76918255Y-90461995D01*
X76846091Y-90433836D01*
X76654235Y-90354366D01*
X76650731Y-90352786D01*
X76453266Y-90256251D01*
X76268937Y-90160294D01*
X76265829Y-90158561D01*
X76076901Y-90045986D01*
X75901501Y-89934244D01*
X75898786Y-89932412D01*
X75719695Y-89804543D01*
X75554593Y-89677856D01*
X75552265Y-89675979D01*
X75384246Y-89533676D01*
X75229675Y-89392037D01*
X75072962Y-89235324D01*
X74979568Y-89133403D01*
X74931319Y-89080748D01*
X74789019Y-88912733D01*
X74787142Y-88910405D01*
X74660456Y-88745304D01*
X74576276Y-88627403D01*
X74532580Y-88566203D01*
X74530771Y-88563522D01*
X74419013Y-88388098D01*
X74368523Y-88303365D01*
X74306437Y-88199169D01*
X74304704Y-88196061D01*
X74208748Y-88011733D01*
X74112196Y-87814234D01*
X74110632Y-87810763D01*
X74031163Y-87618908D01*
X74023656Y-87599669D01*
X73951277Y-87414180D01*
X73949939Y-87410378D01*
X73887533Y-87212449D01*
X73848989Y-87082983D01*
X73824869Y-87001969D01*
X73823766Y-86997712D01*
X73814080Y-86954022D01*
X73778913Y-86795399D01*
X73733837Y-86580420D01*
X73733058Y-86575849D01*
X73706047Y-86370681D01*
X73678870Y-86152654D01*
X73678456Y-86147732D01*
X73669487Y-85942298D01*
X73660500Y-85725000D01*
X74735176Y-85725000D01*
X74754461Y-86117550D01*
X74812129Y-86506308D01*
X74907625Y-86887549D01*
X75040016Y-87257559D01*
X75040023Y-87257575D01*
X75208062Y-87612864D01*
X75410109Y-87949958D01*
X75644228Y-88265632D01*
X75740068Y-88371376D01*
X75740069Y-88371376D01*
X77053104Y-87058341D01*
X77165031Y-87195918D01*
X77379990Y-87396676D01*
X77404543Y-87414008D01*
X76093622Y-88724929D01*
X76093622Y-88724930D01*
X76199367Y-88820771D01*
X76515041Y-89054890D01*
X76852135Y-89256937D01*
X77207424Y-89424976D01*
X77207440Y-89424983D01*
X77577450Y-89557374D01*
X77958691Y-89652870D01*
X78347449Y-89710538D01*
X78740000Y-89729823D01*
X79132550Y-89710538D01*
X79521308Y-89652870D01*
X79902549Y-89557374D01*
X80272559Y-89424983D01*
X80272575Y-89424976D01*
X80627864Y-89256937D01*
X80964958Y-89054890D01*
X81280632Y-88820770D01*
X81386376Y-88724929D01*
X80075455Y-87414008D01*
X80100010Y-87396676D01*
X80314969Y-87195918D01*
X80426895Y-87058342D01*
X81739929Y-88371376D01*
X81835770Y-88265632D01*
X82069890Y-87949958D01*
X82271937Y-87612864D01*
X82439976Y-87257575D01*
X82439983Y-87257559D01*
X82572374Y-86887549D01*
X82667870Y-86506308D01*
X82725538Y-86117550D01*
X82744823Y-85725000D01*
X82725538Y-85332449D01*
X82667870Y-84943691D01*
X82572374Y-84562450D01*
X82439983Y-84192440D01*
X82439976Y-84192424D01*
X82271937Y-83837135D01*
X82069890Y-83500041D01*
X81835771Y-83184367D01*
X81739930Y-83078622D01*
X81739929Y-83078622D01*
X80426894Y-84391656D01*
X80314969Y-84254082D01*
X80100010Y-84053324D01*
X80075455Y-84035991D01*
X81386376Y-82725069D01*
X81386376Y-82725068D01*
X81280632Y-82629228D01*
X80964958Y-82395109D01*
X80627864Y-82193062D01*
X80272575Y-82025023D01*
X80272559Y-82025016D01*
X79902549Y-81892625D01*
X79521308Y-81797129D01*
X79132550Y-81739461D01*
X78740000Y-81720176D01*
X78347449Y-81739461D01*
X77958691Y-81797129D01*
X77577450Y-81892625D01*
X77207440Y-82025016D01*
X77207424Y-82025023D01*
X76852135Y-82193062D01*
X76515041Y-82395109D01*
X76199368Y-82629228D01*
X76093622Y-82725069D01*
X77404544Y-84035991D01*
X77379990Y-84053324D01*
X77165031Y-84254082D01*
X77053104Y-84391657D01*
X75740069Y-83078622D01*
X75644228Y-83184368D01*
X75410109Y-83500041D01*
X75208062Y-83837135D01*
X75040023Y-84192424D01*
X75040016Y-84192440D01*
X74907625Y-84562450D01*
X74812129Y-84943691D01*
X74754461Y-85332449D01*
X74735176Y-85725000D01*
X73660500Y-85725000D01*
X73660500Y-85724500D01*
X73660500Y-36830000D01*
X74735176Y-36830000D01*
X74754461Y-37222550D01*
X74812129Y-37611308D01*
X74907625Y-37992549D01*
X75040016Y-38362559D01*
X75040023Y-38362575D01*
X75208062Y-38717864D01*
X75410109Y-39054958D01*
X75644228Y-39370632D01*
X75740068Y-39476376D01*
X75740069Y-39476376D01*
X77053104Y-38163341D01*
X77165031Y-38300918D01*
X77379990Y-38501676D01*
X77404543Y-38519008D01*
X76093622Y-39829929D01*
X76093622Y-39829930D01*
X76199367Y-39925771D01*
X76515041Y-40159890D01*
X76852135Y-40361937D01*
X77207424Y-40529976D01*
X77207440Y-40529983D01*
X77577450Y-40662374D01*
X77958691Y-40757870D01*
X78347449Y-40815538D01*
X78670571Y-40831412D01*
X78736564Y-40854362D01*
X78779673Y-40909348D01*
X78786211Y-40978911D01*
X78754103Y-41040966D01*
X78699092Y-41074336D01*
X78688614Y-41077380D01*
X78688604Y-41077385D01*
X78671365Y-41087580D01*
X78653898Y-41096137D01*
X78635269Y-41103512D01*
X78635267Y-41103513D01*
X78597564Y-41130906D01*
X78592682Y-41134112D01*
X78552580Y-41157828D01*
X78538408Y-41172000D01*
X78523623Y-41184628D01*
X78507412Y-41196407D01*
X78477709Y-41232310D01*
X78473777Y-41236631D01*
X77992228Y-41718179D01*
X77930905Y-41751664D01*
X77864284Y-41747779D01*
X77784616Y-41720429D01*
X77539335Y-41679500D01*
X77290665Y-41679500D01*
X77045383Y-41720429D01*
X76810197Y-41801169D01*
X76810188Y-41801172D01*
X76591493Y-41919524D01*
X76395257Y-42072261D01*
X76226833Y-42255217D01*
X76090826Y-42463393D01*
X75990936Y-42691118D01*
X75929892Y-42932175D01*
X75929890Y-42932187D01*
X75909357Y-43179994D01*
X75909357Y-43180005D01*
X75929890Y-43427812D01*
X75929892Y-43427824D01*
X75990936Y-43668881D01*
X76090826Y-43896606D01*
X76226833Y-44104782D01*
X76257291Y-44137868D01*
X76395256Y-44287738D01*
X76517764Y-44383090D01*
X76591488Y-44440472D01*
X76591493Y-44440475D01*
X76724517Y-44512464D01*
X76774108Y-44561683D01*
X76789500Y-44621519D01*
X76789500Y-48238479D01*
X76769815Y-48305518D01*
X76724519Y-48347533D01*
X76591496Y-48419522D01*
X76591494Y-48419523D01*
X76395257Y-48572261D01*
X76226833Y-48755217D01*
X76090826Y-48963393D01*
X75990936Y-49191118D01*
X75929892Y-49432175D01*
X75929890Y-49432187D01*
X75909357Y-49679994D01*
X75909357Y-49680005D01*
X75929890Y-49927812D01*
X75929892Y-49927824D01*
X75990936Y-50168881D01*
X76090826Y-50396606D01*
X76226833Y-50604782D01*
X76226836Y-50604785D01*
X76395256Y-50787738D01*
X76502208Y-50870982D01*
X76591488Y-50940472D01*
X76591493Y-50940475D01*
X76724517Y-51012464D01*
X76774108Y-51061683D01*
X76789500Y-51121519D01*
X76789500Y-54413086D01*
X76769815Y-54480125D01*
X76717011Y-54525880D01*
X76647853Y-54535824D01*
X76603501Y-54520473D01*
X76562154Y-54496601D01*
X76562143Y-54496596D01*
X76385124Y-54439080D01*
X76385122Y-54439079D01*
X76345488Y-54434913D01*
X76246411Y-54424500D01*
X76153589Y-54424500D01*
X76066895Y-54433611D01*
X76014877Y-54439079D01*
X76014875Y-54439080D01*
X75837856Y-54496596D01*
X75837850Y-54496599D01*
X75676650Y-54589668D01*
X75538324Y-54714215D01*
X75538322Y-54714218D01*
X75428909Y-54864811D01*
X75353201Y-55034852D01*
X75353199Y-55034858D01*
X75314500Y-55216930D01*
X75314500Y-55403069D01*
X75353199Y-55585141D01*
X75353201Y-55585147D01*
X75428910Y-55755188D01*
X75428909Y-55755188D01*
X75428910Y-55755189D01*
X75538320Y-55905779D01*
X75538321Y-55905780D01*
X75538322Y-55905781D01*
X75538324Y-55905784D01*
X75593103Y-55955106D01*
X75676649Y-56030331D01*
X75837851Y-56123401D01*
X75837853Y-56123401D01*
X75837856Y-56123403D01*
X75926365Y-56152161D01*
X76014880Y-56180921D01*
X76153589Y-56195500D01*
X76153594Y-56195500D01*
X76246406Y-56195500D01*
X76246411Y-56195500D01*
X76385120Y-56180921D01*
X76562149Y-56123401D01*
X76603500Y-56099526D01*
X76671399Y-56083053D01*
X76737426Y-56105905D01*
X76780617Y-56160826D01*
X76789500Y-56206913D01*
X76789500Y-56894546D01*
X76769815Y-56961585D01*
X76753181Y-56982227D01*
X76324208Y-57411199D01*
X76311951Y-57421020D01*
X76312134Y-57421241D01*
X76306123Y-57426213D01*
X76258772Y-57476636D01*
X76237889Y-57497519D01*
X76237877Y-57497532D01*
X76233621Y-57503017D01*
X76229837Y-57507447D01*
X76197937Y-57541418D01*
X76197936Y-57541420D01*
X76188284Y-57558976D01*
X76177610Y-57575226D01*
X76165329Y-57591061D01*
X76165324Y-57591068D01*
X76146815Y-57633838D01*
X76144245Y-57639084D01*
X76121803Y-57679906D01*
X76116822Y-57699307D01*
X76110521Y-57717710D01*
X76102562Y-57736102D01*
X76102561Y-57736105D01*
X76095271Y-57782127D01*
X76094087Y-57787846D01*
X76082501Y-57832972D01*
X76082500Y-57832982D01*
X76082500Y-57853016D01*
X76080973Y-57872415D01*
X76077840Y-57892194D01*
X76077840Y-57892195D01*
X76082225Y-57938583D01*
X76082500Y-57944421D01*
X76082500Y-64941255D01*
X76080775Y-64956872D01*
X76081061Y-64956899D01*
X76080326Y-64964665D01*
X76082500Y-65033814D01*
X76082500Y-65063343D01*
X76082501Y-65063360D01*
X76083368Y-65070231D01*
X76083826Y-65076050D01*
X76085290Y-65122624D01*
X76085291Y-65122627D01*
X76090880Y-65141867D01*
X76094824Y-65160911D01*
X76097336Y-65180792D01*
X76112181Y-65218288D01*
X76114490Y-65224119D01*
X76116382Y-65229647D01*
X76128004Y-65269650D01*
X76129382Y-65274390D01*
X76137364Y-65287888D01*
X76139580Y-65291634D01*
X76148138Y-65309103D01*
X76155514Y-65327732D01*
X76182898Y-65365423D01*
X76186106Y-65370307D01*
X76209827Y-65410416D01*
X76209833Y-65410424D01*
X76223990Y-65424580D01*
X76236628Y-65439376D01*
X76248405Y-65455586D01*
X76248406Y-65455587D01*
X76284309Y-65485288D01*
X76288620Y-65489210D01*
X76549882Y-65750472D01*
X76808181Y-66008771D01*
X76841666Y-66070094D01*
X76844500Y-66096452D01*
X76844500Y-66444840D01*
X76824815Y-66511879D01*
X76772011Y-66557634D01*
X76702853Y-66567578D01*
X76658500Y-66552227D01*
X76562149Y-66496599D01*
X76562143Y-66496596D01*
X76385124Y-66439080D01*
X76385122Y-66439079D01*
X76345488Y-66434913D01*
X76246411Y-66424500D01*
X76153589Y-66424500D01*
X76066895Y-66433611D01*
X76014877Y-66439079D01*
X76014875Y-66439080D01*
X75837856Y-66496596D01*
X75837850Y-66496599D01*
X75676650Y-66589668D01*
X75538324Y-66714215D01*
X75538322Y-66714218D01*
X75428909Y-66864811D01*
X75353201Y-67034852D01*
X75353199Y-67034858D01*
X75314500Y-67216930D01*
X75314500Y-67403069D01*
X75353199Y-67585141D01*
X75353201Y-67585147D01*
X75376783Y-67638111D01*
X75421900Y-67739445D01*
X75428910Y-67755188D01*
X75428909Y-67755188D01*
X75451856Y-67786771D01*
X75538320Y-67905779D01*
X75538321Y-67905780D01*
X75538322Y-67905781D01*
X75538324Y-67905784D01*
X75622469Y-67981547D01*
X75676649Y-68030331D01*
X75837851Y-68123401D01*
X75837853Y-68123401D01*
X75837856Y-68123403D01*
X75911288Y-68147262D01*
X76014880Y-68180921D01*
X76153589Y-68195500D01*
X76153594Y-68195500D01*
X76246406Y-68195500D01*
X76246411Y-68195500D01*
X76385120Y-68180921D01*
X76562149Y-68123401D01*
X76658502Y-68067771D01*
X76726400Y-68051299D01*
X76792427Y-68074151D01*
X76835617Y-68129073D01*
X76844500Y-68175159D01*
X76844500Y-71433479D01*
X76824815Y-71500518D01*
X76779519Y-71542533D01*
X76646496Y-71614522D01*
X76646494Y-71614523D01*
X76450257Y-71767261D01*
X76281833Y-71950217D01*
X76145826Y-72158393D01*
X76045936Y-72386118D01*
X75984892Y-72627175D01*
X75984890Y-72627187D01*
X75964357Y-72874994D01*
X75964357Y-72875005D01*
X75984890Y-73122812D01*
X75984892Y-73122824D01*
X76045936Y-73363881D01*
X76145826Y-73591606D01*
X76281833Y-73799782D01*
X76281836Y-73799785D01*
X76450256Y-73982738D01*
X76572764Y-74078090D01*
X76646488Y-74135472D01*
X76646493Y-74135475D01*
X76779517Y-74207464D01*
X76829108Y-74256683D01*
X76844500Y-74316519D01*
X76844500Y-77933479D01*
X76824815Y-78000518D01*
X76779519Y-78042533D01*
X76646496Y-78114522D01*
X76646494Y-78114523D01*
X76450257Y-78267261D01*
X76281833Y-78450217D01*
X76145826Y-78658393D01*
X76045936Y-78886118D01*
X75984892Y-79127175D01*
X75984890Y-79127187D01*
X75964357Y-79374994D01*
X75964357Y-79375005D01*
X75984890Y-79622812D01*
X75984892Y-79622824D01*
X76045936Y-79863881D01*
X76145826Y-80091606D01*
X76281833Y-80299782D01*
X76281836Y-80299785D01*
X76450256Y-80482738D01*
X76646491Y-80635474D01*
X76865190Y-80753828D01*
X77100386Y-80834571D01*
X77345665Y-80875500D01*
X77594335Y-80875500D01*
X77839614Y-80834571D01*
X78074810Y-80753828D01*
X78293509Y-80635474D01*
X78489744Y-80482738D01*
X78658164Y-80299785D01*
X78794173Y-80091607D01*
X78894063Y-79863881D01*
X78955108Y-79622821D01*
X78959915Y-79564809D01*
X78975643Y-79375005D01*
X78975643Y-79374994D01*
X78955109Y-79127187D01*
X78955107Y-79127175D01*
X78894063Y-78886118D01*
X78794173Y-78658393D01*
X78658166Y-78450217D01*
X78570512Y-78355000D01*
X78489744Y-78267262D01*
X78293509Y-78114526D01*
X78293508Y-78114525D01*
X78293505Y-78114523D01*
X78293503Y-78114522D01*
X78160481Y-78042533D01*
X78110891Y-77993313D01*
X78095500Y-77933479D01*
X78095500Y-74316519D01*
X78115185Y-74249480D01*
X78160483Y-74207464D01*
X78161369Y-74206984D01*
X78293509Y-74135474D01*
X78489744Y-73982738D01*
X78658164Y-73799785D01*
X78794173Y-73591607D01*
X78894063Y-73363881D01*
X78955108Y-73122821D01*
X78956391Y-73107336D01*
X78975643Y-72875005D01*
X78975643Y-72874994D01*
X78955109Y-72627187D01*
X78955107Y-72627175D01*
X78894063Y-72386118D01*
X78794173Y-72158393D01*
X78658166Y-71950217D01*
X78608538Y-71896307D01*
X78489744Y-71767262D01*
X78293509Y-71614526D01*
X78293508Y-71614525D01*
X78293505Y-71614523D01*
X78293503Y-71614522D01*
X78160481Y-71542533D01*
X78110891Y-71493313D01*
X78095500Y-71433479D01*
X78095500Y-70714812D01*
X78115185Y-70647773D01*
X78167989Y-70602018D01*
X78237147Y-70592074D01*
X78300703Y-70621099D01*
X78307181Y-70627131D01*
X78360122Y-70680072D01*
X78505604Y-70768019D01*
X78505603Y-70768019D01*
X78667894Y-70818590D01*
X78667893Y-70818590D01*
X78738408Y-70824998D01*
X78738426Y-70824999D01*
X79245000Y-70824999D01*
X79251581Y-70824999D01*
X79322102Y-70818591D01*
X79322107Y-70818590D01*
X79484396Y-70768018D01*
X79629877Y-70680072D01*
X79629878Y-70680071D01*
X79731963Y-70577985D01*
X79793286Y-70544499D01*
X79862977Y-70549483D01*
X79907326Y-70577983D01*
X79983182Y-70653839D01*
X80016666Y-70715160D01*
X80019500Y-70741519D01*
X80019500Y-71467255D01*
X80017775Y-71482872D01*
X80018061Y-71482899D01*
X80017326Y-71490665D01*
X80019500Y-71559814D01*
X80019500Y-71589343D01*
X80019501Y-71589360D01*
X80020368Y-71596231D01*
X80020826Y-71602050D01*
X80022290Y-71648624D01*
X80022291Y-71648627D01*
X80027880Y-71667867D01*
X80031824Y-71686911D01*
X80034336Y-71706792D01*
X80045900Y-71736000D01*
X80051490Y-71750119D01*
X80053382Y-71755647D01*
X80056756Y-71767261D01*
X80066382Y-71800390D01*
X80069966Y-71806451D01*
X80076580Y-71817634D01*
X80085136Y-71835100D01*
X80092514Y-71853732D01*
X80119898Y-71891423D01*
X80123106Y-71896307D01*
X80146827Y-71936416D01*
X80146833Y-71936424D01*
X80160990Y-71950580D01*
X80173628Y-71965376D01*
X80185405Y-71981586D01*
X80185406Y-71981587D01*
X80221309Y-72011288D01*
X80225620Y-72015210D01*
X80368803Y-72158393D01*
X80506338Y-72295928D01*
X80539823Y-72357251D01*
X80538863Y-72414049D01*
X80484892Y-72627174D01*
X80484890Y-72627187D01*
X80464357Y-72874994D01*
X80464357Y-72875005D01*
X80484890Y-73122812D01*
X80484892Y-73122824D01*
X80545936Y-73363881D01*
X80645826Y-73591606D01*
X80781833Y-73799782D01*
X80781836Y-73799785D01*
X80950256Y-73982738D01*
X81072764Y-74078090D01*
X81146488Y-74135472D01*
X81146493Y-74135475D01*
X81279517Y-74207464D01*
X81329108Y-74256683D01*
X81344500Y-74316519D01*
X81344500Y-77933479D01*
X81324815Y-78000518D01*
X81279519Y-78042533D01*
X81146496Y-78114522D01*
X81146494Y-78114523D01*
X80950257Y-78267261D01*
X80781833Y-78450217D01*
X80645826Y-78658393D01*
X80545936Y-78886118D01*
X80484892Y-79127175D01*
X80484890Y-79127187D01*
X80464357Y-79374994D01*
X80464357Y-79375005D01*
X80484890Y-79622812D01*
X80484892Y-79622824D01*
X80545936Y-79863881D01*
X80645826Y-80091606D01*
X80781833Y-80299782D01*
X80781836Y-80299785D01*
X80950256Y-80482738D01*
X81146491Y-80635474D01*
X81365190Y-80753828D01*
X81600386Y-80834571D01*
X81845665Y-80875500D01*
X82094335Y-80875500D01*
X82339614Y-80834571D01*
X82574810Y-80753828D01*
X82793509Y-80635474D01*
X82989744Y-80482738D01*
X83158164Y-80299785D01*
X83294173Y-80091607D01*
X83394063Y-79863881D01*
X83455108Y-79622821D01*
X83459915Y-79564809D01*
X83475643Y-79375005D01*
X83475643Y-79374994D01*
X83455109Y-79127187D01*
X83455107Y-79127175D01*
X83394063Y-78886118D01*
X83294173Y-78658393D01*
X83158166Y-78450217D01*
X83070512Y-78355000D01*
X82989744Y-78267262D01*
X82793509Y-78114526D01*
X82793508Y-78114525D01*
X82793505Y-78114523D01*
X82793503Y-78114522D01*
X82660481Y-78042533D01*
X82610891Y-77993313D01*
X82595500Y-77933479D01*
X82595500Y-74316519D01*
X82615185Y-74249480D01*
X82660483Y-74207464D01*
X82661369Y-74206984D01*
X82793509Y-74135474D01*
X82989744Y-73982738D01*
X83158164Y-73799785D01*
X83294173Y-73591607D01*
X83394063Y-73363881D01*
X83455108Y-73122821D01*
X83456391Y-73107336D01*
X83475643Y-72875005D01*
X83475643Y-72874994D01*
X83455109Y-72627187D01*
X83455107Y-72627175D01*
X83394063Y-72386118D01*
X83294173Y-72158393D01*
X83158166Y-71950217D01*
X83108538Y-71896307D01*
X82989744Y-71767262D01*
X82793509Y-71614526D01*
X82793507Y-71614525D01*
X82793506Y-71614524D01*
X82574811Y-71496172D01*
X82574802Y-71496169D01*
X82339616Y-71415429D01*
X82094335Y-71374500D01*
X81845665Y-71374500D01*
X81600386Y-71415428D01*
X81520713Y-71442780D01*
X81450914Y-71445929D01*
X81392770Y-71413179D01*
X81306819Y-71327228D01*
X81273334Y-71265905D01*
X81270500Y-71239547D01*
X81270500Y-70741519D01*
X81290185Y-70674480D01*
X81306819Y-70653838D01*
X81308919Y-70651738D01*
X81370242Y-70618253D01*
X81439934Y-70623237D01*
X81458598Y-70632031D01*
X81462267Y-70634148D01*
X81462270Y-70634151D01*
X81579456Y-70686326D01*
X81635192Y-70711142D01*
X81635197Y-70711144D01*
X81820354Y-70750500D01*
X81820355Y-70750500D01*
X82009644Y-70750500D01*
X82009646Y-70750500D01*
X82194803Y-70711144D01*
X82367730Y-70634151D01*
X82520871Y-70522888D01*
X82647533Y-70382216D01*
X82742179Y-70218284D01*
X82800674Y-70038256D01*
X82820460Y-69850000D01*
X82800674Y-69661744D01*
X82742179Y-69481716D01*
X82647533Y-69317784D01*
X82520871Y-69177112D01*
X82520870Y-69177111D01*
X82367734Y-69065851D01*
X82367729Y-69065848D01*
X82194807Y-68988857D01*
X82194802Y-68988855D01*
X82049001Y-68957865D01*
X82009646Y-68949500D01*
X81820354Y-68949500D01*
X81787897Y-68956398D01*
X81635197Y-68988855D01*
X81635192Y-68988857D01*
X81462268Y-69065849D01*
X81458590Y-69067973D01*
X81390688Y-69084439D01*
X81324663Y-69061580D01*
X81308919Y-69048261D01*
X81280188Y-69019530D01*
X81229447Y-68988856D01*
X81134606Y-68931522D01*
X80972196Y-68880914D01*
X80972194Y-68880913D01*
X80972192Y-68880913D01*
X80922778Y-68876423D01*
X80901616Y-68874500D01*
X80388384Y-68874500D01*
X80369145Y-68876248D01*
X80317807Y-68880913D01*
X80155393Y-68931522D01*
X80009811Y-69019530D01*
X80009810Y-69019531D01*
X79907327Y-69122015D01*
X79846004Y-69155500D01*
X79776312Y-69150516D01*
X79731965Y-69122015D01*
X79629877Y-69019927D01*
X79484395Y-68931980D01*
X79484396Y-68931980D01*
X79322105Y-68881409D01*
X79322106Y-68881409D01*
X79251572Y-68875000D01*
X79245000Y-68875000D01*
X79245000Y-70824999D01*
X78738426Y-70824999D01*
X78744999Y-70824998D01*
X78745000Y-70824998D01*
X78745000Y-68875000D01*
X78744999Y-68874999D01*
X78738436Y-68875000D01*
X78738417Y-68875001D01*
X78667897Y-68881408D01*
X78667892Y-68881409D01*
X78505603Y-68931981D01*
X78360122Y-69019927D01*
X78360121Y-69019928D01*
X78307181Y-69072869D01*
X78245858Y-69106354D01*
X78176166Y-69101370D01*
X78120233Y-69059498D01*
X78095816Y-68994034D01*
X78095500Y-68985188D01*
X78095500Y-65868742D01*
X78097224Y-65853122D01*
X78096939Y-65853095D01*
X78097673Y-65845333D01*
X78095500Y-65776172D01*
X78095500Y-65746656D01*
X78095500Y-65746650D01*
X78094631Y-65739779D01*
X78094173Y-65733952D01*
X78092710Y-65687373D01*
X78087119Y-65668130D01*
X78083173Y-65649078D01*
X78080664Y-65629208D01*
X78063504Y-65585867D01*
X78061624Y-65580379D01*
X78048618Y-65535610D01*
X78038422Y-65518370D01*
X78029861Y-65500894D01*
X78022487Y-65482270D01*
X78020014Y-65478866D01*
X77995079Y-65444545D01*
X77991888Y-65439686D01*
X77987842Y-65432845D01*
X77974578Y-65410416D01*
X77968172Y-65399583D01*
X77968166Y-65399575D01*
X77954007Y-65385417D01*
X77941368Y-65370618D01*
X77933678Y-65360034D01*
X77910202Y-65294227D01*
X77910000Y-65287154D01*
X77910000Y-64756494D01*
X78014839Y-64804373D01*
X78123527Y-64820000D01*
X78196473Y-64820000D01*
X78305161Y-64804373D01*
X78410000Y-64756494D01*
X78410000Y-65560000D01*
X78969973Y-65560000D01*
X78969985Y-65559999D01*
X79072689Y-65549506D01*
X79072696Y-65549505D01*
X79239118Y-65494358D01*
X79239123Y-65494356D01*
X79388344Y-65402315D01*
X79512315Y-65278344D01*
X79604356Y-65129123D01*
X79604358Y-65129118D01*
X79659505Y-64962696D01*
X79659506Y-64962689D01*
X79669999Y-64859985D01*
X79670000Y-64859972D01*
X79670000Y-64560000D01*
X78605572Y-64560000D01*
X78628682Y-64524040D01*
X78670000Y-64383327D01*
X78670000Y-64236673D01*
X78628682Y-64095960D01*
X78605572Y-64060000D01*
X79670000Y-64060000D01*
X79670000Y-63760027D01*
X79669999Y-63760014D01*
X79659506Y-63657310D01*
X79659505Y-63657303D01*
X79604358Y-63490881D01*
X79604356Y-63490876D01*
X79512315Y-63341655D01*
X79388344Y-63217684D01*
X79239123Y-63125643D01*
X79239118Y-63125641D01*
X79072696Y-63070494D01*
X79072689Y-63070493D01*
X78969985Y-63060000D01*
X78410000Y-63060000D01*
X78410000Y-63863505D01*
X78305161Y-63815627D01*
X78196473Y-63800000D01*
X78123527Y-63800000D01*
X78014839Y-63815627D01*
X77910000Y-63863505D01*
X77910000Y-63060000D01*
X77457500Y-63060000D01*
X77390461Y-63040315D01*
X77344706Y-62987511D01*
X77333500Y-62936000D01*
X77333500Y-62612040D01*
X77353185Y-62545001D01*
X77405989Y-62499246D01*
X77475147Y-62489302D01*
X77501062Y-62495944D01*
X77565976Y-62520307D01*
X77676714Y-62540403D01*
X77787450Y-62560500D01*
X77787453Y-62560500D01*
X78476148Y-62560500D01*
X78476155Y-62560500D01*
X78644188Y-62545377D01*
X78644192Y-62545376D01*
X78861160Y-62485496D01*
X78861162Y-62485495D01*
X78861170Y-62485493D01*
X79063973Y-62387829D01*
X79246078Y-62255522D01*
X79401632Y-62092825D01*
X79468721Y-61991188D01*
X79522081Y-61946084D01*
X79572208Y-61935500D01*
X95448257Y-61935500D01*
X95463877Y-61937224D01*
X95463904Y-61936939D01*
X95471660Y-61937671D01*
X95471667Y-61937673D01*
X95540814Y-61935500D01*
X95570350Y-61935500D01*
X95577228Y-61934630D01*
X95583041Y-61934172D01*
X95629627Y-61932709D01*
X95648869Y-61927117D01*
X95667912Y-61923174D01*
X95687792Y-61920664D01*
X95731122Y-61903507D01*
X95736646Y-61901617D01*
X95740396Y-61900527D01*
X95781390Y-61888618D01*
X95798629Y-61878422D01*
X95816103Y-61869862D01*
X95834727Y-61862488D01*
X95834727Y-61862487D01*
X95834732Y-61862486D01*
X95872449Y-61835082D01*
X95877305Y-61831892D01*
X95917420Y-61808170D01*
X95931589Y-61793999D01*
X95946379Y-61781368D01*
X95962587Y-61769594D01*
X95992299Y-61733676D01*
X95996212Y-61729376D01*
X108383985Y-49341604D01*
X108445306Y-49308121D01*
X108514998Y-49313105D01*
X108570931Y-49354977D01*
X108595348Y-49420441D01*
X108595192Y-49440093D01*
X108587677Y-49525996D01*
X108587677Y-49526002D01*
X108606929Y-49746062D01*
X108606930Y-49746070D01*
X108664104Y-49959445D01*
X108664105Y-49959447D01*
X108664106Y-49959450D01*
X108730583Y-50102011D01*
X108757466Y-50159662D01*
X108757468Y-50159666D01*
X108839985Y-50277513D01*
X108862312Y-50343719D01*
X108845302Y-50411486D01*
X108826091Y-50436317D01*
X108201208Y-51061199D01*
X108188951Y-51071020D01*
X108189134Y-51071241D01*
X108183123Y-51076213D01*
X108135772Y-51126636D01*
X108114889Y-51147519D01*
X108114877Y-51147532D01*
X108110621Y-51153017D01*
X108106837Y-51157447D01*
X108074937Y-51191418D01*
X108074936Y-51191420D01*
X108065284Y-51208976D01*
X108054610Y-51225226D01*
X108042329Y-51241061D01*
X108042324Y-51241068D01*
X108023815Y-51283838D01*
X108021245Y-51289084D01*
X107998803Y-51329906D01*
X107993822Y-51349307D01*
X107987521Y-51367710D01*
X107979562Y-51386102D01*
X107979561Y-51386105D01*
X107972271Y-51432127D01*
X107971087Y-51437846D01*
X107959501Y-51482972D01*
X107959500Y-51482982D01*
X107959500Y-51503016D01*
X107957973Y-51522415D01*
X107954840Y-51542194D01*
X107954840Y-51542195D01*
X107959225Y-51588583D01*
X107959500Y-51594421D01*
X107959500Y-60873255D01*
X107957775Y-60888872D01*
X107958061Y-60888899D01*
X107957326Y-60896665D01*
X107959500Y-60965814D01*
X107959500Y-60995343D01*
X107959501Y-60995360D01*
X107960368Y-61002231D01*
X107960826Y-61008050D01*
X107962290Y-61054624D01*
X107962291Y-61054627D01*
X107967880Y-61073867D01*
X107971824Y-61092911D01*
X107974336Y-61112792D01*
X107991490Y-61156119D01*
X107993382Y-61161647D01*
X108006381Y-61206388D01*
X108016580Y-61223634D01*
X108025138Y-61241103D01*
X108032514Y-61259732D01*
X108059898Y-61297423D01*
X108063106Y-61302307D01*
X108086827Y-61342416D01*
X108086833Y-61342424D01*
X108100990Y-61356580D01*
X108113627Y-61371375D01*
X108125406Y-61387587D01*
X108157896Y-61414465D01*
X108161309Y-61417288D01*
X108165620Y-61421210D01*
X108487728Y-61743319D01*
X108521213Y-61804641D01*
X108516229Y-61874333D01*
X108487728Y-61918680D01*
X100078794Y-70327613D01*
X100017471Y-70361098D01*
X99959020Y-70359707D01*
X99915068Y-70347930D01*
X99805034Y-70338303D01*
X99695002Y-70328677D01*
X99694998Y-70328677D01*
X99474937Y-70347929D01*
X99474929Y-70347930D01*
X99261554Y-70405104D01*
X99261548Y-70405107D01*
X99061340Y-70498465D01*
X99061338Y-70498466D01*
X98880377Y-70625175D01*
X98724175Y-70781377D01*
X98597466Y-70962338D01*
X98597465Y-70962340D01*
X98537382Y-71091189D01*
X98491209Y-71143628D01*
X98424016Y-71162780D01*
X98357135Y-71142564D01*
X98312618Y-71091189D01*
X98274858Y-71010213D01*
X98252534Y-70962339D01*
X98156368Y-70824999D01*
X98125827Y-70781381D01*
X98048828Y-70704382D01*
X97969620Y-70625174D01*
X97969616Y-70625171D01*
X97969615Y-70625170D01*
X97788666Y-70498468D01*
X97788662Y-70498466D01*
X97748345Y-70479666D01*
X97588450Y-70405106D01*
X97588447Y-70405105D01*
X97588445Y-70405104D01*
X97375070Y-70347930D01*
X97375062Y-70347929D01*
X97155002Y-70328677D01*
X97154998Y-70328677D01*
X96934937Y-70347929D01*
X96934929Y-70347930D01*
X96721554Y-70405104D01*
X96721548Y-70405107D01*
X96521340Y-70498465D01*
X96521338Y-70498466D01*
X96340377Y-70625175D01*
X96184175Y-70781377D01*
X96057466Y-70962338D01*
X96057465Y-70962340D01*
X95997382Y-71091189D01*
X95951209Y-71143628D01*
X95884016Y-71162780D01*
X95817135Y-71142564D01*
X95772618Y-71091189D01*
X95734858Y-71010213D01*
X95712534Y-70962339D01*
X95616368Y-70824999D01*
X95585827Y-70781381D01*
X95508828Y-70704382D01*
X95429620Y-70625174D01*
X95429616Y-70625171D01*
X95429615Y-70625170D01*
X95248666Y-70498468D01*
X95248662Y-70498466D01*
X95208345Y-70479666D01*
X95048450Y-70405106D01*
X95048447Y-70405105D01*
X95048445Y-70405104D01*
X94835070Y-70347930D01*
X94835062Y-70347929D01*
X94615002Y-70328677D01*
X94614998Y-70328677D01*
X94394937Y-70347929D01*
X94394929Y-70347930D01*
X94181554Y-70405104D01*
X94181548Y-70405107D01*
X93981340Y-70498465D01*
X93981338Y-70498466D01*
X93800377Y-70625175D01*
X93644175Y-70781377D01*
X93517466Y-70962338D01*
X93517465Y-70962340D01*
X93457382Y-71091189D01*
X93411209Y-71143628D01*
X93344016Y-71162780D01*
X93277135Y-71142564D01*
X93232618Y-71091189D01*
X93194858Y-71010213D01*
X93172534Y-70962339D01*
X93076368Y-70824999D01*
X93045827Y-70781381D01*
X92968828Y-70704382D01*
X92889620Y-70625174D01*
X92889616Y-70625171D01*
X92889615Y-70625170D01*
X92708666Y-70498468D01*
X92708662Y-70498466D01*
X92668345Y-70479666D01*
X92508450Y-70405106D01*
X92508447Y-70405105D01*
X92508445Y-70405104D01*
X92295070Y-70347930D01*
X92295062Y-70347929D01*
X92075002Y-70328677D01*
X92074998Y-70328677D01*
X91854937Y-70347929D01*
X91854929Y-70347930D01*
X91641554Y-70405104D01*
X91641548Y-70405107D01*
X91441340Y-70498465D01*
X91441338Y-70498466D01*
X91260377Y-70625175D01*
X91104175Y-70781377D01*
X91022575Y-70897916D01*
X90967998Y-70941541D01*
X90898500Y-70948735D01*
X90836145Y-70917212D01*
X90800731Y-70856983D01*
X90797000Y-70826793D01*
X90797000Y-70786172D01*
X90796999Y-70786155D01*
X90790598Y-70726627D01*
X90790596Y-70726620D01*
X90740354Y-70591913D01*
X90740350Y-70591906D01*
X90654190Y-70476812D01*
X90654187Y-70476809D01*
X90539093Y-70390649D01*
X90539086Y-70390645D01*
X90404379Y-70340403D01*
X90404372Y-70340401D01*
X90344844Y-70334000D01*
X89785000Y-70334000D01*
X89785000Y-71307779D01*
X89718843Y-71256287D01*
X89598578Y-71215000D01*
X89503431Y-71215000D01*
X89409579Y-71230661D01*
X89297749Y-71291180D01*
X89285000Y-71305029D01*
X89285000Y-70334000D01*
X88725155Y-70334000D01*
X88665627Y-70340401D01*
X88665620Y-70340403D01*
X88530913Y-70390645D01*
X88530906Y-70390649D01*
X88415812Y-70476809D01*
X88415809Y-70476812D01*
X88329649Y-70591906D01*
X88329645Y-70591913D01*
X88279403Y-70726620D01*
X88279401Y-70726627D01*
X88273000Y-70786155D01*
X88273000Y-71346000D01*
X89247283Y-71346000D01*
X89211629Y-71384731D01*
X89160552Y-71501177D01*
X89150051Y-71627898D01*
X89181266Y-71751162D01*
X89243227Y-71846000D01*
X88273000Y-71846000D01*
X88273000Y-72405844D01*
X88279401Y-72465372D01*
X88279403Y-72465379D01*
X88329645Y-72600086D01*
X88329649Y-72600093D01*
X88415809Y-72715187D01*
X88415812Y-72715190D01*
X88530906Y-72801350D01*
X88530913Y-72801354D01*
X88665620Y-72851596D01*
X88665627Y-72851598D01*
X88725155Y-72857999D01*
X88725172Y-72858000D01*
X89285000Y-72858000D01*
X89285000Y-71884220D01*
X89351157Y-71935713D01*
X89471422Y-71977000D01*
X89566569Y-71977000D01*
X89660421Y-71961339D01*
X89772251Y-71900820D01*
X89785000Y-71886970D01*
X89785000Y-72858000D01*
X90344828Y-72858000D01*
X90344844Y-72857999D01*
X90404372Y-72851598D01*
X90404379Y-72851596D01*
X90539086Y-72801354D01*
X90539093Y-72801350D01*
X90654187Y-72715190D01*
X90654190Y-72715187D01*
X90740350Y-72600093D01*
X90740354Y-72600086D01*
X90790596Y-72465379D01*
X90790598Y-72465372D01*
X90796999Y-72405844D01*
X90797000Y-72405827D01*
X90797000Y-72365207D01*
X90816685Y-72298168D01*
X90869489Y-72252413D01*
X90938647Y-72242469D01*
X91002203Y-72271494D01*
X91022573Y-72294082D01*
X91036780Y-72314371D01*
X91104170Y-72410615D01*
X91104175Y-72410621D01*
X91260378Y-72566824D01*
X91260384Y-72566829D01*
X91441333Y-72693531D01*
X91441335Y-72693532D01*
X91441338Y-72693534D01*
X91641550Y-72786894D01*
X91854932Y-72844070D01*
X92012123Y-72857822D01*
X92074998Y-72863323D01*
X92075000Y-72863323D01*
X92075002Y-72863323D01*
X92130017Y-72858509D01*
X92295068Y-72844070D01*
X92508450Y-72786894D01*
X92708662Y-72693534D01*
X92889620Y-72566826D01*
X93045826Y-72410620D01*
X93172534Y-72229662D01*
X93232618Y-72100811D01*
X93278790Y-72048371D01*
X93345983Y-72029219D01*
X93412865Y-72049435D01*
X93457382Y-72100811D01*
X93517464Y-72229658D01*
X93517468Y-72229666D01*
X93644170Y-72410615D01*
X93644175Y-72410621D01*
X93800378Y-72566824D01*
X93800384Y-72566829D01*
X93981333Y-72693531D01*
X93981335Y-72693532D01*
X93981338Y-72693534D01*
X94181550Y-72786894D01*
X94394932Y-72844070D01*
X94552123Y-72857822D01*
X94614998Y-72863323D01*
X94615000Y-72863323D01*
X94615002Y-72863323D01*
X94645502Y-72860654D01*
X94835068Y-72844070D01*
X94879019Y-72832293D01*
X94948868Y-72833954D01*
X94998795Y-72864386D01*
X95416197Y-73281788D01*
X95426022Y-73294051D01*
X95426243Y-73293869D01*
X95431214Y-73299878D01*
X95452043Y-73319437D01*
X95481635Y-73347226D01*
X95502529Y-73368120D01*
X95508011Y-73372373D01*
X95512443Y-73376157D01*
X95546418Y-73408062D01*
X95563976Y-73417714D01*
X95580233Y-73428393D01*
X95596064Y-73440673D01*
X95615737Y-73449186D01*
X95638833Y-73459182D01*
X95644077Y-73461750D01*
X95684908Y-73484197D01*
X95697523Y-73487435D01*
X95704305Y-73489177D01*
X95722719Y-73495481D01*
X95741104Y-73503438D01*
X95787157Y-73510732D01*
X95792826Y-73511906D01*
X95837981Y-73523500D01*
X95858016Y-73523500D01*
X95877413Y-73525026D01*
X95897196Y-73528160D01*
X95943584Y-73523775D01*
X95949422Y-73523500D01*
X102533257Y-73523500D01*
X102548877Y-73525224D01*
X102548904Y-73524939D01*
X102556660Y-73525671D01*
X102556667Y-73525673D01*
X102625814Y-73523500D01*
X102655350Y-73523500D01*
X102662228Y-73522630D01*
X102668041Y-73522172D01*
X102714627Y-73520709D01*
X102733869Y-73515117D01*
X102752912Y-73511174D01*
X102772792Y-73508664D01*
X102816122Y-73491507D01*
X102821646Y-73489617D01*
X102825396Y-73488527D01*
X102866390Y-73476618D01*
X102883629Y-73466422D01*
X102901103Y-73457862D01*
X102919727Y-73450488D01*
X102919727Y-73450487D01*
X102919732Y-73450486D01*
X102957449Y-73423082D01*
X102962305Y-73419892D01*
X103002420Y-73396170D01*
X103016589Y-73381999D01*
X103031379Y-73369368D01*
X103047587Y-73357594D01*
X103077299Y-73321676D01*
X103081212Y-73317376D01*
X108537306Y-67861283D01*
X108598627Y-67827800D01*
X108668319Y-67832784D01*
X108724252Y-67874656D01*
X108737366Y-67896559D01*
X108757465Y-67939660D01*
X108757468Y-67939666D01*
X108884170Y-68120615D01*
X108884175Y-68120621D01*
X109040378Y-68276824D01*
X109040384Y-68276829D01*
X109221333Y-68403531D01*
X109221335Y-68403532D01*
X109221338Y-68403534D01*
X109318294Y-68448745D01*
X109350189Y-68463618D01*
X109402628Y-68509790D01*
X109421780Y-68576984D01*
X109401564Y-68643865D01*
X109350189Y-68688382D01*
X109221340Y-68748465D01*
X109221338Y-68748466D01*
X109040377Y-68875175D01*
X108884175Y-69031377D01*
X108757466Y-69212338D01*
X108757465Y-69212340D01*
X108664107Y-69412548D01*
X108664104Y-69412554D01*
X108606930Y-69625929D01*
X108606929Y-69625937D01*
X108587677Y-69845997D01*
X108587677Y-69846002D01*
X108606929Y-70066062D01*
X108606930Y-70066070D01*
X108664104Y-70279445D01*
X108664105Y-70279447D01*
X108664106Y-70279450D01*
X108731389Y-70423740D01*
X108757466Y-70479662D01*
X108757468Y-70479666D01*
X108884170Y-70660615D01*
X108884175Y-70660621D01*
X109040378Y-70816824D01*
X109040384Y-70816829D01*
X109221333Y-70943531D01*
X109221335Y-70943532D01*
X109221338Y-70943534D01*
X109296152Y-70978420D01*
X109350189Y-71003618D01*
X109402628Y-71049790D01*
X109421780Y-71116984D01*
X109401564Y-71183865D01*
X109350189Y-71228382D01*
X109221340Y-71288465D01*
X109221338Y-71288466D01*
X109040377Y-71415175D01*
X108884175Y-71571377D01*
X108757466Y-71752338D01*
X108757465Y-71752340D01*
X108664107Y-71952548D01*
X108664104Y-71952554D01*
X108606930Y-72165929D01*
X108606929Y-72165937D01*
X108587677Y-72385997D01*
X108587677Y-72386002D01*
X108606929Y-72606062D01*
X108606930Y-72606070D01*
X108664104Y-72819445D01*
X108664105Y-72819447D01*
X108664106Y-72819450D01*
X108744101Y-72991000D01*
X108757466Y-73019662D01*
X108757468Y-73019666D01*
X108884170Y-73200615D01*
X108884175Y-73200621D01*
X109040378Y-73356824D01*
X109040384Y-73356829D01*
X109221333Y-73483531D01*
X109221335Y-73483532D01*
X109221338Y-73483534D01*
X109310743Y-73525224D01*
X109350189Y-73543618D01*
X109402628Y-73589790D01*
X109421780Y-73656984D01*
X109401564Y-73723865D01*
X109350189Y-73768382D01*
X109221340Y-73828465D01*
X109221338Y-73828466D01*
X109040377Y-73955175D01*
X108884175Y-74111377D01*
X108757466Y-74292338D01*
X108757465Y-74292340D01*
X108664107Y-74492548D01*
X108664104Y-74492554D01*
X108606930Y-74705929D01*
X108606929Y-74705937D01*
X108587677Y-74925997D01*
X108587677Y-74926002D01*
X108606929Y-75146062D01*
X108606930Y-75146070D01*
X108664104Y-75359445D01*
X108664105Y-75359447D01*
X108664106Y-75359450D01*
X108757466Y-75559662D01*
X108757468Y-75559666D01*
X108884170Y-75740615D01*
X108884175Y-75740621D01*
X109040378Y-75896824D01*
X109040384Y-75896829D01*
X109221333Y-76023531D01*
X109221335Y-76023532D01*
X109221338Y-76023534D01*
X109300134Y-76060277D01*
X109350189Y-76083618D01*
X109402628Y-76129790D01*
X109421780Y-76196984D01*
X109401564Y-76263865D01*
X109350189Y-76308382D01*
X109221340Y-76368465D01*
X109221338Y-76368466D01*
X109040377Y-76495175D01*
X108884175Y-76651377D01*
X108757466Y-76832338D01*
X108757465Y-76832340D01*
X108664107Y-77032548D01*
X108664104Y-77032554D01*
X108606930Y-77245929D01*
X108606929Y-77245937D01*
X108587677Y-77465997D01*
X108587677Y-77466002D01*
X108606929Y-77686062D01*
X108606930Y-77686070D01*
X108664104Y-77899445D01*
X108664105Y-77899447D01*
X108664106Y-77899450D01*
X108731799Y-78044618D01*
X108757466Y-78099662D01*
X108757468Y-78099666D01*
X108884170Y-78280615D01*
X108884175Y-78280621D01*
X109040378Y-78436824D01*
X109040384Y-78436829D01*
X109221333Y-78563531D01*
X109221335Y-78563532D01*
X109221338Y-78563534D01*
X109421550Y-78656894D01*
X109634932Y-78714070D01*
X109792123Y-78727822D01*
X109854998Y-78733323D01*
X109855000Y-78733323D01*
X109855002Y-78733323D01*
X109910017Y-78728509D01*
X110075068Y-78714070D01*
X110288450Y-78656894D01*
X110488662Y-78563534D01*
X110669620Y-78436826D01*
X110825826Y-78280620D01*
X110921225Y-78144376D01*
X110975802Y-78100752D01*
X111022800Y-78091500D01*
X118029006Y-78091500D01*
X118044626Y-78093224D01*
X118044653Y-78092939D01*
X118052409Y-78093671D01*
X118052416Y-78093673D01*
X118121563Y-78091500D01*
X118151099Y-78091500D01*
X118157977Y-78090630D01*
X118163788Y-78090172D01*
X118204315Y-78088899D01*
X118271939Y-78106469D01*
X118319329Y-78157810D01*
X118331439Y-78226622D01*
X118304424Y-78291058D01*
X118295889Y-78300519D01*
X111406228Y-85190181D01*
X111344905Y-85223666D01*
X111318547Y-85226500D01*
X107574227Y-85226500D01*
X107507188Y-85206815D01*
X107472652Y-85173623D01*
X107337494Y-84980597D01*
X107170402Y-84813506D01*
X107170396Y-84813501D01*
X106984842Y-84683575D01*
X106941217Y-84628998D01*
X106934023Y-84559500D01*
X106965546Y-84497145D01*
X106984842Y-84480425D01*
X107007026Y-84464891D01*
X107170401Y-84350495D01*
X107337495Y-84183401D01*
X107473035Y-83989830D01*
X107572903Y-83775663D01*
X107634063Y-83547408D01*
X107654659Y-83312000D01*
X107634063Y-83076592D01*
X107572903Y-82848337D01*
X107473035Y-82634171D01*
X107445815Y-82595297D01*
X107337496Y-82440600D01*
X107292005Y-82395109D01*
X107215179Y-82318283D01*
X107181696Y-82256963D01*
X107186680Y-82187271D01*
X107228551Y-82131337D01*
X107259529Y-82114422D01*
X107391086Y-82065354D01*
X107391093Y-82065350D01*
X107506187Y-81979190D01*
X107506190Y-81979187D01*
X107592350Y-81864093D01*
X107592354Y-81864086D01*
X107642596Y-81729379D01*
X107642598Y-81729372D01*
X107648999Y-81669844D01*
X107649000Y-81669827D01*
X107649000Y-81022000D01*
X106732686Y-81022000D01*
X106758493Y-80981844D01*
X106799000Y-80843889D01*
X106799000Y-80700111D01*
X106758493Y-80562156D01*
X106732686Y-80522000D01*
X107649000Y-80522000D01*
X107649000Y-79874172D01*
X107648999Y-79874155D01*
X107642598Y-79814627D01*
X107642596Y-79814620D01*
X107592354Y-79679913D01*
X107592350Y-79679906D01*
X107506190Y-79564812D01*
X107506187Y-79564809D01*
X107391093Y-79478649D01*
X107391086Y-79478645D01*
X107256379Y-79428403D01*
X107256372Y-79428401D01*
X107196844Y-79422000D01*
X106549000Y-79422000D01*
X106549000Y-80336498D01*
X106441315Y-80287320D01*
X106334763Y-80272000D01*
X106263237Y-80272000D01*
X106156685Y-80287320D01*
X106049000Y-80336498D01*
X106049000Y-79422000D01*
X105401155Y-79422000D01*
X105341627Y-79428401D01*
X105341620Y-79428403D01*
X105206913Y-79478645D01*
X105206906Y-79478649D01*
X105091812Y-79564809D01*
X105091809Y-79564812D01*
X105005649Y-79679906D01*
X105005645Y-79679913D01*
X104955403Y-79814620D01*
X104955401Y-79814627D01*
X104949000Y-79874155D01*
X104949000Y-80522000D01*
X105865314Y-80522000D01*
X105839507Y-80562156D01*
X105799000Y-80700111D01*
X105799000Y-80843889D01*
X105839507Y-80981844D01*
X105865314Y-81022000D01*
X104949000Y-81022000D01*
X104949000Y-81669844D01*
X104955401Y-81729372D01*
X104955403Y-81729379D01*
X105005645Y-81864086D01*
X105005649Y-81864093D01*
X105091809Y-81979187D01*
X105091812Y-81979190D01*
X105206906Y-82065350D01*
X105206913Y-82065354D01*
X105338470Y-82114421D01*
X105394403Y-82156292D01*
X105418821Y-82221756D01*
X105403970Y-82290029D01*
X105382819Y-82318284D01*
X105260503Y-82440600D01*
X105124965Y-82634169D01*
X105124964Y-82634171D01*
X105025098Y-82848335D01*
X105025094Y-82848344D01*
X104963938Y-83076586D01*
X104963936Y-83076596D01*
X104943341Y-83311999D01*
X104943341Y-83312000D01*
X104963936Y-83547403D01*
X104963938Y-83547413D01*
X105025094Y-83775655D01*
X105025096Y-83775659D01*
X105025097Y-83775663D01*
X105124965Y-83989830D01*
X105124967Y-83989834D01*
X105260501Y-84183395D01*
X105260506Y-84183402D01*
X105427597Y-84350493D01*
X105427603Y-84350498D01*
X105613158Y-84480425D01*
X105656783Y-84535002D01*
X105663977Y-84604500D01*
X105632454Y-84666855D01*
X105613158Y-84683575D01*
X105427597Y-84813505D01*
X105260505Y-84980597D01*
X105124965Y-85174169D01*
X105124964Y-85174171D01*
X105025098Y-85388335D01*
X105025094Y-85388344D01*
X104963938Y-85616586D01*
X104963936Y-85616596D01*
X104943341Y-85851999D01*
X104943341Y-85852388D01*
X104943292Y-85852553D01*
X104942869Y-85857394D01*
X104941896Y-85857308D01*
X104923656Y-85919427D01*
X104870852Y-85965182D01*
X104801694Y-85975126D01*
X104738138Y-85946101D01*
X104731660Y-85940069D01*
X103658819Y-84867228D01*
X103625334Y-84805905D01*
X103622500Y-84779547D01*
X103622500Y-77208499D01*
X103642185Y-77141460D01*
X103694989Y-77095705D01*
X103746500Y-77084499D01*
X103806871Y-77084499D01*
X103806872Y-77084499D01*
X103866483Y-77078091D01*
X104001331Y-77027796D01*
X104116546Y-76941546D01*
X104202796Y-76826331D01*
X104253091Y-76691483D01*
X104259500Y-76631873D01*
X104259499Y-75012128D01*
X104253091Y-74952517D01*
X104247858Y-74938487D01*
X104202797Y-74817671D01*
X104202793Y-74817664D01*
X104116547Y-74702455D01*
X104116544Y-74702452D01*
X104001335Y-74616206D01*
X104001328Y-74616202D01*
X103866482Y-74565908D01*
X103866483Y-74565908D01*
X103806883Y-74559501D01*
X103806881Y-74559500D01*
X103806873Y-74559500D01*
X103806864Y-74559500D01*
X102187129Y-74559500D01*
X102187123Y-74559501D01*
X102127516Y-74565908D01*
X101992671Y-74616202D01*
X101992664Y-74616206D01*
X101877455Y-74702452D01*
X101877452Y-74702455D01*
X101791206Y-74817664D01*
X101791202Y-74817671D01*
X101740908Y-74952517D01*
X101735010Y-75007380D01*
X101734501Y-75012123D01*
X101734500Y-75012135D01*
X101734500Y-75052951D01*
X101714815Y-75119990D01*
X101662011Y-75165745D01*
X101592853Y-75175689D01*
X101529297Y-75146664D01*
X101508926Y-75124075D01*
X101508741Y-75123811D01*
X101508740Y-75123811D01*
X100841903Y-75790648D01*
X100841949Y-75790102D01*
X100810734Y-75666838D01*
X100741187Y-75560388D01*
X100640843Y-75482287D01*
X100520578Y-75441000D01*
X100484447Y-75441000D01*
X101155187Y-74770258D01*
X101090409Y-74724900D01*
X101090407Y-74724899D01*
X100890284Y-74631580D01*
X100890270Y-74631575D01*
X100676986Y-74574426D01*
X100676976Y-74574424D01*
X100457001Y-74555179D01*
X100456999Y-74555179D01*
X100237023Y-74574424D01*
X100237013Y-74574426D01*
X100023729Y-74631575D01*
X100023720Y-74631579D01*
X99823586Y-74724903D01*
X99758812Y-74770257D01*
X99758811Y-74770258D01*
X100429554Y-75441000D01*
X100425431Y-75441000D01*
X100331579Y-75456661D01*
X100219749Y-75517180D01*
X100133629Y-75610731D01*
X100082552Y-75727177D01*
X100076894Y-75795447D01*
X99405258Y-75123811D01*
X99405257Y-75123812D01*
X99359903Y-75188586D01*
X99299658Y-75317781D01*
X99253485Y-75370220D01*
X99186292Y-75389372D01*
X99119411Y-75369156D01*
X99074894Y-75317781D01*
X99014534Y-75188340D01*
X99014533Y-75188338D01*
X98998713Y-75165745D01*
X98896040Y-75019111D01*
X98887827Y-75007381D01*
X98818933Y-74938487D01*
X98731620Y-74851174D01*
X98731616Y-74851171D01*
X98731615Y-74851170D01*
X98550666Y-74724468D01*
X98550662Y-74724466D01*
X98510926Y-74705937D01*
X98350450Y-74631106D01*
X98350447Y-74631105D01*
X98350445Y-74631104D01*
X98137070Y-74573930D01*
X98137062Y-74573929D01*
X97917002Y-74554677D01*
X97916998Y-74554677D01*
X97696937Y-74573929D01*
X97696929Y-74573930D01*
X97483554Y-74631104D01*
X97483548Y-74631107D01*
X97283340Y-74724465D01*
X97283338Y-74724466D01*
X97102377Y-74851175D01*
X96946175Y-75007377D01*
X96819466Y-75188338D01*
X96819465Y-75188340D01*
X96759382Y-75317189D01*
X96713209Y-75369628D01*
X96646016Y-75388780D01*
X96579135Y-75368564D01*
X96534618Y-75317189D01*
X96474534Y-75188340D01*
X96474533Y-75188338D01*
X96458713Y-75165745D01*
X96356040Y-75019111D01*
X96347827Y-75007381D01*
X96278933Y-74938487D01*
X96191620Y-74851174D01*
X96191616Y-74851171D01*
X96191615Y-74851170D01*
X96010666Y-74724468D01*
X96010662Y-74724466D01*
X95970926Y-74705937D01*
X95810450Y-74631106D01*
X95810447Y-74631105D01*
X95810445Y-74631104D01*
X95597070Y-74573930D01*
X95597062Y-74573929D01*
X95377002Y-74554677D01*
X95376998Y-74554677D01*
X95156937Y-74573929D01*
X95156929Y-74573930D01*
X94943554Y-74631104D01*
X94943548Y-74631107D01*
X94743340Y-74724465D01*
X94743338Y-74724466D01*
X94562377Y-74851175D01*
X94406175Y-75007377D01*
X94279466Y-75188338D01*
X94279465Y-75188340D01*
X94219382Y-75317189D01*
X94173209Y-75369628D01*
X94106016Y-75388780D01*
X94039135Y-75368564D01*
X93994618Y-75317189D01*
X93934534Y-75188340D01*
X93934533Y-75188338D01*
X93918713Y-75165745D01*
X93816040Y-75019111D01*
X93807827Y-75007381D01*
X93738933Y-74938487D01*
X93651620Y-74851174D01*
X93651616Y-74851171D01*
X93651615Y-74851170D01*
X93470666Y-74724468D01*
X93470662Y-74724466D01*
X93430926Y-74705937D01*
X93270450Y-74631106D01*
X93270447Y-74631105D01*
X93270445Y-74631104D01*
X93057070Y-74573930D01*
X93057062Y-74573929D01*
X92837002Y-74554677D01*
X92836998Y-74554677D01*
X92616937Y-74573929D01*
X92616929Y-74573930D01*
X92403554Y-74631104D01*
X92403548Y-74631107D01*
X92203340Y-74724465D01*
X92203338Y-74724466D01*
X92022377Y-74851175D01*
X91866175Y-75007377D01*
X91739466Y-75188338D01*
X91739465Y-75188340D01*
X91679382Y-75317189D01*
X91633209Y-75369628D01*
X91566016Y-75388780D01*
X91499135Y-75368564D01*
X91454618Y-75317189D01*
X91394534Y-75188340D01*
X91394533Y-75188338D01*
X91378713Y-75165745D01*
X91276040Y-75019111D01*
X91267827Y-75007381D01*
X91198933Y-74938487D01*
X91111620Y-74851174D01*
X91111616Y-74851171D01*
X91111615Y-74851170D01*
X90930666Y-74724468D01*
X90930662Y-74724466D01*
X90890926Y-74705937D01*
X90730450Y-74631106D01*
X90730447Y-74631105D01*
X90730445Y-74631104D01*
X90517070Y-74573930D01*
X90517062Y-74573929D01*
X90297002Y-74554677D01*
X90296998Y-74554677D01*
X90076937Y-74573929D01*
X90076929Y-74573930D01*
X89863554Y-74631104D01*
X89863548Y-74631107D01*
X89663340Y-74724465D01*
X89663338Y-74724466D01*
X89482377Y-74851175D01*
X89326175Y-75007377D01*
X89199466Y-75188338D01*
X89199465Y-75188340D01*
X89139382Y-75317189D01*
X89093209Y-75369628D01*
X89026016Y-75388780D01*
X88959135Y-75368564D01*
X88914618Y-75317189D01*
X88854534Y-75188340D01*
X88854533Y-75188338D01*
X88838713Y-75165745D01*
X88736040Y-75019111D01*
X88727827Y-75007381D01*
X88658933Y-74938487D01*
X88571620Y-74851174D01*
X88571616Y-74851171D01*
X88571615Y-74851170D01*
X88390666Y-74724468D01*
X88390662Y-74724466D01*
X88350926Y-74705937D01*
X88190450Y-74631106D01*
X88190447Y-74631105D01*
X88190445Y-74631104D01*
X87977070Y-74573930D01*
X87977062Y-74573929D01*
X87757002Y-74554677D01*
X87756998Y-74554677D01*
X87536937Y-74573929D01*
X87536929Y-74573930D01*
X87323554Y-74631104D01*
X87323548Y-74631107D01*
X87123340Y-74724465D01*
X87123338Y-74724466D01*
X86942377Y-74851175D01*
X86786175Y-75007377D01*
X86659466Y-75188338D01*
X86659465Y-75188340D01*
X86599382Y-75317189D01*
X86553209Y-75369628D01*
X86486016Y-75388780D01*
X86419135Y-75368564D01*
X86374618Y-75317189D01*
X86314534Y-75188340D01*
X86314533Y-75188338D01*
X86298713Y-75165745D01*
X86196040Y-75019111D01*
X86187827Y-75007381D01*
X86118933Y-74938487D01*
X86031620Y-74851174D01*
X86031616Y-74851171D01*
X86031615Y-74851170D01*
X85850666Y-74724468D01*
X85850662Y-74724466D01*
X85810926Y-74705937D01*
X85650450Y-74631106D01*
X85650447Y-74631105D01*
X85650445Y-74631104D01*
X85437070Y-74573930D01*
X85437062Y-74573929D01*
X85217002Y-74554677D01*
X85216998Y-74554677D01*
X84996937Y-74573929D01*
X84996929Y-74573930D01*
X84783554Y-74631104D01*
X84783548Y-74631107D01*
X84583340Y-74724465D01*
X84583338Y-74724466D01*
X84402377Y-74851175D01*
X84246175Y-75007377D01*
X84119466Y-75188338D01*
X84119465Y-75188340D01*
X84026107Y-75388548D01*
X84026104Y-75388554D01*
X83968930Y-75601929D01*
X83968929Y-75601937D01*
X83949677Y-75821997D01*
X83949677Y-75822002D01*
X83968929Y-76042062D01*
X83968930Y-76042070D01*
X84026104Y-76255445D01*
X84026105Y-76255447D01*
X84026106Y-76255450D01*
X84077138Y-76364888D01*
X84119466Y-76455662D01*
X84119468Y-76455666D01*
X84246170Y-76636615D01*
X84246175Y-76636621D01*
X84402378Y-76792824D01*
X84402384Y-76792829D01*
X84583333Y-76919531D01*
X84583335Y-76919532D01*
X84583338Y-76919534D01*
X84783550Y-77012894D01*
X84996932Y-77070070D01*
X85154123Y-77083822D01*
X85216998Y-77089323D01*
X85217000Y-77089323D01*
X85217002Y-77089323D01*
X85272151Y-77084498D01*
X85437068Y-77070070D01*
X85650450Y-77012894D01*
X85850662Y-76919534D01*
X86031620Y-76792826D01*
X86187826Y-76636620D01*
X86314534Y-76455662D01*
X86374618Y-76326811D01*
X86420790Y-76274371D01*
X86487983Y-76255219D01*
X86554865Y-76275435D01*
X86599382Y-76326811D01*
X86659464Y-76455658D01*
X86659468Y-76455666D01*
X86786170Y-76636615D01*
X86786175Y-76636621D01*
X86942378Y-76792824D01*
X86942384Y-76792829D01*
X87123333Y-76919531D01*
X87123335Y-76919532D01*
X87123338Y-76919534D01*
X87323550Y-77012894D01*
X87536932Y-77070070D01*
X87694123Y-77083822D01*
X87756998Y-77089323D01*
X87757000Y-77089323D01*
X87757002Y-77089323D01*
X87812151Y-77084498D01*
X87977068Y-77070070D01*
X88190450Y-77012894D01*
X88390662Y-76919534D01*
X88571620Y-76792826D01*
X88727826Y-76636620D01*
X88854534Y-76455662D01*
X88914618Y-76326811D01*
X88960790Y-76274371D01*
X89027983Y-76255219D01*
X89094865Y-76275435D01*
X89139382Y-76326811D01*
X89199464Y-76455658D01*
X89199468Y-76455666D01*
X89326170Y-76636615D01*
X89326175Y-76636621D01*
X89482378Y-76792824D01*
X89482384Y-76792829D01*
X89663333Y-76919531D01*
X89663335Y-76919532D01*
X89663338Y-76919534D01*
X89863550Y-77012894D01*
X90076932Y-77070070D01*
X90234123Y-77083822D01*
X90296998Y-77089323D01*
X90297000Y-77089323D01*
X90297002Y-77089323D01*
X90352151Y-77084498D01*
X90517068Y-77070070D01*
X90730450Y-77012894D01*
X90930662Y-76919534D01*
X91111620Y-76792826D01*
X91267826Y-76636620D01*
X91394534Y-76455662D01*
X91454618Y-76326811D01*
X91500790Y-76274371D01*
X91567983Y-76255219D01*
X91634865Y-76275435D01*
X91679382Y-76326811D01*
X91739464Y-76455658D01*
X91739468Y-76455666D01*
X91866170Y-76636615D01*
X91866175Y-76636621D01*
X92022378Y-76792824D01*
X92022384Y-76792829D01*
X92203333Y-76919531D01*
X92203335Y-76919532D01*
X92203338Y-76919534D01*
X92403550Y-77012894D01*
X92616932Y-77070070D01*
X92774123Y-77083822D01*
X92836998Y-77089323D01*
X92837000Y-77089323D01*
X92837002Y-77089323D01*
X92892151Y-77084498D01*
X93057068Y-77070070D01*
X93270450Y-77012894D01*
X93470662Y-76919534D01*
X93651620Y-76792826D01*
X93807826Y-76636620D01*
X93934534Y-76455662D01*
X93994618Y-76326811D01*
X94040790Y-76274371D01*
X94107983Y-76255219D01*
X94174865Y-76275435D01*
X94219382Y-76326811D01*
X94279464Y-76455658D01*
X94279468Y-76455666D01*
X94406170Y-76636615D01*
X94406175Y-76636621D01*
X94562378Y-76792824D01*
X94562384Y-76792829D01*
X94743333Y-76919531D01*
X94743335Y-76919532D01*
X94743338Y-76919534D01*
X94943550Y-77012894D01*
X95156932Y-77070070D01*
X95314123Y-77083822D01*
X95376998Y-77089323D01*
X95377000Y-77089323D01*
X95377002Y-77089323D01*
X95432151Y-77084498D01*
X95597068Y-77070070D01*
X95810450Y-77012894D01*
X96010662Y-76919534D01*
X96191620Y-76792826D01*
X96347826Y-76636620D01*
X96474534Y-76455662D01*
X96534618Y-76326811D01*
X96580790Y-76274371D01*
X96647983Y-76255219D01*
X96714865Y-76275435D01*
X96759382Y-76326811D01*
X96819464Y-76455658D01*
X96819468Y-76455666D01*
X96946170Y-76636615D01*
X96946175Y-76636621D01*
X97102378Y-76792824D01*
X97102384Y-76792829D01*
X97283333Y-76919531D01*
X97283335Y-76919532D01*
X97283338Y-76919534D01*
X97483550Y-77012894D01*
X97696932Y-77070070D01*
X97854123Y-77083822D01*
X97916998Y-77089323D01*
X97917000Y-77089323D01*
X97917002Y-77089323D01*
X97972151Y-77084498D01*
X98137068Y-77070070D01*
X98350450Y-77012894D01*
X98550662Y-76919534D01*
X98731620Y-76792826D01*
X98887826Y-76636620D01*
X99014534Y-76455662D01*
X99074894Y-76326218D01*
X99121066Y-76273779D01*
X99188259Y-76254627D01*
X99255141Y-76274843D01*
X99299658Y-76326219D01*
X99359899Y-76455407D01*
X99359900Y-76455409D01*
X99405258Y-76520187D01*
X100072096Y-75853349D01*
X100072051Y-75853898D01*
X100103266Y-75977162D01*
X100172813Y-76083612D01*
X100273157Y-76161713D01*
X100393422Y-76203000D01*
X100429553Y-76203000D01*
X99758811Y-76873741D01*
X99823582Y-76919094D01*
X99823592Y-76919100D01*
X100023715Y-77012419D01*
X100023729Y-77012424D01*
X100237013Y-77069573D01*
X100237023Y-77069575D01*
X100456999Y-77088821D01*
X100457001Y-77088821D01*
X100676976Y-77069575D01*
X100676986Y-77069573D01*
X100890270Y-77012424D01*
X100890284Y-77012419D01*
X101090408Y-76919100D01*
X101090420Y-76919093D01*
X101155186Y-76873742D01*
X101155187Y-76873740D01*
X100484448Y-76203000D01*
X100488569Y-76203000D01*
X100582421Y-76187339D01*
X100694251Y-76126820D01*
X100780371Y-76033269D01*
X100831448Y-75916823D01*
X100837105Y-75848552D01*
X101508740Y-76520186D01*
X101508925Y-76519922D01*
X101563502Y-76476298D01*
X101633001Y-76469105D01*
X101695355Y-76500627D01*
X101730769Y-76560857D01*
X101734500Y-76591043D01*
X101734500Y-76631868D01*
X101734501Y-76631876D01*
X101740908Y-76691483D01*
X101791202Y-76826328D01*
X101791206Y-76826335D01*
X101877452Y-76941544D01*
X101877455Y-76941547D01*
X101992664Y-77027793D01*
X101992671Y-77027797D01*
X102037618Y-77044561D01*
X102127517Y-77078091D01*
X102187127Y-77084500D01*
X102247500Y-77084499D01*
X102314538Y-77104183D01*
X102360294Y-77156986D01*
X102371500Y-77208499D01*
X102371500Y-85007255D01*
X102369775Y-85022872D01*
X102370061Y-85022899D01*
X102369326Y-85030665D01*
X102371500Y-85099814D01*
X102371500Y-85129343D01*
X102371501Y-85129360D01*
X102372368Y-85136231D01*
X102372826Y-85142050D01*
X102374290Y-85188624D01*
X102374291Y-85188627D01*
X102379880Y-85207867D01*
X102383824Y-85226911D01*
X102386336Y-85246792D01*
X102397079Y-85273927D01*
X102403490Y-85290119D01*
X102405382Y-85295647D01*
X102418381Y-85340388D01*
X102428580Y-85357634D01*
X102437138Y-85375103D01*
X102444514Y-85393732D01*
X102471898Y-85431423D01*
X102475106Y-85436307D01*
X102498827Y-85476416D01*
X102498833Y-85476424D01*
X102512990Y-85490580D01*
X102525627Y-85505375D01*
X102537406Y-85521587D01*
X102571732Y-85549984D01*
X102573309Y-85551288D01*
X102577620Y-85555210D01*
X104375910Y-87353501D01*
X104958761Y-87936352D01*
X104992246Y-87997675D01*
X104990855Y-88056124D01*
X104963937Y-88156589D01*
X104963937Y-88156590D01*
X104943341Y-88391999D01*
X104943341Y-88392000D01*
X104963936Y-88627403D01*
X104963938Y-88627413D01*
X105025094Y-88855655D01*
X105025096Y-88855659D01*
X105025097Y-88855663D01*
X105099262Y-89014709D01*
X105124965Y-89069830D01*
X105124967Y-89069834D01*
X105209753Y-89190920D01*
X105260505Y-89263401D01*
X105427599Y-89430495D01*
X105472750Y-89462110D01*
X105621165Y-89566032D01*
X105621167Y-89566033D01*
X105621170Y-89566035D01*
X105835337Y-89665903D01*
X105835343Y-89665904D01*
X105835344Y-89665905D01*
X105879947Y-89677856D01*
X106063592Y-89727063D01*
X106251918Y-89743539D01*
X106298999Y-89747659D01*
X106299000Y-89747659D01*
X106299001Y-89747659D01*
X106338234Y-89744226D01*
X106534408Y-89727063D01*
X106762663Y-89665903D01*
X106976830Y-89566035D01*
X107170401Y-89430495D01*
X107337495Y-89263401D01*
X107472652Y-89070377D01*
X107527229Y-89026752D01*
X107574227Y-89017500D01*
X134055257Y-89017500D01*
X134070877Y-89019224D01*
X134070904Y-89018939D01*
X134078660Y-89019671D01*
X134078667Y-89019673D01*
X134147814Y-89017500D01*
X134177350Y-89017500D01*
X134184228Y-89016630D01*
X134190041Y-89016172D01*
X134236627Y-89014709D01*
X134255869Y-89009117D01*
X134274912Y-89005174D01*
X134294792Y-89002664D01*
X134338122Y-88985507D01*
X134343646Y-88983617D01*
X134347396Y-88982527D01*
X134388390Y-88970618D01*
X134405629Y-88960422D01*
X134423103Y-88951862D01*
X134441727Y-88944488D01*
X134441727Y-88944487D01*
X134441732Y-88944486D01*
X134479449Y-88917082D01*
X134484305Y-88913892D01*
X134524420Y-88890170D01*
X134538589Y-88875999D01*
X134553379Y-88863368D01*
X134569587Y-88851594D01*
X134599299Y-88815676D01*
X134603212Y-88811376D01*
X135001518Y-88413070D01*
X137894500Y-88413070D01*
X137902725Y-88451769D01*
X137933199Y-88595141D01*
X137933201Y-88595147D01*
X137970841Y-88679685D01*
X137990985Y-88724930D01*
X138008910Y-88765188D01*
X138008909Y-88765188D01*
X138008910Y-88765189D01*
X138118320Y-88915779D01*
X138118321Y-88915780D01*
X138118322Y-88915781D01*
X138118324Y-88915784D01*
X138193662Y-88983617D01*
X138256649Y-89040331D01*
X138417851Y-89133401D01*
X138417853Y-89133401D01*
X138417856Y-89133403D01*
X138506365Y-89162161D01*
X138594880Y-89190921D01*
X138733589Y-89205500D01*
X138733594Y-89205500D01*
X138826406Y-89205500D01*
X138826411Y-89205500D01*
X138965120Y-89190921D01*
X139142149Y-89133401D01*
X139303351Y-89040331D01*
X139411709Y-88942764D01*
X139441675Y-88915784D01*
X139441675Y-88915782D01*
X139441680Y-88915779D01*
X139551090Y-88765189D01*
X139612434Y-88627408D01*
X139626798Y-88595147D01*
X139626800Y-88595141D01*
X139644542Y-88511673D01*
X139665500Y-88413070D01*
X139665500Y-88226930D01*
X139626800Y-88044858D01*
X139626798Y-88044852D01*
X139588238Y-87958246D01*
X139551090Y-87874811D01*
X139441680Y-87724221D01*
X139441677Y-87724218D01*
X139441675Y-87724215D01*
X139324718Y-87618908D01*
X139303351Y-87599669D01*
X139142149Y-87506599D01*
X139142143Y-87506596D01*
X138965124Y-87449080D01*
X138965122Y-87449079D01*
X138925488Y-87444913D01*
X138826411Y-87434500D01*
X138733589Y-87434500D01*
X138646895Y-87443611D01*
X138594877Y-87449079D01*
X138594875Y-87449080D01*
X138417856Y-87506596D01*
X138417850Y-87506599D01*
X138256650Y-87599668D01*
X138118324Y-87724215D01*
X138118322Y-87724218D01*
X138008909Y-87874811D01*
X137933201Y-88044852D01*
X137933199Y-88044858D01*
X137901061Y-88196061D01*
X137894500Y-88226930D01*
X137894500Y-88413070D01*
X135001518Y-88413070D01*
X141757772Y-81656818D01*
X141819095Y-81623333D01*
X141845453Y-81620499D01*
X142158338Y-81620499D01*
X142158344Y-81620499D01*
X142158352Y-81620498D01*
X142158355Y-81620498D01*
X142212760Y-81614940D01*
X142257708Y-81610349D01*
X142418697Y-81557003D01*
X142563044Y-81467968D01*
X142652400Y-81378611D01*
X142713719Y-81345129D01*
X142783411Y-81350113D01*
X142790499Y-81353009D01*
X142849197Y-81379144D01*
X143034354Y-81418500D01*
X143034355Y-81418500D01*
X143223644Y-81418500D01*
X143223646Y-81418500D01*
X143408803Y-81379144D01*
X143408810Y-81379140D01*
X143412381Y-81377981D01*
X143414569Y-81377918D01*
X143415160Y-81377793D01*
X143415182Y-81377900D01*
X143482222Y-81375985D01*
X143542055Y-81412065D01*
X143572884Y-81474766D01*
X143574317Y-81486180D01*
X143576000Y-81507558D01*
X143576002Y-81507573D01*
X143621854Y-81665393D01*
X143621855Y-81665396D01*
X143621856Y-81665398D01*
X143659281Y-81728681D01*
X143705517Y-81806862D01*
X143705523Y-81806870D01*
X143821729Y-81923076D01*
X143821733Y-81923079D01*
X143821735Y-81923081D01*
X143959398Y-82004494D01*
X144007081Y-82055563D01*
X144019597Y-82124186D01*
X144018150Y-82137965D01*
X144002168Y-82290029D01*
X144001540Y-82296000D01*
X144021326Y-82484256D01*
X144021327Y-82484259D01*
X144079818Y-82664277D01*
X144079821Y-82664284D01*
X144174467Y-82828216D01*
X144301129Y-82968888D01*
X144454265Y-83080148D01*
X144454270Y-83080151D01*
X144627192Y-83157142D01*
X144627197Y-83157144D01*
X144812354Y-83196500D01*
X144812355Y-83196500D01*
X144894100Y-83196500D01*
X144961139Y-83216185D01*
X145006894Y-83268989D01*
X145018100Y-83320500D01*
X145018100Y-84729239D01*
X144998415Y-84796278D01*
X144945611Y-84842033D01*
X144888537Y-84853114D01*
X144723674Y-84845710D01*
X144723673Y-84845710D01*
X144723670Y-84845710D01*
X144500613Y-84875925D01*
X144500610Y-84875925D01*
X144500609Y-84875926D01*
X144286534Y-84945483D01*
X144088321Y-85052146D01*
X144088318Y-85052148D01*
X143912336Y-85192489D01*
X143841186Y-85273927D01*
X143764235Y-85362004D01*
X143758593Y-85371447D01*
X143648787Y-85555232D01*
X143648786Y-85555234D01*
X143569692Y-85765976D01*
X143529500Y-85987450D01*
X143529500Y-86676151D01*
X143544622Y-86844186D01*
X143544624Y-86844196D01*
X143570528Y-86938056D01*
X143569388Y-87007916D01*
X143530659Y-87066070D01*
X143466639Y-87094054D01*
X143397652Y-87082983D01*
X143363316Y-87058725D01*
X143066819Y-86762228D01*
X143033334Y-86700905D01*
X143030500Y-86674547D01*
X143030500Y-86043852D01*
X143030500Y-86043845D01*
X143015377Y-85875812D01*
X143014343Y-85872064D01*
X142955496Y-85658839D01*
X142955491Y-85658826D01*
X142951429Y-85650392D01*
X142889400Y-85521586D01*
X142857832Y-85456033D01*
X142857828Y-85456025D01*
X142725526Y-85273927D01*
X142725525Y-85273925D01*
X142562823Y-85118366D01*
X142374966Y-84994363D01*
X142167995Y-84905899D01*
X142167982Y-84905895D01*
X141948542Y-84855810D01*
X141948538Y-84855809D01*
X141948537Y-84855809D01*
X141948536Y-84855808D01*
X141948531Y-84855808D01*
X141723674Y-84845710D01*
X141723673Y-84845710D01*
X141723670Y-84845710D01*
X141500613Y-84875925D01*
X141500610Y-84875925D01*
X141500609Y-84875926D01*
X141286534Y-84945483D01*
X141088321Y-85052146D01*
X141088318Y-85052148D01*
X140912336Y-85192489D01*
X140841186Y-85273927D01*
X140764235Y-85362004D01*
X140758593Y-85371447D01*
X140648787Y-85555232D01*
X140648786Y-85555234D01*
X140569692Y-85765976D01*
X140529500Y-85987450D01*
X140529500Y-86676151D01*
X140544622Y-86844186D01*
X140544623Y-86844192D01*
X140604503Y-87061160D01*
X140604508Y-87061173D01*
X140702167Y-87263966D01*
X140702171Y-87263974D01*
X140834473Y-87446072D01*
X140834474Y-87446074D01*
X140997176Y-87601633D01*
X141185033Y-87725636D01*
X141392004Y-87814100D01*
X141392007Y-87814101D01*
X141392012Y-87814103D01*
X141611463Y-87864191D01*
X141836330Y-87874290D01*
X142059387Y-87844075D01*
X142228717Y-87789055D01*
X142298557Y-87787061D01*
X142354715Y-87819306D01*
X142803197Y-88267788D01*
X142813022Y-88280051D01*
X142813243Y-88279869D01*
X142818214Y-88285878D01*
X142839043Y-88305437D01*
X142868635Y-88333226D01*
X142889529Y-88354120D01*
X142895011Y-88358373D01*
X142899443Y-88362157D01*
X142933418Y-88394062D01*
X142950976Y-88403714D01*
X142967235Y-88414395D01*
X142983064Y-88426673D01*
X143025838Y-88445182D01*
X143031056Y-88447738D01*
X143071908Y-88470197D01*
X143091316Y-88475180D01*
X143109717Y-88481480D01*
X143128104Y-88489437D01*
X143171488Y-88496308D01*
X143174119Y-88496725D01*
X143179839Y-88497909D01*
X143224981Y-88509500D01*
X143245016Y-88509500D01*
X143264414Y-88511026D01*
X143284194Y-88514159D01*
X143284195Y-88514160D01*
X143284195Y-88514159D01*
X143284196Y-88514160D01*
X143330584Y-88509775D01*
X143336422Y-88509500D01*
X148380257Y-88509500D01*
X148395877Y-88511224D01*
X148395904Y-88510939D01*
X148403660Y-88511671D01*
X148403667Y-88511673D01*
X148472814Y-88509500D01*
X148502350Y-88509500D01*
X148509228Y-88508630D01*
X148515041Y-88508172D01*
X148561627Y-88506709D01*
X148580869Y-88501117D01*
X148599912Y-88497174D01*
X148619792Y-88494664D01*
X148663122Y-88477507D01*
X148668646Y-88475617D01*
X148672396Y-88474527D01*
X148713390Y-88462618D01*
X148730629Y-88452422D01*
X148748103Y-88443862D01*
X148766727Y-88436488D01*
X148766727Y-88436487D01*
X148766732Y-88436486D01*
X148798960Y-88413070D01*
X149894500Y-88413070D01*
X149902725Y-88451769D01*
X149933199Y-88595141D01*
X149933201Y-88595147D01*
X149970841Y-88679685D01*
X149990985Y-88724930D01*
X150008910Y-88765188D01*
X150008909Y-88765188D01*
X150008910Y-88765189D01*
X150118320Y-88915779D01*
X150118321Y-88915780D01*
X150118322Y-88915781D01*
X150118324Y-88915784D01*
X150193662Y-88983617D01*
X150256649Y-89040331D01*
X150417851Y-89133401D01*
X150417853Y-89133401D01*
X150417856Y-89133403D01*
X150506365Y-89162161D01*
X150594880Y-89190921D01*
X150733589Y-89205500D01*
X150733594Y-89205500D01*
X150826406Y-89205500D01*
X150826411Y-89205500D01*
X150965120Y-89190921D01*
X151142149Y-89133401D01*
X151303351Y-89040331D01*
X151411709Y-88942764D01*
X151441675Y-88915784D01*
X151441675Y-88915782D01*
X151441680Y-88915779D01*
X151551090Y-88765189D01*
X151612434Y-88627408D01*
X151626798Y-88595147D01*
X151626800Y-88595141D01*
X151644542Y-88511673D01*
X151665500Y-88413070D01*
X151665500Y-88226930D01*
X151626800Y-88044858D01*
X151626798Y-88044852D01*
X151588238Y-87958246D01*
X151551090Y-87874811D01*
X151441680Y-87724221D01*
X151441677Y-87724218D01*
X151441675Y-87724215D01*
X151324718Y-87618908D01*
X151303351Y-87599669D01*
X151142149Y-87506599D01*
X151142143Y-87506596D01*
X150965124Y-87449080D01*
X150965122Y-87449079D01*
X150925488Y-87444913D01*
X150826411Y-87434500D01*
X150733589Y-87434500D01*
X150646895Y-87443611D01*
X150594877Y-87449079D01*
X150594875Y-87449080D01*
X150417856Y-87506596D01*
X150417850Y-87506599D01*
X150256650Y-87599668D01*
X150118324Y-87724215D01*
X150118322Y-87724218D01*
X150008909Y-87874811D01*
X149933201Y-88044852D01*
X149933199Y-88044858D01*
X149901061Y-88196061D01*
X149894500Y-88226930D01*
X149894500Y-88413070D01*
X148798960Y-88413070D01*
X148804449Y-88409082D01*
X148809305Y-88405892D01*
X148849420Y-88382170D01*
X148863589Y-88367999D01*
X148878379Y-88355368D01*
X148894587Y-88343594D01*
X148924299Y-88307676D01*
X148928212Y-88303376D01*
X154163019Y-83068570D01*
X154224341Y-83035086D01*
X154294033Y-83040070D01*
X154349966Y-83081942D01*
X154374383Y-83147406D01*
X154359531Y-83215679D01*
X154350297Y-83230119D01*
X154150109Y-83500041D01*
X153948062Y-83837135D01*
X153780023Y-84192424D01*
X153780016Y-84192440D01*
X153647625Y-84562450D01*
X153552129Y-84943691D01*
X153494461Y-85332449D01*
X153475176Y-85725000D01*
X153494461Y-86117550D01*
X153552129Y-86506308D01*
X153647625Y-86887549D01*
X153780016Y-87257559D01*
X153780023Y-87257575D01*
X153948062Y-87612864D01*
X154150109Y-87949958D01*
X154384228Y-88265632D01*
X154480068Y-88371376D01*
X154480069Y-88371376D01*
X155793104Y-87058341D01*
X155905031Y-87195918D01*
X156119990Y-87396676D01*
X156144543Y-87414008D01*
X154833622Y-88724929D01*
X154833622Y-88724930D01*
X154939367Y-88820771D01*
X155255041Y-89054890D01*
X155592135Y-89256937D01*
X155947424Y-89424976D01*
X155947440Y-89424983D01*
X156317450Y-89557374D01*
X156698691Y-89652870D01*
X157087449Y-89710538D01*
X157480000Y-89729823D01*
X157872550Y-89710538D01*
X158261308Y-89652870D01*
X158642549Y-89557374D01*
X159012559Y-89424983D01*
X159012575Y-89424976D01*
X159367864Y-89256937D01*
X159704958Y-89054890D01*
X160020632Y-88820770D01*
X160126376Y-88724929D01*
X158815455Y-87414008D01*
X158840010Y-87396676D01*
X159054969Y-87195918D01*
X159166895Y-87058342D01*
X160479929Y-88371376D01*
X160575770Y-88265632D01*
X160809890Y-87949958D01*
X161011937Y-87612864D01*
X161179976Y-87257575D01*
X161179983Y-87257559D01*
X161312374Y-86887549D01*
X161407870Y-86506308D01*
X161465538Y-86117550D01*
X161484823Y-85725000D01*
X161465538Y-85332449D01*
X161407870Y-84943691D01*
X161312374Y-84562450D01*
X161179983Y-84192440D01*
X161179976Y-84192424D01*
X161011937Y-83837135D01*
X160809890Y-83500041D01*
X160575771Y-83184367D01*
X160479930Y-83078622D01*
X160479929Y-83078622D01*
X159166894Y-84391656D01*
X159054969Y-84254082D01*
X158840010Y-84053324D01*
X158815454Y-84035991D01*
X160126376Y-82725069D01*
X160126376Y-82725068D01*
X160020632Y-82629228D01*
X159704958Y-82395109D01*
X159367864Y-82193062D01*
X159012575Y-82025023D01*
X159012559Y-82025016D01*
X158642549Y-81892625D01*
X158261308Y-81797129D01*
X157872550Y-81739461D01*
X157480000Y-81720176D01*
X157087449Y-81739461D01*
X156698691Y-81797129D01*
X156317450Y-81892625D01*
X155947440Y-82025016D01*
X155947424Y-82025023D01*
X155592135Y-82193062D01*
X155255041Y-82395109D01*
X154985119Y-82595297D01*
X154919546Y-82619421D01*
X154851340Y-82604265D01*
X154802156Y-82554639D01*
X154787609Y-82486301D01*
X154812318Y-82420946D01*
X154823565Y-82408024D01*
X156212788Y-81018801D01*
X156225042Y-81008986D01*
X156224859Y-81008764D01*
X156230866Y-81003792D01*
X156230877Y-81003786D01*
X156261775Y-80970882D01*
X156278227Y-80953364D01*
X156288671Y-80942918D01*
X156299120Y-80932471D01*
X156303379Y-80926978D01*
X156307152Y-80922561D01*
X156339062Y-80888582D01*
X156348713Y-80871024D01*
X156359396Y-80854761D01*
X156371673Y-80838936D01*
X156390185Y-80796153D01*
X156392738Y-80790941D01*
X156415197Y-80750092D01*
X156420180Y-80730680D01*
X156426481Y-80712280D01*
X156434437Y-80693896D01*
X156441729Y-80647852D01*
X156442906Y-80642171D01*
X156454500Y-80597019D01*
X156454500Y-80576983D01*
X156456027Y-80557582D01*
X156459160Y-80537804D01*
X156454775Y-80491415D01*
X156454500Y-80485577D01*
X156454500Y-78633795D01*
X156474185Y-78566756D01*
X156526989Y-78521001D01*
X156596147Y-78511057D01*
X156649620Y-78532218D01*
X156802170Y-78639035D01*
X157016337Y-78738903D01*
X157244592Y-78800063D01*
X157432918Y-78816539D01*
X157479999Y-78820659D01*
X157480000Y-78820659D01*
X157480001Y-78820659D01*
X157519234Y-78817226D01*
X157715408Y-78800063D01*
X157943663Y-78738903D01*
X158157830Y-78639035D01*
X158351401Y-78503495D01*
X158518495Y-78336401D01*
X158654035Y-78142830D01*
X158753903Y-77928663D01*
X158815063Y-77700408D01*
X158835659Y-77465000D01*
X158815063Y-77229592D01*
X158768625Y-77056281D01*
X158753905Y-77001344D01*
X158753904Y-77001343D01*
X158753903Y-77001337D01*
X158654035Y-76787171D01*
X158603779Y-76715398D01*
X158518496Y-76593600D01*
X158470218Y-76545322D01*
X158396567Y-76471671D01*
X158363084Y-76410351D01*
X158368068Y-76340659D01*
X158409939Y-76284725D01*
X158440915Y-76267810D01*
X158572331Y-76218796D01*
X158687546Y-76132546D01*
X158773796Y-76017331D01*
X158824091Y-75882483D01*
X158830500Y-75822873D01*
X158830499Y-74027128D01*
X158824091Y-73967517D01*
X158819487Y-73955174D01*
X158773797Y-73832671D01*
X158773793Y-73832664D01*
X158687547Y-73717455D01*
X158687544Y-73717452D01*
X158572335Y-73631206D01*
X158572328Y-73631202D01*
X158437482Y-73580908D01*
X158437483Y-73580908D01*
X158377883Y-73574501D01*
X158377881Y-73574500D01*
X158377873Y-73574500D01*
X158377864Y-73574500D01*
X156578807Y-73574501D01*
X156578807Y-73572886D01*
X156516981Y-73558180D01*
X156468540Y-73507829D01*
X156454500Y-73450517D01*
X156454500Y-71806451D01*
X156474185Y-71739412D01*
X156490815Y-71718774D01*
X157024353Y-71185235D01*
X157085674Y-71151752D01*
X157144125Y-71153143D01*
X157178780Y-71162428D01*
X157244592Y-71180063D01*
X157432918Y-71196539D01*
X157479999Y-71200659D01*
X157480000Y-71200659D01*
X157480001Y-71200659D01*
X157519234Y-71197226D01*
X157715408Y-71180063D01*
X157943663Y-71118903D01*
X158157830Y-71019035D01*
X158351401Y-70883495D01*
X158518495Y-70716401D01*
X158654035Y-70522830D01*
X158753903Y-70308663D01*
X158815063Y-70080408D01*
X158835659Y-69845000D01*
X158815063Y-69609592D01*
X158768626Y-69436285D01*
X158753905Y-69381344D01*
X158753904Y-69381343D01*
X158753903Y-69381337D01*
X158654035Y-69167171D01*
X158634880Y-69139815D01*
X158518496Y-68973600D01*
X158476418Y-68931522D01*
X158396179Y-68851283D01*
X158362696Y-68789963D01*
X158367680Y-68720271D01*
X158409551Y-68664337D01*
X158440529Y-68647422D01*
X158572086Y-68598354D01*
X158572093Y-68598350D01*
X158687187Y-68512190D01*
X158687190Y-68512187D01*
X158773350Y-68397093D01*
X158773354Y-68397086D01*
X158823596Y-68262379D01*
X158823598Y-68262372D01*
X158829999Y-68202844D01*
X158830000Y-68202827D01*
X158830000Y-67555000D01*
X157913686Y-67555000D01*
X157939493Y-67514844D01*
X157980000Y-67376889D01*
X157980000Y-67233111D01*
X157939493Y-67095156D01*
X157913686Y-67055000D01*
X158830000Y-67055000D01*
X158830000Y-66407172D01*
X158829999Y-66407155D01*
X158823598Y-66347627D01*
X158823596Y-66347620D01*
X158773354Y-66212913D01*
X158773350Y-66212906D01*
X158687190Y-66097812D01*
X158687187Y-66097809D01*
X158572093Y-66011649D01*
X158572086Y-66011645D01*
X158437379Y-65961403D01*
X158437372Y-65961401D01*
X158377844Y-65955000D01*
X157730000Y-65955000D01*
X157730000Y-66869498D01*
X157622315Y-66820320D01*
X157515763Y-66805000D01*
X157444237Y-66805000D01*
X157337685Y-66820320D01*
X157230000Y-66869498D01*
X157230000Y-65955000D01*
X156582155Y-65955000D01*
X156522627Y-65961401D01*
X156522620Y-65961403D01*
X156387913Y-66011645D01*
X156387906Y-66011649D01*
X156272812Y-66097809D01*
X156272809Y-66097812D01*
X156186649Y-66212906D01*
X156186645Y-66212913D01*
X156136403Y-66347620D01*
X156136401Y-66347627D01*
X156130000Y-66407155D01*
X156130000Y-67055000D01*
X157046314Y-67055000D01*
X157020507Y-67095156D01*
X156980000Y-67233111D01*
X156980000Y-67376889D01*
X157020507Y-67514844D01*
X157046314Y-67555000D01*
X156130000Y-67555000D01*
X156130000Y-68202844D01*
X156136401Y-68262372D01*
X156136403Y-68262379D01*
X156186645Y-68397086D01*
X156186649Y-68397093D01*
X156272809Y-68512187D01*
X156272812Y-68512190D01*
X156387906Y-68598350D01*
X156387913Y-68598354D01*
X156519470Y-68647421D01*
X156575403Y-68689292D01*
X156599821Y-68754756D01*
X156584970Y-68823029D01*
X156563819Y-68851284D01*
X156441503Y-68973600D01*
X156305965Y-69167169D01*
X156305964Y-69167171D01*
X156206098Y-69381335D01*
X156206094Y-69381344D01*
X156144938Y-69609586D01*
X156144936Y-69609596D01*
X156124341Y-69844999D01*
X156124341Y-69845000D01*
X156144936Y-70080403D01*
X156144938Y-70080413D01*
X156171856Y-70180872D01*
X156170193Y-70250722D01*
X156139762Y-70300646D01*
X155445208Y-70995199D01*
X155432951Y-71005020D01*
X155433134Y-71005241D01*
X155427123Y-71010213D01*
X155379772Y-71060636D01*
X155358889Y-71081519D01*
X155358877Y-71081532D01*
X155354621Y-71087017D01*
X155350837Y-71091447D01*
X155318937Y-71125418D01*
X155318936Y-71125420D01*
X155309284Y-71142976D01*
X155298610Y-71159226D01*
X155286329Y-71175061D01*
X155286324Y-71175068D01*
X155267815Y-71217838D01*
X155265245Y-71223084D01*
X155242803Y-71263906D01*
X155237822Y-71283307D01*
X155231521Y-71301710D01*
X155223562Y-71320102D01*
X155223561Y-71320105D01*
X155216271Y-71366127D01*
X155215087Y-71371846D01*
X155203501Y-71416972D01*
X155203500Y-71416982D01*
X155203500Y-71437016D01*
X155201973Y-71456415D01*
X155199324Y-71473142D01*
X155198840Y-71476196D01*
X155201787Y-71507368D01*
X155203225Y-71522583D01*
X155203500Y-71528421D01*
X155203500Y-80207547D01*
X155183815Y-80274586D01*
X155167181Y-80295228D01*
X149242181Y-86220228D01*
X149180858Y-86253713D01*
X149111166Y-86248729D01*
X149055233Y-86206857D01*
X149030816Y-86141393D01*
X149030500Y-86132547D01*
X149030500Y-85549997D01*
X149030499Y-85549984D01*
X149025741Y-85503414D01*
X149019999Y-85447203D01*
X148964814Y-85280666D01*
X148960657Y-85273927D01*
X148872713Y-85131348D01*
X148872710Y-85131344D01*
X148748655Y-85007289D01*
X148748651Y-85007286D01*
X148599337Y-84915187D01*
X148599335Y-84915186D01*
X148480852Y-84875925D01*
X148432797Y-84860001D01*
X148432795Y-84860000D01*
X148330015Y-84849500D01*
X148330008Y-84849500D01*
X147663100Y-84849500D01*
X147596061Y-84829815D01*
X147550306Y-84777011D01*
X147539100Y-84725500D01*
X147539100Y-83320500D01*
X147558785Y-83253461D01*
X147611589Y-83207706D01*
X147663100Y-83196500D01*
X147795644Y-83196500D01*
X147795646Y-83196500D01*
X147980803Y-83157144D01*
X148153730Y-83080151D01*
X148306871Y-82968888D01*
X148433533Y-82828216D01*
X148528179Y-82664284D01*
X148586674Y-82484256D01*
X148606460Y-82296000D01*
X148586674Y-82107744D01*
X148586672Y-82107740D01*
X148585994Y-82101281D01*
X148587401Y-82101133D01*
X148592147Y-82038855D01*
X148634279Y-81983117D01*
X148645006Y-81975996D01*
X148735155Y-81922682D01*
X148735161Y-81922678D01*
X148851278Y-81806561D01*
X148851285Y-81806552D01*
X148934882Y-81665196D01*
X148934883Y-81665193D01*
X148980699Y-81507495D01*
X148980700Y-81507489D01*
X148983600Y-81470644D01*
X148983600Y-80830000D01*
X148057600Y-80830000D01*
X147990561Y-80810315D01*
X147944806Y-80757511D01*
X147933600Y-80706000D01*
X147933600Y-79107703D01*
X148433600Y-79107703D01*
X148433600Y-80330000D01*
X148983600Y-80330000D01*
X148983600Y-79689356D01*
X148980700Y-79652510D01*
X148980699Y-79652504D01*
X148934883Y-79494806D01*
X148934882Y-79494803D01*
X148851285Y-79353447D01*
X148851278Y-79353438D01*
X148735161Y-79237321D01*
X148735152Y-79237314D01*
X148593796Y-79153717D01*
X148593793Y-79153716D01*
X148436094Y-79107900D01*
X148436097Y-79107900D01*
X148433600Y-79107703D01*
X147933600Y-79107703D01*
X147931103Y-79107900D01*
X147773406Y-79153716D01*
X147773403Y-79153717D01*
X147632049Y-79237313D01*
X147625883Y-79242097D01*
X147623989Y-79239655D01*
X147575180Y-79266239D01*
X147505494Y-79261179D01*
X147472827Y-79240159D01*
X147471631Y-79241702D01*
X147465462Y-79236917D01*
X147353053Y-79170439D01*
X147323998Y-79153256D01*
X147323997Y-79153255D01*
X147323996Y-79153255D01*
X147323993Y-79153254D01*
X147166173Y-79107402D01*
X147166167Y-79107401D01*
X147129296Y-79104500D01*
X147129294Y-79104500D01*
X146697906Y-79104500D01*
X146697904Y-79104500D01*
X146661032Y-79107401D01*
X146661026Y-79107402D01*
X146503206Y-79153254D01*
X146503203Y-79153255D01*
X146361737Y-79236917D01*
X146355569Y-79241702D01*
X146353672Y-79239256D01*
X146304958Y-79265857D01*
X146235266Y-79260873D01*
X146202896Y-79240069D01*
X146201631Y-79241702D01*
X146195462Y-79236917D01*
X146083053Y-79170439D01*
X146053998Y-79153256D01*
X146053997Y-79153255D01*
X146053996Y-79153255D01*
X146053993Y-79153254D01*
X145896173Y-79107402D01*
X145896167Y-79107401D01*
X145859296Y-79104500D01*
X145859294Y-79104500D01*
X145427906Y-79104500D01*
X145427904Y-79104500D01*
X145391032Y-79107401D01*
X145391026Y-79107402D01*
X145233206Y-79153254D01*
X145233203Y-79153255D01*
X145091737Y-79236917D01*
X145085569Y-79241702D01*
X145083672Y-79239256D01*
X145034958Y-79265857D01*
X144965266Y-79260873D01*
X144932896Y-79240069D01*
X144931631Y-79241702D01*
X144925462Y-79236917D01*
X144813053Y-79170439D01*
X144783998Y-79153256D01*
X144783997Y-79153255D01*
X144783996Y-79153255D01*
X144783993Y-79153254D01*
X144626173Y-79107402D01*
X144626167Y-79107401D01*
X144589296Y-79104500D01*
X144589294Y-79104500D01*
X144157906Y-79104500D01*
X144157904Y-79104500D01*
X144121032Y-79107401D01*
X144121026Y-79107402D01*
X143963206Y-79153254D01*
X143963196Y-79153258D01*
X143963187Y-79153264D01*
X143963178Y-79153266D01*
X143956046Y-79156353D01*
X143955547Y-79155201D01*
X143895461Y-79170439D01*
X143829201Y-79148272D01*
X143812397Y-79134206D01*
X142871818Y-78193627D01*
X142838333Y-78132304D01*
X142835499Y-78105946D01*
X142835499Y-77806662D01*
X142835498Y-77806644D01*
X142825349Y-77707292D01*
X142825348Y-77707289D01*
X142792613Y-77608500D01*
X142772003Y-77546303D01*
X142772002Y-77546301D01*
X142772001Y-77546298D01*
X142738611Y-77492167D01*
X142720169Y-77424775D01*
X142741090Y-77358111D01*
X142751987Y-77344108D01*
X142845533Y-77240216D01*
X142940179Y-77076284D01*
X142998674Y-76896256D01*
X143018460Y-76708000D01*
X142998674Y-76519744D01*
X142940179Y-76339716D01*
X142845533Y-76175784D01*
X142832263Y-76161046D01*
X142802035Y-76098059D01*
X142806028Y-76041189D01*
X142829086Y-75967196D01*
X142835500Y-75896616D01*
X142835500Y-75233384D01*
X142829086Y-75162804D01*
X142778478Y-75000394D01*
X142690472Y-74854815D01*
X142690470Y-74854813D01*
X142690469Y-74854811D01*
X142570188Y-74734530D01*
X142554256Y-74724899D01*
X142424606Y-74646522D01*
X142262196Y-74595914D01*
X142262194Y-74595913D01*
X142262192Y-74595913D01*
X142212778Y-74591423D01*
X142191616Y-74589500D01*
X141678384Y-74589500D01*
X141659145Y-74591248D01*
X141607807Y-74595913D01*
X141445393Y-74646522D01*
X141299811Y-74734530D01*
X141299810Y-74734531D01*
X141197681Y-74836661D01*
X141136358Y-74870146D01*
X141066666Y-74865162D01*
X141022319Y-74836661D01*
X140920188Y-74734530D01*
X140904256Y-74724899D01*
X140774606Y-74646522D01*
X140612196Y-74595914D01*
X140612194Y-74595913D01*
X140612192Y-74595913D01*
X140562778Y-74591423D01*
X140541616Y-74589500D01*
X140028384Y-74589500D01*
X140009145Y-74591248D01*
X139957807Y-74595913D01*
X139795393Y-74646522D01*
X139649811Y-74734530D01*
X139529530Y-74854811D01*
X139441522Y-75000393D01*
X139390913Y-75162807D01*
X139388593Y-75188339D01*
X139384500Y-75233384D01*
X139384500Y-75896616D01*
X139386336Y-75916823D01*
X139390913Y-75967192D01*
X139390913Y-75967194D01*
X139390914Y-75967196D01*
X139441522Y-76129606D01*
X139500069Y-76226454D01*
X139517905Y-76294007D01*
X139508996Y-76333264D01*
X139509829Y-76333535D01*
X139450505Y-76516115D01*
X139449326Y-76519744D01*
X139429540Y-76708000D01*
X139449326Y-76896256D01*
X139449327Y-76896259D01*
X139507818Y-77076277D01*
X139507823Y-77076289D01*
X139590401Y-77219319D01*
X139606874Y-77287219D01*
X139584021Y-77353246D01*
X139570696Y-77368998D01*
X139537427Y-77402266D01*
X139537424Y-77402271D01*
X139448457Y-77546507D01*
X139448452Y-77546518D01*
X139395144Y-77707393D01*
X139385000Y-77806677D01*
X139385000Y-77855000D01*
X140461000Y-77855000D01*
X140528039Y-77874685D01*
X140573794Y-77927489D01*
X140585000Y-77979000D01*
X140585000Y-79079999D01*
X140608308Y-79079999D01*
X140608322Y-79079998D01*
X140707607Y-79069855D01*
X140868481Y-79016547D01*
X140868492Y-79016542D01*
X141012731Y-78927573D01*
X141021959Y-78918345D01*
X141083279Y-78884856D01*
X141152971Y-78889835D01*
X141197327Y-78918339D01*
X141206955Y-78927967D01*
X141206959Y-78927970D01*
X141351294Y-79016998D01*
X141351297Y-79016999D01*
X141351303Y-79017003D01*
X141512292Y-79070349D01*
X141611655Y-79080500D01*
X141938147Y-79080499D01*
X142005186Y-79100183D01*
X142025828Y-79116818D01*
X142382718Y-79473708D01*
X142416203Y-79535031D01*
X142411219Y-79604723D01*
X142369347Y-79660656D01*
X142303883Y-79685073D01*
X142264525Y-79680158D01*
X142264331Y-79681068D01*
X142257714Y-79679651D01*
X142158346Y-79669500D01*
X141611662Y-79669500D01*
X141611644Y-79669501D01*
X141512292Y-79679650D01*
X141512289Y-79679651D01*
X141351305Y-79732996D01*
X141351294Y-79733001D01*
X141206959Y-79822029D01*
X141206953Y-79822033D01*
X141197324Y-79831663D01*
X141136000Y-79865146D01*
X141066308Y-79860159D01*
X141021965Y-79831660D01*
X141012732Y-79822427D01*
X141012728Y-79822424D01*
X140868492Y-79733457D01*
X140868481Y-79733452D01*
X140707606Y-79680144D01*
X140608322Y-79670000D01*
X140585000Y-79670000D01*
X140585000Y-80771000D01*
X140565315Y-80838039D01*
X140512511Y-80883794D01*
X140461000Y-80895000D01*
X139385001Y-80895000D01*
X139385001Y-80943322D01*
X139395144Y-81042607D01*
X139448452Y-81203481D01*
X139448457Y-81203492D01*
X139537424Y-81347728D01*
X139537427Y-81347732D01*
X139657267Y-81467572D01*
X139657271Y-81467575D01*
X139801507Y-81556542D01*
X139801515Y-81556545D01*
X139826511Y-81564828D01*
X139883956Y-81604600D01*
X139910781Y-81669115D01*
X139898467Y-81737891D01*
X139875190Y-81770216D01*
X133915228Y-87730181D01*
X133853905Y-87763666D01*
X133827547Y-87766500D01*
X107574227Y-87766500D01*
X107507188Y-87746815D01*
X107472652Y-87713623D01*
X107337494Y-87520597D01*
X107170402Y-87353506D01*
X107170396Y-87353501D01*
X106984842Y-87223575D01*
X106941217Y-87168998D01*
X106934023Y-87099500D01*
X106965546Y-87037145D01*
X106984842Y-87020425D01*
X107079675Y-86954022D01*
X107170401Y-86890495D01*
X107337495Y-86723401D01*
X107472652Y-86530377D01*
X107527229Y-86486752D01*
X107574227Y-86477500D01*
X111546257Y-86477500D01*
X111561877Y-86479224D01*
X111561904Y-86478939D01*
X111569660Y-86479671D01*
X111569667Y-86479673D01*
X111638814Y-86477500D01*
X111668350Y-86477500D01*
X111675228Y-86476630D01*
X111681041Y-86476172D01*
X111727627Y-86474709D01*
X111746869Y-86469117D01*
X111765912Y-86465174D01*
X111785792Y-86462664D01*
X111829122Y-86445507D01*
X111834646Y-86443617D01*
X111838396Y-86442527D01*
X111879390Y-86430618D01*
X111896629Y-86420422D01*
X111914103Y-86411862D01*
X111932727Y-86404488D01*
X111932727Y-86404487D01*
X111932732Y-86404486D01*
X111970449Y-86377082D01*
X111975305Y-86373892D01*
X112015420Y-86350170D01*
X112029589Y-86335999D01*
X112044379Y-86323368D01*
X112060587Y-86311594D01*
X112090299Y-86275676D01*
X112094212Y-86271376D01*
X117970588Y-80395000D01*
X139385000Y-80395000D01*
X140085000Y-80395000D01*
X140085000Y-79669999D01*
X140061693Y-79670000D01*
X140061674Y-79670001D01*
X139962392Y-79680144D01*
X139801518Y-79733452D01*
X139801507Y-79733457D01*
X139657271Y-79822424D01*
X139657267Y-79822427D01*
X139537427Y-79942267D01*
X139537424Y-79942271D01*
X139448457Y-80086507D01*
X139448452Y-80086518D01*
X139395144Y-80247393D01*
X139385000Y-80346677D01*
X139385000Y-80395000D01*
X117970588Y-80395000D01*
X133783985Y-64581603D01*
X133845306Y-64548120D01*
X133914998Y-64553104D01*
X133970931Y-64594976D01*
X133995348Y-64660440D01*
X133995192Y-64680092D01*
X133987677Y-64765996D01*
X133987677Y-64766002D01*
X134006929Y-64986062D01*
X134006930Y-64986070D01*
X134064104Y-65199445D01*
X134064105Y-65199447D01*
X134064106Y-65199450D01*
X134152359Y-65388709D01*
X134157466Y-65399662D01*
X134157468Y-65399666D01*
X134284170Y-65580615D01*
X134284175Y-65580621D01*
X134440378Y-65736824D01*
X134440384Y-65736829D01*
X134621333Y-65863531D01*
X134621335Y-65863532D01*
X134621338Y-65863534D01*
X134680437Y-65891092D01*
X134750189Y-65923618D01*
X134802628Y-65969790D01*
X134821780Y-66036984D01*
X134801564Y-66103865D01*
X134750189Y-66148382D01*
X134621340Y-66208465D01*
X134621338Y-66208466D01*
X134440377Y-66335175D01*
X134284175Y-66491377D01*
X134157466Y-66672338D01*
X134157465Y-66672340D01*
X134064107Y-66872548D01*
X134064104Y-66872554D01*
X134006930Y-67085929D01*
X134006929Y-67085937D01*
X133987677Y-67305997D01*
X133987677Y-67306002D01*
X134006929Y-67526062D01*
X134006930Y-67526070D01*
X134064104Y-67739445D01*
X134064105Y-67739447D01*
X134064106Y-67739450D01*
X134148879Y-67921247D01*
X134157466Y-67939662D01*
X134157468Y-67939666D01*
X134284170Y-68120615D01*
X134284175Y-68120621D01*
X134440378Y-68276824D01*
X134440384Y-68276829D01*
X134621333Y-68403531D01*
X134621335Y-68403532D01*
X134621338Y-68403534D01*
X134718294Y-68448745D01*
X134750189Y-68463618D01*
X134802628Y-68509790D01*
X134821780Y-68576984D01*
X134801564Y-68643865D01*
X134750189Y-68688382D01*
X134621340Y-68748465D01*
X134621338Y-68748466D01*
X134440377Y-68875175D01*
X134284175Y-69031377D01*
X134157466Y-69212338D01*
X134157465Y-69212340D01*
X134064107Y-69412548D01*
X134064104Y-69412554D01*
X134006930Y-69625929D01*
X134006929Y-69625937D01*
X133987677Y-69845997D01*
X133987677Y-69846002D01*
X134006929Y-70066062D01*
X134006930Y-70066070D01*
X134064104Y-70279445D01*
X134064105Y-70279447D01*
X134064106Y-70279450D01*
X134131389Y-70423740D01*
X134157466Y-70479662D01*
X134157468Y-70479666D01*
X134284170Y-70660615D01*
X134284175Y-70660621D01*
X134440378Y-70816824D01*
X134440384Y-70816829D01*
X134621333Y-70943531D01*
X134621335Y-70943532D01*
X134621338Y-70943534D01*
X134696152Y-70978420D01*
X134750189Y-71003618D01*
X134802628Y-71049790D01*
X134821780Y-71116984D01*
X134801564Y-71183865D01*
X134750189Y-71228382D01*
X134621340Y-71288465D01*
X134621338Y-71288466D01*
X134440377Y-71415175D01*
X134284175Y-71571377D01*
X134157466Y-71752338D01*
X134157465Y-71752340D01*
X134064107Y-71952548D01*
X134064104Y-71952554D01*
X134006930Y-72165929D01*
X134006929Y-72165937D01*
X133987677Y-72385997D01*
X133987677Y-72386002D01*
X134006929Y-72606062D01*
X134006930Y-72606070D01*
X134064104Y-72819445D01*
X134064105Y-72819447D01*
X134064106Y-72819450D01*
X134144101Y-72991000D01*
X134157466Y-73019662D01*
X134157468Y-73019666D01*
X134284170Y-73200615D01*
X134284175Y-73200621D01*
X134440378Y-73356824D01*
X134440384Y-73356829D01*
X134621333Y-73483531D01*
X134621335Y-73483532D01*
X134621338Y-73483534D01*
X134710743Y-73525224D01*
X134750189Y-73543618D01*
X134802628Y-73589790D01*
X134821780Y-73656984D01*
X134801564Y-73723865D01*
X134750189Y-73768382D01*
X134621340Y-73828465D01*
X134621338Y-73828466D01*
X134440377Y-73955175D01*
X134284175Y-74111377D01*
X134157466Y-74292338D01*
X134157465Y-74292340D01*
X134064107Y-74492548D01*
X134064104Y-74492554D01*
X134006930Y-74705929D01*
X134006929Y-74705937D01*
X133987677Y-74925997D01*
X133987677Y-74926002D01*
X134006929Y-75146062D01*
X134006930Y-75146070D01*
X134064104Y-75359445D01*
X134064105Y-75359447D01*
X134064106Y-75359450D01*
X134157466Y-75559662D01*
X134157468Y-75559666D01*
X134284170Y-75740615D01*
X134284175Y-75740621D01*
X134440378Y-75896824D01*
X134440384Y-75896829D01*
X134621333Y-76023531D01*
X134621335Y-76023532D01*
X134621338Y-76023534D01*
X134700134Y-76060277D01*
X134750189Y-76083618D01*
X134802628Y-76129790D01*
X134821780Y-76196984D01*
X134801564Y-76263865D01*
X134750189Y-76308382D01*
X134621340Y-76368465D01*
X134621338Y-76368466D01*
X134440377Y-76495175D01*
X134284175Y-76651377D01*
X134157466Y-76832338D01*
X134157465Y-76832340D01*
X134064107Y-77032548D01*
X134064104Y-77032554D01*
X134006930Y-77245929D01*
X134006929Y-77245937D01*
X133987677Y-77465997D01*
X133987677Y-77466002D01*
X134006929Y-77686062D01*
X134006930Y-77686070D01*
X134064104Y-77899445D01*
X134064105Y-77899447D01*
X134064106Y-77899450D01*
X134131799Y-78044618D01*
X134157466Y-78099662D01*
X134157468Y-78099666D01*
X134284170Y-78280615D01*
X134284175Y-78280621D01*
X134440378Y-78436824D01*
X134440384Y-78436829D01*
X134621333Y-78563531D01*
X134621335Y-78563532D01*
X134621338Y-78563534D01*
X134821550Y-78656894D01*
X135034932Y-78714070D01*
X135192123Y-78727822D01*
X135254998Y-78733323D01*
X135255000Y-78733323D01*
X135255002Y-78733323D01*
X135310017Y-78728509D01*
X135475068Y-78714070D01*
X135688450Y-78656894D01*
X135888662Y-78563534D01*
X136069620Y-78436826D01*
X136151446Y-78355000D01*
X139385001Y-78355000D01*
X139385001Y-78403322D01*
X139395144Y-78502607D01*
X139448452Y-78663481D01*
X139448457Y-78663492D01*
X139537424Y-78807728D01*
X139537427Y-78807732D01*
X139657267Y-78927572D01*
X139657271Y-78927575D01*
X139801507Y-79016542D01*
X139801518Y-79016547D01*
X139962393Y-79069855D01*
X140061683Y-79079999D01*
X140085000Y-79079998D01*
X140085000Y-78355000D01*
X139385001Y-78355000D01*
X136151446Y-78355000D01*
X136225826Y-78280620D01*
X136352534Y-78099662D01*
X136445894Y-77899450D01*
X136503070Y-77686068D01*
X136522323Y-77466000D01*
X136522235Y-77464999D01*
X136512884Y-77358111D01*
X136503070Y-77245932D01*
X136445894Y-77032550D01*
X136352534Y-76832339D01*
X136270648Y-76715393D01*
X136225827Y-76651381D01*
X136155050Y-76580604D01*
X136069620Y-76495174D01*
X136069616Y-76495171D01*
X136069615Y-76495170D01*
X135888666Y-76368468D01*
X135888658Y-76368464D01*
X135759811Y-76308382D01*
X135707371Y-76262210D01*
X135688219Y-76195017D01*
X135708435Y-76128135D01*
X135759811Y-76083618D01*
X135765802Y-76080824D01*
X135888662Y-76023534D01*
X136069620Y-75896826D01*
X136225826Y-75740620D01*
X136352534Y-75559662D01*
X136445894Y-75359450D01*
X136503070Y-75146068D01*
X136522323Y-74926000D01*
X136517000Y-74865162D01*
X136510556Y-74791500D01*
X136503070Y-74705932D01*
X136445894Y-74492550D01*
X136352534Y-74292339D01*
X136289180Y-74201859D01*
X136225827Y-74111381D01*
X136216702Y-74102256D01*
X136069620Y-73955174D01*
X136069616Y-73955171D01*
X136069615Y-73955170D01*
X135888666Y-73828468D01*
X135888658Y-73828464D01*
X135759811Y-73768382D01*
X135707371Y-73722210D01*
X135688219Y-73655017D01*
X135708435Y-73588135D01*
X135759811Y-73543618D01*
X135765802Y-73540824D01*
X135888662Y-73483534D01*
X136069620Y-73356826D01*
X136225826Y-73200620D01*
X136352534Y-73019662D01*
X136445894Y-72819450D01*
X136503070Y-72606068D01*
X136520587Y-72405844D01*
X136522323Y-72386002D01*
X136522323Y-72385997D01*
X136508646Y-72229666D01*
X136503070Y-72165932D01*
X136445894Y-71952550D01*
X136352534Y-71752339D01*
X136279915Y-71648627D01*
X136225827Y-71571381D01*
X136147759Y-71493313D01*
X136069620Y-71415174D01*
X136069616Y-71415171D01*
X136069615Y-71415170D01*
X135888666Y-71288468D01*
X135888658Y-71288464D01*
X135759811Y-71228382D01*
X135707371Y-71182210D01*
X135688219Y-71115017D01*
X135708435Y-71048135D01*
X135759811Y-71003618D01*
X135768676Y-70999484D01*
X135888662Y-70943534D01*
X136069620Y-70816826D01*
X136225826Y-70660620D01*
X136352534Y-70479662D01*
X136445894Y-70279450D01*
X136503070Y-70066068D01*
X136522323Y-69846000D01*
X136522235Y-69844999D01*
X136506203Y-69661744D01*
X136503070Y-69625932D01*
X136445894Y-69412550D01*
X136352534Y-69212339D01*
X136246972Y-69061580D01*
X136225827Y-69031381D01*
X136168045Y-68973599D01*
X136069620Y-68875174D01*
X136069616Y-68875171D01*
X136069615Y-68875170D01*
X135888666Y-68748468D01*
X135888658Y-68748464D01*
X135759811Y-68688382D01*
X135707371Y-68642210D01*
X135688219Y-68575017D01*
X135708435Y-68508135D01*
X135759811Y-68463618D01*
X135779429Y-68454470D01*
X135888662Y-68403534D01*
X136069620Y-68276826D01*
X136225826Y-68120620D01*
X136352534Y-67939662D01*
X136445894Y-67739450D01*
X136503070Y-67526068D01*
X136522323Y-67306000D01*
X136522234Y-67304986D01*
X136514269Y-67213945D01*
X136503070Y-67085932D01*
X136445894Y-66872550D01*
X136352534Y-66672339D01*
X136268431Y-66552227D01*
X136225827Y-66491381D01*
X136158946Y-66424500D01*
X136069620Y-66335174D01*
X136069616Y-66335171D01*
X136069615Y-66335170D01*
X135888666Y-66208468D01*
X135888658Y-66208464D01*
X135759811Y-66148382D01*
X135707371Y-66102210D01*
X135688219Y-66035017D01*
X135708435Y-65968135D01*
X135759811Y-65923618D01*
X135769041Y-65919314D01*
X135888662Y-65863534D01*
X136069620Y-65736826D01*
X136225826Y-65580620D01*
X136352534Y-65399662D01*
X136445894Y-65199450D01*
X136503070Y-64986068D01*
X136522323Y-64766000D01*
X136503070Y-64545932D01*
X136445894Y-64332550D01*
X136352534Y-64132339D01*
X136225826Y-63951380D01*
X136069620Y-63795174D01*
X136069616Y-63795171D01*
X136069615Y-63795170D01*
X135888666Y-63668468D01*
X135888658Y-63668464D01*
X135759811Y-63608382D01*
X135707371Y-63562210D01*
X135688219Y-63495017D01*
X135708435Y-63428135D01*
X135759811Y-63383618D01*
X135765802Y-63380824D01*
X135888662Y-63323534D01*
X136069620Y-63196826D01*
X136225826Y-63040620D01*
X136352534Y-62859662D01*
X136433628Y-62685753D01*
X136479799Y-62633315D01*
X136546992Y-62614163D01*
X136613873Y-62634378D01*
X136633690Y-62650478D01*
X139165181Y-65181969D01*
X139198666Y-65243292D01*
X139201500Y-65269650D01*
X139201500Y-69913312D01*
X139181815Y-69980351D01*
X139169650Y-69996284D01*
X139094466Y-70079784D01*
X138999821Y-70243715D01*
X138999818Y-70243722D01*
X138941327Y-70423740D01*
X138941326Y-70423744D01*
X138921540Y-70612000D01*
X138941326Y-70800256D01*
X138941327Y-70800259D01*
X138999818Y-70980277D01*
X138999821Y-70980284D01*
X139094467Y-71144216D01*
X139204037Y-71265905D01*
X139221129Y-71284888D01*
X139374265Y-71396148D01*
X139374270Y-71396151D01*
X139547192Y-71473142D01*
X139547193Y-71473142D01*
X139547197Y-71473144D01*
X139732354Y-71512500D01*
X139732358Y-71512500D01*
X139736780Y-71513440D01*
X139798262Y-71546632D01*
X139832039Y-71607795D01*
X139832192Y-71609192D01*
X139835000Y-71612000D01*
X140809283Y-71612000D01*
X140773629Y-71650731D01*
X140722552Y-71767177D01*
X140712051Y-71893898D01*
X140743266Y-72017162D01*
X140805227Y-72112000D01*
X139835000Y-72112000D01*
X139835000Y-72671844D01*
X139841401Y-72731372D01*
X139841403Y-72731379D01*
X139891645Y-72866086D01*
X139891649Y-72866093D01*
X139977809Y-72981187D01*
X139977812Y-72981190D01*
X140092906Y-73067350D01*
X140092913Y-73067354D01*
X140227620Y-73117596D01*
X140227627Y-73117598D01*
X140287155Y-73123999D01*
X140287172Y-73124000D01*
X140847000Y-73124000D01*
X140847000Y-72150220D01*
X140913157Y-72201713D01*
X141033422Y-72243000D01*
X141128569Y-72243000D01*
X141222421Y-72227339D01*
X141334251Y-72166820D01*
X141347000Y-72152970D01*
X141347000Y-73124000D01*
X141906828Y-73124000D01*
X141906844Y-73123999D01*
X141966372Y-73117598D01*
X141966379Y-73117596D01*
X142101086Y-73067354D01*
X142101093Y-73067350D01*
X142216187Y-72981190D01*
X142216190Y-72981187D01*
X142302350Y-72866093D01*
X142302354Y-72866086D01*
X142352596Y-72731379D01*
X142352598Y-72731372D01*
X142358999Y-72671844D01*
X142359000Y-72671827D01*
X142359000Y-72631207D01*
X142378685Y-72564168D01*
X142431489Y-72518413D01*
X142500647Y-72508469D01*
X142564203Y-72537494D01*
X142584573Y-72560082D01*
X142589294Y-72566824D01*
X142666170Y-72676615D01*
X142666175Y-72676621D01*
X142822378Y-72832824D01*
X142822384Y-72832829D01*
X143003333Y-72959531D01*
X143003335Y-72959532D01*
X143003338Y-72959534D01*
X143203550Y-73052894D01*
X143416932Y-73110070D01*
X143602458Y-73126301D01*
X143627273Y-73128472D01*
X143692342Y-73153924D01*
X143733321Y-73210515D01*
X143737199Y-73280277D01*
X143708617Y-73334971D01*
X143666466Y-73381785D01*
X143571821Y-73545715D01*
X143571818Y-73545722D01*
X143513327Y-73725740D01*
X143513326Y-73725744D01*
X143493540Y-73914000D01*
X143513326Y-74102256D01*
X143513327Y-74102259D01*
X143571818Y-74282277D01*
X143571820Y-74282281D01*
X143571821Y-74282284D01*
X143608418Y-74345672D01*
X143636943Y-74395079D01*
X143653415Y-74462979D01*
X143636288Y-74520197D01*
X143621858Y-74544596D01*
X143621854Y-74544607D01*
X143576002Y-74702426D01*
X143576001Y-74702432D01*
X143573100Y-74739304D01*
X143573100Y-76520696D01*
X143576001Y-76557567D01*
X143576002Y-76557573D01*
X143621854Y-76715393D01*
X143621855Y-76715396D01*
X143705517Y-76856862D01*
X143705523Y-76856870D01*
X143821729Y-76973076D01*
X143821733Y-76973079D01*
X143821735Y-76973081D01*
X143963202Y-77056744D01*
X144004824Y-77068836D01*
X144121026Y-77102597D01*
X144121029Y-77102597D01*
X144121031Y-77102598D01*
X144133322Y-77103565D01*
X144157904Y-77105500D01*
X144157906Y-77105500D01*
X144589296Y-77105500D01*
X144607731Y-77104049D01*
X144626169Y-77102598D01*
X144626171Y-77102597D01*
X144626173Y-77102597D01*
X144688462Y-77084500D01*
X144783998Y-77056744D01*
X144925465Y-76973081D01*
X144925470Y-76973075D01*
X144931631Y-76968298D01*
X144933533Y-76970750D01*
X144982179Y-76944155D01*
X145051874Y-76949104D01*
X145084295Y-76969940D01*
X145085569Y-76968298D01*
X145091732Y-76973078D01*
X145091735Y-76973081D01*
X145233202Y-77056744D01*
X145274824Y-77068836D01*
X145391026Y-77102597D01*
X145391029Y-77102597D01*
X145391031Y-77102598D01*
X145403322Y-77103565D01*
X145427904Y-77105500D01*
X145427906Y-77105500D01*
X145859296Y-77105500D01*
X145877731Y-77104049D01*
X145896169Y-77102598D01*
X145896171Y-77102597D01*
X145896173Y-77102597D01*
X145958462Y-77084500D01*
X146053998Y-77056744D01*
X146195465Y-76973081D01*
X146195470Y-76973076D01*
X146201626Y-76968301D01*
X146203439Y-76970638D01*
X146252549Y-76943798D01*
X146322243Y-76948756D01*
X146354596Y-76969551D01*
X146355878Y-76967900D01*
X146362047Y-76972685D01*
X146503401Y-77056281D01*
X146661114Y-77102100D01*
X146661111Y-77102100D01*
X146663598Y-77102295D01*
X146663600Y-77102295D01*
X146663600Y-75504000D01*
X146683285Y-75436961D01*
X146736089Y-75391206D01*
X146787600Y-75380000D01*
X147039600Y-75380000D01*
X147106639Y-75399685D01*
X147152394Y-75452489D01*
X147163600Y-75504000D01*
X147163600Y-77102295D01*
X147163601Y-77102295D01*
X147166086Y-77102100D01*
X147323798Y-77056281D01*
X147465150Y-76972686D01*
X147471317Y-76967903D01*
X147473230Y-76970369D01*
X147521822Y-76943802D01*
X147591517Y-76948749D01*
X147624362Y-76969853D01*
X147625569Y-76968298D01*
X147631732Y-76973078D01*
X147631735Y-76973081D01*
X147773202Y-77056744D01*
X147814824Y-77068836D01*
X147931026Y-77102597D01*
X147931029Y-77102597D01*
X147931031Y-77102598D01*
X147943322Y-77103565D01*
X147967904Y-77105500D01*
X147967906Y-77105500D01*
X148399296Y-77105500D01*
X148417731Y-77104049D01*
X148436169Y-77102598D01*
X148436171Y-77102597D01*
X148436173Y-77102597D01*
X148498462Y-77084500D01*
X148593998Y-77056744D01*
X148735465Y-76973081D01*
X148851681Y-76856865D01*
X148935344Y-76715398D01*
X148967648Y-76604205D01*
X149005254Y-76545322D01*
X149068726Y-76516115D01*
X149137159Y-76525522D01*
X149199197Y-76553144D01*
X149384354Y-76592500D01*
X149384355Y-76592500D01*
X149573644Y-76592500D01*
X149573646Y-76592500D01*
X149758803Y-76553144D01*
X149931730Y-76476151D01*
X150084871Y-76364888D01*
X150211533Y-76224216D01*
X150306179Y-76060284D01*
X150364674Y-75880256D01*
X150384460Y-75692000D01*
X150364674Y-75503744D01*
X150306179Y-75323716D01*
X150211533Y-75159784D01*
X150084871Y-75019112D01*
X150075260Y-75012129D01*
X149931734Y-74907851D01*
X149931729Y-74907848D01*
X149758807Y-74830857D01*
X149758802Y-74830855D01*
X149613001Y-74799865D01*
X149573646Y-74791500D01*
X149384354Y-74791500D01*
X149351897Y-74798398D01*
X149199197Y-74830855D01*
X149199196Y-74830855D01*
X149158489Y-74848980D01*
X149089239Y-74858264D01*
X149025962Y-74828635D01*
X148988750Y-74769500D01*
X148984149Y-74740562D01*
X148984100Y-74739303D01*
X148981474Y-74705937D01*
X148981198Y-74702431D01*
X148960613Y-74631579D01*
X148941534Y-74565908D01*
X148935344Y-74544602D01*
X148927075Y-74530619D01*
X148909894Y-74462895D01*
X148932054Y-74396633D01*
X148986521Y-74352870D01*
X149033808Y-74343500D01*
X149463861Y-74343500D01*
X149479481Y-74345224D01*
X149479508Y-74344939D01*
X149487264Y-74345671D01*
X149487271Y-74345673D01*
X149556418Y-74343500D01*
X149585954Y-74343500D01*
X149592832Y-74342630D01*
X149598645Y-74342172D01*
X149645231Y-74340709D01*
X149664473Y-74335117D01*
X149683516Y-74331174D01*
X149703396Y-74328664D01*
X149746726Y-74311507D01*
X149752250Y-74309617D01*
X149756000Y-74308527D01*
X149796994Y-74296618D01*
X149814233Y-74286422D01*
X149831707Y-74277862D01*
X149850331Y-74270488D01*
X149850331Y-74270487D01*
X149850336Y-74270486D01*
X149888053Y-74243082D01*
X149892909Y-74239892D01*
X149933024Y-74216170D01*
X149947193Y-74201999D01*
X149961983Y-74189368D01*
X149978191Y-74177594D01*
X150007903Y-74141676D01*
X150011816Y-74137376D01*
X155323786Y-68825406D01*
X155336048Y-68815584D01*
X155335865Y-68815363D01*
X155341867Y-68810396D01*
X155341877Y-68810390D01*
X155389241Y-68759952D01*
X155410120Y-68739074D01*
X155414373Y-68733590D01*
X155418150Y-68729167D01*
X155450062Y-68695186D01*
X155459714Y-68677627D01*
X155470389Y-68661376D01*
X155482674Y-68645540D01*
X155501186Y-68602756D01*
X155503742Y-68597539D01*
X155526197Y-68556696D01*
X155531180Y-68537284D01*
X155537477Y-68518895D01*
X155545438Y-68500499D01*
X155551279Y-68463618D01*
X155552728Y-68454470D01*
X155553910Y-68448755D01*
X155565500Y-68403623D01*
X155565500Y-68383587D01*
X155567027Y-68364186D01*
X155570160Y-68344408D01*
X155565775Y-68298019D01*
X155565500Y-68292181D01*
X155565500Y-61520004D01*
X155585185Y-61452965D01*
X155624403Y-61414465D01*
X155643044Y-61402968D01*
X155762968Y-61283044D01*
X155762971Y-61283038D01*
X155767276Y-61277595D01*
X155824296Y-61237215D01*
X155864547Y-61230500D01*
X156555453Y-61230500D01*
X156622492Y-61250185D01*
X156652724Y-61277595D01*
X156657032Y-61283044D01*
X156753786Y-61379798D01*
X156787270Y-61441119D01*
X156782286Y-61510811D01*
X156773492Y-61529477D01*
X156758469Y-61555498D01*
X156737200Y-61592338D01*
X156728320Y-61607718D01*
X156728318Y-61607722D01*
X156669827Y-61787740D01*
X156669826Y-61787744D01*
X156650040Y-61976000D01*
X156669826Y-62164256D01*
X156669827Y-62164259D01*
X156728318Y-62344277D01*
X156728321Y-62344284D01*
X156822967Y-62508216D01*
X156935004Y-62632645D01*
X156949629Y-62648888D01*
X157102765Y-62760148D01*
X157102770Y-62760151D01*
X157275692Y-62837142D01*
X157275697Y-62837144D01*
X157460854Y-62876500D01*
X157460855Y-62876500D01*
X157650144Y-62876500D01*
X157650146Y-62876500D01*
X157835303Y-62837144D01*
X158008230Y-62760151D01*
X158161371Y-62648888D01*
X158288033Y-62508216D01*
X158382679Y-62344284D01*
X158441174Y-62164256D01*
X158460960Y-61976000D01*
X158441174Y-61787744D01*
X158382679Y-61607716D01*
X158288033Y-61443784D01*
X158284784Y-61438156D01*
X158286190Y-61437343D01*
X158265447Y-61379212D01*
X158281270Y-61311158D01*
X158301566Y-61284445D01*
X158302968Y-61283044D01*
X158392003Y-61138697D01*
X158445349Y-60977708D01*
X158455500Y-60878345D01*
X158455499Y-60331656D01*
X158454273Y-60319658D01*
X158445349Y-60232292D01*
X158445348Y-60232289D01*
X158427619Y-60178786D01*
X158392003Y-60071303D01*
X158391999Y-60071297D01*
X158391998Y-60071294D01*
X158302970Y-59926959D01*
X158302967Y-59926955D01*
X158293339Y-59917327D01*
X158259854Y-59856004D01*
X158264838Y-59786312D01*
X158293345Y-59741959D01*
X158302573Y-59732731D01*
X158391542Y-59588492D01*
X158391547Y-59588481D01*
X158444855Y-59427606D01*
X158454999Y-59328322D01*
X158455000Y-59328309D01*
X158455000Y-59305000D01*
X156505001Y-59305000D01*
X156505001Y-59328322D01*
X156515144Y-59427607D01*
X156568452Y-59588481D01*
X156568457Y-59588492D01*
X156657424Y-59732728D01*
X156657427Y-59732732D01*
X156666660Y-59741965D01*
X156700145Y-59803288D01*
X156695161Y-59872980D01*
X156666663Y-59917324D01*
X156657031Y-59926955D01*
X156652720Y-59932409D01*
X156595699Y-59972787D01*
X156555453Y-59979500D01*
X155864547Y-59979500D01*
X155797508Y-59959815D01*
X155767276Y-59932405D01*
X155762963Y-59926950D01*
X155753340Y-59917327D01*
X155719855Y-59856004D01*
X155724839Y-59786312D01*
X155753343Y-59741962D01*
X155762572Y-59732732D01*
X155762573Y-59732731D01*
X155851542Y-59588492D01*
X155851547Y-59588481D01*
X155904855Y-59427606D01*
X155914999Y-59328322D01*
X155915000Y-59328309D01*
X155915000Y-59305000D01*
X153965001Y-59305000D01*
X153965001Y-59328322D01*
X153975144Y-59427607D01*
X154028452Y-59588481D01*
X154028457Y-59588492D01*
X154117424Y-59732728D01*
X154117427Y-59732732D01*
X154126660Y-59741965D01*
X154160145Y-59803288D01*
X154155161Y-59872980D01*
X154126663Y-59917324D01*
X154117033Y-59926953D01*
X154117029Y-59926959D01*
X154028001Y-60071294D01*
X154027996Y-60071305D01*
X153974651Y-60232290D01*
X153964500Y-60331647D01*
X153964500Y-60878337D01*
X153964501Y-60878355D01*
X153974650Y-60977707D01*
X153974651Y-60977710D01*
X154027996Y-61138694D01*
X154028001Y-61138705D01*
X154117029Y-61283040D01*
X154117032Y-61283044D01*
X154236956Y-61402968D01*
X154255596Y-61414465D01*
X154302321Y-61466412D01*
X154314500Y-61520004D01*
X154314500Y-68014151D01*
X154294815Y-68081190D01*
X154278181Y-68101832D01*
X151092791Y-71287221D01*
X151031468Y-71320706D01*
X150961776Y-71315722D01*
X150912958Y-71282509D01*
X150898345Y-71266279D01*
X150868119Y-71203285D01*
X150866500Y-71183312D01*
X150866500Y-67646742D01*
X150868224Y-67631122D01*
X150867939Y-67631095D01*
X150868673Y-67623333D01*
X150866500Y-67554172D01*
X150866500Y-67524656D01*
X150866500Y-67524650D01*
X150865631Y-67517779D01*
X150865173Y-67511952D01*
X150865085Y-67509152D01*
X150863710Y-67465373D01*
X150858119Y-67446130D01*
X150854173Y-67427078D01*
X150851664Y-67407208D01*
X150834504Y-67363867D01*
X150832624Y-67358379D01*
X150819618Y-67313610D01*
X150809422Y-67296370D01*
X150800861Y-67278894D01*
X150793487Y-67260270D01*
X150793486Y-67260268D01*
X150766079Y-67222545D01*
X150762888Y-67217686D01*
X150757787Y-67209061D01*
X150739170Y-67177580D01*
X150739168Y-67177578D01*
X150739165Y-67177574D01*
X150725006Y-67163415D01*
X150712368Y-67148619D01*
X150711835Y-67147885D01*
X150700594Y-67132413D01*
X150664688Y-67102709D01*
X150660376Y-67098786D01*
X147814199Y-64252609D01*
X147780714Y-64191286D01*
X147785698Y-64121594D01*
X147827570Y-64065661D01*
X147851437Y-64051652D01*
X147899730Y-64030151D01*
X148052871Y-63918888D01*
X148179533Y-63778216D01*
X148274179Y-63614284D01*
X148332674Y-63434256D01*
X148352460Y-63246000D01*
X148332674Y-63057744D01*
X148274179Y-62877716D01*
X148179533Y-62713784D01*
X148106475Y-62632645D01*
X148076245Y-62569654D01*
X148075620Y-62551107D01*
X148074917Y-62551130D01*
X148073444Y-62504264D01*
X148072500Y-62474203D01*
X148072500Y-62444650D01*
X148071629Y-62437759D01*
X148071172Y-62431945D01*
X148069709Y-62385372D01*
X148064122Y-62366144D01*
X148060174Y-62347084D01*
X148057664Y-62327208D01*
X148040507Y-62283875D01*
X148038619Y-62278359D01*
X148025619Y-62233612D01*
X148015418Y-62216363D01*
X148006860Y-62198894D01*
X147999486Y-62180268D01*
X147999483Y-62180264D01*
X147999483Y-62180263D01*
X147972098Y-62142571D01*
X147968890Y-62137687D01*
X147945172Y-62097582D01*
X147945163Y-62097571D01*
X147931005Y-62083413D01*
X147918370Y-62068620D01*
X147906593Y-62052412D01*
X147870693Y-62022713D01*
X147866381Y-62018790D01*
X144652591Y-58805000D01*
X153965000Y-58805000D01*
X154690000Y-58805000D01*
X154690000Y-58105000D01*
X155190000Y-58105000D01*
X155190000Y-58805000D01*
X155914999Y-58805000D01*
X156505000Y-58805000D01*
X157230000Y-58805000D01*
X157230000Y-58105000D01*
X157730000Y-58105000D01*
X157730000Y-58805000D01*
X158454999Y-58805000D01*
X159045000Y-58805000D01*
X159770000Y-58805000D01*
X159770000Y-58105000D01*
X159769999Y-58104999D01*
X159721693Y-58105000D01*
X159721675Y-58105001D01*
X159622392Y-58115144D01*
X159461518Y-58168452D01*
X159461507Y-58168457D01*
X159317271Y-58257424D01*
X159317267Y-58257427D01*
X159197427Y-58377267D01*
X159197424Y-58377271D01*
X159108457Y-58521507D01*
X159108452Y-58521518D01*
X159055144Y-58682393D01*
X159045000Y-58781677D01*
X159045000Y-58805000D01*
X158454999Y-58805000D01*
X158454999Y-58781692D01*
X158454998Y-58781677D01*
X158444855Y-58682392D01*
X158391547Y-58521518D01*
X158391542Y-58521507D01*
X158302575Y-58377271D01*
X158302572Y-58377267D01*
X158182732Y-58257427D01*
X158182728Y-58257424D01*
X158038492Y-58168457D01*
X158038481Y-58168452D01*
X157877606Y-58115144D01*
X157778322Y-58105000D01*
X157730000Y-58105000D01*
X157230000Y-58105000D01*
X157229999Y-58104999D01*
X157181693Y-58105000D01*
X157181675Y-58105001D01*
X157082392Y-58115144D01*
X156921518Y-58168452D01*
X156921507Y-58168457D01*
X156777271Y-58257424D01*
X156777267Y-58257427D01*
X156657427Y-58377267D01*
X156657424Y-58377271D01*
X156568457Y-58521507D01*
X156568452Y-58521518D01*
X156515144Y-58682393D01*
X156505000Y-58781677D01*
X156505000Y-58805000D01*
X155914999Y-58805000D01*
X155914999Y-58781692D01*
X155914998Y-58781677D01*
X155904855Y-58682392D01*
X155851547Y-58521518D01*
X155851542Y-58521507D01*
X155762575Y-58377271D01*
X155762572Y-58377267D01*
X155642732Y-58257427D01*
X155642728Y-58257424D01*
X155498492Y-58168457D01*
X155498481Y-58168452D01*
X155337606Y-58115144D01*
X155238322Y-58105000D01*
X155190000Y-58105000D01*
X154690000Y-58105000D01*
X154689999Y-58104999D01*
X154641693Y-58105000D01*
X154641675Y-58105001D01*
X154542392Y-58115144D01*
X154381518Y-58168452D01*
X154381507Y-58168457D01*
X154237271Y-58257424D01*
X154237267Y-58257427D01*
X154117427Y-58377267D01*
X154117424Y-58377271D01*
X154028457Y-58521507D01*
X154028452Y-58521518D01*
X153975144Y-58682393D01*
X153965000Y-58781677D01*
X153965000Y-58805000D01*
X144652591Y-58805000D01*
X141219591Y-55372000D01*
X152637540Y-55372000D01*
X152657326Y-55560256D01*
X152657327Y-55560259D01*
X152715818Y-55740277D01*
X152715821Y-55740284D01*
X152810467Y-55904216D01*
X152856289Y-55955106D01*
X152937129Y-56044888D01*
X153090265Y-56156148D01*
X153090270Y-56156151D01*
X153263192Y-56233142D01*
X153263197Y-56233144D01*
X153448354Y-56272500D01*
X153448355Y-56272500D01*
X153637644Y-56272500D01*
X153637646Y-56272500D01*
X153822803Y-56233144D01*
X153995730Y-56156151D01*
X154034234Y-56128175D01*
X154100037Y-56104695D01*
X154168091Y-56120519D01*
X154194800Y-56140812D01*
X154236955Y-56182967D01*
X154236959Y-56182970D01*
X154381294Y-56271998D01*
X154381297Y-56271999D01*
X154381303Y-56272003D01*
X154542292Y-56325349D01*
X154641655Y-56335500D01*
X155238344Y-56335499D01*
X155238352Y-56335498D01*
X155238355Y-56335498D01*
X155301124Y-56329086D01*
X155337708Y-56325349D01*
X155498697Y-56272003D01*
X155643044Y-56182968D01*
X155762968Y-56063044D01*
X155852003Y-55918697D01*
X155905349Y-55757708D01*
X155915500Y-55658345D01*
X155915499Y-55111656D01*
X155907653Y-55034852D01*
X155905349Y-55012292D01*
X155905348Y-55012289D01*
X155882224Y-54942505D01*
X155852003Y-54851303D01*
X155851999Y-54851297D01*
X155851998Y-54851294D01*
X155762970Y-54706959D01*
X155762967Y-54706955D01*
X155753339Y-54697327D01*
X155719854Y-54636004D01*
X155724838Y-54566312D01*
X155753345Y-54521959D01*
X155762573Y-54512731D01*
X155851542Y-54368492D01*
X155851547Y-54368481D01*
X155904855Y-54207606D01*
X155914999Y-54108322D01*
X155915000Y-54108309D01*
X155915000Y-54085000D01*
X153965001Y-54085000D01*
X153965001Y-54108322D01*
X153975144Y-54207607D01*
X154030725Y-54375339D01*
X154027948Y-54376259D01*
X154036451Y-54432194D01*
X154007938Y-54495981D01*
X153949466Y-54534227D01*
X153879598Y-54534789D01*
X153863140Y-54528815D01*
X153822802Y-54510855D01*
X153677001Y-54479865D01*
X153637646Y-54471500D01*
X153448354Y-54471500D01*
X153415897Y-54478398D01*
X153263197Y-54510855D01*
X153263192Y-54510857D01*
X153090270Y-54587848D01*
X153090265Y-54587851D01*
X152937129Y-54699111D01*
X152810466Y-54839785D01*
X152715821Y-55003715D01*
X152715818Y-55003722D01*
X152659067Y-55178386D01*
X152657326Y-55183744D01*
X152637540Y-55372000D01*
X141219591Y-55372000D01*
X139432591Y-53585000D01*
X153965000Y-53585000D01*
X154690000Y-53585000D01*
X154690000Y-52885000D01*
X155190000Y-52885000D01*
X155190000Y-53585000D01*
X155914999Y-53585000D01*
X155914999Y-53561692D01*
X155914998Y-53561677D01*
X155904855Y-53462392D01*
X155851547Y-53301518D01*
X155851542Y-53301507D01*
X155762575Y-53157271D01*
X155762572Y-53157267D01*
X155642732Y-53037427D01*
X155642728Y-53037424D01*
X155498492Y-52948457D01*
X155498481Y-52948452D01*
X155337606Y-52895144D01*
X155238322Y-52885000D01*
X155190000Y-52885000D01*
X154690000Y-52885000D01*
X154689999Y-52884999D01*
X154641693Y-52885000D01*
X154641675Y-52885001D01*
X154542392Y-52895144D01*
X154381518Y-52948452D01*
X154381507Y-52948457D01*
X154237271Y-53037424D01*
X154237267Y-53037427D01*
X154117427Y-53157267D01*
X154117424Y-53157271D01*
X154028457Y-53301507D01*
X154028452Y-53301518D01*
X153975144Y-53462393D01*
X153965000Y-53561677D01*
X153965000Y-53585000D01*
X139432591Y-53585000D01*
X136872591Y-51025000D01*
X153930000Y-51025000D01*
X153930000Y-51822844D01*
X153936401Y-51882372D01*
X153936403Y-51882379D01*
X153986645Y-52017086D01*
X153986649Y-52017093D01*
X154072809Y-52132187D01*
X154072812Y-52132190D01*
X154187906Y-52218350D01*
X154187913Y-52218354D01*
X154322620Y-52268596D01*
X154322627Y-52268598D01*
X154382155Y-52274999D01*
X154382172Y-52275000D01*
X154930000Y-52275000D01*
X154930000Y-51025000D01*
X153930000Y-51025000D01*
X136872591Y-51025000D01*
X136372591Y-50525000D01*
X153930000Y-50525000D01*
X154930000Y-50525000D01*
X154930000Y-49275000D01*
X154382155Y-49275000D01*
X154322627Y-49281401D01*
X154322620Y-49281403D01*
X154187913Y-49331645D01*
X154187906Y-49331649D01*
X154072812Y-49417809D01*
X154072809Y-49417812D01*
X153986649Y-49532906D01*
X153986645Y-49532913D01*
X153936403Y-49667620D01*
X153936401Y-49667627D01*
X153930000Y-49727155D01*
X153930000Y-50525000D01*
X136372591Y-50525000D01*
X136283908Y-50436317D01*
X136250423Y-50374994D01*
X136255407Y-50305302D01*
X136270012Y-50277515D01*
X136352534Y-50159662D01*
X136445894Y-49959450D01*
X136503070Y-49746068D01*
X136522323Y-49526000D01*
X136503070Y-49305932D01*
X136445894Y-49092550D01*
X136352534Y-48892339D01*
X136256521Y-48755217D01*
X136225827Y-48711381D01*
X136225823Y-48711377D01*
X136069620Y-48555174D01*
X136069616Y-48555171D01*
X136069615Y-48555170D01*
X135888666Y-48428468D01*
X135888658Y-48428464D01*
X135759811Y-48368382D01*
X135707371Y-48322210D01*
X135688219Y-48255017D01*
X135708435Y-48188135D01*
X135759811Y-48143618D01*
X135765802Y-48140824D01*
X135888662Y-48083534D01*
X136069620Y-47956826D01*
X136225826Y-47800620D01*
X136352534Y-47619662D01*
X136445894Y-47419450D01*
X136503070Y-47206068D01*
X136522323Y-46986000D01*
X136503070Y-46765932D01*
X136445894Y-46552550D01*
X136352534Y-46352339D01*
X136225826Y-46171380D01*
X136069620Y-46015174D01*
X136069616Y-46015171D01*
X136069615Y-46015170D01*
X135888666Y-45888468D01*
X135888658Y-45888464D01*
X135759219Y-45828106D01*
X135706779Y-45781934D01*
X135687627Y-45714741D01*
X135707843Y-45647859D01*
X135759219Y-45603342D01*
X135888408Y-45543100D01*
X135888420Y-45543093D01*
X135917301Y-45522870D01*
X155079500Y-45522870D01*
X155079501Y-45522876D01*
X155085908Y-45582483D01*
X155136202Y-45717328D01*
X155136206Y-45717335D01*
X155222452Y-45832544D01*
X155222455Y-45832547D01*
X155337664Y-45918793D01*
X155337671Y-45918797D01*
X155472517Y-45969091D01*
X155472516Y-45969091D01*
X155479444Y-45969835D01*
X155532127Y-45975500D01*
X159427872Y-45975499D01*
X159487483Y-45969091D01*
X159622331Y-45918796D01*
X159737546Y-45832546D01*
X159823796Y-45717331D01*
X159874091Y-45582483D01*
X159874090Y-45582483D01*
X159876802Y-45575215D01*
X159878142Y-45575715D01*
X159908513Y-45522363D01*
X159970419Y-45489968D01*
X160040012Y-45496185D01*
X160082310Y-45523901D01*
X160501181Y-45942771D01*
X160534666Y-46004094D01*
X160537500Y-46030452D01*
X160537500Y-49150500D01*
X160517815Y-49217539D01*
X160465011Y-49263294D01*
X160413500Y-49274500D01*
X158982129Y-49274500D01*
X158982123Y-49274501D01*
X158922516Y-49280908D01*
X158787671Y-49331202D01*
X158787669Y-49331203D01*
X158704311Y-49393606D01*
X158638847Y-49418023D01*
X158570574Y-49403172D01*
X158555689Y-49393606D01*
X158472330Y-49331203D01*
X158472328Y-49331202D01*
X158337482Y-49280908D01*
X158337483Y-49280908D01*
X158277883Y-49274501D01*
X158277881Y-49274500D01*
X158277873Y-49274500D01*
X158277864Y-49274500D01*
X156682129Y-49274500D01*
X156682123Y-49274501D01*
X156622516Y-49280908D01*
X156487671Y-49331202D01*
X156487669Y-49331204D01*
X156403894Y-49393918D01*
X156338430Y-49418335D01*
X156270157Y-49403484D01*
X156255272Y-49393918D01*
X156172088Y-49331646D01*
X156172086Y-49331645D01*
X156037379Y-49281403D01*
X156037372Y-49281401D01*
X155977844Y-49275000D01*
X155430000Y-49275000D01*
X155430000Y-52275000D01*
X155977828Y-52275000D01*
X155977844Y-52274999D01*
X156037372Y-52268598D01*
X156037379Y-52268596D01*
X156172086Y-52218354D01*
X156172089Y-52218352D01*
X156255271Y-52156082D01*
X156320735Y-52131664D01*
X156389008Y-52146515D01*
X156403887Y-52156077D01*
X156444940Y-52186809D01*
X156486811Y-52242743D01*
X156491794Y-52312435D01*
X156488560Y-52324391D01*
X156467326Y-52389743D01*
X156463976Y-52421614D01*
X156447540Y-52578000D01*
X156467326Y-52766256D01*
X156469292Y-52772309D01*
X156525818Y-52946277D01*
X156525821Y-52946284D01*
X156610010Y-53092104D01*
X156626483Y-53160004D01*
X156608740Y-53218254D01*
X156561980Y-53295603D01*
X156511409Y-53457893D01*
X156505000Y-53528427D01*
X156505000Y-53535000D01*
X158454999Y-53535000D01*
X158454999Y-53528417D01*
X158448591Y-53457897D01*
X158448590Y-53457892D01*
X158398018Y-53295603D01*
X158310072Y-53150122D01*
X158215776Y-53055826D01*
X158182291Y-52994503D01*
X158185526Y-52929827D01*
X158196795Y-52895144D01*
X158238674Y-52766256D01*
X158244596Y-52709905D01*
X158271179Y-52645294D01*
X158328476Y-52605309D01*
X158398295Y-52602648D01*
X158455597Y-52635188D01*
X159056024Y-53235614D01*
X159089509Y-53296937D01*
X159086049Y-53362298D01*
X159054564Y-53457312D01*
X159054563Y-53457316D01*
X159044500Y-53555818D01*
X159044500Y-54089181D01*
X159054563Y-54187683D01*
X159107450Y-54347284D01*
X159107455Y-54347295D01*
X159195716Y-54490387D01*
X159195719Y-54490391D01*
X159227647Y-54522319D01*
X159261132Y-54583642D01*
X159256148Y-54653334D01*
X159227647Y-54697681D01*
X159190612Y-54734716D01*
X159188528Y-54732632D01*
X159142416Y-54765286D01*
X159102168Y-54772000D01*
X158334019Y-54772000D01*
X158266980Y-54752315D01*
X158246337Y-54735680D01*
X158207983Y-54697325D01*
X158174498Y-54636002D01*
X158179484Y-54566310D01*
X158207985Y-54521963D01*
X158310071Y-54419878D01*
X158310072Y-54419877D01*
X158398019Y-54274395D01*
X158448590Y-54112106D01*
X158455000Y-54041572D01*
X158455000Y-54035000D01*
X156505001Y-54035000D01*
X156505001Y-54041582D01*
X156511408Y-54112102D01*
X156511409Y-54112107D01*
X156561981Y-54274396D01*
X156649927Y-54419877D01*
X156752015Y-54521965D01*
X156785500Y-54583288D01*
X156780516Y-54652980D01*
X156752015Y-54697327D01*
X156649531Y-54799810D01*
X156649530Y-54799811D01*
X156561522Y-54945393D01*
X156510913Y-55107807D01*
X156510563Y-55111662D01*
X156504500Y-55178384D01*
X156504500Y-55691616D01*
X156505583Y-55703531D01*
X156510913Y-55762192D01*
X156510913Y-55762194D01*
X156510914Y-55762196D01*
X156561522Y-55924606D01*
X156646953Y-56065926D01*
X156649530Y-56070188D01*
X156769811Y-56190469D01*
X156769813Y-56190470D01*
X156769815Y-56190472D01*
X156915394Y-56278478D01*
X157077804Y-56329086D01*
X157148384Y-56335500D01*
X157148387Y-56335500D01*
X157811613Y-56335500D01*
X157811616Y-56335500D01*
X157882196Y-56329086D01*
X158044606Y-56278478D01*
X158190185Y-56190472D01*
X158310472Y-56070185D01*
X158310473Y-56070182D01*
X158315775Y-56064881D01*
X158316744Y-56065850D01*
X158367050Y-56029892D01*
X158407815Y-56023000D01*
X159102168Y-56023000D01*
X159169207Y-56042685D01*
X159189664Y-56061231D01*
X159190612Y-56060284D01*
X159314608Y-56184280D01*
X159314612Y-56184283D01*
X159457704Y-56272544D01*
X159457707Y-56272545D01*
X159457713Y-56272549D01*
X159617315Y-56325436D01*
X159715826Y-56335500D01*
X160070500Y-56335500D01*
X160137539Y-56355185D01*
X160183294Y-56407989D01*
X160194500Y-56459500D01*
X160194500Y-59181000D01*
X160174815Y-59248039D01*
X160122011Y-59293794D01*
X160070500Y-59305000D01*
X159045001Y-59305000D01*
X159045001Y-59328322D01*
X159055144Y-59427607D01*
X159108452Y-59588481D01*
X159108457Y-59588492D01*
X159197424Y-59732728D01*
X159197427Y-59732732D01*
X159206660Y-59741965D01*
X159240145Y-59803288D01*
X159235161Y-59872980D01*
X159206663Y-59917324D01*
X159197033Y-59926953D01*
X159197029Y-59926959D01*
X159108001Y-60071294D01*
X159107996Y-60071305D01*
X159054651Y-60232290D01*
X159044500Y-60331647D01*
X159044500Y-60878337D01*
X159044501Y-60878355D01*
X159054650Y-60977707D01*
X159054651Y-60977710D01*
X159107996Y-61138694D01*
X159108001Y-61138705D01*
X159197029Y-61283040D01*
X159197032Y-61283044D01*
X159316955Y-61402967D01*
X159316959Y-61402970D01*
X159461294Y-61491998D01*
X159461297Y-61491999D01*
X159461303Y-61492003D01*
X159622292Y-61545349D01*
X159721655Y-61555500D01*
X160318344Y-61555499D01*
X160318352Y-61555498D01*
X160318355Y-61555498D01*
X160372760Y-61549940D01*
X160417708Y-61545349D01*
X160578697Y-61492003D01*
X160723044Y-61402968D01*
X160842968Y-61283044D01*
X160932003Y-61138697D01*
X160985349Y-60977708D01*
X160995500Y-60878345D01*
X160995499Y-60565451D01*
X161015183Y-60498413D01*
X161031813Y-60477776D01*
X161203788Y-60305801D01*
X161216042Y-60295986D01*
X161215859Y-60295764D01*
X161221866Y-60290792D01*
X161221877Y-60290786D01*
X161252775Y-60257882D01*
X161269227Y-60240364D01*
X161279671Y-60229918D01*
X161290120Y-60219471D01*
X161294379Y-60213978D01*
X161298152Y-60209561D01*
X161330062Y-60175582D01*
X161339715Y-60158020D01*
X161350389Y-60141770D01*
X161362673Y-60125936D01*
X161381180Y-60083167D01*
X161383749Y-60077924D01*
X161406196Y-60037093D01*
X161406197Y-60037092D01*
X161411177Y-60017691D01*
X161417478Y-59999288D01*
X161425438Y-59980896D01*
X161432730Y-59934849D01*
X161433911Y-59929152D01*
X161434475Y-59926956D01*
X161445500Y-59884019D01*
X161445500Y-59863983D01*
X161447027Y-59844582D01*
X161450160Y-59824804D01*
X161445775Y-59778415D01*
X161445500Y-59772577D01*
X161445500Y-54705242D01*
X161447224Y-54689622D01*
X161446939Y-54689596D01*
X161447671Y-54681840D01*
X161447673Y-54681833D01*
X161445500Y-54612685D01*
X161445500Y-54583150D01*
X161444631Y-54576272D01*
X161444172Y-54570443D01*
X161442709Y-54523872D01*
X161437122Y-54504644D01*
X161433174Y-54485584D01*
X161430664Y-54465708D01*
X161430663Y-54465706D01*
X161430663Y-54465704D01*
X161413512Y-54422387D01*
X161411619Y-54416858D01*
X161398618Y-54372109D01*
X161398616Y-54372106D01*
X161388423Y-54354871D01*
X161379861Y-54337394D01*
X161372487Y-54318770D01*
X161372486Y-54318768D01*
X161345079Y-54281045D01*
X161341888Y-54276186D01*
X161340829Y-54274396D01*
X161318170Y-54236080D01*
X161318168Y-54236078D01*
X161318165Y-54236074D01*
X161304006Y-54221915D01*
X161291368Y-54207119D01*
X161279594Y-54190913D01*
X161257388Y-54172543D01*
X161243688Y-54161209D01*
X161239376Y-54157286D01*
X161031819Y-53949728D01*
X160998334Y-53888405D01*
X160995500Y-53862047D01*
X160995500Y-53782952D01*
X161015185Y-53715913D01*
X161031819Y-53695271D01*
X161287946Y-53439144D01*
X161546788Y-53180301D01*
X161559042Y-53170486D01*
X161558859Y-53170264D01*
X161564866Y-53165292D01*
X161564877Y-53165286D01*
X161595775Y-53132382D01*
X161612227Y-53114864D01*
X161622671Y-53104418D01*
X161633120Y-53093971D01*
X161637379Y-53088478D01*
X161641152Y-53084061D01*
X161673062Y-53050082D01*
X161682713Y-53032524D01*
X161693396Y-53016261D01*
X161705673Y-53000436D01*
X161724185Y-52957653D01*
X161726738Y-52952441D01*
X161749197Y-52911592D01*
X161754180Y-52892180D01*
X161760481Y-52873780D01*
X161768437Y-52855396D01*
X161775729Y-52809352D01*
X161776906Y-52803671D01*
X161788500Y-52758519D01*
X161788500Y-52738483D01*
X161790027Y-52719082D01*
X161790919Y-52713450D01*
X161793160Y-52699304D01*
X161788775Y-52652915D01*
X161788500Y-52647077D01*
X161788500Y-45802742D01*
X161790224Y-45787122D01*
X161789939Y-45787096D01*
X161790671Y-45779340D01*
X161790673Y-45779333D01*
X161788500Y-45710185D01*
X161788500Y-45680650D01*
X161787631Y-45673772D01*
X161787172Y-45667943D01*
X161785709Y-45621372D01*
X161780122Y-45602144D01*
X161776174Y-45583084D01*
X161776098Y-45582483D01*
X161773664Y-45563208D01*
X161773663Y-45563206D01*
X161773663Y-45563204D01*
X161756512Y-45519887D01*
X161754619Y-45514358D01*
X161741618Y-45469609D01*
X161741616Y-45469606D01*
X161731423Y-45452371D01*
X161722861Y-45434894D01*
X161715487Y-45416270D01*
X161715486Y-45416268D01*
X161688079Y-45378545D01*
X161684888Y-45373686D01*
X161661172Y-45333583D01*
X161661165Y-45333574D01*
X161647006Y-45319415D01*
X161634368Y-45304619D01*
X161622594Y-45288413D01*
X161586688Y-45258709D01*
X161582376Y-45254786D01*
X160418803Y-44091212D01*
X160408980Y-44078950D01*
X160408759Y-44079134D01*
X160403786Y-44073123D01*
X160395136Y-44065000D01*
X160353364Y-44025773D01*
X160340311Y-44012720D01*
X160332475Y-44004883D01*
X160326986Y-44000625D01*
X160322561Y-43996847D01*
X160288582Y-43964938D01*
X160288580Y-43964936D01*
X160288577Y-43964935D01*
X160271029Y-43955288D01*
X160254763Y-43944604D01*
X160238933Y-43932325D01*
X160196168Y-43913818D01*
X160190922Y-43911248D01*
X160150093Y-43888803D01*
X160150092Y-43888802D01*
X160130693Y-43883822D01*
X160112281Y-43877518D01*
X160093898Y-43869562D01*
X160093892Y-43869560D01*
X160047874Y-43862272D01*
X160042152Y-43861087D01*
X159997021Y-43849500D01*
X159989282Y-43848523D01*
X159989707Y-43845156D01*
X159937460Y-43829815D01*
X159891705Y-43777011D01*
X159880499Y-43725500D01*
X159880499Y-43427129D01*
X159880498Y-43427123D01*
X159880497Y-43427116D01*
X159874091Y-43367517D01*
X159867148Y-43348903D01*
X159823797Y-43232671D01*
X159823793Y-43232664D01*
X159737547Y-43117455D01*
X159737544Y-43117452D01*
X159622335Y-43031206D01*
X159622328Y-43031202D01*
X159487482Y-42980908D01*
X159487483Y-42980908D01*
X159427883Y-42974501D01*
X159427881Y-42974500D01*
X159427873Y-42974500D01*
X159427864Y-42974500D01*
X155532129Y-42974500D01*
X155532123Y-42974501D01*
X155472516Y-42980908D01*
X155337671Y-43031202D01*
X155337664Y-43031206D01*
X155222455Y-43117452D01*
X155222452Y-43117455D01*
X155136206Y-43232664D01*
X155136202Y-43232671D01*
X155085908Y-43367517D01*
X155079501Y-43427116D01*
X155079501Y-43427123D01*
X155079500Y-43427135D01*
X155079500Y-45522870D01*
X135917301Y-45522870D01*
X135953186Y-45497742D01*
X135953187Y-45497740D01*
X135282448Y-44827000D01*
X135286569Y-44827000D01*
X135380421Y-44811339D01*
X135492251Y-44750820D01*
X135578371Y-44657269D01*
X135629448Y-44540823D01*
X135635105Y-44472552D01*
X136306740Y-45144187D01*
X136306742Y-45144186D01*
X136352093Y-45079420D01*
X136352100Y-45079408D01*
X136445419Y-44879284D01*
X136445424Y-44879270D01*
X136502573Y-44665986D01*
X136502575Y-44665976D01*
X136521821Y-44446000D01*
X136521821Y-44445999D01*
X136502575Y-44226023D01*
X136502573Y-44226013D01*
X136445424Y-44012729D01*
X136445420Y-44012720D01*
X136352098Y-43812590D01*
X136306740Y-43747811D01*
X135639903Y-44414648D01*
X135639949Y-44414102D01*
X135608734Y-44290838D01*
X135539187Y-44184388D01*
X135438843Y-44106287D01*
X135318578Y-44065000D01*
X135282447Y-44065000D01*
X135953187Y-43394258D01*
X135888409Y-43348900D01*
X135888407Y-43348899D01*
X135759219Y-43288658D01*
X135706779Y-43242486D01*
X135687627Y-43175293D01*
X135707843Y-43108411D01*
X135759219Y-43063894D01*
X135888662Y-43003534D01*
X136069620Y-42876826D01*
X136225826Y-42720620D01*
X136352534Y-42539662D01*
X136445894Y-42339450D01*
X136503070Y-42126068D01*
X136522323Y-41906000D01*
X136503070Y-41685932D01*
X136445894Y-41472550D01*
X136352534Y-41272339D01*
X136282276Y-41172000D01*
X136225827Y-41091381D01*
X136162112Y-41027666D01*
X136069620Y-40935174D01*
X136069616Y-40935171D01*
X136069615Y-40935170D01*
X135888666Y-40808468D01*
X135888662Y-40808466D01*
X135835855Y-40783842D01*
X135688450Y-40715106D01*
X135688447Y-40715105D01*
X135688445Y-40715104D01*
X135475070Y-40657930D01*
X135475062Y-40657929D01*
X135255002Y-40638677D01*
X135254998Y-40638677D01*
X135034937Y-40657929D01*
X135034929Y-40657930D01*
X134821554Y-40715104D01*
X134821548Y-40715107D01*
X134621340Y-40808465D01*
X134621338Y-40808466D01*
X134440377Y-40935175D01*
X134284175Y-41091377D01*
X134157466Y-41272338D01*
X134157465Y-41272340D01*
X134064107Y-41472548D01*
X134064104Y-41472554D01*
X134006930Y-41685929D01*
X134006929Y-41685937D01*
X133987677Y-41905997D01*
X133987677Y-41906002D01*
X134006929Y-42126062D01*
X134006930Y-42126070D01*
X134064104Y-42339445D01*
X134064105Y-42339447D01*
X134064106Y-42339450D01*
X134157466Y-42539662D01*
X134157468Y-42539666D01*
X134284170Y-42720615D01*
X134284175Y-42720621D01*
X134440378Y-42876824D01*
X134440384Y-42876829D01*
X134621333Y-43003531D01*
X134621335Y-43003532D01*
X134621338Y-43003534D01*
X134750781Y-43063894D01*
X134803220Y-43110066D01*
X134822372Y-43177260D01*
X134802156Y-43244141D01*
X134750781Y-43288658D01*
X134621586Y-43348903D01*
X134556812Y-43394257D01*
X134556811Y-43394258D01*
X135227554Y-44065000D01*
X135223431Y-44065000D01*
X135129579Y-44080661D01*
X135017749Y-44141180D01*
X134931629Y-44234731D01*
X134880552Y-44351177D01*
X134874894Y-44419447D01*
X134203258Y-43747811D01*
X134203257Y-43747812D01*
X134157903Y-43812586D01*
X134064579Y-44012720D01*
X134064575Y-44012729D01*
X134007426Y-44226013D01*
X134007424Y-44226023D01*
X133988179Y-44445999D01*
X133988179Y-44446000D01*
X134007424Y-44665976D01*
X134007426Y-44665986D01*
X134064575Y-44879270D01*
X134064580Y-44879284D01*
X134157899Y-45079407D01*
X134157900Y-45079409D01*
X134203258Y-45144187D01*
X134870096Y-44477349D01*
X134870051Y-44477898D01*
X134901266Y-44601162D01*
X134970813Y-44707612D01*
X135071157Y-44785713D01*
X135191422Y-44827000D01*
X135227553Y-44827000D01*
X134556811Y-45497741D01*
X134621582Y-45543094D01*
X134621588Y-45543098D01*
X134750781Y-45603342D01*
X134803220Y-45649514D01*
X134822372Y-45716708D01*
X134802156Y-45783589D01*
X134750781Y-45828106D01*
X134621340Y-45888465D01*
X134621338Y-45888466D01*
X134440377Y-46015175D01*
X134284175Y-46171377D01*
X134157466Y-46352338D01*
X134157465Y-46352340D01*
X134064107Y-46552548D01*
X134064104Y-46552554D01*
X134006930Y-46765929D01*
X134006929Y-46765937D01*
X133987677Y-46985997D01*
X133987677Y-46986002D01*
X134006929Y-47206062D01*
X134006930Y-47206070D01*
X134064104Y-47419445D01*
X134064105Y-47419447D01*
X134064106Y-47419450D01*
X134157466Y-47619662D01*
X134157468Y-47619666D01*
X134284170Y-47800615D01*
X134284175Y-47800621D01*
X134440378Y-47956824D01*
X134440384Y-47956829D01*
X134621333Y-48083531D01*
X134621335Y-48083532D01*
X134621338Y-48083534D01*
X134740748Y-48139215D01*
X134750189Y-48143618D01*
X134802628Y-48189790D01*
X134821780Y-48256984D01*
X134801564Y-48323865D01*
X134750189Y-48368382D01*
X134621340Y-48428465D01*
X134621338Y-48428466D01*
X134440377Y-48555175D01*
X134284175Y-48711377D01*
X134157466Y-48892338D01*
X134157465Y-48892340D01*
X134064107Y-49092548D01*
X134064104Y-49092554D01*
X134006930Y-49305929D01*
X134006929Y-49305937D01*
X133987677Y-49525997D01*
X133987677Y-49526002D01*
X134006929Y-49746062D01*
X134006930Y-49746070D01*
X134064104Y-49959445D01*
X134064105Y-49959447D01*
X134064106Y-49959450D01*
X134075412Y-49983695D01*
X134082127Y-49998097D01*
X134092618Y-50067174D01*
X134064097Y-50130958D01*
X134005620Y-50169197D01*
X133969744Y-50174500D01*
X111140256Y-50174500D01*
X111073217Y-50154815D01*
X111027462Y-50102011D01*
X111017518Y-50032853D01*
X111027873Y-49998097D01*
X111030959Y-49991477D01*
X111045894Y-49959450D01*
X111103070Y-49746068D01*
X111122323Y-49526000D01*
X111103070Y-49305932D01*
X111045894Y-49092550D01*
X110952534Y-48892339D01*
X110856521Y-48755217D01*
X110825827Y-48711381D01*
X110825823Y-48711377D01*
X110669620Y-48555174D01*
X110669616Y-48555171D01*
X110669615Y-48555170D01*
X110488666Y-48428468D01*
X110488658Y-48428464D01*
X110359811Y-48368382D01*
X110307371Y-48322210D01*
X110288219Y-48255017D01*
X110308435Y-48188135D01*
X110359811Y-48143618D01*
X110365802Y-48140824D01*
X110488662Y-48083534D01*
X110669620Y-47956826D01*
X110825826Y-47800620D01*
X110952534Y-47619662D01*
X111045894Y-47419450D01*
X111103070Y-47206068D01*
X111122323Y-46986000D01*
X111103070Y-46765932D01*
X111045894Y-46552550D01*
X110952534Y-46352339D01*
X110825826Y-46171380D01*
X110669620Y-46015174D01*
X110669616Y-46015171D01*
X110669615Y-46015170D01*
X110488666Y-45888468D01*
X110488658Y-45888464D01*
X110359219Y-45828106D01*
X110306779Y-45781934D01*
X110287627Y-45714741D01*
X110307843Y-45647859D01*
X110359219Y-45603342D01*
X110488408Y-45543100D01*
X110488420Y-45543093D01*
X110553186Y-45497742D01*
X110553187Y-45497740D01*
X109882448Y-44827000D01*
X109886569Y-44827000D01*
X109980421Y-44811339D01*
X110092251Y-44750820D01*
X110178371Y-44657269D01*
X110229448Y-44540823D01*
X110235105Y-44472552D01*
X110906740Y-45144187D01*
X110906742Y-45144186D01*
X110952093Y-45079420D01*
X110952100Y-45079408D01*
X111045419Y-44879284D01*
X111045424Y-44879270D01*
X111102573Y-44665986D01*
X111102575Y-44665976D01*
X111121821Y-44446000D01*
X111121821Y-44445999D01*
X111102575Y-44226023D01*
X111102573Y-44226013D01*
X111045424Y-44012729D01*
X111045420Y-44012720D01*
X110952098Y-43812590D01*
X110906740Y-43747811D01*
X110239903Y-44414648D01*
X110239949Y-44414102D01*
X110208734Y-44290838D01*
X110139187Y-44184388D01*
X110038843Y-44106287D01*
X109918578Y-44065000D01*
X109882447Y-44065000D01*
X110553187Y-43394258D01*
X110488409Y-43348900D01*
X110488407Y-43348899D01*
X110359219Y-43288658D01*
X110306779Y-43242486D01*
X110287627Y-43175293D01*
X110307843Y-43108411D01*
X110359219Y-43063894D01*
X110488662Y-43003534D01*
X110669620Y-42876826D01*
X110825826Y-42720620D01*
X110952534Y-42539662D01*
X111045894Y-42339450D01*
X111103070Y-42126068D01*
X111122323Y-41906000D01*
X111103070Y-41685932D01*
X111045894Y-41472550D01*
X110952534Y-41272339D01*
X110882276Y-41172000D01*
X110825827Y-41091381D01*
X110762112Y-41027666D01*
X110669620Y-40935174D01*
X110669616Y-40935171D01*
X110669615Y-40935170D01*
X110488666Y-40808468D01*
X110488662Y-40808466D01*
X110435855Y-40783842D01*
X110288450Y-40715106D01*
X110288447Y-40715105D01*
X110288445Y-40715104D01*
X110075070Y-40657930D01*
X110075062Y-40657929D01*
X109855002Y-40638677D01*
X109854998Y-40638677D01*
X109634937Y-40657929D01*
X109634929Y-40657930D01*
X109421554Y-40715104D01*
X109421548Y-40715107D01*
X109221340Y-40808465D01*
X109221338Y-40808466D01*
X109040381Y-40935172D01*
X109017543Y-40958011D01*
X108981371Y-40994182D01*
X108920051Y-41027666D01*
X108893692Y-41030500D01*
X79364424Y-41030500D01*
X79297385Y-41010815D01*
X79251630Y-40958011D01*
X79241686Y-40888853D01*
X79270711Y-40825297D01*
X79329489Y-40787523D01*
X79346229Y-40783842D01*
X79521308Y-40757870D01*
X79902549Y-40662374D01*
X80272559Y-40529983D01*
X80272575Y-40529976D01*
X80627864Y-40361937D01*
X80964958Y-40159890D01*
X81280632Y-39925770D01*
X81386376Y-39829929D01*
X80075455Y-38519008D01*
X80100010Y-38501676D01*
X80314969Y-38300918D01*
X80426895Y-38163342D01*
X81739929Y-39476376D01*
X81835770Y-39370632D01*
X82069890Y-39054958D01*
X82271937Y-38717864D01*
X82439976Y-38362575D01*
X82439983Y-38362559D01*
X82572374Y-37992549D01*
X82667870Y-37611308D01*
X82725538Y-37222550D01*
X82744823Y-36830000D01*
X153475176Y-36830000D01*
X153494461Y-37222550D01*
X153552129Y-37611308D01*
X153647625Y-37992549D01*
X153780016Y-38362559D01*
X153780023Y-38362575D01*
X153948062Y-38717864D01*
X154150109Y-39054958D01*
X154384228Y-39370632D01*
X154480068Y-39476376D01*
X154480069Y-39476376D01*
X155793104Y-38163341D01*
X155905031Y-38300918D01*
X156119990Y-38501676D01*
X156144543Y-38519008D01*
X154833622Y-39829929D01*
X154833622Y-39829930D01*
X154939367Y-39925771D01*
X155255041Y-40159890D01*
X155592135Y-40361937D01*
X155947424Y-40529976D01*
X155947440Y-40529983D01*
X156317450Y-40662374D01*
X156698691Y-40757870D01*
X157087449Y-40815538D01*
X157480000Y-40834823D01*
X157872550Y-40815538D01*
X158261308Y-40757870D01*
X158642549Y-40662374D01*
X159012559Y-40529983D01*
X159012575Y-40529976D01*
X159367864Y-40361937D01*
X159704958Y-40159890D01*
X160020632Y-39925770D01*
X160126376Y-39829929D01*
X158815455Y-38519008D01*
X158840010Y-38501676D01*
X159054969Y-38300918D01*
X159166895Y-38163342D01*
X160479929Y-39476376D01*
X160575770Y-39370632D01*
X160809890Y-39054958D01*
X161011937Y-38717864D01*
X161179976Y-38362575D01*
X161179983Y-38362559D01*
X161312374Y-37992549D01*
X161407870Y-37611308D01*
X161465538Y-37222550D01*
X161484823Y-36830000D01*
X161465538Y-36437449D01*
X161407870Y-36048691D01*
X161312374Y-35667450D01*
X161179983Y-35297440D01*
X161179976Y-35297424D01*
X161011937Y-34942135D01*
X160809890Y-34605041D01*
X160575771Y-34289367D01*
X160479930Y-34183622D01*
X160479929Y-34183622D01*
X159166894Y-35496656D01*
X159054969Y-35359082D01*
X158840010Y-35158324D01*
X158815455Y-35140991D01*
X160126376Y-33830069D01*
X160126376Y-33830068D01*
X160020632Y-33734228D01*
X159704958Y-33500109D01*
X159367864Y-33298062D01*
X159012575Y-33130023D01*
X159012559Y-33130016D01*
X158642549Y-32997625D01*
X158261308Y-32902129D01*
X157872550Y-32844461D01*
X157480000Y-32825176D01*
X157087449Y-32844461D01*
X156698691Y-32902129D01*
X156317450Y-32997625D01*
X155947440Y-33130016D01*
X155947424Y-33130023D01*
X155592135Y-33298062D01*
X155255041Y-33500109D01*
X154939368Y-33734228D01*
X154833622Y-33830069D01*
X156144544Y-35140991D01*
X156119990Y-35158324D01*
X155905031Y-35359082D01*
X155793104Y-35496657D01*
X154480069Y-34183622D01*
X154384228Y-34289368D01*
X154150109Y-34605041D01*
X153948062Y-34942135D01*
X153780023Y-35297424D01*
X153780016Y-35297440D01*
X153647625Y-35667450D01*
X153552129Y-36048691D01*
X153494461Y-36437449D01*
X153475176Y-36830000D01*
X82744823Y-36830000D01*
X82725538Y-36437449D01*
X82667870Y-36048691D01*
X82572374Y-35667450D01*
X82439983Y-35297440D01*
X82439976Y-35297424D01*
X82271937Y-34942135D01*
X82069890Y-34605041D01*
X81835771Y-34289367D01*
X81739930Y-34183622D01*
X81739929Y-34183622D01*
X80426894Y-35496656D01*
X80314969Y-35359082D01*
X80100010Y-35158324D01*
X80075455Y-35140991D01*
X81386376Y-33830069D01*
X81386376Y-33830068D01*
X81280632Y-33734228D01*
X80964958Y-33500109D01*
X80627864Y-33298062D01*
X80272575Y-33130023D01*
X80272559Y-33130016D01*
X79902549Y-32997625D01*
X79521308Y-32902129D01*
X79132550Y-32844461D01*
X78740000Y-32825176D01*
X78347449Y-32844461D01*
X77958691Y-32902129D01*
X77577450Y-32997625D01*
X77207440Y-33130016D01*
X77207424Y-33130023D01*
X76852135Y-33298062D01*
X76515041Y-33500109D01*
X76199368Y-33734228D01*
X76093622Y-33830069D01*
X77404544Y-35140991D01*
X77379990Y-35158324D01*
X77165031Y-35359082D01*
X77053104Y-35496657D01*
X75740069Y-34183622D01*
X75644228Y-34289368D01*
X75410109Y-34605041D01*
X75208062Y-34942135D01*
X75040023Y-35297424D01*
X75040016Y-35297440D01*
X74907625Y-35667450D01*
X74812129Y-36048691D01*
X74754461Y-36437449D01*
X74735176Y-36830000D01*
X73660500Y-36830000D01*
X73669501Y-36612364D01*
X73678457Y-36407263D01*
X73678869Y-36402349D01*
X73706056Y-36184247D01*
X73733059Y-35979141D01*
X73733835Y-35974588D01*
X73778904Y-35759646D01*
X73823768Y-35557278D01*
X73824865Y-35553044D01*
X73887533Y-35342549D01*
X73901761Y-35297424D01*
X73949945Y-35144602D01*
X73951270Y-35140838D01*
X74031169Y-34936075D01*
X74110640Y-34744216D01*
X74112185Y-34740789D01*
X74208759Y-34543243D01*
X74304712Y-34358921D01*
X74306428Y-34355842D01*
X74419020Y-34166889D01*
X74530794Y-33991441D01*
X74532555Y-33988831D01*
X74660462Y-33809686D01*
X74787169Y-33644559D01*
X74788999Y-33642289D01*
X74931331Y-33474237D01*
X75072951Y-33319686D01*
X75229686Y-33162951D01*
X75384247Y-33021323D01*
X75552289Y-32878999D01*
X75554559Y-32877169D01*
X75719670Y-32750473D01*
X75898831Y-32622555D01*
X75901441Y-32620794D01*
X76076889Y-32509020D01*
X76265842Y-32396428D01*
X76268921Y-32394712D01*
X76453243Y-32298759D01*
X76650789Y-32202185D01*
X76654216Y-32200640D01*
X76846059Y-32121175D01*
X77050838Y-32041270D01*
X77054602Y-32039945D01*
X77235892Y-31982784D01*
X77252550Y-31977533D01*
X77278593Y-31969779D01*
X77463044Y-31914865D01*
X77467278Y-31913768D01*
X77669646Y-31868904D01*
X77884588Y-31823835D01*
X77889141Y-31823059D01*
X78094278Y-31796052D01*
X78312349Y-31768869D01*
X78317263Y-31768457D01*
X78522364Y-31759501D01*
X78740000Y-31750500D01*
X78740500Y-31750500D01*
X157479500Y-31750500D01*
X157480000Y-31750500D01*
X157697525Y-31759496D01*
G37*
G04 #@! TD.AperFunction*
M02*
