M48
; DRILL file {KiCad 7.0.9} date Sat 18 Nov 2023 03:00:14 AM
; FORMAT={-:-/ absolute / metric / decimal}
; #@! TF.CreationDate,2023-11-18T03:00:14-05:00
; #@! TF.GenerationSoftware,Kicad,Pcbnew,7.0.9
; #@! TF.FileFunction,Plated,1,2,PTH
FMAT,2
METRIC
; #@! TA.AperFunction,Plated,PTH,ViaDrill
T1C0.400
; #@! TA.AperFunction,Plated,PTH,ComponentDrill
T2C0.762
; #@! TA.AperFunction,Plated,PTH,ComponentDrill
T3C1.000
; #@! TA.AperFunction,Plated,PTH,ComponentDrill
T4C1.020
; #@! TA.AperFunction,Plated,PTH,ComponentDrill
T5C1.100
; #@! TA.AperFunction,Plated,PTH,ComponentDrill
T6C4.300
%
G90
G05
T1
X81.915Y-69.85
X139.827Y-70.612
X140.335Y-76.708
X142.113Y-76.708
X143.129Y-80.518
X144.399Y-73.914
X144.907Y-82.296
X145.669Y-73.914
X147.447Y-63.246
X147.701Y-82.296
X149.479Y-75.692
X150.241Y-71.882
X153.543Y-55.372
X157.353Y-52.578
X157.555Y-61.976
X160.274Y-52.544
T2
X85.217Y-75.822
X87.757Y-75.822
X89.535Y-71.596
X90.297Y-75.822
X92.075Y-71.596
X92.837Y-75.822
X94.615Y-71.596
X95.377Y-75.822
X97.155Y-71.596
X97.917Y-75.822
X99.695Y-71.596
X100.457Y-75.822
X102.235Y-71.596
X102.997Y-75.822
X109.855Y-41.906
X109.855Y-44.446
X109.855Y-46.986
X109.855Y-49.526
X109.855Y-52.066
X109.855Y-54.606
X109.855Y-57.146
X109.855Y-59.686
X109.855Y-62.226
X109.855Y-64.766
X109.855Y-67.306
X109.855Y-69.846
X109.855Y-72.386
X109.855Y-74.926
X109.855Y-77.466
X135.255Y-41.906
X135.255Y-44.446
X135.255Y-46.986
X135.255Y-49.526
X135.255Y-52.066
X135.255Y-54.606
X135.255Y-57.146
X135.255Y-59.686
X135.255Y-62.226
X135.255Y-64.766
X135.255Y-67.306
X135.255Y-69.846
X135.255Y-72.386
X135.255Y-74.926
X135.255Y-77.466
X141.097Y-69.322
X141.097Y-71.862
X143.637Y-69.322
X143.637Y-71.862
X146.177Y-69.322
X146.177Y-71.862
X148.717Y-69.322
X148.717Y-71.862
T3
X106.299Y-80.772
X106.299Y-83.312
X106.299Y-85.852
X106.299Y-88.392
X157.48Y-67.305
X157.48Y-69.845
X157.48Y-74.925
X157.48Y-77.465
T4
X78.16Y-58.31
X78.16Y-61.31
X78.16Y-64.31
X141.78Y-86.36
X144.78Y-86.36
X147.78Y-86.36
T5
X77.415Y-43.18
X77.415Y-49.68
X77.47Y-72.875
X77.47Y-79.375
X81.915Y-43.18
X81.915Y-49.68
X81.97Y-72.875
X81.97Y-79.375
T6
X78.74Y-36.83
X78.74Y-85.725
X157.48Y-36.83
X157.48Y-85.725
T0
M30
